<svg width="1440" height="762" viewBox="0 0 1440 762" fill="none" xmlns="http://www.w3.org/2000/svg">
<path opacity="0.15" fill-rule="evenodd" clip-rule="evenodd" d="M1526 1840C1853.5 1840 2119 1574.5 2119 1247C2119 919.495 1853.5 654 1526 654C1198.5 654 933 919.495 933 1247C933 1574.5 1198.5 1840 1526 1840ZM1526 1640C1308.95 1640 1133 1464.05 1133 1247C1133 1029.95 1308.95 854 1526 854C1743.05 854 1919 1029.95 1919 1247C1919 1464.05 1743.05 1640 1526 1640Z" fill="url(#paint0_linear_661_13216)"/>
<path opacity="0.15" fill-rule="evenodd" clip-rule="evenodd" d="M-44 510C283.505 510 549 244.505 549 -83C549 -410.505 283.505 -676 -44 -676C-371.505 -676 -637 -410.505 -637 -83C-637 244.505 -371.505 510 -44 510ZM-24 990C303.505 990 569 724.505 569 397C569 69.4951 303.505 -196 -24 -196C-351.505 -196 -617 69.4951 -617 397C-617 724.505 -351.505 990 -24 990ZM-44 310C-261.048 310 -437 134.048 -437 -83C-437 -300.048 -261.048 -476 -44 -476C173.048 -476 349 -300.048 349 -83C349 134.048 173.048 310 -44 310Z" fill="url(#paint1_linear_661_13216)"/>
<defs>
<linearGradient id="paint0_linear_661_13216" x1="2119" y1="655.581" x2="936.162" y2="655.581" gradientUnits="userSpaceOnUse">
<stop stop-color="white" stop-opacity="0.01"/>
<stop offset="1" stop-color="white"/>
</linearGradient>
<linearGradient id="paint1_linear_661_13216" x1="549" y1="-674.419" x2="-633.838" y2="-674.419" gradientUnits="userSpaceOnUse">
<stop stop-color="white" stop-opacity="0.01"/>
<stop offset="1" stop-color="white"/>
</linearGradient>
</defs>
</svg>
