<svg width="854" height="1143" viewBox="0 0 854 1143" fill="none" xmlns="http://www.w3.org/2000/svg">
<path id="Oval" opacity="0.15" fill-rule="evenodd" clip-rule="evenodd" d="M-66 765C425.257 765 823.5 366.757 823.5 -124.5C823.5 -615.757 425.257 -1014 -66 -1014C-557.257 -1014 -955.5 -615.757 -955.5 -124.5C-955.5 366.757 -557.257 765 -66 765ZM-36 1485C455.257 1485 853.5 1086.76 853.5 595.5C853.5 104.243 455.257 -294 -36 -294C-527.257 -294 -925.5 104.243 -925.5 595.5C-925.5 1086.76 -527.257 1485 -36 1485ZM-66 465C-391.572 465 -655.5 201.072 -655.5 -124.5C-655.5 -450.072 -391.572 -714 -66 -714C259.572 -714 523.5 -450.072 523.5 -124.5C523.5 201.072 259.572 465 -66 465Z" fill="url(#paint0_linear_446_5865)"/>
<defs>
<linearGradient id="paint0_linear_446_5865" x1="823.5" y1="-1011.63" x2="-950.758" y2="-1011.63" gradientUnits="userSpaceOnUse">
<stop stop-color="white" stop-opacity="0.01"/>
<stop offset="1" stop-color="white"/>
</linearGradient>
</defs>
</svg>
