<svg width="139" height="49" viewBox="0 0 139 49" fill="none" xmlns="http://www.w3.org/2000/svg">
<rect width="139" height="49" rx="7.11889" fill="#76448A"/>
<path d="M27.0505 14C27.0973 14 27.144 14 27.1934 14C27.308 15.4162 26.7675 16.4744 26.1105 17.2408C25.4659 18.0018 24.5831 18.7399 23.1554 18.6279C23.0602 17.2319 23.6017 16.2522 24.2577 15.4877C24.8662 14.7751 25.9817 14.1411 27.0505 14Z" fill="white"/>
<path d="M31.3722 28.7407C31.3722 28.7549 31.3722 28.7672 31.3722 28.7804C30.971 29.9956 30.3987 31.0371 29.7003 32.0036C29.0627 32.881 28.2814 34.0618 26.8863 34.0618C25.6808 34.0618 24.8801 33.2866 23.6447 33.2655C22.3378 33.2443 21.6191 33.9136 20.4242 34.082C20.2875 34.082 20.1508 34.082 20.0168 34.082C19.1394 33.9551 18.4312 33.2602 17.9154 32.6341C16.3942 30.784 15.2187 28.3942 15 25.336C15 25.0361 15 24.7372 15 24.4374C15.0926 22.2486 16.1561 20.4691 17.5697 19.6066C18.3157 19.1481 19.3413 18.7574 20.4833 18.932C20.9727 19.0079 21.4727 19.1754 21.911 19.3412C22.3263 19.5008 22.8457 19.7839 23.3378 19.7689C23.6711 19.7592 24.0027 19.5855 24.3387 19.4629C25.3228 19.1075 26.2876 18.7001 27.5592 18.8915C29.0874 19.1225 30.1721 19.8015 30.8423 20.8492C29.5495 21.6719 28.5274 22.9118 28.702 25.0291C28.8572 26.9524 29.9754 28.0776 31.3722 28.7407Z" fill="white"/>
<path d="M46.06 19H43.78V12.33H46.06C48.14 12.33 49.48 13.78 49.48 15.67C49.48 17.57 48.14 19 46.06 19ZM46.06 18.26C47.68 18.26 48.62 17.1 48.62 15.67C48.62 14.23 47.71 13.07 46.06 13.07H44.61V18.26H46.06ZM52.862 19.12C51.392 19.12 50.472 17.98 50.472 16.58C50.472 15.18 51.392 14.05 52.862 14.05C54.332 14.05 55.252 15.18 55.252 16.58C55.252 17.98 54.332 19.12 52.862 19.12ZM52.862 18.45C53.892 18.45 54.462 17.57 54.462 16.58C54.462 15.6 53.892 14.72 52.862 14.72C51.832 14.72 51.262 15.6 51.262 16.58C51.262 17.57 51.832 18.45 52.862 18.45ZM61.4146 19H60.6546L59.3946 15.12L58.1346 19H57.3846L55.8446 14.17H56.6246L57.8046 18.02L59.0746 14.17H59.7246L60.9846 18.02L62.1646 14.17H62.9546L61.4146 19ZM67.8284 19H67.0884V15.84C67.0884 14.98 66.6484 14.72 65.9984 14.72C65.4084 14.72 64.8584 15.08 64.5684 15.47V19H63.8184V14.17H64.5684V14.87C64.9084 14.46 65.5684 14.05 66.2984 14.05C67.2984 14.05 67.8284 14.56 67.8284 15.61V19ZM70.0859 19H69.3359V12.33H70.0859V19ZM73.692 19.12C72.222 19.12 71.302 17.98 71.302 16.58C71.302 15.18 72.222 14.05 73.692 14.05C75.162 14.05 76.082 15.18 76.082 16.58C76.082 17.98 75.162 19.12 73.692 19.12ZM73.692 18.45C74.722 18.45 75.292 17.57 75.292 16.58C75.292 15.6 74.722 14.72 73.692 14.72C72.662 14.72 72.092 15.6 72.092 16.58C72.092 17.57 72.662 18.45 73.692 18.45ZM81.0747 19H80.3247V18.45C79.9347 18.89 79.3747 19.12 78.7247 19.12C77.9147 19.12 77.0447 18.57 77.0447 17.52C77.0447 16.43 77.9047 15.93 78.7247 15.93C79.3847 15.93 79.9347 16.14 80.3247 16.58V15.71C80.3247 15.07 79.8047 14.7 79.1047 14.7C78.5247 14.7 78.0547 14.9 77.6247 15.37L77.2747 14.85C77.7947 14.31 78.4147 14.05 79.2047 14.05C80.2347 14.05 81.0747 14.51 81.0747 15.68V19ZM79.0047 18.58C79.5247 18.58 80.0347 18.38 80.3247 17.98V17.06C80.0347 16.67 79.5247 16.47 79.0047 16.47C78.2947 16.47 77.8047 16.91 77.8047 17.52C77.8047 18.14 78.2947 18.58 79.0047 18.58ZM86.8379 19H86.0879V18.28C85.7279 18.77 85.1379 19.12 84.4579 19.12C83.1979 19.12 82.3079 18.16 82.3079 16.59C82.3079 15.04 83.1979 14.05 84.4579 14.05C85.1079 14.05 85.6979 14.37 86.0879 14.9V12.33H86.8379V19ZM84.6479 18.45C85.2379 18.45 85.8279 18.1 86.0879 17.68V15.5C85.8279 15.08 85.2379 14.72 84.6479 14.72C83.6679 14.72 83.0879 15.52 83.0879 16.59C83.0879 17.66 83.6679 18.45 84.6479 18.45ZM93.0377 19.12C91.5677 19.12 90.6477 17.98 90.6477 16.58C90.6477 15.18 91.5677 14.05 93.0377 14.05C94.5077 14.05 95.4277 15.18 95.4277 16.58C95.4277 17.98 94.5077 19.12 93.0377 19.12ZM93.0377 18.45C94.0677 18.45 94.6377 17.57 94.6377 16.58C94.6377 15.6 94.0677 14.72 93.0377 14.72C92.0077 14.72 91.4377 15.6 91.4377 16.58C91.4377 17.57 92.0077 18.45 93.0377 18.45ZM100.66 19H99.9204V15.84C99.9204 14.98 99.4804 14.72 98.8304 14.72C98.2404 14.72 97.6904 15.08 97.4004 15.47V19H96.6504V14.17H97.4004V14.87C97.7404 14.46 98.4004 14.05 99.1304 14.05C100.13 14.05 100.66 14.56 100.66 15.61V19ZM105.986 19.12C105.266 19.12 104.906 18.71 104.906 17.99V14.83H104.106V14.17H104.906V12.85H105.666V14.17H106.646V14.83H105.666V17.83C105.666 18.19 105.826 18.45 106.146 18.45C106.366 18.45 106.556 18.35 106.656 18.24L106.876 18.81C106.686 18.99 106.416 19.12 105.986 19.12ZM111.715 19H110.965V15.82C110.965 14.96 110.535 14.72 109.875 14.72C109.295 14.72 108.735 15.08 108.455 15.47V19H107.705V12.33H108.455V14.87C108.785 14.46 109.445 14.05 110.175 14.05C111.185 14.05 111.715 14.54 111.715 15.59V19ZM115.403 19.12C113.963 19.12 112.933 18.09 112.933 16.58C112.933 15.18 113.933 14.05 115.313 14.05C116.773 14.05 117.633 15.19 117.633 16.64V16.83H113.733C113.793 17.74 114.423 18.5 115.463 18.5C116.023 18.5 116.573 18.28 116.963 17.88L117.323 18.37C116.833 18.85 116.183 19.12 115.403 19.12ZM116.893 16.27C116.883 15.56 116.403 14.67 115.303 14.67C114.273 14.67 113.763 15.54 113.723 16.27H116.893Z" fill="white"/>
<path d="M51.3326 34L48.1886 25.996H46.4366L43.2926 34H44.8886L45.4766 32.452H49.1486L49.7366 34H51.3326ZM48.7526 31.216H45.8726L47.3126 27.4L48.7526 31.216ZM55.2788 34.144C56.7788 34.144 57.8468 33.004 57.8468 31.096C57.8468 29.188 56.7788 28.06 55.2788 28.06C54.5228 28.06 53.8508 28.42 53.4188 28.996V28.204H52.1588V36.208H53.4188V33.196C53.8988 33.808 54.5468 34.144 55.2788 34.144ZM54.9068 33.028C54.3188 33.028 53.6948 32.668 53.4188 32.236V29.944C53.7068 29.512 54.3188 29.176 54.9068 29.176C55.9028 29.176 56.5508 29.968 56.5508 31.096C56.5508 32.224 55.9028 33.028 54.9068 33.028ZM62.228 34.144C63.728 34.144 64.796 33.004 64.796 31.096C64.796 29.188 63.728 28.06 62.228 28.06C61.472 28.06 60.8 28.42 60.368 28.996V28.204H59.108V36.208H60.368V33.196C60.848 33.808 61.496 34.144 62.228 34.144ZM61.856 33.028C61.268 33.028 60.644 32.668 60.368 32.236V29.944C60.656 29.512 61.268 29.176 61.856 29.176C62.852 29.176 63.5 29.968 63.5 31.096C63.5 32.224 62.852 33.028 61.856 33.028ZM67.3172 34V25.996H66.0572V34H67.3172ZM71.6397 34.144C72.5517 34.144 73.4037 33.844 73.9917 33.292L73.4157 32.464C72.9957 32.884 72.3357 33.112 71.7597 33.112C70.6677 33.112 70.0197 32.38 69.9237 31.516H74.3877V31.204C74.3877 29.38 73.2837 28.06 71.5437 28.06C69.8277 28.06 68.6037 29.416 68.6037 31.096C68.6037 32.932 69.8877 34.144 71.6397 34.144ZM73.1757 30.616H69.9117C69.9597 29.92 70.4637 29.092 71.5317 29.092C72.6717 29.092 73.1397 29.932 73.1757 30.616ZM81.5092 34.144C83.6572 34.144 84.6052 32.992 84.6052 31.66C84.6052 28.684 79.9492 29.608 79.9492 28.108C79.9492 27.52 80.4772 27.112 81.2932 27.112C82.1332 27.112 82.9852 27.4 83.6212 28.036L84.4132 26.992C83.6812 26.272 82.6612 25.864 81.4252 25.864C79.6612 25.864 78.5092 26.884 78.5092 28.216C78.5092 31.156 83.1652 30.112 83.1652 31.792C83.1652 32.332 82.7212 32.896 81.5692 32.896C80.4532 32.896 79.5772 32.368 79.0372 31.78L78.2452 32.872C78.9652 33.616 80.0332 34.144 81.5092 34.144ZM87.4264 34.144C88.0024 34.144 88.3744 33.976 88.6024 33.772L88.3024 32.812C88.2064 32.92 87.9904 33.028 87.7504 33.028C87.3904 33.028 87.1984 32.728 87.1984 32.332V29.296H88.3744V28.204H87.1984V26.62H85.9384V28.204H84.9784V29.296H85.9384V32.644C85.9384 33.616 86.4424 34.144 87.4264 34.144ZM92.1344 34.144C93.9824 34.144 95.1104 32.752 95.1104 31.096C95.1104 29.428 93.9824 28.06 92.1344 28.06C90.2864 28.06 89.1584 29.428 89.1584 31.096C89.1584 32.752 90.2864 34.144 92.1344 34.144ZM92.1344 33.028C91.0664 33.028 90.4664 32.128 90.4664 31.096C90.4664 30.076 91.0664 29.176 92.1344 29.176C93.2144 29.176 93.8024 30.076 93.8024 31.096C93.8024 32.128 93.2144 33.028 92.1344 33.028ZM97.6571 34V30.052C97.9091 29.632 98.6171 29.272 99.1571 29.272C99.3131 29.272 99.4331 29.284 99.5411 29.308V28.06C98.7971 28.06 98.1011 28.492 97.6571 29.044V28.204H96.3971V34H97.6571ZM103.245 34.144C104.157 34.144 105.009 33.844 105.597 33.292L105.021 32.464C104.601 32.884 103.941 33.112 103.365 33.112C102.273 33.112 101.625 32.38 101.529 31.516H105.993V31.204C105.993 29.38 104.889 28.06 103.149 28.06C101.433 28.06 100.209 29.416 100.209 31.096C100.209 32.932 101.493 34.144 103.245 34.144ZM104.781 30.616H101.517C101.565 29.92 102.069 29.092 103.137 29.092C104.277 29.092 104.745 29.932 104.781 30.616Z" fill="white"/>
</svg>
