<svg width="140" height="49" viewBox="0 0 140 49" fill="none" xmlns="http://www.w3.org/2000/svg">
<rect x="0.5" width="139" height="49" rx="7.11889" fill="white"/>
<path d="M27.5505 14C27.5973 14 27.644 14 27.6934 14C27.808 15.4162 27.2675 16.4744 26.6105 17.2408C25.9659 18.0018 25.0831 18.7399 23.6554 18.6279C23.5602 17.2319 24.1017 16.2522 24.7577 15.4877C25.3662 14.7751 26.4817 14.1411 27.5505 14Z" fill="#4F0072"/>
<path d="M31.8722 28.741C31.8722 28.7551 31.8722 28.7674 31.8722 28.7807C31.471 29.9958 30.8987 31.0373 30.2003 32.0038C29.5627 32.8812 28.7814 34.062 27.3863 34.062C26.1808 34.062 25.3801 33.2869 24.1447 33.2657C22.8378 33.2445 22.1191 33.9139 20.9242 34.0823C20.7875 34.0823 20.6508 34.0823 20.5168 34.0823C19.6394 33.9553 18.9312 33.2604 18.4154 32.6343C16.8942 30.7842 15.7187 28.3944 15.5 25.3362C15.5 25.0364 15.5 24.7374 15.5 24.4376C15.5926 22.2489 16.6561 20.4693 18.0697 19.6069C18.8157 19.1483 19.8413 18.7577 20.9833 18.9323C21.4727 19.0081 21.9727 19.1757 22.411 19.3415C22.8263 19.5011 23.3457 19.7841 23.8378 19.7691C24.1711 19.7594 24.5027 19.5857 24.8387 19.4632C25.8228 19.1078 26.7876 18.7004 28.0592 18.8917C29.5874 19.1228 30.6721 19.8018 31.3423 20.8494C30.0495 21.6722 29.0274 22.912 29.202 25.0293C29.3572 26.9526 30.4754 28.0778 31.8722 28.741Z" fill="#4F0072"/>
<path d="M46.56 19H44.28V12.33H46.56C48.64 12.33 49.98 13.78 49.98 15.67C49.98 17.57 48.64 19 46.56 19ZM46.56 18.26C48.18 18.26 49.12 17.1 49.12 15.67C49.12 14.23 48.21 13.07 46.56 13.07H45.11V18.26H46.56ZM53.362 19.12C51.892 19.12 50.972 17.98 50.972 16.58C50.972 15.18 51.892 14.05 53.362 14.05C54.832 14.05 55.752 15.18 55.752 16.58C55.752 17.98 54.832 19.12 53.362 19.12ZM53.362 18.45C54.392 18.45 54.962 17.57 54.962 16.58C54.962 15.6 54.392 14.72 53.362 14.72C52.332 14.72 51.762 15.6 51.762 16.58C51.762 17.57 52.332 18.45 53.362 18.45ZM61.9146 19H61.1546L59.8946 15.12L58.6346 19H57.8846L56.3446 14.17H57.1246L58.3046 18.02L59.5746 14.17H60.2246L61.4846 18.02L62.6646 14.17H63.4546L61.9146 19ZM68.3284 19H67.5884V15.84C67.5884 14.98 67.1484 14.72 66.4984 14.72C65.9084 14.72 65.3584 15.08 65.0684 15.47V19H64.3184V14.17H65.0684V14.87C65.4084 14.46 66.0684 14.05 66.7984 14.05C67.7984 14.05 68.3284 14.56 68.3284 15.61V19ZM70.5859 19H69.8359V12.33H70.5859V19ZM74.192 19.12C72.722 19.12 71.802 17.98 71.802 16.58C71.802 15.18 72.722 14.05 74.192 14.05C75.662 14.05 76.582 15.18 76.582 16.58C76.582 17.98 75.662 19.12 74.192 19.12ZM74.192 18.45C75.222 18.45 75.792 17.57 75.792 16.58C75.792 15.6 75.222 14.72 74.192 14.72C73.162 14.72 72.592 15.6 72.592 16.58C72.592 17.57 73.162 18.45 74.192 18.45ZM81.5747 19H80.8247V18.45C80.4347 18.89 79.8747 19.12 79.2247 19.12C78.4147 19.12 77.5447 18.57 77.5447 17.52C77.5447 16.43 78.4047 15.93 79.2247 15.93C79.8847 15.93 80.4347 16.14 80.8247 16.58V15.71C80.8247 15.07 80.3047 14.7 79.6047 14.7C79.0247 14.7 78.5547 14.9 78.1247 15.37L77.7747 14.85C78.2947 14.31 78.9147 14.05 79.7047 14.05C80.7347 14.05 81.5747 14.51 81.5747 15.68V19ZM79.5047 18.58C80.0247 18.58 80.5347 18.38 80.8247 17.98V17.06C80.5347 16.67 80.0247 16.47 79.5047 16.47C78.7947 16.47 78.3047 16.91 78.3047 17.52C78.3047 18.14 78.7947 18.58 79.5047 18.58ZM87.3379 19H86.5879V18.28C86.2279 18.77 85.6379 19.12 84.9579 19.12C83.6979 19.12 82.8079 18.16 82.8079 16.59C82.8079 15.04 83.6979 14.05 84.9579 14.05C85.6079 14.05 86.1979 14.37 86.5879 14.9V12.33H87.3379V19ZM85.1479 18.45C85.7379 18.45 86.3279 18.1 86.5879 17.68V15.5C86.3279 15.08 85.7379 14.72 85.1479 14.72C84.1679 14.72 83.5879 15.52 83.5879 16.59C83.5879 17.66 84.1679 18.45 85.1479 18.45ZM93.5377 19.12C92.0677 19.12 91.1477 17.98 91.1477 16.58C91.1477 15.18 92.0677 14.05 93.5377 14.05C95.0077 14.05 95.9277 15.18 95.9277 16.58C95.9277 17.98 95.0077 19.12 93.5377 19.12ZM93.5377 18.45C94.5677 18.45 95.1377 17.57 95.1377 16.58C95.1377 15.6 94.5677 14.72 93.5377 14.72C92.5077 14.72 91.9377 15.6 91.9377 16.58C91.9377 17.57 92.5077 18.45 93.5377 18.45ZM101.16 19H100.42V15.84C100.42 14.98 99.9804 14.72 99.3304 14.72C98.7404 14.72 98.1904 15.08 97.9004 15.47V19H97.1504V14.17H97.9004V14.87C98.2404 14.46 98.9004 14.05 99.6304 14.05C100.63 14.05 101.16 14.56 101.16 15.61V19ZM106.486 19.12C105.766 19.12 105.406 18.71 105.406 17.99V14.83H104.606V14.17H105.406V12.85H106.166V14.17H107.146V14.83H106.166V17.83C106.166 18.19 106.326 18.45 106.646 18.45C106.866 18.45 107.056 18.35 107.156 18.24L107.376 18.81C107.186 18.99 106.916 19.12 106.486 19.12ZM112.215 19H111.465V15.82C111.465 14.96 111.035 14.72 110.375 14.72C109.795 14.72 109.235 15.08 108.955 15.47V19H108.205V12.33H108.955V14.87C109.285 14.46 109.945 14.05 110.675 14.05C111.685 14.05 112.215 14.54 112.215 15.59V19ZM115.903 19.12C114.463 19.12 113.433 18.09 113.433 16.58C113.433 15.18 114.433 14.05 115.813 14.05C117.273 14.05 118.133 15.19 118.133 16.64V16.83H114.233C114.293 17.74 114.923 18.5 115.963 18.5C116.523 18.5 117.073 18.28 117.463 17.88L117.823 18.37C117.333 18.85 116.683 19.12 115.903 19.12ZM117.393 16.27C117.383 15.56 116.903 14.67 115.803 14.67C114.773 14.67 114.263 15.54 114.223 16.27H117.393Z" fill="#4F0072"/>
<path d="M51.8326 34L48.6886 25.996H46.9366L43.7926 34H45.3886L45.9766 32.452H49.6486L50.2366 34H51.8326ZM49.2526 31.216H46.3726L47.8126 27.4L49.2526 31.216ZM55.7788 34.144C57.2788 34.144 58.3468 33.004 58.3468 31.096C58.3468 29.188 57.2788 28.06 55.7788 28.06C55.0228 28.06 54.3508 28.42 53.9188 28.996V28.204H52.6588V36.208H53.9188V33.196C54.3988 33.808 55.0468 34.144 55.7788 34.144ZM55.4068 33.028C54.8188 33.028 54.1948 32.668 53.9188 32.236V29.944C54.2068 29.512 54.8188 29.176 55.4068 29.176C56.4028 29.176 57.0508 29.968 57.0508 31.096C57.0508 32.224 56.4028 33.028 55.4068 33.028ZM62.728 34.144C64.228 34.144 65.296 33.004 65.296 31.096C65.296 29.188 64.228 28.06 62.728 28.06C61.972 28.06 61.3 28.42 60.868 28.996V28.204H59.608V36.208H60.868V33.196C61.348 33.808 61.996 34.144 62.728 34.144ZM62.356 33.028C61.768 33.028 61.144 32.668 60.868 32.236V29.944C61.156 29.512 61.768 29.176 62.356 29.176C63.352 29.176 64 29.968 64 31.096C64 32.224 63.352 33.028 62.356 33.028ZM67.8172 34V25.996H66.5572V34H67.8172ZM72.1397 34.144C73.0517 34.144 73.9037 33.844 74.4917 33.292L73.9157 32.464C73.4957 32.884 72.8357 33.112 72.2597 33.112C71.1677 33.112 70.5197 32.38 70.4237 31.516H74.8877V31.204C74.8877 29.38 73.7837 28.06 72.0437 28.06C70.3277 28.06 69.1037 29.416 69.1037 31.096C69.1037 32.932 70.3877 34.144 72.1397 34.144ZM73.6757 30.616H70.4117C70.4597 29.92 70.9637 29.092 72.0317 29.092C73.1717 29.092 73.6397 29.932 73.6757 30.616ZM82.0092 34.144C84.1572 34.144 85.1052 32.992 85.1052 31.66C85.1052 28.684 80.4492 29.608 80.4492 28.108C80.4492 27.52 80.9772 27.112 81.7932 27.112C82.6332 27.112 83.4852 27.4 84.1212 28.036L84.9132 26.992C84.1812 26.272 83.1612 25.864 81.9252 25.864C80.1612 25.864 79.0092 26.884 79.0092 28.216C79.0092 31.156 83.6652 30.112 83.6652 31.792C83.6652 32.332 83.2212 32.896 82.0692 32.896C80.9532 32.896 80.0772 32.368 79.5372 31.78L78.7452 32.872C79.4652 33.616 80.5332 34.144 82.0092 34.144ZM87.9264 34.144C88.5024 34.144 88.8744 33.976 89.1024 33.772L88.8024 32.812C88.7064 32.92 88.4904 33.028 88.2504 33.028C87.8904 33.028 87.6984 32.728 87.6984 32.332V29.296H88.8744V28.204H87.6984V26.62H86.4384V28.204H85.4784V29.296H86.4384V32.644C86.4384 33.616 86.9424 34.144 87.9264 34.144ZM92.6344 34.144C94.4824 34.144 95.6104 32.752 95.6104 31.096C95.6104 29.428 94.4824 28.06 92.6344 28.06C90.7864 28.06 89.6584 29.428 89.6584 31.096C89.6584 32.752 90.7864 34.144 92.6344 34.144ZM92.6344 33.028C91.5664 33.028 90.9664 32.128 90.9664 31.096C90.9664 30.076 91.5664 29.176 92.6344 29.176C93.7144 29.176 94.3024 30.076 94.3024 31.096C94.3024 32.128 93.7144 33.028 92.6344 33.028ZM98.1571 34V30.052C98.4091 29.632 99.1171 29.272 99.6571 29.272C99.8131 29.272 99.9331 29.284 100.041 29.308V28.06C99.2971 28.06 98.6011 28.492 98.1571 29.044V28.204H96.8971V34H98.1571ZM103.745 34.144C104.657 34.144 105.509 33.844 106.097 33.292L105.521 32.464C105.101 32.884 104.441 33.112 103.865 33.112C102.773 33.112 102.125 32.38 102.029 31.516H106.493V31.204C106.493 29.38 105.389 28.06 103.649 28.06C101.933 28.06 100.709 29.416 100.709 31.096C100.709 32.932 101.993 34.144 103.745 34.144ZM105.281 30.616H102.017C102.065 29.92 102.569 29.092 103.637 29.092C104.777 29.092 105.245 29.932 105.281 30.616Z" fill="#4F0072"/>
</svg>
