<svg width="22" height="16" viewBox="0 0 22 16" fill="none" xmlns="http://www.w3.org/2000/svg">
<g clip-path="url(#clip0_862_28206)">
<rect width="21.3333" height="16" fill="white"/>
<path fill-rule="evenodd" clip-rule="evenodd" d="M5.33398 0H16.0007V16H5.33398V0Z" fill="#F7FCFF"/>
<path fill-rule="evenodd" clip-rule="evenodd" d="M9.55328 5.60169L10.6493 4L10.6673 13.3333H10.2106L10.4908 11.0236C10.4908 11.0236 7.41637 11.5883 7.67053 11.3035C7.9247 11.0186 8.0711 10.4961 8.0711 10.4961L5.33398 8.63191C5.33398 8.63191 5.76574 8.62638 6.11699 8.41312C6.46824 8.19987 5.76574 6.93512 5.76574 6.93512L7.14767 7.14036L7.67053 6.5603L8.71318 7.67426H9.18185L8.71318 5.12266L9.55328 5.60169ZM10.6673 13.3333V4L11.7814 5.60169L12.6215 5.12266L12.1528 7.67426H12.6215L13.6641 6.5603L14.187 7.14036L15.5689 6.93512C15.5689 6.93512 14.8664 8.19987 15.2176 8.41312C15.5689 8.62638 16.0007 8.63191 16.0007 8.63191L13.2635 10.4961C13.2635 10.4961 13.4099 11.0186 13.6641 11.3035C13.9183 11.5883 10.8438 11.0236 10.8438 11.0236L11.1241 13.3333H10.6673Z" fill="#E31D1C"/>
<path fill-rule="evenodd" clip-rule="evenodd" d="M16 0H21.3333V16H16V0Z" fill="#E31D1C"/>
<path fill-rule="evenodd" clip-rule="evenodd" d="M0 0H5.33333V16H0V0Z" fill="#E31D1C"/>
</g>
<defs>
<clipPath id="clip0_862_28206">
<rect width="21.3333" height="16" fill="white"/>
</clipPath>
</defs>
</svg>
