<svg width="16" height="22" viewBox="0 0 16 22" fill="none" xmlns="http://www.w3.org/2000/svg">
<path d="M5.74729 8.34513C6.07042 8.58752 7.28254 8.7222 7.73067 8.70868C7.83974 8.7054 7.90936 8.66114 7.95314 8.59657C7.99699 8.66114 8.06661 8.7054 8.1756 8.70868C8.62381 8.7222 9.83577 8.58752 10.1591 8.34513C10.4824 8.10274 10.213 7.63132 10.2669 7.38893C10.3208 7.14646 10.9806 6.33846 11.5732 6.31157C12.1657 6.28468 13.2297 6.71561 13.526 7.6987C13.8222 8.68187 13.7414 9.69185 12.9873 10.1093C12.2331 10.5268 11.5194 10.2979 11.3846 10.1093C11.2499 9.9208 10.6843 9.93424 10.4688 10.2171C10.2533 10.4999 9.49919 10.9982 9.49919 11.2945C9.49919 11.3095 9.49935 11.3248 9.49951 11.3401C9.34363 11.2662 9.15557 11.2355 9.0633 11.4437C8.89005 11.835 8.56492 12.9585 8.65158 13.3366C8.73817 13.7147 9.29321 13.5992 9.41501 13.7956C10.2296 15.1097 9.401 16.1751 8.56076 16.4798C8.55051 16.2762 8.46873 14.6257 8.48105 14.3291C8.49434 14.011 8.56268 11.5007 8.56348 11.4754C8.56476 11.4284 8.58148 11.3849 8.61173 11.3495C9.21855 10.6398 9.61595 10.1782 9.643 10.1497C9.67244 10.13 9.80328 10.0964 9.88995 10.0744C9.97261 10.0532 10.0582 10.0314 10.1206 10.0087C10.2071 9.97721 10.4844 9.77235 11.1145 9.29469C11.403 9.07591 11.7013 8.84968 11.7822 8.80127C11.9906 8.67611 12.8811 8.19469 12.9585 8.16516L12.9253 8.06273L12.8996 7.95806C12.8142 7.97902 11.7974 8.54079 11.6712 8.61649C11.5804 8.67091 11.3041 8.88041 10.9843 9.12296C10.6431 9.38168 10.1273 9.77259 10.0469 9.8062C9.99446 9.82525 9.9142 9.84573 9.83649 9.8655C9.65324 9.91247 9.54705 9.94136 9.49575 9.9929C9.45326 10.0353 8.90254 10.6779 8.44792 11.2094C8.38606 11.2817 8.35061 11.3739 8.34789 11.4695C8.34725 11.4948 8.27891 14.0036 8.26571 14.3201C8.2521 14.6446 8.34269 16.4357 8.34645 16.5118L8.48521 16.5047C8.30908 16.559 8.13463 16.5797 7.97698 16.5608C7.8279 16.5429 7.68226 16.5152 7.54149 16.4797H7.5519C7.5543 15.7031 7.56926 13.6385 7.60855 13.414C7.65121 13.1702 7.62568 12.0162 7.61272 11.5313C7.61039 11.4476 7.58359 11.3672 7.53485 11.2987C6.95772 10.49 6.59321 10.0555 6.45157 10.0073C6.40476 9.99146 6.35699 9.97713 6.30697 9.96185C6.1462 9.91327 5.96415 9.8583 5.70407 9.71818C5.56515 9.64344 5.11614 9.33822 4.6408 9.01533C3.70612 8.38002 3.12811 7.99191 2.98447 7.95782L2.93437 8.1674C3.06041 8.20173 3.93859 8.79847 4.51972 9.19338C5.02067 9.5338 5.4532 9.82781 5.60212 9.90791C5.88108 10.0582 6.0825 10.1191 6.24455 10.168C6.29225 10.1824 6.33762 10.1962 6.38043 10.2106C6.46118 10.2472 6.80192 10.6424 7.35936 11.4236C7.38305 11.4569 7.39625 11.4961 7.39713 11.5368C7.41778 12.3061 7.42834 13.1933 7.39617 13.3766C7.34904 13.6456 7.33808 16.008 7.33655 16.4206C6.69605 16.2091 6.20774 15.7957 6.1486 15.1674C6.07098 14.3415 6.52103 13.7971 6.72797 13.7497C6.93492 13.7022 7.12801 13.1968 6.96853 12.8986C6.80912 12.6005 6.66356 11.7437 6.41492 11.6311C6.40172 11.6251 6.38843 11.6191 6.37499 11.6133C6.40332 11.5149 6.40724 11.4028 6.40724 11.2944C6.40724 10.9981 5.6531 10.4998 5.43767 10.217C5.22217 9.93424 4.65656 9.9208 4.5218 10.1093C4.3872 10.2978 3.67347 10.5267 2.91925 10.1093C2.16503 9.69177 2.08428 8.68179 2.38053 7.69862C2.67678 6.71553 3.74077 6.28452 4.33327 6.31149C4.92584 6.33838 5.58572 7.14646 5.63965 7.38885C5.69351 7.63124 5.42415 8.10266 5.74737 8.34505L5.74729 8.34513Z" fill="white"/>
<path d="M13.4231 12.1915C14.1537 11.9732 13.9839 11.1597 13.9068 10.8943L13.2266 11.5847C13.316 11.5976 13.3787 11.6179 13.3948 11.6447C13.4225 11.6908 13.4312 11.9084 13.4231 12.1916V12.1915Z" fill="#00A650"/>
<path d="M14.0944 13.0991C14.4054 12.555 14.4918 11.8095 14.4979 10.459L14.3095 10.5536C14.3532 11.086 14.3032 11.5042 14.1483 12.0034C14.0479 12.3265 13.671 12.5252 13.3994 12.6295C13.3653 13.0922 13.2986 13.5868 13.2056 13.7994C13.0171 14.2304 13.7712 13.6647 14.0944 13.0991H14.0944Z" fill="#00A650"/>
<path d="M15.4407 9.43594C15.4139 9.05879 15.2156 8.5416 15.0858 8.9618C15.0088 9.21084 14.8928 9.67489 14.8162 10.2986C14.7635 10.7277 14.7295 11.2315 14.7406 11.7956C14.7674 13.1798 14.5107 13.4434 13.6828 14.133C12.8551 14.8228 12.6396 15.0114 12.6396 15.0114C12.6396 15.0114 13.152 12.9809 13.0979 12.4878C13.0694 12.2284 12.9968 12.021 12.8855 11.9296C12.7853 11.8475 12.6536 11.859 12.4933 12.0151C12.1549 12.3447 11.8929 14.4457 11.593 15.0382C11.293 15.6308 10.994 16.2628 10.994 16.2628C10.994 16.2628 10.3988 17.5769 10.994 17.9237C11.5892 18.2704 11.7094 18.2973 12.9557 16.8429C14.2019 15.3884 15.3601 14.4726 15.4409 13.2067C15.5218 11.9408 15.4679 9.81302 15.4409 9.43586L15.4407 9.43594Z" fill="#00A650"/>
<path d="M2.39715 12.1916C2.38906 11.9084 2.39771 11.6909 2.42547 11.6447C2.44156 11.6179 2.5043 11.5976 2.59368 11.5847L1.91348 10.8943C1.83634 11.1597 1.66653 11.9732 2.39715 12.1915V12.1916Z" fill="white"/>
<path d="M2.61351 13.7994C2.52052 13.5868 2.45378 13.0923 2.41977 12.6296C2.14817 12.5253 1.77118 12.3266 1.67091 12.0035C1.51591 11.5042 1.46589 11.086 1.50958 10.5536L1.32129 10.1812C1.32745 11.5318 1.4138 12.5549 1.72477 13.0991C2.04798 13.6647 2.80213 14.2303 2.61351 13.7994Z" fill="white"/>
<path d="M4.82449 17.9237C5.4197 17.5769 4.82449 16.2628 4.82449 16.2628C4.82449 16.2628 4.52552 15.6307 4.22551 15.0382C3.9255 14.4457 3.66367 12.3447 3.32525 12.0151C3.16488 11.859 3.03324 11.8475 2.93305 11.9296C2.82166 12.021 2.74916 12.2284 2.72059 12.4878C2.66633 12.9809 3.1788 15.0114 3.1788 15.0114C3.1788 15.0114 2.96338 14.8228 2.13561 14.133C1.30785 13.4434 1.05105 13.1798 1.07794 11.7956C1.08899 11.2315 1.05482 10.7277 1.00224 10.2986C0.925658 9.67489 0.809623 9.21076 0.732641 8.9618C0.602842 8.5416 0.404624 9.05879 0.377656 9.43594C0.350688 9.8131 0.296832 11.9408 0.377656 13.2068C0.4584 14.4727 1.61666 15.3885 2.86279 16.8429C4.10908 18.2974 4.22919 18.2704 4.82441 17.9237L4.82449 17.9237Z" fill="#00A650"/>
<path d="M3.93145 4.57885C3.93145 4.57885 4.02124 4.56093 4.12895 4.44425C4.23674 4.32758 5.03578 2.94485 5.17942 2.6486C5.32306 2.35244 5.49359 2.40621 5.49359 2.40621L5.52952 2.53185C5.56538 2.95381 5.09852 3.59136 4.86517 3.81575C4.63174 4.04022 4.86517 4.21075 4.86517 4.21075C4.86517 4.21075 4.98184 4.14785 5.28705 3.75277C5.59234 3.35777 5.70014 2.64852 5.70014 2.64852L5.81681 2.50488H5.99678C6.00487 2.52505 6.01623 2.55113 6.03231 2.58571C6.14899 2.83706 5.85274 3.4386 5.69117 3.70796C5.5296 3.97724 5.69117 3.98628 5.69117 3.98628C6.28487 3.56415 6.25678 2.44198 6.20292 2.33419C6.14899 2.22648 5.91564 2.2893 5.80785 2.24456C5.70014 2.19959 5.80785 1.98409 5.80785 1.98409C5.80785 1.98409 6.25678 1.86741 6.23877 1.93015C6.22077 1.99305 6.31064 2.12773 6.47981 2.20847C6.64898 2.2893 6.93914 2.21752 6.93914 2.21752L6.96603 2.37908L7.05582 2.44198C7.07382 3.56423 7.42384 3.65402 7.77403 3.98628C8.12421 4.31838 8.55514 4.39024 8.55514 4.39024C8.4295 4.71337 8.57322 5.26114 8.57322 5.26114C8.57322 5.26114 8.79761 5.35996 8.97718 5.19824C9.15684 5.03667 9.07601 4.39024 9.07601 4.35431C9.07601 4.31838 8.93229 4.58774 8.93229 4.58774L8.8333 4.35431C8.73431 4.12088 8.63612 3.73484 8.63612 3.73484C8.63612 3.73484 8.52833 3.45652 8.74383 3.67195C8.95926 3.88745 8.97726 3.89633 9.04008 3.76173C9.1029 3.62713 8.98623 3.20517 8.98623 3.20517C8.98623 3.20517 8.97718 3.15123 9.04896 3.1782C9.12083 3.20517 9.28239 3.34177 9.28239 3.34177C9.28239 3.34177 9.31832 3.13331 9.38114 3.16916C9.44404 3.20517 9.45292 3.27695 9.52479 3.47445C9.59665 3.67203 9.72236 3.5732 9.72236 3.5732C9.72236 3.5732 9.6954 3.43852 9.73133 3.21413C9.76726 2.98974 9.91986 3.16019 9.91986 3.16019C9.96476 3.62713 10.3598 4.04013 10.3598 4.04013C10.5394 3.74381 10.0905 2.84602 10.0905 2.84602C10.0905 2.84602 9.98268 2.80113 9.74037 2.80113C9.49798 2.80113 8.98623 2.89092 8.98623 2.89092C8.98623 2.89092 8.84258 2.87291 8.60907 2.58571C8.37565 2.29842 8.48336 2.16366 8.48336 2.16366C8.48336 2.16366 8.58211 2.1547 8.68086 2.18167C8.77961 2.20847 8.92333 2.49584 9.12083 2.62148C9.31832 2.74727 9.57864 2.55858 9.75837 2.36116C9.93795 2.16358 9.93795 1.70569 9.93795 1.70569C9.92714 1.53043 9.91618 1.3551 9.90546 1.17985C9.89842 1.0655 9.98692 0.966347 10.1016 0.964106C10.2163 0.961946 10.3457 0.968748 10.4855 0.992034C10.9197 1.0643 11.2322 1.25795 11.4014 1.38263C11.3309 1.27092 10.7504 0.700988 10.1354 0.457797C9.90986 0.36857 9.73013 0.512453 9.61993 0.647453C9.54039 0.744681 9.5099 0.873599 9.53455 0.996836C9.63418 1.49458 9.59545 1.88278 9.49806 2.0289C9.39027 2.19055 8.97734 2.13661 8.97734 2.13661C8.70806 1.93911 8.60027 1.05925 8.60027 0.718114C8.60027 0.376973 8.39645 0.108333 7.93584 0.125538C7.4753 0.142824 7.32542 0.484685 7.32542 0.484685C7.32542 0.484685 7.50499 0.556466 7.72033 0.843751C7.93584 1.13104 7.81012 2.02882 7.81012 2.02882L7.70233 1.99281C7.70233 1.99281 7.63055 2.13653 7.32534 2.13653C7.01997 2.13653 6.62497 1.81332 6.62497 1.32853C6.62497 0.843671 6.50637 0.488366 6.48133 0.484605C5.96053 0.403701 5.53857 0.951382 5.21535 1.05021C4.89214 1.14896 4.85621 1.32853 4.85621 1.32853C5.26921 1.4272 5.56546 1.14896 5.88867 0.933457C6.21189 0.718033 6.24774 0.852633 6.24774 0.852633C6.30167 1.22978 6.15803 1.45417 6.15803 1.45417C5.89763 1.40928 5.96949 1.22978 5.96949 1.22978C5.96949 1.22978 5.74503 1.26564 5.45766 1.51707C5.17038 1.76842 4.74841 1.78643 4.74841 1.78643C4.75738 2.06467 5.06267 1.98385 5.06267 1.98385L4.97288 2.16342C4.79331 2.12757 4.73049 2.26217 4.73049 2.26217C4.80227 2.44174 5.06267 2.37884 5.06267 2.37884L5.0357 2.48664C4.73945 2.66605 4.11095 3.92306 3.93137 4.22843C3.7518 4.53364 3.93137 4.57845 3.93137 4.57845L3.93145 4.57885Z" fill="#00A650"/>
<path d="M6.67892 3.41613C6.75527 3.61811 6.8585 3.57322 6.8585 3.57322C6.8585 3.57322 6.94836 3.15126 6.8585 2.88198C6.76879 2.61262 6.74182 2.57677 6.74182 2.57677C6.74182 2.57677 6.55329 2.49594 6.47254 2.66639C6.39172 2.837 6.18518 3.49248 6.20326 3.63612L6.22111 3.77976C6.22111 3.77976 6.51136 3.69774 6.55033 3.16862C6.58922 2.6395 6.679 2.98081 6.679 2.98081C6.679 2.98081 6.61803 3.25457 6.679 3.41613H6.67892Z" fill="#00A650"/>
<path d="M10.4755 2.38825C10.6192 2.29847 10.7134 2.45099 10.7134 2.45099C10.7628 2.3524 10.6371 2.2086 10.6371 2.2086C10.6371 2.2086 10.7358 2.10097 10.8976 2.24461C11.0591 2.38825 11.1858 2.37913 11.1858 2.37913C11.097 2.29839 11.0142 1.91235 11.0142 1.91235C11.11 1.88547 11.2058 1.8585 11.3015 1.83153C11.0908 1.45582 10.8713 1.32818 10.7047 1.28337C10.4927 1.22647 10.1253 1.23895 10.1253 1.23895C10.118 1.31402 10.1116 1.42461 10.1208 1.55769C10.1324 1.72254 10.1612 1.82409 10.1792 1.92124C10.2047 2.05832 10.2216 2.25613 10.1792 2.51381C10.1792 2.51381 10.3319 2.47788 10.4755 2.38809V2.38825Z" fill="#00A650"/>
<path d="M11.1141 4.29143C11.1141 4.29143 11.2757 4.22869 11.0512 3.84258C10.8268 3.45647 10.7269 3.23208 10.6781 2.94471C10.6293 2.65743 10.3779 2.76514 10.3779 2.76514C10.3779 2.76514 10.4587 3.86939 11.1141 4.29143H11.1141Z" fill="#00A650"/>
<path d="M11.0513 2.7832C11.0513 2.7832 10.9974 3.6541 11.5451 4.09399C12.0928 4.53388 12.1377 4.57877 12.1377 4.57877C12.1377 4.57877 12.1197 4.35439 11.7964 3.82471C11.4732 3.29495 11.2937 2.89988 11.0512 2.7832H11.0513Z" fill="#00A650"/>
<path d="M8.01656 5.21631C8.12435 5.19838 8.12435 4.54299 8.12435 4.54299C8.12435 4.54299 7.91781 4.56988 7.78321 4.40831C7.64853 4.24666 7.47784 4.2377 7.44199 4.35438C7.40606 4.47105 7.04699 5.12652 7.55866 5.42277C7.55866 5.42277 7.73824 5.29713 7.89988 5.42277C7.89988 5.42277 7.90877 5.23424 8.01656 5.21623V5.21631Z" fill="#00A650"/>
<path d="M9.51716 4.89313C9.44538 5.06374 9.58902 5.24331 9.58902 5.24331H9.75963C9.75963 5.24331 9.75963 5.10855 9.92112 5.13552C10.0828 5.16241 10.2265 5.09959 10.2265 5.09959C10.2265 5.09959 10.1815 5.08166 10.0548 4.93802C9.92792 4.79438 9.73835 4.73844 9.75971 4.76741C9.85838 4.90209 9.78652 5.00532 9.78652 5.00532L9.51724 4.89313H9.51716Z" fill="#00A650"/>
<path d="M8.91612 6.47408C8.92509 6.47106 8.91947 6.4641 8.9043 6.45605C8.90572 6.47106 8.90832 6.47659 8.91612 6.47408Z" fill="#00A650"/>
<path d="M8.63652 5.6654C8.63652 5.6654 8.57363 5.62051 8.56466 5.9258C8.55562 6.23101 8.45703 6.36577 8.45703 6.36577C8.45703 6.36577 8.55562 6.41971 8.69942 6.41971C8.79713 6.41971 8.87283 6.44027 8.90356 6.45636C8.90028 6.41915 8.90652 6.31504 8.86099 6.08745C8.79809 5.7732 8.6366 5.6654 8.6366 5.6654H8.63652Z" fill="#00A650"/>
<path d="M8.01612 6.18612C8.01612 6.18612 8.20465 6.20413 8.27651 6.06865C8.34837 5.93309 8.27651 5.66309 8.27651 5.66309C8.27651 5.66309 8.19569 5.71926 8.01612 5.77312C7.83654 5.82705 7.93529 6.187 7.93529 6.187L8.01612 6.18612Z" fill="#00A650"/>
<path d="M7.46891 6.06838C7.37904 6.28469 7.28613 6.35647 7.28613 6.35647C7.28613 6.35647 7.46891 6.47322 7.63047 6.35647C7.79212 6.23971 7.70514 6.13104 7.70514 6.13104V5.85376C7.68433 5.85376 7.55861 5.852 7.46891 6.06838Z" fill="#00A650"/>
<path d="M2.40632 19.1322C2.406 19.1326 3.15462 18.6358 3.77833 18.4227C3.57507 18.1593 3.17799 17.9795 2.72057 17.9795C2.05726 17.9795 1.51758 18.3569 1.51758 18.8208C1.51758 19.0363 1.86096 19.4153 2.40632 19.1323V19.1322Z" fill="#00A650"/>
<path d="M13.4448 19.4153C12.4974 18.8534 10.9863 18.1844 8.76495 18.071L8.76167 18.0894C8.52112 18.0721 8.27697 18.0595 8.02697 18.0552C8.00065 18.0553 7.97536 18.0547 7.94887 18.055C7.92238 18.0547 7.8971 18.0553 7.87077 18.0552C7.62077 18.0595 7.37662 18.0721 7.13607 18.0894L7.13287 18.071C4.91141 18.1844 3.40033 18.8534 2.45293 19.4153C2.05561 19.6509 1.85971 19.4819 1.86035 19.4826L2.73717 20.5507C2.95348 20.7661 3.29246 20.7945 3.54237 20.6191C4.56243 19.9037 6.10537 19.4466 7.83012 19.4466C7.87005 19.4466 7.9091 19.4488 7.94887 19.4494C7.98856 19.4488 8.02761 19.4466 8.06763 19.4466C9.79246 19.4466 11.3353 19.9037 12.3554 20.6191C12.6054 20.7945 12.9443 20.7661 13.1607 20.5507L14.0375 19.4826C14.0381 19.482 13.8422 19.6509 13.4449 19.4153H13.4448Z" fill="#00A650"/>
<path d="M13.1769 17.9796C12.7196 17.9796 12.3225 18.1595 12.1191 18.4228C12.7429 18.6359 13.4915 19.1326 13.4911 19.1323C14.0366 19.4153 14.38 19.0363 14.38 18.8208C14.38 18.3569 13.8402 17.9795 13.1768 17.9795L13.1769 17.9796Z" fill="#00A650"/>
<path d="M8.10982 0.417327C8.10982 0.459419 8.04693 0.49367 7.96946 0.49367C7.89192 0.49367 7.8291 0.459419 7.8291 0.417327C7.8291 0.375235 7.892 0.341064 7.96946 0.341064C8.04701 0.341064 8.10982 0.375155 8.10982 0.417327Z" fill="black"/>
<path d="M8.43674 16.643L7.4671 16.512L7.50823 11.4832C7.1466 10.8907 6.49465 9.97622 5.79996 9.84018C5.1805 9.71903 3.34908 8.25724 3.12109 8.08895L3.63869 7.38794C4.47045 8.00212 4.94883 8.58773 6.34453 9.13293C6.77777 9.3021 7.47542 9.96278 7.92275 10.3807C8.58759 9.84018 8.78164 9.50216 9.18696 9.4227C9.48121 9.32571 11.2503 8.28773 12.4295 7.46988L12.9175 8.09735C11.6724 8.59646 10.1121 9.83274 9.64622 10.0988C9.46649 10.178 8.93505 10.864 8.45571 11.4163L8.43666 16.6428L8.43674 16.643Z" fill="#00ADEF"/>
<path d="M13.261 11.7958C13.261 11.7958 13.5551 11.8115 13.7178 11.3106C13.8805 10.8097 13.1084 11.5533 13.1084 11.5533L13.261 11.7958Z" fill="#231F20"/>
<path d="M15.4425 13.2069C15.3618 14.4728 14.2035 15.3885 12.9573 16.843C11.7111 18.2974 11.5909 18.2704 10.9957 17.9238C10.4005 17.577 10.9957 16.2629 10.9957 16.2629C10.9957 16.2629 11.2946 15.6309 11.5947 15.0384C11.8947 14.4459 12.1565 12.3448 12.4949 12.0152C12.6553 11.8591 12.7869 11.8476 12.8871 11.9298C12.9984 12.0212 13.071 12.2285 13.0995 12.4879C13.1538 12.981 12.6413 15.0115 12.6413 15.0115C12.6413 15.0115 12.8567 14.8229 13.6845 14.1331C14.5122 13.4436 14.769 13.1799 14.7422 11.7957C14.7312 11.2316 14.7652 10.7278 14.8178 10.2987C14.8944 9.67502 15.0105 9.21088 15.0874 8.96193C15.2172 8.54172 15.4155 9.05892 15.4424 9.43607C15.4694 9.81322 15.5233 11.941 15.4424 13.2069L15.4425 13.2069ZM14.3814 18.8208C14.3814 19.0363 14.038 19.4153 13.4926 19.1323C13.493 19.1326 12.7444 18.6359 12.1206 18.4228C12.3239 18.1594 12.7211 17.9795 13.1783 17.9795C13.8417 17.9795 14.3815 18.3569 14.3815 18.8208L14.3814 18.8208ZM13.1611 20.5507C12.9448 20.7661 12.6058 20.7945 12.3558 20.6191C11.3358 19.9037 9.79292 19.4465 8.06809 19.4465C8.02816 19.4465 7.98911 19.4488 7.94934 19.4493C7.90957 19.4488 7.87052 19.4465 7.83058 19.4465C6.10576 19.4465 4.5629 19.9037 3.54284 20.6191C3.29292 20.7945 2.95394 20.7661 2.73764 20.5507L1.86082 19.4826C1.86018 19.482 2.05608 19.6508 2.4534 19.4153C3.4008 18.8534 4.91196 18.1844 7.13334 18.071L7.13654 18.0893C7.37709 18.0721 7.62124 18.0595 7.87124 18.0552C7.89756 18.0553 7.92285 18.0547 7.94934 18.055C7.97575 18.0547 8.00111 18.0553 8.02744 18.0552C8.27744 18.0595 8.52159 18.0721 8.76214 18.0893L8.76542 18.071C10.9868 18.1844 12.4979 18.8534 13.4453 19.4153C13.8427 19.6508 14.0385 19.4819 14.0379 19.4826L13.161 20.5507H13.1611ZM1.51744 18.8208C1.51744 18.3569 2.05712 17.9795 2.72044 17.9795C3.17777 17.9795 3.57493 18.1594 3.77819 18.4227C3.15448 18.6358 2.40586 19.1326 2.40618 19.1323C1.86082 19.4153 1.51744 19.0363 1.51744 18.8208ZM0.378464 13.2069C0.29764 11.9409 0.351496 9.81314 0.378464 9.43599C0.405352 9.05884 0.60365 8.54164 0.733449 8.96185C0.810351 9.21088 0.926466 9.67494 1.00305 10.2986C1.0557 10.7277 1.08979 11.2316 1.07875 11.7956C1.05186 13.1798 1.30866 13.4435 2.13642 14.1331C2.96419 14.8229 3.17961 15.0114 3.17961 15.0114C3.17961 15.0114 2.66714 12.981 2.7214 12.4878C2.74988 12.2284 2.82247 12.0211 2.93386 11.9297C3.03405 11.8475 3.16569 11.859 3.32605 12.0151C3.66447 12.3448 3.92631 14.4458 4.22632 15.0383C4.52633 15.6309 4.8253 16.2628 4.8253 16.2628C4.8253 16.2628 5.42051 17.577 4.8253 17.9237C4.23008 18.2704 4.10997 18.2973 2.86368 16.8429C1.61747 15.3885 0.459288 14.4727 0.378544 13.2068L0.378464 13.2069ZM2.39714 12.1914C1.76271 12.0019 1.80721 11.364 1.88051 11.0253C1.92876 11.0758 1.97806 11.1252 2.02919 11.1733C2.21901 11.3514 2.41042 11.4832 2.59872 11.584L2.5936 11.5846C2.50421 11.5976 2.44147 11.6179 2.42539 11.6447C2.39762 11.6908 2.38898 11.9084 2.39706 12.1915L2.39714 12.1914ZM1.67133 12.0035C1.77168 12.3266 2.14859 12.5253 2.42019 12.6296C2.45428 13.0923 2.52102 13.5869 2.61392 13.7995C2.80254 14.2305 2.04832 13.6648 1.72518 13.0992C1.41421 12.5551 1.32786 11.8096 1.3217 10.4591C1.32146 10.4057 1.32122 10.3533 1.32122 10.2979L1.3209 10.2773C1.37884 10.3778 1.44198 10.4756 1.50896 10.571C1.46783 11.095 1.518 11.5099 1.67133 12.0035ZM1.45006 6.79641C1.93492 6.1635 2.59224 5.27468 3.85269 5.15344C5.11314 5.03229 5.77302 5.55004 6.3387 6.18679C6.90431 6.82337 7.79313 7.63145 7.83363 7.88729C7.84827 7.9806 7.87972 8.09711 7.8938 8.20626C7.88692 8.2666 7.88404 8.33318 7.88988 8.39808C7.86539 8.49419 7.79385 8.55805 7.62764 8.54716C7.21408 8.52028 6.19058 8.31822 6.01549 8.22403C5.8404 8.12968 5.75957 7.76605 5.7731 7.52366C5.78662 7.28127 5.62497 6.74751 5.05929 6.40837C4.49368 6.06923 4.04595 5.96648 3.64519 6.18679C3.58357 6.22072 2.44667 6.63484 2.19076 7.75269C1.93492 8.87046 1.96021 9.74336 2.91801 10.3518C3.87566 10.9604 4.97838 10.1901 4.97838 10.1901L5.24774 10.3383C5.24774 10.3383 6.16345 11.079 6.13664 11.281C6.1228 11.3844 6.12992 11.4701 6.08783 11.5346C5.99412 11.532 5.90434 11.5623 5.82527 11.6514C5.80847 11.6538 5.79166 11.6562 5.77302 11.658C5.4434 11.6922 4.40493 11.8405 3.73642 11.781C3.6307 11.6528 3.30333 11.588 3.00076 11.5725C2.66274 11.4228 2.26814 11.1899 1.9246 10.8572C1.9342 10.827 1.94069 10.8097 1.94069 10.8097C1.94069 10.8097 1.61987 10.043 1.5312 10.3882C1.44814 10.2642 1.37404 10.1307 1.31098 9.98743C1.27817 9.47648 1.16622 9.06708 1.02129 8.78667C0.958235 7.99364 1.12228 7.22445 1.45014 6.79649L1.45006 6.79641ZM3.7 5.04701C3.93535 4.97475 4.04891 4.89393 4.08028 4.87064C4.19263 4.78709 4.28834 4.68098 4.36076 4.55799L4.39941 4.49229C5.78206 4.38786 5.99748 4.07368 5.99748 4.07368C5.99748 4.07368 6.15913 4.09409 6.41048 3.92732C6.66184 3.76055 7.1287 3.65868 7.1287 3.65868C7.18263 4.26478 7.61356 3.98638 7.30827 4.23349C7.00306 4.48076 7.07484 5.51139 7.07484 5.51139L7.20048 5.47554L7.21856 5.79891L7.38005 5.81196C7.38005 6.08044 6.81797 6.30562 6.70209 6.34932C6.30966 5.958 5.89841 5.57309 5.59793 5.3555C4.81681 4.78989 3.7 5.04709 3.7 5.04709C3.7 5.04709 5.34209 4.93802 3.63687 5.06542H3.63679C3.65919 5.05925 3.6804 5.05317 3.7 5.04701ZM6.55117 3.16862C6.51228 3.69773 6.22195 3.77976 6.22195 3.77976L6.2041 3.63611C6.18602 3.49247 6.39256 2.837 6.47338 2.66647C6.55421 2.49594 6.74266 2.57676 6.74266 2.57676C6.74266 2.57676 6.76963 2.61261 6.85934 2.88197C6.9492 3.15125 6.85934 3.57322 6.85934 3.57322C6.85934 3.57322 6.75619 3.61811 6.67976 3.41613C6.61879 3.25456 6.67976 2.9808 6.67976 2.9808C6.67976 2.9808 6.58998 2.6395 6.55109 3.16862H6.55117ZM3.93263 4.22869C4.11221 3.92332 4.74063 2.66639 5.03696 2.48689L5.06385 2.3791C5.06385 2.3791 4.80353 2.442 4.73167 2.26243C4.73167 2.26243 4.79449 2.12775 4.97406 2.16368L5.06385 1.98411C5.06385 1.98411 4.75856 2.06493 4.74959 1.78669C4.74959 1.78669 5.17156 1.76868 5.45876 1.51733C5.74613 1.26589 5.9706 1.23004 5.9706 1.23004C5.9706 1.23004 5.89873 1.40962 6.15913 1.45443C6.15913 1.45443 6.30277 1.23004 6.24884 0.852892C6.24884 0.852892 6.21299 0.718212 5.88969 0.933716C5.56648 1.14922 5.27023 1.42746 4.85723 1.32879C4.85723 1.32879 4.89308 1.14922 5.21637 1.05047C5.53959 0.951641 5.96155 0.403959 6.48235 0.484863C6.50739 0.488624 6.62599 0.843929 6.62599 1.32879C6.62599 1.8135 7.02099 2.13671 7.32636 2.13671C7.63157 2.13671 7.70335 1.99307 7.70335 1.99307L7.81114 2.029C7.81114 2.029 7.93686 1.13121 7.72135 0.843929C7.50593 0.556644 7.32644 0.484863 7.32644 0.484863C7.32644 0.484863 7.47632 0.142922 7.93686 0.125717C8.39747 0.108432 8.60129 0.377151 8.60129 0.718212C8.60129 1.05943 8.70908 1.93921 8.97836 2.13679C8.97836 2.13679 9.39137 2.19073 9.49908 2.029C9.59647 1.88288 9.6352 1.49468 9.53557 0.996934C9.51092 0.873618 9.54141 0.74478 9.62095 0.647471C9.73123 0.512471 9.91088 0.368589 10.1365 0.457815C10.7514 0.701007 11.332 1.27094 11.4024 1.38257C11.2333 1.25797 10.9207 1.06431 10.4866 0.992053C10.3467 0.968766 10.2173 0.961884 10.1026 0.964125C9.98794 0.966445 9.89944 1.06551 9.90648 1.17995C9.9172 1.35528 9.92808 1.53053 9.93897 1.70578C9.93897 1.70578 9.93897 2.16368 9.75939 2.36126C9.57966 2.55868 9.31942 2.74737 9.12193 2.62157C8.92443 2.49594 8.78071 2.20857 8.68196 2.18176C8.58321 2.15472 8.48446 2.16368 8.48446 2.16368C8.48446 2.16368 8.37667 2.29844 8.61017 2.58572C8.8436 2.87301 8.98733 2.89101 8.98733 2.89101C8.98733 2.89101 9.499 2.80123 9.74139 2.80123C9.98378 2.80123 10.0915 2.84612 10.0915 2.84612C10.0915 2.84612 10.5404 3.74391 10.3609 4.04023C10.3609 4.04023 9.96578 3.62723 9.92088 3.16037C9.92088 3.16037 9.76836 2.98984 9.73235 3.21431C9.69634 3.43878 9.72338 3.57338 9.72338 3.57338C9.72338 3.57338 9.59767 3.67212 9.52581 3.47455C9.45402 3.27713 9.44506 3.20535 9.38216 3.16934C9.31926 3.13349 9.28333 3.34195 9.28333 3.34195C9.28333 3.34195 9.12177 3.20535 9.0499 3.1783C8.97812 3.15141 8.98717 3.20535 8.98717 3.20535C8.98717 3.20535 9.10384 3.62731 9.04102 3.76191C8.97812 3.89659 8.9602 3.88763 8.74477 3.67212C8.52927 3.45662 8.63698 3.73494 8.63698 3.73494C8.63698 3.73494 8.73525 4.12106 8.83416 4.35441L8.93315 4.58783C8.93315 4.58783 9.07679 4.31848 9.07679 4.35441C9.07679 4.39034 9.15762 5.03677 8.97804 5.19833C8.79847 5.35998 8.57408 5.26123 8.57408 5.26123C8.57408 5.26123 8.43044 4.71347 8.55608 4.39034C8.55608 4.39034 8.12523 4.31848 7.77497 3.98638C7.42486 3.65412 7.07476 3.56441 7.05684 2.44208L6.96705 2.37918L6.94016 2.21761C6.94016 2.21761 6.65 2.2894 6.48075 2.20857C6.31166 2.12783 6.22179 1.99315 6.23979 1.93025C6.2578 1.86751 5.80887 1.98419 5.80887 1.98419C5.80887 1.98419 5.70116 2.19969 5.80887 2.24466C5.91666 2.28948 6.15001 2.22666 6.20394 2.33437C6.2578 2.44216 6.28589 3.56433 5.69219 3.98646C5.69219 3.98646 5.53062 3.97741 5.69219 3.70814C5.85376 3.43878 6.15009 2.83716 6.03341 2.58588C6.01733 2.55123 6.00589 2.52523 5.99788 2.50506H5.81799L5.70132 2.6487C5.70132 2.6487 5.59352 3.35795 5.28823 3.75295C4.98302 4.14794 4.86635 4.21092 4.86635 4.21092C4.86635 4.21092 4.63292 4.04031 4.86635 3.81593C5.09978 3.59154 5.56656 2.95391 5.5307 2.53203L5.49477 2.40639C5.49477 2.40639 5.32416 2.35253 5.1806 2.64878C5.03696 2.94503 4.23792 4.32776 4.13013 4.44443C4.02234 4.56111 3.93263 4.57903 3.93263 4.57903C3.93263 4.57903 3.75306 4.53414 3.93263 4.22893V4.22869ZM11.7975 3.82465C12.1207 4.35433 12.1387 4.57879 12.1387 4.57879C12.1387 4.57879 12.0938 4.5339 11.5462 4.09401C10.9985 3.65412 11.0523 2.78322 11.0523 2.78322C11.2948 2.8999 11.4744 3.29489 11.7976 3.82473L11.7975 3.82465ZM10.6791 2.94479C10.7279 3.23215 10.8278 3.45654 11.0523 3.84265C11.2767 4.22877 11.1152 4.29151 11.1152 4.29151C10.4598 3.86946 10.379 2.76522 10.379 2.76522C10.379 2.76522 10.6304 2.6575 10.6792 2.94479H10.6791ZM10.1814 1.92129C10.1634 1.82414 10.1345 1.72259 10.123 1.55774C10.1137 1.42466 10.1202 1.31407 10.1276 1.23901C10.1276 1.23901 10.495 1.22652 10.707 1.28342C10.8736 1.32823 11.0931 1.45587 11.3038 1.83158C11.2081 1.85863 11.1122 1.88552 11.0165 1.9124C11.0165 1.9124 11.0991 2.29852 11.1881 2.37926C11.1881 2.37926 11.0614 2.38831 10.8998 2.24466C10.7382 2.10102 10.6393 2.20865 10.6393 2.20865C10.6393 2.20865 10.7651 2.35237 10.7157 2.45104C10.7157 2.45104 10.6214 2.29852 10.4778 2.38831C10.3341 2.47809 10.1814 2.51402 10.1814 2.51402C10.2239 2.25635 10.207 2.05853 10.1814 1.92145L10.1814 1.92129ZM9.60679 5.46337C9.89407 5.48602 10.0376 5.24331 10.0376 5.24331C10.3789 5.24331 10.5764 5.09598 10.5764 5.09598C10.5764 5.09598 9.44522 4.34544 9.33743 4.07376C9.22964 3.80208 9.6965 3.89435 9.6965 3.89435L9.75035 4.03823L10.0736 4.15891L10.1453 4.25398L10.6841 4.28551L11.2766 4.99115L11.2853 4.99083L11.2932 5.00476C10.9709 5.03861 10.6128 5.13352 10.306 5.3555C10.008 5.57133 9.60103 5.95192 9.21139 6.33995C9.20987 6.33859 9.0856 6.22864 9.01413 5.86941C8.94235 5.50787 9.05007 5.60245 9.26565 5.59181C9.48107 5.58125 9.60671 5.46345 9.60671 5.46345L9.60679 5.46337ZM9.75947 4.76733C9.73811 4.73836 9.92768 4.79438 10.0545 4.93794C10.1813 5.08158 10.2263 5.09951 10.2263 5.09951C10.2263 5.09951 10.0826 5.1624 9.92088 5.13552C9.75939 5.10847 9.75939 5.24323 9.75939 5.24323H9.58886C9.58886 5.24323 9.44522 5.06366 9.517 4.89304L9.78628 5.00524C9.78628 5.00524 9.85806 4.90209 9.75947 4.76733ZM10.1349 11.9148C10.4374 11.9181 10.8127 11.9315 11.1448 11.9319C10.9186 12.2271 10.7101 12.5341 10.5179 12.8524C10.3671 12.4686 10.2238 12.1247 10.1349 11.9148H10.1349ZM8.45765 6.36548C8.45765 6.36548 8.55632 6.23072 8.56528 5.92551C8.57432 5.62022 8.63714 5.66511 8.63714 5.66511C8.63714 5.66511 8.79871 5.7729 8.86153 6.08716C8.90706 6.31474 8.90082 6.41886 8.90418 6.45607C8.87345 6.43998 8.79767 6.41942 8.70004 6.41942C8.55632 6.41942 8.45765 6.36548 8.45765 6.36548ZM8.87297 6.68269C8.38555 7.18444 7.99439 7.61785 7.99439 7.61785L7.95198 7.88521L7.90973 7.61785C7.90973 7.61785 7.466 7.12602 6.93456 6.58378L7.0177 6.66893L8.87297 6.68269ZM7.47 6.06835C7.55978 5.85205 7.68542 5.85373 7.70623 5.85373V6.13101C7.70623 6.13101 7.79321 6.23968 7.63157 6.35644C7.47 6.47319 7.28722 6.35644 7.28722 6.35644C7.28722 6.35644 7.38013 6.28466 7.47 6.06835ZM8.278 5.66279C8.278 5.66279 8.34986 5.93279 8.278 6.06835C8.20622 6.20383 8.0176 6.18583 8.0176 6.18583L7.93678 6.18671C7.93678 6.18671 7.83803 5.82676 8.0176 5.77282C8.19717 5.71897 8.278 5.66279 8.278 5.66279ZM8.0176 5.21618C7.90989 5.23419 7.90093 5.42272 7.90093 5.42272C7.73928 5.29708 7.5597 5.42272 7.5597 5.42272C7.04795 5.12647 7.40702 4.471 7.44303 4.35433C7.47888 4.23765 7.64949 4.24661 7.78425 4.40826C7.91877 4.56983 8.12531 4.54294 8.12531 4.54294C8.12531 4.54294 8.12531 5.19834 8.0176 5.21626V5.21618ZM5.74613 8.3451C6.06926 8.5875 7.28138 8.72218 7.72951 8.70865C7.83859 8.70537 7.90821 8.66112 7.95198 8.59654C7.99583 8.66112 8.06545 8.70537 8.17445 8.70865C8.62266 8.72218 9.83462 8.5875 10.158 8.3451C10.4812 8.10271 10.2118 7.63129 10.2658 7.3889C10.3196 7.14643 10.9794 6.33843 11.5721 6.31154C12.1646 6.28466 13.2286 6.71558 13.5248 7.69867C13.8211 8.68184 13.7402 9.69182 12.9861 10.1093C12.232 10.5268 11.5182 10.2978 11.3835 10.1093C11.2488 9.92077 10.6832 9.93421 10.4677 10.2171C10.2522 10.4999 9.49804 10.9982 9.49804 11.2945C9.49804 11.3095 9.4982 11.3248 9.49836 11.3401C9.34247 11.2661 9.15442 11.2355 9.06215 11.4437C8.8889 11.835 8.56376 12.9585 8.65043 13.3366C8.73701 13.7147 9.29206 13.5991 9.41385 13.7956C10.2285 15.1097 9.39985 16.1751 8.5596 16.4797C8.54936 16.2762 8.46757 14.6257 8.4799 14.329C8.49318 14.0109 8.56152 11.5007 8.56232 11.4754C8.5636 11.4284 8.58033 11.3849 8.61057 11.3495C9.21739 10.6398 9.61479 10.1782 9.64184 10.1497C9.67129 10.13 9.80213 10.0964 9.88879 10.0744C9.97146 10.0532 10.057 10.0314 10.1194 10.0086C10.2059 9.97719 10.4832 9.77233 11.1133 9.29466C11.4019 9.07588 11.7001 8.84965 11.781 8.80124C11.9895 8.67608 12.8799 8.19466 12.9573 8.16513L12.9242 8.0627L12.8985 7.95803C12.813 7.979 11.7962 8.54076 11.67 8.61646C11.5792 8.67088 11.303 8.88038 10.9831 9.12293C10.6419 9.38165 10.1261 9.77257 10.0457 9.80618C9.9933 9.82522 9.91304 9.84571 9.83534 9.86547C9.65208 9.91245 9.54589 9.94134 9.4946 9.99287C9.4521 10.0353 8.90138 10.6779 8.44677 11.2094C8.38491 11.2817 8.34946 11.3738 8.34674 11.4695C8.3461 11.4948 8.27776 14.0036 8.26455 14.3201C8.25095 14.6446 8.34154 16.4357 8.3453 16.5118L8.48406 16.5047C8.30793 16.559 8.13347 16.5797 7.97583 16.5608C7.82674 16.5429 7.6811 16.5152 7.54034 16.4797H7.55074C7.55314 15.703 7.56811 13.6385 7.6074 13.414C7.65005 13.1702 7.62452 12.0162 7.61156 11.5312C7.60924 11.4476 7.58243 11.3672 7.5337 11.2987C6.95657 10.49 6.59206 10.0554 6.45042 10.0073C6.4036 9.99143 6.35583 9.97711 6.30581 9.96182C6.14505 9.91325 5.96299 9.85827 5.70292 9.71815C5.56399 9.64341 5.11498 9.3382 4.63964 9.0153C3.70497 8.37999 3.12696 7.99188 2.98331 7.95779L2.93322 8.16737C3.05926 8.2017 3.93743 8.79844 4.51857 9.19335C5.01951 9.53378 5.45204 9.82778 5.60097 9.90789C5.87993 10.0582 6.08135 10.1191 6.2434 10.168C6.29109 10.1824 6.33646 10.1962 6.37928 10.2105C6.46002 10.2472 6.80076 10.6424 7.3582 11.4235C7.38189 11.4569 7.3951 11.496 7.39598 11.5368C7.41662 12.306 7.42719 13.1933 7.39502 13.3766C7.34788 13.6455 7.33692 16.0079 7.3354 16.4205C6.69489 16.2091 6.20658 15.7956 6.14745 15.1674C6.06982 14.3414 6.51988 13.797 6.72682 13.7497C6.93376 13.7022 7.12686 13.1968 6.96737 12.8986C6.80796 12.6004 6.6624 11.7437 6.41377 11.6311C6.40056 11.6251 6.38728 11.6191 6.37383 11.6133C6.40216 11.5148 6.40608 11.4028 6.40608 11.2944C6.40608 10.998 5.65194 10.4998 5.43652 10.217C5.22101 9.93421 4.65541 9.92077 4.52065 10.1092C4.38605 10.2978 3.67232 10.5267 2.91809 10.1092C2.16387 9.69174 2.08313 8.68176 2.37937 7.69859C2.67562 6.7155 3.73962 6.2845 4.33211 6.31146C4.92469 6.33835 5.58456 7.14643 5.6385 7.38882C5.69235 7.63121 5.42299 8.10263 5.74621 8.34502L5.74613 8.3451ZM10.6445 16.2254C10.0871 17.2943 9.1036 17.5378 8.39715 17.726C7.69078 17.9141 6.48715 17.5034 5.72316 16.6976C4.9591 15.8919 4.90412 14.7027 4.96878 14.1182C4.99799 13.8543 5.15123 13.4747 5.32632 13.1073C5.39859 13.0832 5.4506 13.017 5.41531 12.9254C5.60337 12.549 5.79702 12.2089 5.87985 12.0528C5.91226 11.9916 5.94179 11.9454 5.96971 11.9106C6.07543 11.9023 6.15545 11.876 6.21611 11.8368C6.25028 11.848 6.28661 11.8624 6.32766 11.8745C6.50699 11.9275 6.79756 13.0194 6.79756 13.0194L6.82461 13.3139C6.82461 13.3139 5.77966 13.9965 5.94419 15.0752C6.10864 16.1537 6.81989 16.5877 7.86259 16.707C9.63824 16.9103 10.0055 15.2331 9.92536 14.6038C9.8451 13.9744 9.55781 13.7055 9.34951 13.6252C9.14129 13.545 8.86529 13.3352 8.84945 13.1444C8.83368 12.9537 9.03398 11.9715 9.16098 11.5955C9.23452 11.3771 9.36712 11.391 9.50444 11.4669C9.52477 11.6929 9.61175 11.8938 9.95953 11.9118C10.1606 12.3068 10.4261 13.0704 10.676 13.6333C10.9333 14.2128 11.1075 14.8161 10.9075 15.5609C10.8083 15.786 10.7266 15.9972 10.6598 16.194C10.6545 16.2045 10.6501 16.2148 10.6446 16.2254V16.2254L10.6445 16.2254ZM10.4166 17.9939C9.92552 17.9091 9.41097 17.8516 8.87761 17.8223C9.50996 17.6639 10.1222 17.3073 10.5192 16.6663C10.354 17.3175 10.3741 17.7983 10.4166 17.9939ZM4.75888 11.9318C5.05969 11.9314 5.39523 11.9206 5.68083 11.916C5.57856 12.1613 5.44276 12.4646 5.32424 12.748C5.23942 12.6149 5.13419 12.51 5.02664 12.3761C4.91476 12.2366 4.87171 12.0655 4.75888 11.9318ZM4.45647 12.0865C4.59979 12.201 4.639 12.3842 4.74071 12.5308C4.85947 12.7019 5.02304 12.8074 5.10314 13.0098C5.12034 13.0532 5.15011 13.0819 5.18452 13.0989C5.15587 13.1757 5.12963 13.2494 5.1101 13.3136C4.99311 13.6983 4.56034 14.4624 4.93333 15.5491C5.30632 16.6359 6.14665 17.4968 7.16087 17.8011C7.17471 17.8052 7.18911 17.8089 7.20312 17.8129C6.57933 17.8394 5.97996 17.9038 5.41267 18.005C5.50054 17.8152 5.56271 16.5642 4.41854 14.5938C4.41854 14.5938 3.83388 12.3189 3.77595 11.8931C3.96112 11.9035 4.11973 11.9026 4.23768 11.914C4.29098 11.9192 4.351 11.9227 4.41398 11.9254C4.39005 11.9772 4.39613 12.0386 4.45639 12.0866L4.45647 12.0865ZM11.1058 14.6047C11.0273 14.2349 10.8358 13.6836 10.6369 13.1602C10.6816 13.1567 10.7252 13.134 10.755 13.0838C10.962 12.7347 11.189 12.3997 11.4365 12.0782C11.4786 12.0236 11.4753 11.9695 11.4481 11.9273C11.5273 11.9245 11.6011 11.9202 11.6662 11.9139C11.766 11.9042 11.8949 11.9037 12.0444 11.8974C11.9828 12.335 11.4024 14.5938 11.4024 14.5938C11.3056 14.7603 11.2186 14.921 11.1387 15.0767C11.1473 14.923 11.1396 14.7642 11.1058 14.6047ZM13.4008 12.6296C13.6724 12.5253 14.0493 12.3266 14.1497 12.0035C14.2923 11.5442 14.3449 11.1526 14.3186 10.6785C14.3829 10.593 14.4424 10.5045 14.4994 10.4146C14.4993 10.4292 14.4992 10.4443 14.4992 10.4589C14.493 11.8095 14.4067 12.5549 14.0957 13.0991C13.7726 13.6647 13.0184 14.2303 13.207 13.7994C13.3 13.5867 13.3667 13.0923 13.4008 12.6295V12.6296ZM13.3954 11.6446C13.3831 11.624 13.343 11.6073 13.2848 11.5949C13.4796 11.4928 13.6782 11.3578 13.8748 11.1732C13.9021 11.1476 13.9277 11.1206 13.9542 11.0944C14.0166 11.4444 14.0171 12.0143 13.4237 12.1914C13.4318 11.9082 13.4231 11.6907 13.3953 11.6446L13.3954 11.6446ZM14.4539 6.79633C14.7601 7.19613 14.9236 7.89345 14.8927 8.62983C14.6852 8.9296 14.5187 9.46632 14.5014 10.1752C14.4421 10.2847 14.377 10.3888 14.3058 10.4858C14.2517 9.92157 13.8802 10.8096 13.8802 10.8096C13.8802 10.8096 13.8921 10.841 13.9074 10.8942C13.9097 10.9019 13.9121 10.9116 13.9145 10.9202C13.5893 11.2178 13.2255 11.429 12.9103 11.5691C12.5805 11.5757 12.1886 11.6422 12.0794 11.7882C11.411 11.8283 10.4462 11.6906 10.1309 11.658C10.0219 11.6468 9.94841 11.6279 9.89719 11.6025L9.8439 11.5669C9.771 11.5 9.78356 11.4028 9.76732 11.2809C9.74035 11.079 10.6561 10.3382 10.6561 10.3382L10.9254 10.19C10.9254 10.19 12.0282 10.9602 12.9859 10.3517C13.9437 9.7432 13.969 8.8703 13.7131 7.75253C13.4573 6.63476 12.3203 6.22056 12.2587 6.18663C11.858 5.9664 11.4104 6.06907 10.8447 6.40821C10.2791 6.74735 10.1174 7.28111 10.1309 7.5235C10.1443 7.76589 10.0635 8.12952 9.88839 8.22387C9.71338 8.31814 8.68988 8.52012 8.27632 8.547C8.11003 8.55789 8.03849 8.49403 8.014 8.39792C8.01984 8.33302 8.01696 8.26652 8.01 8.20618C8.02416 8.09703 8.05561 7.98052 8.07033 7.88721C8.11075 7.63129 8.99957 6.82329 9.56518 6.18671C10.1308 5.55004 10.7907 5.03229 12.051 5.15344C13.3114 5.27468 13.9689 6.1635 14.4537 6.79633V6.79641L14.4539 6.79633ZM15.4963 8.4657C15.3753 8.33582 15.2295 8.32878 15.087 8.42633C15.0865 8.28669 15.0779 8.14713 15.0599 8.00844C14.9417 7.09466 14.3172 5.84885 13.2035 5.31717C13.2018 5.30765 13.198 5.2978 13.1888 5.28868C13.1715 5.27164 13.1584 5.25443 13.1464 5.23347C13.1409 5.22402 13.1338 5.21826 13.1261 5.21402L13.1212 5.2029C13.1053 5.17985 13.0853 5.16224 13.0628 5.14768C13.0501 5.13376 13.0368 5.12047 13.0221 5.10847C13.0693 5.11839 13.1165 5.12823 13.1664 5.13992C12.8522 4.84799 12.5028 4.481 12.1587 4.02935C11.8866 3.67252 11.6677 3.3285 11.4921 3.01665C11.6536 3.10644 12.1385 3.10644 12.1385 3.10644C11.8512 2.89093 11.7254 2.33429 11.7254 2.33429C11.923 2.42408 12.1385 2.37022 12.1385 2.37022C11.9409 2.15472 11.8331 1.75972 11.8331 1.75972C12.0486 1.77772 12.0486 1.66993 12.0486 1.66993C11.905 1.58015 10.8636 0.646431 10.2531 0.341141C9.86655 0.147884 9.59879 0.40628 9.45426 0.621784C9.3716 0.74534 9.34895 0.898505 9.39513 1.03975C9.49067 1.33247 9.61863 1.88352 9.26549 1.97514C8.78063 2.10086 8.70876 1.23893 8.72669 0.772148C8.74469 0.30513 8.45749 0 7.93662 0C7.4159 0 7.03883 0.628506 7.03883 0.628506C7.03883 0.628506 7.39798 0.682361 7.50569 0.754223C7.6134 0.826084 7.86475 1.40057 7.59539 1.75972C7.3262 2.11887 7.00298 1.77772 6.85918 1.61608C6.71554 1.45443 6.84133 0.502708 6.66176 0.30513C6.48219 0.107712 5.42275 0.57449 4.93789 0.987572C4.45311 1.40057 3.87854 1.47243 3.87854 1.47243C3.87854 1.70586 4.18375 1.68794 4.18375 1.68794C4.11197 1.93929 3.89646 2.22658 3.89646 2.22658L4.18375 2.31644C4.20175 2.63958 3.91439 2.89101 3.91439 2.89101H4.23768C4.1727 3.15117 4.07612 3.44966 3.93023 3.76735C3.64711 4.38409 3.28684 4.83655 2.99868 5.14C3.06742 5.14176 3.132 5.14016 3.19362 5.13656C1.76839 5.49074 0.978641 6.96726 0.843881 8.00861C0.822835 8.17081 0.815393 8.33406 0.818274 8.49723C0.650384 8.3307 0.469451 8.31005 0.324448 8.46586C-0.0526236 8.87046 -0.160335 13.4436 0.324448 14.1332C0.748573 14.7366 2.44451 16.9606 3.15376 17.7043C3.01644 17.6732 2.87104 17.6563 2.72036 17.6563C1.87875 17.6563 1.19406 18.1787 1.19406 18.8208C1.19406 18.8496 1.19663 18.8779 1.19935 18.9062L1.19927 18.9065L1.19943 18.9069C1.21407 19.0574 1.26593 19.1999 1.34891 19.3291L1.34931 19.3301L1.35019 19.3313C1.38892 19.3911 1.43438 19.4479 1.48535 19.5015L2.4662 20.7368C2.81078 21.0798 3.35094 21.1281 3.75074 20.8515C4.60491 20.2653 5.86408 19.8639 7.29131 19.7862C7.70135 19.7638 8.22798 19.7705 8.60729 19.7862C10.0354 19.8451 11.2937 20.2653 12.1479 20.8515C12.5476 21.1281 13.0879 21.0798 13.4323 20.7368L14.4132 19.5015C14.4643 19.4479 14.5098 19.3911 14.5484 19.3313L14.5493 19.3301L14.5496 19.3291C14.6327 19.2 14.6845 19.0574 14.6992 18.9069L14.6993 18.9065L14.6993 18.9062C14.7019 18.8779 14.7045 18.8496 14.7045 18.8208C14.7045 18.1787 14.0199 17.6563 13.1782 17.6563C12.989 17.6563 12.8079 17.6828 12.6408 17.7312C13.3331 17.017 15.0667 14.7444 15.4963 14.1332C15.9812 13.4437 15.8734 8.87046 15.4963 8.46586H15.4964L15.4963 8.4657Z" fill="#231F20"/>
<path d="M4.49339 11.3619C6.0825 11.3349 5.27451 11.0252 5.27451 11.0252C5.27451 11.0252 4.91088 10.5808 4.77612 10.6347C4.64152 10.6886 4.73579 10.8906 4.27789 10.9175C3.82 10.9445 2.79905 11.2557 2.06932 10.0959C1.33958 8.93624 1.57109 8.77627 1.58445 8.61463C1.5979 8.45306 1.50371 7.88745 1.50371 7.88745C1.50371 7.92778 1.04582 9.07252 1.65183 9.92101C2.25785 10.7693 2.90428 11.3889 4.49339 11.362V11.3619Z" fill="#231F20"/>
<path d="M10.8328 5.66281C10.1324 5.85494 8.97424 7.67172 8.75882 7.77951C8.54331 7.88722 8.44905 7.99502 8.54332 8.04879C8.63766 8.10273 9.11508 7.98149 9.35435 7.98149C9.59379 7.98149 9.75535 7.90075 9.76888 7.77951C9.78224 7.65836 9.68805 7.133 9.9843 6.76953C10.2807 6.40591 10.752 5.66289 11.7889 5.66289H12.3142C12.3142 5.66289 11.7082 5.42274 10.8328 5.66289V5.66281Z" fill="#231F20"/>
<path d="M5.92071 6.76961C6.21704 7.13308 6.12277 7.65843 6.13621 7.77959C6.14966 7.90083 6.3113 7.98157 6.55065 7.98157C6.79009 7.98157 7.26751 8.10281 7.36169 8.04887C7.45596 7.99501 7.36169 7.8873 7.14619 7.77959C6.93077 7.67188 5.77251 5.85502 5.0723 5.66289C4.19692 5.42274 3.59082 5.66289 3.59082 5.66289H4.11602C5.15304 5.66289 5.62438 6.40599 5.92063 6.76953L5.92071 6.76961Z" fill="#231F20"/>
<path d="M13.8354 10.0958C13.1055 11.2556 12.0847 10.9443 11.6267 10.9173C11.1688 10.8904 11.2632 10.6884 11.1285 10.6345C10.9938 10.5806 10.6302 11.025 10.6302 11.025C10.6302 11.025 9.82225 11.3348 11.4114 11.3618C13.0005 11.3886 13.6468 10.7692 14.2528 9.92077C14.8589 9.07228 14.401 7.92754 14.401 7.88721C14.401 7.88721 14.3066 8.45281 14.3201 8.61438C14.3336 8.77603 14.5651 8.936 13.8354 10.0957V10.0958Z" fill="#231F20"/>
<path d="M5.8539 15.9229C5.14433 14.8362 5.77467 14.0516 5.96281 13.6567C6.15102 13.262 6.28643 13.4222 6.38037 13.3236C6.47424 13.2248 6.23265 12.7342 6.23265 12.7342C6.23265 12.7342 6.26474 11.9017 5.66784 13.2972C5.07079 14.6926 5.35695 15.5001 5.84998 16.359C6.34292 17.2177 7.46917 17.248 7.50294 17.2633C7.50294 17.2633 7.06233 16.9648 6.92189 16.9153C6.78145 16.8658 6.56347 17.0096 5.85398 15.9229H5.8539Z" fill="#231F20"/>
<path d="M9.48249 12.02C9.40319 12.0829 9.33237 12.5513 9.24586 12.7631C9.15936 12.9748 9.16872 13.1486 9.26555 13.2065C9.36246 13.2645 9.8374 13.3809 10.0354 13.7812C10.2334 14.1817 10.6866 14.8812 10.3118 15.7985C10.2226 16.0169 10.1219 16.2632 10.1219 16.2632C10.1219 16.2632 10.5425 15.8184 10.6574 14.9527C10.7494 14.2602 9.64326 12.5445 9.6307 12.313C9.61821 12.0814 9.56188 11.957 9.48257 12.0199L9.48249 12.02Z" fill="#231F20"/>
<path d="M3.56754 7.48507C3.62892 7.53653 5.08151 8.74769 5.9376 9.06306C6.6663 9.33146 7.63682 10.239 7.82368 10.4181C7.85969 10.4527 7.90618 10.47 7.95268 10.47C7.99829 10.47 8.04398 10.4533 8.07992 10.4198C8.63096 9.90523 8.94337 9.63843 9.01707 9.5953C9.17848 9.57049 9.70007 9.34818 9.91646 9.2187C10.1629 9.07154 12.3371 7.69345 12.4294 7.6348L12.314 7.45282C12.2915 7.46715 10.0499 8.88805 9.80602 9.03369C9.57084 9.17413 9.06717 9.37331 8.99178 9.38211C8.93753 9.38211 8.87623 9.38211 7.953 10.2436C7.65875 9.96348 6.74416 9.13036 6.01202 8.86076C5.19098 8.55819 3.72039 7.33215 3.70566 7.31982L3.56746 7.48499H3.56738L3.56754 7.48507Z" fill="#231F20"/>
<path d="M3.48816 19.9204C3.49313 19.9468 3.49353 19.9686 3.48944 19.9852C3.48248 20.0159 3.4624 20.04 3.42919 20.0577C3.39686 20.0751 3.36381 20.0771 3.33004 20.0638C3.29627 20.0506 3.26634 20.0193 3.24057 19.9695C3.2148 19.9199 3.20488 19.8758 3.21144 19.8374C3.21784 19.799 3.23905 19.77 3.27466 19.7508C3.30979 19.7321 3.34108 19.7277 3.36853 19.7379C3.38389 19.7437 3.40006 19.7557 3.41694 19.7737C3.45679 19.753 3.4768 19.7428 3.51689 19.7225C3.50193 19.6949 3.47768 19.6724 3.44375 19.6551C3.38261 19.6243 3.31123 19.6301 3.23081 19.6732C3.17071 19.7055 3.13078 19.751 3.11133 19.8088C3.08893 19.8753 3.09877 19.9469 3.13974 20.024C3.17767 20.095 3.22649 20.1403 3.2853 20.1603C3.34412 20.1803 3.40582 20.1724 3.4712 20.1375C3.52401 20.1092 3.55995 20.0712 3.57923 20.0229C3.59852 19.9745 3.601 19.9235 3.58603 19.8702C3.54682 19.89 3.52722 19.9001 3.48816 19.9204Z" fill="#231F20"/>
<path d="M3.80111 19.8547C3.7799 19.8078 3.76942 19.7843 3.74813 19.7375C3.84096 19.6928 3.88753 19.6711 3.98116 19.6291C3.96756 19.597 3.96083 19.581 3.94731 19.549C3.85296 19.5914 3.80591 19.6133 3.71228 19.6584C3.69483 19.6197 3.68611 19.6003 3.66867 19.5617C3.77158 19.5121 3.82343 19.4881 3.9273 19.4416C3.91362 19.4089 3.90666 19.3926 3.89297 19.3599C3.74765 19.4248 3.67563 19.4588 3.53223 19.5298C3.61657 19.7111 3.65858 19.8018 3.74293 19.9831C3.88409 19.9133 3.95523 19.8799 4.09823 19.8161C4.08431 19.7829 4.07743 19.7663 4.0635 19.7332C3.95803 19.7801 3.90554 19.8046 3.80111 19.8548V19.8547Z" fill="#231F20"/>
<path d="M4.29109 19.1915C4.33982 19.3224 4.36415 19.3879 4.41297 19.5188C4.28709 19.4185 4.22299 19.3692 4.09247 19.2728C4.04878 19.2913 4.02693 19.3006 3.9834 19.3195C4.05918 19.5049 4.09703 19.5975 4.17281 19.7829C4.20971 19.7667 4.22811 19.7589 4.26508 19.7433C4.21267 19.6111 4.1865 19.5451 4.13392 19.4131C4.26644 19.5113 4.3315 19.5614 4.45906 19.6636C4.49899 19.6478 4.519 19.6399 4.55909 19.6245C4.49091 19.436 4.4569 19.3418 4.3888 19.1533C4.34959 19.1684 4.33006 19.1761 4.29101 19.1916L4.29109 19.1915Z" fill="#231F20"/>
<path d="M4.85591 18.9866C4.69074 19.0409 4.60864 19.0701 4.44531 19.1317C4.45724 19.1652 4.46308 19.1819 4.47492 19.2154C4.53502 19.1926 4.56519 19.1815 4.62545 19.1599C4.67826 19.3161 4.70459 19.3942 4.7574 19.5505C4.79798 19.5359 4.81838 19.5287 4.85903 19.5146C4.80782 19.3578 4.78229 19.2794 4.73108 19.1225C4.79133 19.1016 4.82158 19.0914 4.88208 19.0715C4.87152 19.0375 4.86632 19.0206 4.85591 18.9866Z" fill="#231F20"/>
<path d="M5.24925 19.0885C5.23949 19.097 5.2234 19.1046 5.201 19.1112C5.15578 19.1247 5.1333 19.1315 5.08824 19.1454C5.07312 19.0937 5.0656 19.0678 5.05055 19.016C5.09737 19.0015 5.12081 18.9944 5.16771 18.9805C5.18955 18.9741 5.20676 18.9721 5.21932 18.9746C5.24157 18.979 5.25653 18.9959 5.26446 19.0252C5.27182 19.0525 5.26678 19.0734 5.24941 19.0885H5.24925ZM5.43571 19.2921C5.43187 19.2846 5.42698 19.2697 5.42122 19.2477C5.4177 19.2346 5.4161 19.2281 5.41274 19.215C5.40386 19.1811 5.39241 19.1571 5.37849 19.1431C5.36457 19.1291 5.34488 19.1211 5.31919 19.1187C5.34448 19.1015 5.36024 19.0802 5.36649 19.0546C5.37289 19.029 5.37305 19.0046 5.36705 18.9816C5.36216 18.9625 5.35464 18.9463 5.3444 18.933C5.33416 18.9199 5.32207 18.9087 5.30807 18.8994C5.29102 18.8881 5.27198 18.8813 5.25101 18.8791C5.23013 18.8768 5.20188 18.8803 5.16667 18.89C5.06848 18.9188 5.0195 18.9339 4.92188 18.9653C4.97989 19.1574 5.00878 19.2533 5.06704 19.4453C5.10673 19.4325 5.12658 19.4263 5.16643 19.4139C5.14442 19.3383 5.13338 19.3006 5.11137 19.2251C5.15186 19.2125 5.17219 19.2064 5.21292 19.1942C5.24189 19.1856 5.2631 19.185 5.27654 19.1922C5.2899 19.1994 5.30095 19.2184 5.30983 19.2493C5.31495 19.267 5.31759 19.276 5.32271 19.294C5.32687 19.3083 5.33192 19.3218 5.3384 19.3346C5.34144 19.3407 5.346 19.3486 5.35216 19.3585C5.39738 19.3454 5.41994 19.3391 5.46524 19.3267L5.46203 19.3146C5.45051 19.3113 5.44187 19.3038 5.43587 19.2922H5.43595L5.43571 19.2921Z" fill="#231F20"/>
<path d="M5.64533 19.0835C5.65341 19.0001 5.65773 18.9583 5.66686 18.8748C5.71031 18.9457 5.73175 18.9812 5.77425 19.0524C5.72263 19.0645 5.69678 19.0707 5.64533 19.0835ZM5.58139 18.7777C5.55298 18.9916 5.54058 19.0985 5.51953 19.312C5.5625 19.3004 5.58403 19.2947 5.62716 19.2837C5.63084 19.2403 5.63268 19.2184 5.63669 19.1749C5.70999 19.1564 5.7468 19.1475 5.82034 19.1305C5.84227 19.1678 5.85323 19.1864 5.87492 19.2239C5.91973 19.2136 5.94222 19.2087 5.98711 19.199C5.87716 19.0172 5.8205 18.927 5.70391 18.748C5.65485 18.7596 5.63036 18.7655 5.58139 18.7777Z" fill="#231F20"/>
<path d="M6.13776 19.0758C6.10775 18.9137 6.09286 18.8327 6.06293 18.6707C6.01932 18.6792 5.99755 18.6836 5.9541 18.6926C5.99267 18.8898 6.01188 18.9884 6.05045 19.1854C6.19097 19.1562 6.26155 19.143 6.40287 19.1191C6.39719 19.0834 6.39439 19.0656 6.38863 19.0299C6.28812 19.0469 6.23802 19.056 6.13776 19.0758Z" fill="#231F20"/>
<path d="M6.91752 18.9493C6.90584 18.9566 6.88912 18.9616 6.86719 18.9642C6.81806 18.9699 6.79349 18.973 6.74451 18.9794C6.73795 18.9262 6.73475 18.8997 6.72819 18.8465C6.77852 18.8399 6.80365 18.8368 6.85415 18.8308C6.87623 18.8284 6.8936 18.8294 6.90624 18.8335C6.92905 18.8407 6.94169 18.8575 6.94441 18.8835C6.94753 18.9142 6.93857 18.9361 6.9176 18.9494L6.91752 18.9493ZM6.70434 18.6539C6.74979 18.6479 6.77244 18.645 6.81789 18.6396C6.84286 18.6367 6.86431 18.6365 6.88031 18.6404C6.89936 18.6449 6.91072 18.66 6.91304 18.6833C6.9152 18.7043 6.90976 18.7197 6.89664 18.7295C6.88351 18.7393 6.86575 18.7456 6.84326 18.7482C6.79309 18.7542 6.76796 18.7573 6.71787 18.7638C6.71234 18.7198 6.7097 18.6977 6.70426 18.6538L6.70434 18.6539ZM6.96218 18.7699C6.9785 18.7594 6.99083 18.7487 6.99867 18.7373C7.01291 18.7171 7.01859 18.6919 7.01579 18.6612C7.01299 18.6317 7.00275 18.6068 6.98458 18.5872C6.95458 18.5554 6.90728 18.5422 6.84294 18.5487C6.74123 18.5605 6.69042 18.5671 6.58887 18.5815C6.61552 18.7807 6.62872 18.8803 6.65529 19.0795C6.74539 19.0666 6.79053 19.0609 6.88095 19.0502C6.90648 19.0472 6.92985 19.0423 6.95121 19.0354C6.9725 19.0284 6.99051 19.018 7.00547 19.0042C7.01867 18.9921 7.02924 18.9777 7.0374 18.9611C7.0502 18.936 7.05524 18.9088 7.05252 18.8792C7.04988 18.8504 7.04108 18.8264 7.02588 18.8077C7.01075 18.7889 6.98939 18.7762 6.96218 18.7697V18.7699Z" fill="#231F20"/>
<path d="M7.2805 18.8216C7.30163 18.7406 7.31243 18.7003 7.3346 18.6194C7.36597 18.6967 7.38141 18.7354 7.41182 18.8128C7.35932 18.8159 7.333 18.8178 7.2805 18.8216ZM7.26618 18.509C7.20456 18.7151 7.17551 18.8183 7.12109 19.0253C7.16503 19.0213 7.18703 19.0194 7.23097 19.0159C7.24153 18.9736 7.24681 18.9525 7.25761 18.9101C7.33236 18.9045 7.36981 18.902 7.44471 18.8977C7.46047 18.9381 7.46816 18.9585 7.4836 18.999C7.52921 18.9965 7.55202 18.9954 7.59763 18.9935C7.51849 18.7955 7.4772 18.697 7.39109 18.5007C7.34108 18.5037 7.31619 18.5054 7.26618 18.509Z" fill="#231F20"/>
<path d="M7.96941 18.4825C7.96973 18.6227 7.96989 18.6929 7.97021 18.8332C7.88867 18.6931 7.84649 18.6236 7.75943 18.4852C7.7131 18.4863 7.68981 18.487 7.64355 18.4886C7.6502 18.6897 7.65348 18.7901 7.6602 18.9911C7.69941 18.9898 7.7191 18.9891 7.75831 18.9883C7.75495 18.8455 7.75327 18.7742 7.74999 18.6315C7.83825 18.7721 7.88099 18.8429 7.96349 18.9853C8.0055 18.9851 8.02655 18.9853 8.0688 18.9855C8.07024 18.7844 8.07096 18.684 8.0724 18.4827C8.03119 18.4824 8.01054 18.4823 7.96941 18.4825Z" fill="#231F20"/>
<path d="M8.49154 18.495C8.40599 18.5737 8.36398 18.6136 8.28164 18.6942C8.2838 18.6113 8.285 18.5699 8.28732 18.487C8.2437 18.4857 8.2221 18.4851 8.17856 18.4844C8.17512 18.6855 8.17336 18.7859 8.16992 18.9871C8.21137 18.9878 8.2321 18.9884 8.27355 18.9895C8.27547 18.9223 8.27627 18.8887 8.27819 18.8214C8.2994 18.8015 8.30996 18.7915 8.33141 18.7718C8.39199 18.8618 8.42168 18.9069 8.47945 18.9978C8.53355 19.0005 8.5606 19.002 8.61461 19.0056C8.53499 18.8818 8.49394 18.8203 8.40919 18.6982C8.49754 18.6191 8.54251 18.58 8.63414 18.5031C8.57708 18.4994 8.54859 18.4979 8.49154 18.495Z" fill="#231F20"/>
<path d="M9.20228 18.94C9.17412 18.9674 9.13915 18.9786 9.09737 18.9737C9.0556 18.9689 9.02375 18.95 9.00174 18.9168C8.97982 18.8838 8.97125 18.839 8.97646 18.7826C8.98182 18.7263 8.99878 18.6842 9.02735 18.6563C9.05608 18.6284 9.09233 18.6169 9.13546 18.6219C9.17876 18.6269 9.21133 18.6463 9.23309 18.6801C9.2547 18.7139 9.26198 18.7588 9.2551 18.8147C9.24822 18.8709 9.23045 18.9126 9.2022 18.9399L9.20228 18.94ZM9.14507 18.5333C9.06976 18.5246 9.00975 18.5408 8.96685 18.5733C8.9126 18.6145 8.87731 18.6807 8.86962 18.7725C8.86202 18.8624 8.88443 18.9336 8.92892 18.9863C8.96341 19.0273 9.01607 19.0538 9.08777 19.0621C9.15931 19.0703 9.21645 19.0565 9.25902 19.0244C9.3136 18.9832 9.35057 18.9188 9.36249 18.8293C9.37457 18.738 9.35449 18.6655 9.31056 18.613C9.27574 18.5714 9.22061 18.5421 9.14515 18.5333H9.14507Z" fill="#231F20"/>
<path d="M9.40836 19.0906C9.4499 19.0968 9.47062 19.1001 9.51199 19.1067C9.52464 19.0235 9.53088 18.9819 9.54352 18.8985C9.63387 18.913 9.67892 18.9209 9.76895 18.9375C9.77503 18.9032 9.77799 18.8859 9.78391 18.8515C9.69309 18.8347 9.64771 18.8269 9.55649 18.8121C9.56337 18.7664 9.56689 18.7436 9.57385 18.6979C9.67892 18.7148 9.73134 18.7239 9.83609 18.7438C9.84225 18.709 9.84529 18.6916 9.85145 18.6569C9.70253 18.6287 9.62787 18.6161 9.47814 18.5938C9.45022 18.7925 9.43621 18.8919 9.4082 19.0906H9.40836Z" fill="#231F20"/>
<path d="M10.4416 18.7858C10.4094 18.9221 10.3933 18.9903 10.3609 19.1265C10.3138 18.9702 10.2888 18.8923 10.2359 18.7365C10.1904 18.726 10.1676 18.7209 10.122 18.7109C10.0817 18.9078 10.0617 19.0062 10.0215 19.2031C10.0601 19.2114 10.0795 19.2157 10.118 19.2245C10.1478 19.0852 10.1627 19.0155 10.1927 18.8761C10.2463 19.0345 10.2715 19.1138 10.3191 19.2726C10.3603 19.2829 10.3808 19.2882 10.4219 19.299C10.47 19.1041 10.4942 19.0066 10.5422 18.8117C10.5019 18.8011 10.4819 18.796 10.4416 18.7858V18.7858Z" fill="#231F20"/>
<path d="M10.6344 18.8367C10.5845 19.0311 10.5597 19.1284 10.5098 19.3227C10.5506 19.3339 10.5709 19.3396 10.6117 19.3512C10.6636 19.1573 10.6895 19.0605 10.7414 18.8666C10.6985 18.8544 10.6773 18.8484 10.6344 18.8367Z" fill="#231F20"/>
<path d="M10.9878 19.2716C11.0336 19.2864 11.0564 19.294 11.1021 19.3094C11.0872 19.3388 11.0655 19.3594 11.0375 19.3714C11.0097 19.3834 10.9786 19.3839 10.9442 19.3728C10.9093 19.3614 10.8817 19.3393 10.861 19.3062C10.8407 19.2731 10.8387 19.227 10.8556 19.1677C10.8725 19.1089 10.8983 19.0688 10.9329 19.0478C10.9678 19.0267 11.0056 19.0227 11.0465 19.0358C11.0677 19.0427 11.086 19.0525 11.1012 19.0654C11.1282 19.0886 11.1406 19.118 11.1383 19.1533C11.1795 19.167 11.2001 19.1741 11.2412 19.1884C11.2506 19.1405 11.2408 19.0944 11.2115 19.0504C11.1823 19.0063 11.135 18.9734 11.0701 18.9525C10.9952 18.9285 10.9277 18.9334 10.8691 18.9669C10.8102 19.0003 10.7705 19.0567 10.7491 19.1349C10.7277 19.2122 10.7337 19.2798 10.7636 19.3372C10.7928 19.3932 10.839 19.4322 10.9034 19.4528C10.9425 19.4654 10.9778 19.468 11.0097 19.4608C11.0283 19.4565 11.0508 19.4466 11.0776 19.4307C11.0741 19.456 11.0723 19.4686 11.0688 19.4938C11.0956 19.5029 11.1091 19.5075 11.1358 19.5168C11.1693 19.4145 11.186 19.3634 11.2194 19.2612C11.1366 19.2324 11.0952 19.2185 11.012 19.1916C11.0023 19.2237 10.9975 19.2397 10.9878 19.2716Z" fill="#231F20"/>
<path d="M11.4698 19.199C11.5757 19.2385 11.6285 19.259 11.7337 19.3015C11.7462 19.2683 11.7525 19.2517 11.7651 19.2186C11.6183 19.159 11.5444 19.1309 11.396 19.0774C11.3317 19.2673 11.2995 19.3623 11.2354 19.5521C11.3815 19.6047 11.4542 19.6327 11.5987 19.6914C11.6116 19.6577 11.6179 19.6408 11.6308 19.6072C11.5244 19.564 11.4709 19.5431 11.3634 19.5031C11.3804 19.4545 11.3889 19.4301 11.406 19.3815C11.5014 19.417 11.549 19.4356 11.6437 19.4736C11.656 19.4411 11.6621 19.4248 11.6746 19.3923C11.579 19.3538 11.531 19.3352 11.4347 19.2994C11.4489 19.2593 11.4558 19.2392 11.4698 19.199Z" fill="#231F20"/>
<path d="M12.0415 19.5685C12.0285 19.5686 12.0113 19.5639 11.9895 19.5543C11.9459 19.5349 11.924 19.5253 11.8802 19.5065C11.9004 19.4567 11.9104 19.4317 11.9305 19.3818C11.9762 19.4014 11.9988 19.4112 12.0442 19.4314C12.0652 19.4407 12.0799 19.4506 12.0881 19.4608C12.1029 19.479 12.1041 19.5019 12.0923 19.5297C12.0812 19.5555 12.0643 19.5685 12.0415 19.5685H12.0415ZM12.1543 19.6197C12.1751 19.6042 12.1903 19.5854 12.1999 19.5637C12.2078 19.5457 12.2118 19.5283 12.212 19.5113C12.2121 19.4944 12.2096 19.4778 12.2043 19.4613C12.1979 19.4414 12.187 19.4235 12.1721 19.4079C12.157 19.3924 12.1328 19.3767 12.0992 19.3609C12.0044 19.3185 11.9568 19.298 11.8614 19.2581C11.7883 19.4445 11.7518 19.5378 11.6787 19.7243C11.7176 19.7405 11.737 19.7487 11.7757 19.7653C11.8051 19.6925 11.8198 19.6561 11.8492 19.5834C11.8886 19.6002 11.9083 19.6089 11.9476 19.6262C11.9757 19.6387 11.9926 19.6523 11.9987 19.6666C12.0046 19.6809 12.0016 19.7029 11.9896 19.7325C11.9826 19.7498 11.979 19.7584 11.9721 19.7756C11.9664 19.7893 11.9622 19.8031 11.9593 19.8172C11.9578 19.8239 11.9566 19.8331 11.9552 19.8447C11.9986 19.8645 12.0203 19.8746 12.0636 19.8948L12.0687 19.8834C12.0616 19.8733 12.0595 19.8617 12.0619 19.8486C12.0635 19.8405 12.0688 19.8258 12.0779 19.8049C12.0834 19.7926 12.0861 19.7865 12.0915 19.7741C12.1055 19.742 12.1113 19.716 12.109 19.696C12.1068 19.6762 12.0963 19.6568 12.0776 19.6381C12.108 19.6416 12.1336 19.6356 12.1543 19.6198V19.6197Z" fill="#231F20"/>
<path d="M12.3481 19.4757C12.2659 19.6581 12.2248 19.7493 12.1426 19.9316C12.1814 19.9502 12.2008 19.9596 12.2396 19.9789C12.3236 19.7974 12.3658 19.7066 12.4499 19.5252C12.4092 19.5051 12.3889 19.4952 12.3481 19.4756V19.4757Z" fill="#231F20"/>
<path d="M12.6595 19.9843C12.6114 19.9584 12.5875 19.9455 12.5393 19.9203C12.5985 19.8625 12.6283 19.8338 12.6884 19.7767C12.6773 19.86 12.6715 19.9014 12.6595 19.9844V19.9843ZM12.2969 20.0078C12.3374 20.0283 12.3578 20.0386 12.3983 20.0595C12.4286 20.029 12.444 20.0138 12.4747 19.9835C12.5434 20.0194 12.5777 20.0376 12.6459 20.0749C12.6395 20.1182 12.6362 20.1397 12.6294 20.1829C12.6708 20.2057 12.6916 20.2174 12.7328 20.2408C12.7622 20.028 12.7753 19.9209 12.7978 19.706C12.7522 19.6813 12.7294 19.669 12.6835 19.645C12.5258 19.7878 12.4485 19.8604 12.297 20.0079L12.2969 20.0078Z" fill="#231F20"/>
<path d="M4.49438 11.3617C2.90527 11.3885 2.25876 10.7691 1.65282 9.92067C1.0468 9.07218 1.5047 7.92744 1.5047 7.88711C1.5047 7.88711 1.59897 8.45272 1.58544 8.61428C1.572 8.77593 1.34049 8.9359 2.07023 10.0956C2.79996 11.2555 3.82098 10.9441 4.2788 10.9171C4.73669 10.8902 4.64243 10.6883 4.77703 10.6343C4.91171 10.5805 5.27533 11.0248 5.27533 11.0248C5.27533 11.0248 6.08333 11.3346 4.49422 11.3616H4.4943L4.49438 11.3617ZM5.07351 5.66269C5.7738 5.85483 6.93198 7.6716 7.14741 7.7794C7.36291 7.88711 7.45718 7.9949 7.36291 8.04868C7.26864 8.10261 6.79122 7.98138 6.55187 7.98138C6.31252 7.98138 6.15087 7.90063 6.13743 7.7794C6.12398 7.65824 6.21817 7.13289 5.92192 6.76942C5.6256 6.40579 5.15426 5.66277 4.11731 5.66277H3.59212C3.59212 5.66277 4.19813 5.42262 5.07359 5.66277L5.07351 5.66269ZM6.13743 11.2808C6.16424 11.0789 5.24853 10.3381 5.24853 10.3381L4.97917 10.1899C4.97917 10.1899 3.87644 10.9602 2.9188 10.3516C1.96107 9.7431 1.93571 8.8702 2.19154 7.75243C2.44746 6.63458 3.58435 6.22046 3.64597 6.18653C4.04681 5.9663 4.49446 6.06897 5.06007 6.40811C5.62568 6.74725 5.78732 7.28101 5.7738 7.5234C5.76036 7.76579 5.84118 8.12942 6.01627 8.22377C6.19136 8.31804 7.21479 8.52001 7.62835 8.5469C8.04183 8.57395 7.87466 8.14286 7.83433 7.88703C7.79392 7.63111 6.90509 6.82311 6.33941 6.18653C5.77372 5.54978 5.11385 5.03211 3.85339 5.15318C2.59294 5.27442 1.93563 6.16332 1.45076 6.79615C0.96598 7.42921 0.837382 8.80794 1.27567 9.90715C1.71404 11.0064 2.82445 11.5501 3.4099 11.7252C3.99528 11.9003 5.38329 11.6983 5.7738 11.6579C6.16424 11.6176 6.11046 11.4828 6.13743 11.2808Z" fill="#D8AF7F"/>
<path d="M14.2529 9.92085C13.6469 10.7692 13.0005 11.3887 11.4114 11.3618C9.82231 11.3349 10.6302 11.0251 10.6302 11.0251C10.6302 11.0251 10.9939 10.5807 11.1285 10.6346C11.2632 10.6885 11.169 10.8905 11.6268 10.9174C12.0847 10.9444 13.1056 11.2556 13.8354 10.0959C14.5652 8.93616 14.3336 8.77619 14.3202 8.61455C14.3068 8.45298 14.401 7.88737 14.401 7.88737C14.401 7.9277 14.8589 9.07244 14.2529 9.92093V9.92085ZM11.7883 5.66287C10.7513 5.66287 10.2801 6.40597 9.98372 6.76952C9.68747 7.13299 9.78174 7.65834 9.7683 7.7795C9.75477 7.90073 9.59321 7.98148 9.35378 7.98148C9.11443 7.98148 8.637 8.10271 8.54274 8.04878C8.44847 7.99492 8.54274 7.88721 8.75824 7.7795C8.97366 7.67179 10.1319 5.85493 10.8322 5.66279C11.7075 5.42264 12.3136 5.66279 12.3136 5.66279H11.7883V5.66287ZM14.4549 6.79641C13.9701 6.1635 13.3127 5.27468 12.0523 5.15344C10.7919 5.03229 10.132 5.55004 9.5664 6.18679C9.00079 6.82338 8.11189 7.63146 8.07148 7.88729C8.03099 8.14313 7.86398 8.57413 8.27746 8.54717C8.69102 8.52028 9.71452 8.31822 9.88953 8.22403C10.0646 8.12968 10.1454 7.76606 10.132 7.52366C10.1186 7.28127 10.2801 6.74751 10.8458 6.40837C11.4115 6.06923 11.8592 5.96648 12.2598 6.18679C12.3215 6.22072 13.4585 6.63484 13.7143 7.75269C13.9702 8.87046 13.9448 9.74336 12.9871 10.3518C12.0294 10.9604 10.9266 10.1901 10.9266 10.1901L10.6573 10.3383C10.6573 10.3383 9.74149 11.079 9.76854 11.281C9.79543 11.483 9.74149 11.6178 10.1322 11.6581C10.5226 11.6985 11.9106 11.9005 12.4961 11.7254C13.0814 11.5503 14.1919 11.0065 14.6301 9.90733C15.0684 8.80812 14.9399 7.4294 14.455 6.79633L14.4549 6.79641Z" fill="#D8AF7F"/>
<path d="M10.6581 14.9524C10.5432 15.8181 10.1226 16.2629 10.1226 16.2629C10.1226 16.2629 10.2233 16.0166 10.3125 15.7983C10.6873 14.881 10.2341 14.1815 10.0361 13.781C9.83813 13.3807 9.36319 13.2643 9.26628 13.2063C9.16945 13.1483 9.16009 12.9745 9.24659 12.7629C9.33318 12.5511 9.40392 12.0827 9.4833 12.0198C9.56261 11.9569 9.61902 12.0812 9.63143 12.3128C9.64399 12.5443 10.7502 14.26 10.6581 14.9525V14.9524ZM5.84831 16.359C5.35528 15.5002 5.06912 14.6927 5.66617 13.2972C6.26315 11.9017 6.23098 12.7342 6.23098 12.7342C6.23098 12.7342 6.47249 13.2249 6.37871 13.3236C6.28476 13.4223 6.14936 13.2621 5.96114 13.6568C5.77309 14.0516 5.14266 14.8363 5.85223 15.923C6.56172 17.0097 6.7797 16.8659 6.92015 16.9154C7.06059 16.9649 7.5012 17.2634 7.5012 17.2634C7.46743 17.2481 6.34117 17.2177 5.84823 16.3591L5.84831 16.359ZM9.78923 11.6642C9.58917 11.5312 9.28788 11.2195 9.16105 11.5955C9.03413 11.9715 8.83375 12.9537 8.84951 13.1444C8.86536 13.3352 9.14136 13.545 9.34966 13.6252C9.55788 13.7055 10.5541 14.742 9.40656 16.2063C9.36615 16.258 8.89321 16.9058 7.86274 16.707C6.8322 16.5082 6.10879 16.1538 5.94434 15.0752C5.77981 13.9965 6.82476 13.3139 6.82476 13.3139L6.79779 13.0194C6.79779 13.0194 6.50722 11.9275 6.32789 11.8745C6.14864 11.8215 6.05517 11.7227 5.88008 12.0528C5.70499 12.3829 5.03375 13.5338 4.96909 14.1182C4.90443 14.7027 4.95941 15.892 5.72347 16.6976C6.48746 17.5034 7.69101 17.914 8.39746 17.7259C9.10399 17.5378 10.0874 17.2943 10.6448 16.2254C11.2021 15.1565 11.0061 14.3758 10.6761 13.6333C10.3464 12.8908 9.98953 11.7972 9.78931 11.6642H9.78923Z" fill="#D8AF7F"/>
</svg>
