<svg width="12" height="17" viewBox="0 0 12 17" fill="none" xmlns="http://www.w3.org/2000/svg">
<path d="M6 0C6.33137 0 6.6 0.268629 6.6 0.6L6.6 4.8H5.4V0.6C5.4 0.268629 5.66863 0 6 0Z" fill="#E9DDEE"/>
<path d="M5.4 4.8L5.4 9.35147L4.02426 7.97574C3.78995 7.74142 3.41005 7.74142 3.17574 7.97574C2.94142 8.21005 2.94142 8.58995 3.17574 8.82426L5.57574 11.2243C5.68826 11.3368 5.84087 11.4 6 11.4C6.15913 11.4 6.31174 11.3368 6.42426 11.2243L8.82426 8.82426C9.05858 8.58995 9.05858 8.21005 8.82426 7.97574C8.58995 7.74142 8.21005 7.74142 7.97574 7.97574L6.6 9.35147V4.8H9.6C10.9255 4.8 12 5.87452 12 7.2V14.4C12 15.7255 10.9255 16.8 9.6 16.8H2.4C1.07452 16.8 0 15.7255 0 14.4V7.2C0 5.87452 1.07452 4.8 2.4 4.8H5.4Z" fill="#E9DDEE"/>
</svg>
