<svg width="43" height="43" viewBox="0 0 43 43" fill="none" xmlns="http://www.w3.org/2000/svg">
<path opacity="0.1" fill-rule="evenodd" clip-rule="evenodd" d="M21.716 41.2973C32.8438 41.2973 41.8647 32.2764 41.8647 21.1486C41.8647 10.0209 32.8438 1 21.716 1C10.5882 1 1.56738 10.0209 1.56738 21.1486C1.56738 32.2764 10.5882 41.2973 21.716 41.2973Z" stroke="black" stroke-width="1.72703"/>
<path d="M23.5496 15.9907H25.4014C25.5718 15.9907 25.7101 15.8604 25.7101 15.6999V13.9549C25.7101 13.7944 25.5718 13.6641 25.4014 13.6641H23.5496C21.678 13.6641 20.1546 15.099 20.1546 16.8632V18.899H17.9942C17.8238 18.899 17.6855 19.0293 17.6855 19.1898V20.9348C17.6855 21.0953 17.8238 21.2256 17.9942 21.2256H20.1546V27.333C20.1546 27.4936 20.2929 27.6239 20.4633 27.6239H22.3151C22.4854 27.6239 22.6237 27.4936 22.6237 27.333V21.2256H24.7841C24.9169 21.2256 25.0348 21.1453 25.0774 21.0267L25.6946 19.2817C25.7261 19.1933 25.7101 19.0956 25.652 19.0194C25.5934 18.9438 25.5008 18.899 25.4014 18.899H22.6237V16.8632C22.6237 16.3822 23.0391 15.9907 23.5496 15.9907Z" fill="black"/>
</svg>
