<svg width="28" height="28" viewBox="0 0 28 28" fill="none" xmlns="http://www.w3.org/2000/svg">
<path d="M27.1552 13.7931C27.1552 21.1728 21.1728 27.1552 13.7931 27.1552C6.41344 27.1552 0.431035 21.1728 0.431035 13.7931C0.431035 6.41344 6.41344 0.431035 13.7931 0.431035C21.1728 0.431035 27.1552 6.41344 27.1552 13.7931Z" fill="white" stroke="white" stroke-width="0.862069"/>
<path d="M15.0753 11.0546C14.9614 11.0546 14.8643 11.095 14.7839 11.1759C14.7035 11.2567 14.6633 11.3544 14.6633 11.4689V12.4491C14.6633 12.476 14.6717 12.4996 14.6884 12.5198C14.7052 12.54 14.7303 12.5501 14.7638 12.5501H16.2712C16.3851 12.5501 16.4823 12.5905 16.5627 12.6714C16.6431 12.7522 16.6833 12.8499 16.6833 12.9644V13.985C16.6833 14.0995 16.6431 14.1972 16.5627 14.278C16.4823 14.3589 16.3851 14.3993 16.2712 14.3993H14.7738C14.7403 14.3993 14.7152 14.4094 14.6985 14.4296C14.6817 14.4498 14.6733 14.4768 14.6733 14.5105V17.9764C14.6733 18.0909 14.6331 18.1886 14.5527 18.2695C14.4723 18.3503 14.3752 18.3907 14.2613 18.3907H13.2362C13.129 18.3907 13.0336 18.3503 12.9498 18.2695C12.8661 18.1886 12.8242 18.0909 12.8242 17.9764V14.5105C12.8242 14.4768 12.8158 14.4498 12.7991 14.4296C12.7823 14.4094 12.7572 14.3993 12.7237 14.3993H11.5781C11.4642 14.3993 11.367 14.3589 11.2866 14.278C11.2062 14.1972 11.166 14.0995 11.166 13.985V12.9644C11.166 12.8499 11.2062 12.7522 11.2866 12.6714C11.367 12.5905 11.4642 12.5501 11.5781 12.5501H12.7237C12.7572 12.5501 12.7823 12.54 12.7991 12.5198C12.8158 12.4996 12.8242 12.476 12.8242 12.4491V11.0445C12.8242 10.5325 13.0034 10.0963 13.3619 9.73592C13.7203 9.37551 14.1541 9.19531 14.6633 9.19531H16.2612C16.3751 9.19531 16.4722 9.23573 16.5526 9.31657C16.633 9.39741 16.6732 9.49509 16.6732 9.60961V10.6403C16.6732 10.7548 16.633 10.8525 16.5526 10.9333C16.4722 11.0142 16.3751 11.0546 16.2612 11.0546H15.0753Z" fill="#0C111A"/>
</svg>
