<svg width="187" height="481" viewBox="0 0 187 481" fill="none" xmlns="http://www.w3.org/2000/svg">
<path d="M16.4329 337.62C15.2454 337.62 14.366 337.555 13.9864 337.396C13.5434 337.21 12.192 336.646 0.393555 315.586L2.51468 314.398C6.9209 322.263 13.603 333.709 15.0179 335.173C16.302 335.381 23.3583 334.889 29.6105 334.261L29.8552 336.681C25.9184 337.075 19.8777 337.62 16.4329 337.62Z" fill="#F26647"/>
<path d="M59.2005 347.83V348.534C59.2005 348.534 58.5565 361.902 48.5486 361.326C48.5235 361.326 48.4997 361.319 48.4746 361.319C42.2857 360.919 34.6251 358.03 29.4889 355.886C26.261 354.535 24.0235 353.477 23.7749 353.52C23.1242 353.623 31.3548 387.864 31.2451 389.814C31.2332 390.076 31.1723 390.355 31.0811 390.642C30.4979 392.496 28.4614 394.72 27.2395 394.904C27.1113 394.923 26.8508 394.685 26.4805 394.222C22.7593 389.596 8.02911 362.725 7.6271 353.951C7.196 344.309 12.0704 338.503 18.6797 337.396C23.5553 336.581 37.8121 338.545 44.9543 339.633C47.4907 340.022 49.1252 340.296 49.1252 340.296L59.2005 347.83Z" fill="#0A2533"/>
<path opacity="0.25" d="M31.2475 389.815C31.2356 390.077 31.1748 390.356 31.0836 390.643C30.5004 392.497 28.4639 394.721 27.242 394.905C27.1137 394.923 26.8532 394.685 26.483 394.223C31.7236 386.824 18.0249 350.803 21.0043 350.7C22.4748 350.651 25.7279 353.15 29.4914 355.886C26.2635 354.536 24.0259 353.478 23.7773 353.521C23.1254 353.624 31.3573 387.863 31.2475 389.815Z" fill="#010101"/>
<path opacity="0.25" d="M59.2022 347.83V348.534C59.2022 348.534 58.5582 361.903 48.5503 361.326C50.5194 359.752 50.8843 356.979 50.7376 353.623C50.5683 349.738 46.974 343.088 44.9561 339.635C47.4924 340.024 49.1269 340.297 49.1269 340.297L59.2022 347.83Z" fill="#010101"/>
<path d="M37.9041 303.937C37.5709 304.46 37.3514 304.898 37.3514 305.231C37.3514 305.231 37.3395 305.212 37.3157 305.171C37.1993 304.964 36.7801 304.241 36.2406 303.401C35.3281 301.992 34.0692 300.239 33.3088 300.026C32.0869 299.692 28.8352 303.801 24.4395 304.13C24.1473 304.156 23.8563 304.16 23.5575 304.15C18.7188 303.93 13.5866 297.067 17.7085 288.98C19.1499 291.941 22.1108 292.014 22.1108 292.014C22.1108 292.014 20.3044 291.65 20.2383 289.412C25.508 290.348 28.252 286.378 32.805 287.825C37.3514 289.265 37.0671 292.013 37.0671 292.013C37.0671 292.013 40.5317 290.639 41.6135 294.974C42.4823 298.441 39.2424 301.858 37.9041 303.937Z" fill="#0A2533"/>
<path d="M37.3146 305.173C37.0052 306.267 36.4141 307.46 35.618 308.425C34.6526 309.606 33.3752 310.468 31.9338 310.432C28.8579 310.36 25.7992 306.231 24.4385 304.132C28.8341 303.804 32.0859 299.696 33.3078 300.029C34.0681 300.242 35.3257 301.993 36.2395 303.404C36.7777 304.243 37.1983 304.967 37.3146 305.173Z" fill="url(#paint0_linear_314_21722)"/>
<path d="M41.758 305.59C41.758 305.59 39.4478 310.868 38.579 309.712C38.1109 309.087 36.7607 308.674 35.6182 308.423C36.4156 307.458 37.0054 306.265 37.3148 305.171C37.3399 305.212 37.3505 305.232 37.3505 305.232C37.3505 304.898 37.57 304.46 37.9033 303.938C39.5814 305.203 41.758 305.59 41.758 305.59Z" fill="url(#paint1_linear_314_21722)"/>
<path d="M58.0087 350.163C54.3245 349.622 44.3603 338.787 44.3603 334.124C44.3603 333.467 44.2875 332.737 44.1659 331.943C43.4002 327.091 40.5981 319.978 39.4304 314.95C38.0749 309.101 40.0255 306.912 40.0255 306.912C44.5613 299.113 54.8257 314.573 60.6799 326.969L60.6866 326.976C62.6556 331.152 63.9582 335.03 64.0785 337.628C64.4977 346.404 61.6929 350.703 58.0087 350.163Z" fill="#5462AD"/>
<path opacity="0.25" d="M58.0092 350.159C54.325 349.618 44.3608 338.784 44.3608 334.121C44.3608 333.464 44.288 332.734 44.1664 331.939L44.1426 329.86L47.7527 310.939C47.7527 310.939 52.7381 316.868 53.5342 327.483C54.325 338.097 66.0124 340.408 60.6857 326.972C62.6548 331.148 63.9573 335.027 64.0777 337.624C64.4982 346.401 61.6934 350.7 58.0092 350.159Z" fill="#010101"/>
<path d="M50.2825 326.761C50.1859 326.845 50.0153 326.912 49.7905 326.974C48.082 327.446 43.1032 327.375 41.0297 326.968C40.7202 326.907 40.4703 326.834 40.3129 326.761C38.9456 326.111 40.3129 324.519 39.8818 321.703C39.4494 318.883 38.3664 310.651 42.5557 308.121C46.9381 305.476 50.1357 315.488 50.2825 320.475C50.4293 325.461 51.2253 325.965 50.2825 326.761Z" fill="#5462AD"/>
<path d="M49.789 326.97C49.789 326.97 49.5893 339.147 47.2658 344.893C47.2658 344.899 47.2658 344.899 47.2658 344.904C46.5425 346.692 45.6128 347.853 44.4148 347.83C39.3751 347.72 28.0554 335.75 27.0226 335.312C25.9951 334.879 20.8457 335.64 21.0097 334.879C21.1737 334.12 23.1797 332.441 25.3432 331.633C27.5146 330.82 27.1311 331.305 41.0532 337.701C40.8641 336.473 40.9435 331.159 41.0043 328.15C41.0109 327.693 41.0241 327.293 41.0294 326.965C43.1029 327.371 48.0804 327.444 49.789 326.97Z" fill="url(#paint2_linear_314_21722)"/>
<path d="M35.3992 398.048C35.7523 400.218 21.1729 415.058 21.932 411.161C22.6857 407.258 27.2401 394.905 27.2401 394.905C28.462 394.721 30.4984 392.498 31.0816 390.643C32.2744 392.709 35.1017 396.248 35.3992 398.048Z" fill="#5462AD"/>
<path opacity="0.25" d="M48.548 352.473C48.548 352.473 25.1456 348.078 20.5225 350.203C15.8994 352.327 28.9805 389.311 28.9805 389.311" stroke="white" stroke-width="0.607905" stroke-miterlimit="10"/>
<path opacity="0.25" d="M47.2668 344.893C47.7111 342.447 48.0457 335.341 46.8172 332.532C45.9907 330.634 42.9148 329.005 41.0039 328.15C41.0105 327.693 41.0237 327.293 41.029 326.965C43.1026 327.372 48.0814 327.444 49.7899 326.971C49.7899 326.97 49.5902 339.147 47.2668 344.893Z" fill="#010101"/>
<path d="M186.325 267.284L139.55 259.246L139.477 259.665L36.178 375.967L34.0449 405.04L48.861 407.587L74.5049 411.995L108.927 417.911L112.198 418.47L109.736 432.812L108.594 439.446L104.83 461.362L135.276 466.596L151.607 469.4L158.974 426.508L179.523 430.033L185.724 393.939L165.175 390.413L186.325 267.284ZM127.932 326.881L118.393 382.376L106.982 380.412L82.024 376.127L95.8431 359.633L99.0049 355.858L125.354 324.408L129.08 320.19L127.932 326.881Z" fill="#6561AB"/>
<path opacity="0.25" d="M108.926 417.912L74.5039 411.996C78.5584 398.602 83.6178 380.144 82.0244 376.127L106.982 380.412C108.581 383.076 109.845 386.74 110.186 391.77C110.793 400.671 109.467 409.759 108.926 417.912Z" fill="#010101"/>
<path d="M83.5147 376.386C83.5147 376.386 87.2677 371.178 95.7191 372.805C104.171 374.432 104.821 384.833 101.137 396.318C97.4528 407.803 96.5866 447.892 98.3189 460.894C100.054 473.895 98.9696 479.964 94.853 480.396C90.7363 480.83 88.7845 464.793 91.1688 453.527C93.553 442.258 93.3362 431.856 89.4351 433.59C85.534 435.325 88.7845 439.659 86.8339 443.558C84.8834 447.458 79.0331 445.075 79.25 437.707C79.4669 430.338 91.2481 382.456 83.5147 376.386Z" fill="#9DC2E7"/>
<path opacity="0.25" d="M165.174 390.413L185.722 393.938L179.522 430.033L158.973 426.507L151.605 469.399L135.274 466.595L163.977 287.504L186.324 267.283L165.174 390.413Z" fill="#010101"/>
<path d="M151.192 0V279.139" stroke="#CDE3F0" stroke-width="1.21594" stroke-miterlimit="10"/>
<path d="M82.0217 269.18C86.6893 269.18 90.4732 265.396 90.4732 260.729C90.4732 256.061 86.6893 252.277 82.0217 252.277C77.3541 252.277 73.5703 256.061 73.5703 260.729C73.5703 265.396 77.3541 269.18 82.0217 269.18Z" fill="#9DC2E7"/>
<path d="M129.075 250.355C130.875 250.355 132.335 248.896 132.335 247.096C132.335 245.295 130.875 243.836 129.075 243.836C127.275 243.836 125.815 245.295 125.815 247.096C125.815 248.896 127.275 250.355 129.075 250.355Z" fill="#6561AB"/>
<defs>
<linearGradient id="paint0_linear_314_21722" x1="30.2902" y1="310.174" x2="31.4821" y2="298.905" gradientUnits="userSpaceOnUse">
<stop stop-color="#FBC4AF"/>
<stop offset="1" stop-color="#EA8B69"/>
</linearGradient>
<linearGradient id="paint1_linear_314_21722" x1="45.3087" y1="306.405" x2="34.9067" y2="307.163" gradientUnits="userSpaceOnUse">
<stop stop-color="#FBC4AF"/>
<stop offset="1" stop-color="#EA8B69"/>
</linearGradient>
<linearGradient id="paint2_linear_314_21722" x1="31.6916" y1="348.857" x2="41.2263" y2="314.619" gradientUnits="userSpaceOnUse">
<stop stop-color="#FBC4AF"/>
<stop offset="1" stop-color="#EA8B69"/>
</linearGradient>
</defs>
</svg>
