<svg width="166" height="468" viewBox="0 0 166 468" fill="none" xmlns="http://www.w3.org/2000/svg">
<path d="M156.9 402.716L144.74 367.047L124.436 373.964L82.9648 252.277L36.7299 268.03L36.8687 268.444L21.9561 332.815L0.738281 424.391L13.1159 451.72L56.7734 436.843L72.666 431.425L90.3583 425.393L104.803 467.787L151.039 452.034L136.593 409.641L156.9 402.716ZM72.8299 391.553L62.342 395.128L42.2562 401.974L55.9655 333.906L57.2548 328.258L78.1989 389.722L72.8299 391.553Z" fill="#9DC2E7"/>
<path opacity="0.25" d="M136.593 409.64L151.039 452.033L121.589 439.436L74.5209 269.847L57.2544 328.26L49.2592 361.344L21.957 332.812L36.8697 268.442L36.7308 268.028L82.9644 252.277L124.435 373.965L144.739 367.047L156.899 402.716L136.593 409.64Z" fill="#010101"/>
<path opacity="0.25" d="M72.667 431.421L56.7744 436.839L59.1098 404.087V398.116L62.343 395.125L64.4231 393.204L72.8296 391.551C72.8309 391.551 72.3099 415.608 72.667 431.421Z" fill="#010101"/>
<path d="M72.8324 391.554C72.8324 391.554 68.8599 386.566 61.9253 387.142C54.9906 387.719 51.1213 390.32 50.8886 397.543C50.6558 404.767 52.3789 441.171 50.796 455.618C49.2131 470.065 59.0623 471.51 59.6269 460.819C60.1929 450.129 56.0076 416.613 59.1099 411.124C62.2149 405.634 60.3252 417.191 63.5809 420.948C66.838 424.703 70.304 418.058 66.838 409.102C63.3693 400.144 72.8324 391.554 72.8324 391.554Z" fill="url(#paint0_linear_314_21720)"/>
<path d="M58.4829 262.535C58.0095 264.358 57.2187 266.706 55.9902 269.848C54.2393 274.353 51.5946 280.493 47.6975 289.053C47.6009 293.401 46.215 321.129 45.8382 327.512C45.7892 328.291 45.7588 328.752 45.7469 328.813C45.6927 329.092 44.689 329.628 43.5954 329.902C42.5613 330.169 41.4558 330.204 40.9797 329.572C40.0011 328.272 33.3931 302.049 33.0718 295.875C32.7438 289.698 32.4211 291.108 40.0011 266.517C38.159 267.38 26.2191 267.057 26.2191 267.057C26.2191 267.057 28.4077 297.175 28.4196 297.393C28.4196 297.424 28.4011 297.496 28.3588 297.6C28.2199 298.013 27.7809 298.933 27.3074 299.394C27.0945 299.606 26.8751 299.727 26.6741 299.666C26.559 299.637 26.2786 299.381 25.8727 298.95C23.5809 296.516 17.2943 288.335 13.8891 280.705C9.88228 271.712 8.90239 265.426 12.6977 259.146C16.4916 252.86 35.702 252.379 35.702 252.379C36.9186 252.719 39.7141 253.053 42.4806 253.711C43.2952 253.9 44.1098 254.124 44.8768 254.38C49.0847 255.777 57.1023 257.552 58.8294 256.556C59.2129 257.897 59.2975 259.466 58.4829 262.535Z" fill="#6561AB"/>
<path d="M74.4055 241.598C73.6451 242.029 64.8181 241.701 58.8528 239.426C58.8832 240.478 59.0168 242.132 59.1688 244.011C59.4069 246.972 59.6806 250.492 59.6132 253.057C59.5761 254.888 59.3645 256.236 58.8528 256.547C58.8462 256.554 58.8409 256.559 58.8276 256.559C57.9112 257.088 55.2228 256.833 52.2686 256.274C50.359 255.909 48.3411 255.417 46.6206 254.923C45.9938 254.741 45.4053 254.56 44.8764 254.382C41.4963 253.252 37.2779 252.819 35.7016 252.382C35.3062 252.272 35.0814 252.169 35.0682 252.047C35.0206 251.451 36.5334 250.102 37.2449 248.691C37.3295 248.515 37.4445 248.253 37.5728 247.919C38.1507 246.442 39.0565 243.645 39.4942 241.863C39.7547 240.812 39.8526 240.119 39.6225 240.239C38.9177 240.616 34.7455 248.417 34.2589 248.417C34.0896 248.417 33.2499 247.937 32.2528 247.261C30.5747 246.124 28.4655 244.453 28.4166 243.657C28.4047 243.547 28.4351 243.456 28.5144 243.383C29.493 242.458 36.9645 229.892 39.6754 227.211C40.9463 225.946 42.4485 225.187 43.6704 224.737C45.0377 224.227 46.0718 224.11 46.0718 224.11C47.6825 224.055 49.3051 224.269 50.8867 224.67C56.2609 226.013 61.1921 229.406 64.0009 231.083C67.6295 233.248 70.1222 232.653 71.04 233.194C71.967 233.743 75.1579 241.16 74.4055 241.598Z" fill="#F26647"/>
<path d="M59.6133 253.056C54.6159 253.117 43.5078 252.673 37.5742 247.919C38.1521 246.441 39.0579 243.645 39.4957 241.863C39.4957 241.863 51.2227 245.419 59.1689 244.01C59.407 246.97 59.6807 250.491 59.6133 253.056Z" fill="#F69181"/>
<path opacity="0.25" d="M50.8901 224.67C50.6971 226.748 49.9605 228.986 47.6979 228.81C44.5069 228.561 43.8193 225.952 43.6738 224.737C45.0412 224.227 46.0753 224.11 46.0753 224.11C47.686 224.055 49.3086 224.268 50.8901 224.67Z" fill="#010101"/>
<path d="M49.5395 220.141C49.5395 220.141 48.9986 217.922 47.9103 216.779C47.0296 218.214 43.631 218.949 41.01 219.138C39.7696 219.23 38.6998 219.199 38.159 219.059C36.3169 211.903 42.0614 208.765 45.2602 208.547C48.4512 208.328 51.3274 210.705 50.4586 214.335C53.3268 217.163 49.5395 220.141 49.5395 220.141Z" fill="#321212"/>
<path d="M49.5398 220.143C49.3759 220.618 49.1206 221.451 48.6829 222.228H48.6763C47.9596 223.523 46.7562 224.672 44.6708 223.827C44.5981 223.797 44.5253 223.766 44.4579 223.73C42.7018 222.933 41.7893 221.383 41.3278 220.161C41.1823 219.778 41.0792 219.426 41.0117 219.14C43.6314 218.951 47.0313 218.216 47.912 216.781C47.9609 216.837 48.0098 216.891 48.0574 216.945C49.0479 218.125 49.5398 220.143 49.5398 220.143Z" fill="url(#paint1_linear_314_21720)"/>
<path d="M49.2656 225.669C48.9443 227.675 45.637 227.567 45.2773 226.266C45.0882 225.591 44.8752 224.941 44.7113 224.466C44.5658 224.023 44.4561 223.736 44.4561 223.736V223.731C44.5235 223.766 44.5962 223.797 44.6689 223.827C46.7544 224.672 47.9578 223.524 48.6745 222.229H48.6811C48.4563 222.678 49.058 223.244 49.259 224.307C49.333 224.691 49.3516 225.142 49.2656 225.669Z" fill="url(#paint2_linear_314_21720)"/>
<path d="M32.0924 305.086C31.7697 307.579 18.8751 317.33 19.0946 315.598C19.3062 313.864 25.8732 298.952 25.8732 298.952C26.2805 299.383 26.5608 299.639 26.6746 299.668C27.3252 299.858 28.1517 298.203 28.358 297.602C30.0916 299.778 32.3833 302.861 32.0924 305.086Z" fill="#262166"/>
<path d="M40.9791 349.873C37.9455 343.367 40.9791 329.572 40.9791 329.572C41.9524 330.873 45.6366 329.354 45.745 328.813C45.7583 328.752 45.7873 328.289 45.8363 327.512C45.8363 327.512 46.3229 334.121 46.9008 339.72C47.4787 345.319 44.014 356.372 40.9791 349.873Z" fill="#262166"/>
<path opacity="0.25" d="M39.9993 266.519C38.1572 267.383 26.2173 267.06 26.2173 267.06C26.2173 267.06 28.4059 297.178 28.4178 297.396C28.4178 297.426 28.3993 297.499 28.3569 297.602C28.2181 298.016 27.7791 298.935 27.3057 299.397C25.1052 289.091 20.7162 269.332 24.2166 265.94C28.6981 261.605 40.8324 260.451 41.0083 261.399C41.1855 262.354 39.9993 266.519 39.9993 266.519Z" fill="#010101"/>
<path d="M31.4098 252.284C31.2339 252.649 31.1427 252.953 31.1982 253.154C31.4587 254.163 30.0728 266.803 30.578 268.104C31.0818 269.405 31.3741 273.521 31.0818 276.123C30.7896 278.725 25.3744 280.312 25.3744 278.075C25.3744 275.832 26.025 270.561 26.2432 268.536C26.4614 266.518 24.4381 251.89 24.979 249.866C25.3321 248.546 26.6875 246.31 27.5867 244.917C28.0667 244.17 28.4198 243.658 28.4198 243.658C28.5005 244.928 33.8192 248.419 34.2622 248.419C34.2608 248.418 32.1212 250.814 31.4098 252.284Z" fill="url(#paint3_linear_314_21720)"/>
<path opacity="0.25" d="M58.4838 262.535C56.0942 262.359 53.4071 261.313 51.5346 259.434C49.3579 257.257 45.7279 255.239 42.4814 253.713C43.296 253.902 44.1107 254.127 44.8776 254.382C49.0855 255.78 57.1032 257.554 58.8302 256.559C59.2137 257.897 59.2984 259.465 58.4838 262.535Z" fill="#010101"/>
<path opacity="0.25" d="M55.9905 269.848C54.2396 274.353 51.5949 280.493 47.6978 289.053C47.6012 293.401 46.2153 321.129 45.8385 327.512C45.7895 328.291 45.7591 328.752 45.7472 328.813C45.693 329.092 44.6893 329.628 43.5957 329.902C43.8443 320.551 43.5163 300.197 45.0979 294.141C46.9863 286.895 55.4615 270.845 55.9905 269.848Z" fill="#010101"/>
<path opacity="0.25" d="M46.6227 254.921C45.9959 254.739 45.4074 254.557 44.8784 254.38C41.4984 253.249 37.28 252.817 35.7037 252.379C35.3083 252.27 35.0835 252.166 35.0703 252.045C35.0227 251.448 36.5355 250.1 37.2469 248.689C37.9518 247.278 40.3294 239.855 39.6246 240.237C38.9197 240.614 34.7476 248.415 34.261 248.415C34.0917 248.415 33.252 247.935 32.2549 247.259C32.358 247.083 32.4731 246.906 32.6013 246.718C35.1985 242.889 39.4606 238.123 40.1826 234.006C40.7605 230.972 41.6293 232.705 41.4825 236.608C41.353 240.112 41.1638 250.836 46.6227 254.921Z" fill="#010101"/>
<path opacity="0.25" d="M58.8537 256.546C58.8471 256.552 58.8418 256.558 58.8286 256.558C57.9122 257.087 55.2238 256.831 52.2695 256.272C57.5525 250.977 54.6697 236.635 55.4975 237.371C56.4695 238.235 58.8524 239.426 58.8524 239.426C58.9635 243.328 60.5385 255.518 58.8537 256.546Z" fill="#010101"/>
<path opacity="0.25" d="M34.2604 248.417C34.2604 248.417 32.1208 250.813 31.4093 252.284C31.3908 251.961 31.3683 251.663 31.3366 251.396C31.1726 249.846 28.7592 246.477 27.585 244.915C28.065 244.168 28.4181 243.656 28.4181 243.656C28.4987 244.927 33.8174 248.417 34.2604 248.417Z" fill="#010101"/>
<path opacity="0.25" d="M48.0565 216.945C46.7566 219.821 42.9322 220.155 41.3268 220.161C41.1813 219.778 41.0782 219.426 41.0107 219.14C43.6304 218.951 47.0303 218.216 47.911 216.781C47.9599 216.837 48.0089 216.891 48.0565 216.945Z" fill="#010101"/>
<path opacity="0.25" d="M49.2586 224.307C49.0153 224.496 48.7191 224.637 48.3475 224.721C46.6033 225.117 45.3748 224.777 44.7122 224.466C44.5668 224.023 44.457 223.736 44.457 223.736V223.731C44.5245 223.766 44.5972 223.797 44.6699 223.827C46.7553 224.672 47.9587 223.524 48.6755 222.229H48.6821C48.4572 222.678 49.0589 223.243 49.2586 224.307Z" fill="#010101"/>
<path d="M66.5488 0V269.848" stroke="#CDE3F0" stroke-width="1.21594" stroke-miterlimit="10"/>
<path d="M77.9255 237.73C77.9136 237.802 77.8964 237.875 77.8832 237.943C77.1665 241.208 74.5521 241.554 74.0589 241.341C73.5669 241.128 72.2657 239.633 71.1284 234.363C71.1033 234.258 71.0861 234.155 71.061 234.047C71.061 234.047 68.6053 227.748 67.4508 224.72C64.5998 223.03 64.0589 223.718 63.6569 221.766C63.2615 219.814 64.527 217.291 65.2504 216.926C65.9737 216.567 69.2202 219.601 69.6579 220.72C70.089 221.837 78.5761 234.264 77.9255 237.73Z" fill="url(#paint4_linear_314_21720)"/>
<path opacity="0.25" d="M77.8827 237.943C77.166 241.208 74.5516 241.554 74.0584 241.342C73.5664 241.129 72.2652 239.633 71.1279 234.363C71.8513 235.827 72.9647 237.725 74.1866 238.509C75.5288 239.365 77.0377 239.092 77.8827 237.943Z" fill="#010101"/>
<path d="M156.899 330.885C161.566 330.885 165.35 327.101 165.35 322.434C165.35 317.766 161.566 313.982 156.899 313.982C152.231 313.982 148.447 317.766 148.447 322.434C148.447 327.101 152.231 330.885 156.899 330.885Z" fill="#6561AB"/>
<path d="M108.586 243.734C110.386 243.734 111.846 242.275 111.846 240.475C111.846 238.674 110.386 237.215 108.586 237.215C106.786 237.215 105.326 238.674 105.326 240.475C105.326 242.275 106.786 243.734 108.586 243.734Z" fill="#F47920"/>
<defs>
<linearGradient id="paint0_linear_314_21720" x1="57.3387" y1="355.205" x2="67.7399" y2="521.625" gradientUnits="userSpaceOnUse">
<stop stop-color="#FCAF17"/>
<stop offset="1" stop-color="#F47920"/>
</linearGradient>
<linearGradient id="paint1_linear_314_21720" x1="45.1143" y1="223.329" x2="45.5477" y2="213.416" gradientUnits="userSpaceOnUse">
<stop stop-color="#FBC4AF"/>
<stop offset="1" stop-color="#EA8B69"/>
</linearGradient>
<linearGradient id="paint2_linear_314_21720" x1="47.038" y1="227.546" x2="46.7131" y2="220.504" gradientUnits="userSpaceOnUse">
<stop stop-color="#FBC4AF"/>
<stop offset="1" stop-color="#EA8B69"/>
</linearGradient>
<linearGradient id="paint3_linear_314_21720" x1="25.303" y1="280.705" x2="33.104" y2="229.998" gradientUnits="userSpaceOnUse">
<stop stop-color="#FBC4AF"/>
<stop offset="1" stop-color="#EA8B69"/>
</linearGradient>
<linearGradient id="paint4_linear_314_21720" x1="68.9476" y1="219.544" x2="75.015" y2="251.542" gradientUnits="userSpaceOnUse">
<stop stop-color="#FBC4AF"/>
<stop offset="1" stop-color="#EA8B69"/>
</linearGradient>
</defs>
</svg>
