<svg width="149" height="575" viewBox="0 0 149 575" fill="none" xmlns="http://www.w3.org/2000/svg">
<path d="M146.16 408.621L139.192 373.038C134.037 346.72 124.097 327.521 109.372 315.433C94.6405 303.353 76.4457 299.432 54.7835 303.676C33.1214 307.919 17.7591 318.364 8.70601 335.002C-0.352398 351.648 -2.29764 373.176 2.87557 399.586L9.86706 435.304C15.0046 461.531 24.9331 480.688 39.6633 492.768C45.8825 497.868 52.7285 501.515 60.2001 503.7C70.4195 506.698 81.8133 506.958 94.3787 504.501C100.89 503.23 106.837 501.388 112.205 498.98C124.63 493.412 134.004 484.821 140.328 473.198C149.388 456.553 151.328 435.024 146.16 408.621ZM102.666 456.382C100.283 463.679 95.2435 468.08 87.5458 469.587C79.5758 471.149 73.1 468.912 68.104 462.87C64.6988 458.753 61.7869 452.644 59.3722 444.54C59.3722 444.533 59.3722 444.527 59.3722 444.527C59.3669 444.515 59.3669 444.502 59.3603 444.484C58.2416 440.727 57.2326 436.538 56.332 431.924L46.5516 381.969C44.2599 368.849 44.2533 358.72 46.5265 351.582C48.801 344.447 53.834 340.11 61.6216 338.591C67.5618 337.423 72.6861 338.427 76.9905 341.589H76.9971C78.4623 342.671 79.835 343.996 81.1124 345.577C86.1402 351.796 90.0306 361.938 92.7786 375.987L102.244 424.326C104.91 438.399 105.05 449.08 102.666 456.382Z" fill="#F26647"/>
<path opacity="0.25" d="M106.163 463.058C108.17 466.147 110.838 487.145 112.206 498.982C106.837 501.39 100.891 503.232 94.3804 504.503C81.815 506.959 70.4213 506.698 60.2019 503.702C60.6197 502.759 61.0032 501.774 61.3311 500.765C67.7091 481.279 59.739 446.122 59.374 444.54C61.7874 452.644 64.6993 458.753 68.1058 462.87C73.1018 468.912 79.5776 471.15 87.5476 469.588C95.244 468.079 100.285 463.678 102.668 456.382C105.052 449.081 104.911 438.399 102.249 424.325L92.783 375.986C90.0351 361.937 86.1432 351.795 81.1168 345.576C79.8394 343.996 78.4667 342.671 77.0015 341.588C92.377 344.603 104.864 392.207 110.068 415.17C115.265 438.137 115.703 448.759 106.163 463.058Z" fill="#010101"/>
<path d="M62.7666 453.878C62.7666 453.878 63.7637 456.485 69.0004 457.929C74.2384 459.373 79.1497 451.272 82.6171 453.878C86.0844 456.485 91.6332 467.287 96.5154 465.642C101.398 463.997 102.842 490.001 100.532 492.89C98.22 495.78 96.5577 472.426 90.4549 473.124C84.3507 473.82 88.9738 491.445 85.5065 494.624C82.0392 497.803 83.4846 486.823 79.729 484.8C75.972 482.778 83.7741 573.212 77.994 574.656C72.2151 576.102 68.4595 570.611 70.771 551.254C73.0826 531.897 70.1918 465.153 66.7245 461.686C63.2598 458.218 63.4767 457.568 62.7666 453.878Z" fill="#6561AB"/>
<path d="M61.333 0V315.488" stroke="#CDE3F0" stroke-width="1.21594" stroke-miterlimit="10"/>
<path d="M136.341 193.485C136.341 193.485 131.738 180.863 132.116 179.887C132.495 178.912 137.552 177.07 137.924 177.611C138.293 178.153 141.489 187.959 140.947 188.662C140.405 189.367 136.341 193.485 136.341 193.485Z" fill="#262166"/>
<path d="M59.7373 176.934C59.7373 176.934 62.5474 178.099 63.7971 181.133C65.0454 184.167 64.5588 173.224 64.5588 173.224L63.2046 171.979L59.7373 176.934Z" fill="url(#paint0_linear_314_21721)"/>
<path d="M58.2748 176.93C58.2748 176.93 61.7963 179.558 62.3927 179.72C62.9878 179.883 64.1383 173.003 63.6186 171.92C63.0962 170.835 61.188 169.752 59.9489 170.457C58.7085 171.162 57.6982 176.504 58.2748 176.93Z" fill="url(#paint1_linear_314_21721)"/>
<path d="M67.6477 177.719C67.6477 177.719 64.8429 171.218 63.6183 170.081C62.3925 168.944 60.118 170.406 59.954 171.001C59.79 171.597 62.6755 172.03 63.6183 173.006C64.5599 173.982 62.0129 181.187 64.4514 183.733C66.8886 186.279 67.6477 177.719 67.6477 177.719Z" fill="url(#paint2_linear_314_21721)"/>
<path d="M132.875 194.946C132.875 194.946 135.366 193.592 135.909 192.887C136.449 192.182 135.475 189.528 137.046 187.091C138.617 184.653 141.976 185.357 142.788 188.283C143.601 191.208 141.489 194.892 140.513 196.029C139.537 197.166 132.875 201.934 132.875 201.934" fill="url(#paint3_linear_314_21721)"/>
<path d="M134.66 200.597C134.587 201.029 134.143 201.77 133.281 202.78C130.119 206.476 121.407 213.711 105.704 221.98C105.394 223.244 105.151 224.533 104.968 225.821C104.385 229.937 104.396 234.096 104.591 237.834C104.639 238.795 104.7 239.732 104.767 240.631C105.054 244.57 105.443 247.823 105.34 249.708C105.291 250.534 105.146 251.094 104.866 251.342C104.513 251.652 104.142 251.932 103.753 252.182C95.9099 257.216 81.6347 249.696 79.3244 247.433C79.1419 247.257 79.0322 247.111 79.0097 247.008C78.6077 245.488 80.1641 243.864 81.033 241.262C81.1784 240.819 81.3252 239.827 81.4707 238.471C81.8846 234.465 82.243 227.297 82.3712 221.904C82.444 218.462 82.4255 215.746 82.2681 215.028C82.2615 215.016 82.2615 215.003 82.2615 215.003C81.8304 213.234 68.6792 193.366 64.7345 186.325C64.0111 185.043 63.5985 184.186 63.621 183.943C63.7665 182.356 66.8 176.721 67.4506 176.794C67.5604 176.806 67.9624 177.311 68.5694 178.149C71.6162 182.381 79.8111 195.172 81.3186 196.801C82.7296 198.328 89.9089 205.885 92.9861 209.125C93.8549 210.031 94.3958 210.602 94.3958 210.602C96.062 210.572 97.7322 210.42 99.405 210.159C114.184 207.879 128.708 197.531 132.509 194.655C133.134 194.182 133.47 193.913 133.47 193.913C133.47 193.913 134.988 198.574 134.66 200.597Z" fill="#F47920"/>
<path d="M97.777 217.139C92.7361 217.954 92.7215 211.395 92.9834 209.127C93.8522 210.033 94.393 210.604 94.393 210.604C96.0592 210.574 97.7294 210.422 99.4022 210.161C100.029 212.745 99.5266 216.86 97.777 217.139Z" fill="#C54527"/>
<path d="M102.881 203.08C101.902 203.67 100.625 203.871 98.9955 203.45C97.7432 203.134 96.2767 202.448 94.5681 201.285C94.5681 201.285 93.218 202.909 93.1095 205.887C89.5338 202.799 88.6649 199.71 91.6985 198.573C90.4528 193.156 93.1095 192.019 97.5475 191.752C101.992 191.478 103.02 196.031 105.675 195.923C105.836 198.351 105.149 201.736 102.881 203.08Z" fill="#262166"/>
<path d="M102.88 203.079C102.831 203.517 102.759 204.021 102.655 204.563C102.059 207.731 100.503 212.151 98.1566 211.907C98.035 211.902 97.908 211.877 97.7731 211.835C95.6639 211.172 94.3931 209.124 93.7305 207.616C93.2928 206.638 93.1104 205.889 93.1104 205.889C93.1461 204.948 93.3034 204.138 93.5058 203.476C93.9369 202.046 94.5689 201.287 94.5689 201.287C96.2775 202.448 97.7427 203.136 98.9964 203.452C100.624 203.87 101.902 203.669 102.88 203.079Z" fill="url(#paint4_linear_314_21721)"/>
<path d="M98.1562 213.772C98.1311 214.921 97.9737 215.82 97.208 215.874C95.6569 215.984 93.5966 213.959 93.7064 211.759C93.7421 211.012 93.7553 210.216 93.7553 209.486C93.7553 208.749 93.742 208.081 93.7301 207.613C94.3926 209.121 95.6635 211.169 97.7727 211.832C97.9076 211.874 98.0345 211.899 98.1562 211.904C98.1496 212.544 98.1747 213.188 98.1562 213.772Z" fill="url(#paint5_linear_314_21721)"/>
<path d="M134.66 200.598C134.588 201.031 134.143 201.771 133.281 202.781C133.322 200.197 132.757 196.276 132.509 194.658C133.134 194.184 133.47 193.916 133.47 193.916C133.47 193.916 134.988 198.575 134.66 200.598Z" fill="#C54527"/>
<path d="M68.5684 178.154C66.2595 180.129 65.1328 184.435 64.7335 186.331C64.0101 185.049 63.5975 184.192 63.62 183.948C63.7655 182.362 66.799 176.727 67.4497 176.8C67.5607 176.81 67.9614 177.314 68.5684 178.154Z" fill="#C54527"/>
<path d="M104.765 240.631C99.5988 241.379 89.8765 242.042 81.4688 238.473C81.8827 234.466 82.241 227.299 82.3693 221.906C86.5335 223.669 95.5245 226.806 104.968 225.821C104.231 230.996 104.437 236.242 104.765 240.631Z" fill="#FCAF17"/>
<path opacity="0.25" d="M103.752 252.185C95.3004 257.608 79.384 248.459 79.0085 247.011C78.6064 245.491 80.1629 243.867 81.0317 241.265C81.1772 240.822 81.324 239.83 81.4694 238.475C81.8833 234.468 82.2417 227.3 82.37 221.908C82.4427 218.466 82.4242 215.749 82.2668 215.031C82.4493 215.591 85.307 224.649 86.7709 233.464C88.2903 242.565 87.9624 246.901 92.4069 249.825C95.0081 251.533 99.7568 252.434 103.752 252.185Z" fill="#010101"/>
<path d="M123.064 277.201C123.064 280.958 109.482 301.775 106.669 306.048C106.346 306.541 106.164 306.815 106.164 306.815C106.164 306.815 104.413 306.614 102.972 306.127C101.969 305.78 101.112 305.306 101.112 304.65C101.112 304.515 101.137 304.309 101.18 304.035C101.66 301.135 104.644 290.642 108.475 276.769C106.457 274.313 92.2986 264.92 92.2986 264.92C92.2986 264.92 92.292 264.932 92.2853 264.956C91.6717 266.372 72.017 311.823 69.7848 316.061C69.7055 316.213 69.6499 316.31 69.6142 316.353C68.6052 317.655 64.4159 317.795 64.1249 315.052C64.1249 315.047 64.1249 315.047 64.1249 315.04C62.9215 303.551 72.8303 268.895 77.4454 253.57C78.2719 250.822 78.9278 248.694 79.3232 247.436C81.6334 249.697 95.9087 257.217 103.752 252.184C104.141 251.934 104.512 251.655 104.865 251.345C105.144 251.096 105.29 250.537 105.339 249.71C105.484 249.867 105.638 250.038 105.788 250.221C111.258 256.475 123.064 273.583 123.064 277.201Z" fill="#9DC2E7"/>
<path d="M71.1698 322.419C70.6289 325.125 56.3232 333.144 57.6258 328.292C58.6837 324.358 62.6588 317.495 64.124 315.039C64.124 315.046 64.124 315.046 64.124 315.051C64.4163 317.794 68.6056 317.655 69.6133 316.352C69.649 316.31 69.7045 316.213 69.7839 316.06C70.5138 318.152 71.5228 320.669 71.1698 322.419Z" fill="#262166"/>
<path d="M111.37 320.038C110.281 320.58 96.2004 315.162 96.523 313.32C96.851 311.478 101.179 304.037 101.179 304.037C101.137 304.311 101.112 304.517 101.112 304.652C101.112 306.238 106.163 306.817 106.163 306.817C106.163 306.817 106.346 306.543 106.668 306.05C107.297 311.674 112.385 319.529 111.37 320.038Z" fill="#262166"/>
<path opacity="0.25" d="M90.4555 263.371C90.4555 263.371 74.8526 294.012 69.001 315.042" stroke="#010101" stroke-width="0.607905" stroke-miterlimit="10"/>
<path opacity="0.25" d="M94.1387 263.371C94.1387 263.371 111.474 274.748 112.126 276.59C112.775 278.432 103.132 304.039 103.132 304.039" stroke="#010101" stroke-width="0.607905" stroke-miterlimit="10"/>
<path opacity="0.25" d="M105.789 250.219C103.881 257.842 92.8267 255.77 87.1735 254.305C83.8847 253.453 80.1145 253.423 77.4473 253.568C78.2738 250.82 78.9296 248.693 79.325 247.434C81.6353 249.695 95.9105 257.215 103.754 252.182C104.142 251.932 104.514 251.653 104.867 251.343C105.146 251.094 105.292 250.535 105.341 249.708C105.485 249.867 105.637 250.037 105.789 250.219Z" fill="#010101"/>
<path opacity="0.25" d="M102.972 306.13C101.969 305.782 101.113 305.309 101.113 304.653C101.113 304.518 101.138 304.312 101.18 304.038C101.66 301.138 104.645 290.645 108.476 276.772C106.458 274.316 92.2988 264.923 92.2988 264.923C92.2988 264.923 93.4533 261.026 94.7545 260.735C96.0544 260.449 111.078 273.375 112.738 276.05C114.202 278.4 103.97 297.588 102.972 306.13Z" fill="#010101"/>
<path opacity="0.25" d="M102.88 203.08C102.831 203.518 102.759 204.022 102.656 204.564C98.8682 206.492 95.1522 202.151 94.7092 202.205C94.454 202.235 93.9303 202.892 93.5059 203.476C93.937 202.046 94.569 201.287 94.569 201.287C96.2776 202.448 97.7428 203.136 98.9965 203.452C100.624 203.871 101.902 203.67 102.88 203.08Z" fill="#010101"/>
<path opacity="0.25" d="M98.1565 213.772C95.6572 213.163 94.2766 210.659 93.7556 209.486C93.7556 208.749 93.7424 208.081 93.7305 207.613C94.393 209.121 95.6638 211.169 97.773 211.832C97.9079 211.874 98.0349 211.899 98.1565 211.904C98.1499 212.544 98.1751 213.188 98.1565 213.772Z" fill="#010101"/>
<path opacity="0.25" d="M104.967 225.822C104.383 229.937 104.394 234.096 104.59 237.835C103.605 233.682 102.742 229.219 103.75 226.637C105.488 222.187 105.677 221.98 105.702 221.98C105.391 223.245 105.148 224.533 104.967 225.822Z" fill="#010101"/>
<path d="M26.8499 223.485C31.5174 223.485 35.3013 219.701 35.3013 215.033C35.3013 210.366 31.5174 206.582 26.8499 206.582C22.1823 206.582 18.3984 210.366 18.3984 215.033C18.3984 219.701 22.1823 223.485 26.8499 223.485Z" fill="#F47920"/>
<path d="M18.3997 527.633C23.0673 527.633 26.8511 523.85 26.8511 519.182C26.8511 514.514 23.0673 510.73 18.3997 510.73C13.7321 510.73 9.94824 514.514 9.94824 519.182C9.94824 523.85 13.7321 527.633 18.3997 527.633Z" fill="#F26647"/>
<path d="M23.5888 294.49C25.3891 294.49 26.8485 293.031 26.8485 291.23C26.8485 289.43 25.3891 287.971 23.5888 287.971C21.7885 287.971 20.3291 289.43 20.3291 291.23C20.3291 293.031 21.7885 294.49 23.5888 294.49Z" fill="#9DC2E7"/>
<defs>
<linearGradient id="paint0_linear_314_21721" x1="60.8602" y1="172.34" x2="64.6538" y2="180.401" gradientUnits="userSpaceOnUse">
<stop stop-color="#FBC4AF"/>
<stop offset="1" stop-color="#EA8B69"/>
</linearGradient>
<linearGradient id="paint1_linear_314_21721" x1="55.1083" y1="172.137" x2="64.5341" y2="176.091" gradientUnits="userSpaceOnUse">
<stop stop-color="#FBC4AF"/>
<stop offset="1" stop-color="#EA8B69"/>
</linearGradient>
<linearGradient id="paint2_linear_314_21721" x1="60.5177" y1="169.105" x2="66.5854" y2="181.999" gradientUnits="userSpaceOnUse">
<stop stop-color="#FBC4AF"/>
<stop offset="1" stop-color="#EA8B69"/>
</linearGradient>
<linearGradient id="paint3_linear_314_21721" x1="146.917" y1="181.866" x2="129.69" y2="202.342" gradientUnits="userSpaceOnUse">
<stop stop-color="#FBC4AF"/>
<stop offset="1" stop-color="#EA8B69"/>
</linearGradient>
<linearGradient id="paint4_linear_314_21721" x1="98.7341" y1="213.079" x2="96.8921" y2="191.625" gradientUnits="userSpaceOnUse">
<stop stop-color="#FBC4AF"/>
<stop offset="1" stop-color="#EA8B69"/>
</linearGradient>
<linearGradient id="paint5_linear_314_21721" x1="95.5834" y1="213.244" x2="96.4501" y2="207.718" gradientUnits="userSpaceOnUse">
<stop stop-color="#FBC4AF"/>
<stop offset="1" stop-color="#EA8B69"/>
</linearGradient>
</defs>
</svg>
