<svg width="28" height="28" viewBox="0 0 28 28" fill="none" xmlns="http://www.w3.org/2000/svg">
<path d="M27.328 13.7931C27.328 21.1728 21.3456 27.1552 13.966 27.1552C6.58629 27.1552 0.603886 21.1728 0.603886 13.7931C0.603886 6.41344 6.58629 0.431035 13.966 0.431035C21.3456 0.431035 27.328 6.41344 27.328 13.7931Z" fill="white" stroke="white" stroke-width="0.862069"/>
<path d="M18.8298 12.1783C18.8367 12.4291 18.842 12.652 18.8455 12.8471C18.8489 13.0422 18.8507 13.4532 18.8507 14.0801C18.8507 14.7071 18.8489 15.1181 18.8455 15.3131C18.842 15.5082 18.8367 15.7276 18.8298 15.9714C18.8158 16.2222 18.7897 16.4347 18.7514 16.6089C18.7131 16.783 18.6661 16.9432 18.6103 17.0895C18.5546 17.2428 18.4849 17.3856 18.4014 17.5179C18.3178 17.6503 18.2098 17.7792 18.0774 17.9046C17.952 18.0369 17.8232 18.1449 17.6908 18.2285C17.5584 18.3121 17.4156 18.3818 17.2624 18.4375C17.1161 18.4932 16.9559 18.5402 16.7817 18.5786C16.6076 18.6169 16.3986 18.643 16.1548 18.6569C15.904 18.6639 15.6811 18.6691 15.486 18.6726C15.2909 18.6761 14.8799 18.6778 14.253 18.6778C13.626 18.6778 13.215 18.6761 13.02 18.6726C12.8249 18.6691 12.6055 18.6639 12.3616 18.6569C12.1109 18.643 11.8984 18.6169 11.7242 18.5786C11.5501 18.5402 11.3899 18.4932 11.2436 18.4375C11.0903 18.3818 10.9475 18.3121 10.8151 18.2285C10.6828 18.1449 10.5539 18.0369 10.4285 17.9046C10.2962 17.7792 10.1882 17.6503 10.1046 17.5179C10.021 17.3856 9.95134 17.2428 9.89561 17.0895C9.83988 16.9432 9.79286 16.783 9.75454 16.6089C9.71623 16.4347 9.6901 16.2257 9.67617 15.9819C9.66921 15.7311 9.66398 15.5082 9.6605 15.3131C9.65701 15.1181 9.65527 14.7071 9.65527 14.0801C9.65527 13.4532 9.65701 13.0422 9.6605 12.8471C9.66398 12.652 9.66921 12.4326 9.67617 12.1888C9.6901 11.938 9.71623 11.7255 9.75454 11.5514C9.79286 11.3772 9.83988 11.217 9.89561 11.0707C9.95134 10.9175 10.021 10.7747 10.1046 10.6423C10.1882 10.5099 10.2962 10.3811 10.4285 10.2557C10.5539 10.1233 10.6828 10.0153 10.8151 9.93174C10.9475 9.84815 11.0903 9.77849 11.2436 9.72276C11.3899 9.66703 11.5501 9.62 11.7242 9.58169C11.8984 9.54338 12.1074 9.51725 12.3512 9.50332C12.602 9.49635 12.8249 9.49113 13.02 9.48765C13.215 9.48416 13.626 9.48242 14.253 9.48242C14.8799 9.48242 15.2909 9.48416 15.486 9.48765C15.6811 9.49113 15.9005 9.49635 16.1443 9.50332C16.3951 9.51725 16.6076 9.54338 16.7817 9.58169C16.9559 9.62 17.1161 9.66703 17.2624 9.72276C17.4156 9.77849 17.5584 9.84815 17.6908 9.93174C17.8232 10.0153 17.952 10.1233 18.0774 10.2557C18.2098 10.3811 18.3178 10.5099 18.4014 10.6423C18.4849 10.7747 18.5546 10.9175 18.6103 11.0707C18.6661 11.217 18.7131 11.3772 18.7514 11.5514C18.7897 11.7255 18.8158 11.9345 18.8298 12.1783ZM17.9938 15.9401C18.0078 15.6963 18.0165 15.4786 18.02 15.287C18.0234 15.0954 18.0252 14.6932 18.0252 14.0801C18.0252 13.4671 18.0234 13.0648 18.02 12.8732C18.0165 12.6817 18.0078 12.464 17.9938 12.2201C17.9869 11.9972 17.9677 11.8196 17.9364 11.6872C17.905 11.5549 17.8719 11.4469 17.8371 11.3633C17.7953 11.2588 17.7483 11.1648 17.696 11.0812C17.6438 10.9976 17.5759 10.9175 17.4923 10.8408C17.4156 10.7572 17.3355 10.6893 17.2519 10.6371C17.1683 10.5848 17.0743 10.5378 16.9698 10.496C16.8862 10.4612 16.7782 10.4281 16.6459 10.3967C16.5135 10.3654 16.3359 10.3462 16.113 10.3393C15.8691 10.3253 15.6514 10.3166 15.4599 10.3131C15.2683 10.3097 14.866 10.3079 14.253 10.3079C13.6399 10.3079 13.2376 10.3097 13.0461 10.3131C12.8545 10.3166 12.6368 10.3253 12.393 10.3393C12.1701 10.3462 11.9924 10.3654 11.8601 10.3967C11.7277 10.4281 11.6197 10.4612 11.5362 10.496C11.4317 10.5378 11.3376 10.5848 11.254 10.6371C11.1704 10.6893 11.0903 10.7572 11.0137 10.8408C10.9301 10.9175 10.8622 10.9976 10.8099 11.0812C10.7577 11.1648 10.7107 11.2588 10.6689 11.3633C10.634 11.4469 10.6009 11.5549 10.5696 11.6872C10.5382 11.8196 10.5191 11.9972 10.5121 12.2201C10.4982 12.464 10.4895 12.6817 10.486 12.8732C10.4825 13.0648 10.4808 13.4671 10.4808 14.0801C10.4808 14.6932 10.4825 15.0954 10.486 15.287C10.4895 15.4786 10.4982 15.6963 10.5121 15.9401C10.5191 16.163 10.5382 16.3407 10.5696 16.473C10.6009 16.6054 10.634 16.7134 10.6689 16.7969C10.7107 16.9014 10.7577 16.9955 10.8099 17.0791C10.8622 17.1627 10.9301 17.2428 11.0137 17.3194C11.0903 17.403 11.1704 17.4709 11.254 17.5232C11.3376 17.5754 11.4317 17.6224 11.5362 17.6642C11.6197 17.6991 11.7277 17.7322 11.8601 17.7635C11.9924 17.7949 12.1701 17.814 12.393 17.821C12.6368 17.8349 12.8545 17.8436 13.0461 17.8471C13.2376 17.8506 13.6399 17.8523 14.253 17.8523C14.866 17.8523 15.2683 17.8506 15.4599 17.8471C15.6514 17.8436 15.8691 17.8349 16.113 17.821C16.3359 17.814 16.5135 17.7949 16.6459 17.7635C16.7782 17.7322 16.8862 17.6991 16.9698 17.6642C17.0743 17.6224 17.1683 17.5754 17.2519 17.5232C17.3355 17.4709 17.4156 17.403 17.4923 17.3194C17.5759 17.2428 17.6438 17.1627 17.696 17.0791C17.7483 16.9955 17.7953 16.9014 17.8371 16.7969C17.8719 16.7134 17.905 16.6054 17.9364 16.473C17.9677 16.3407 17.9869 16.163 17.9938 15.9401ZM14.253 11.7186C14.5804 11.7186 14.8869 11.7813 15.1725 11.9067C15.4581 12.0251 15.7089 12.1923 15.9249 12.4082C16.1408 12.6242 16.308 12.875 16.4264 13.1606C16.5518 13.4462 16.6145 13.7527 16.6145 14.0801C16.6145 14.4075 16.5518 14.714 16.4264 14.9997C16.308 15.2853 16.1408 15.5361 15.9249 15.752C15.7089 15.968 15.4581 16.1352 15.1725 16.2536C14.8869 16.379 14.5804 16.4417 14.253 16.4417C13.9256 16.4417 13.619 16.379 13.3334 16.2536C13.0478 16.1352 12.797 15.968 12.5811 15.752C12.3651 15.5361 12.1979 15.2853 12.0795 14.9997C11.9541 14.714 11.8914 14.4075 11.8914 14.0801C11.8914 13.7527 11.9541 13.4462 12.0795 13.1606C12.1979 12.875 12.3651 12.6242 12.5811 12.4082C12.797 12.1923 13.0478 12.0251 13.3334 11.9067C13.619 11.7813 13.9256 11.7186 14.253 11.7186ZM14.253 15.6162C14.6779 15.6162 15.0402 15.4664 15.3397 15.1669C15.6393 14.8673 15.789 14.5051 15.789 14.0801C15.789 13.6552 15.6393 13.2929 15.3397 12.9934C15.0402 12.6938 14.6779 12.5441 14.253 12.5441C13.828 12.5441 13.4658 12.6938 13.1662 12.9934C12.8667 13.2929 12.7169 13.6552 12.7169 14.0801C12.7169 14.5051 12.8667 14.8673 13.1662 15.1669C13.4658 15.4664 13.828 15.6162 14.253 15.6162ZM17.2415 11.4991C17.2763 11.6454 17.2537 11.783 17.1736 11.9119C17.0934 12.0408 16.9802 12.1226 16.834 12.1574C16.6877 12.1923 16.5501 12.1696 16.4212 12.0895C16.2923 12.0094 16.2105 11.8962 16.1756 11.7499C16.1408 11.6036 16.1635 11.4661 16.2436 11.3372C16.3237 11.2083 16.4369 11.1264 16.5832 11.0916C16.7295 11.0498 16.867 11.0707 16.9959 11.1543C17.1248 11.2379 17.2066 11.3528 17.2415 11.4991Z" fill="#0C111A"/>
</svg>
