<svg width="43" height="43" viewBox="0 0 43 43" fill="none" xmlns="http://www.w3.org/2000/svg">
<path opacity="0.1" fill-rule="evenodd" clip-rule="evenodd" d="M21.8518 41.2973C32.9796 41.2973 42.0004 32.2764 42.0004 21.1486C42.0004 10.0209 32.9796 1 21.8518 1C10.724 1 1.70312 10.0209 1.70312 21.1486C1.70312 32.2764 10.724 41.2973 21.8518 41.2973Z" stroke="black" stroke-width="1.72703"/>
<path d="M28.153 17.7147C28.1634 18.0915 28.1713 18.4265 28.1765 18.7195C28.1818 19.0126 28.1844 19.6302 28.1844 20.5722C28.1844 21.5142 28.1818 22.1317 28.1765 22.4248C28.1713 22.7179 28.1634 23.0476 28.153 23.4139C28.132 23.7907 28.0928 24.11 28.0352 24.3716C27.9777 24.6333 27.907 24.874 27.8233 25.0938C27.7395 25.3241 27.6349 25.5387 27.5093 25.7376C27.3837 25.9364 27.2214 26.1301 27.0226 26.3185C26.8342 26.5173 26.6405 26.6796 26.4417 26.8052C26.2428 26.9308 26.0282 27.0354 25.7979 27.1192C25.5781 27.2029 25.3374 27.2736 25.0757 27.3311C24.8141 27.3887 24.5001 27.4279 24.1337 27.4489C23.7569 27.4593 23.422 27.4672 23.1289 27.4724C22.8358 27.4777 22.2183 27.4803 21.2763 27.4803C20.3343 27.4803 19.7167 27.4777 19.4236 27.4724C19.1306 27.4672 18.8009 27.4593 18.4345 27.4489C18.0577 27.4279 17.7385 27.3887 17.4768 27.3311C17.2151 27.2736 16.9744 27.2029 16.7546 27.1192C16.5243 27.0354 16.3098 26.9308 16.1109 26.8052C15.912 26.6796 15.7184 26.5173 15.53 26.3185C15.3311 26.1301 15.1689 25.9364 15.0433 25.7376C14.9177 25.5387 14.813 25.3241 14.7293 25.0938C14.6455 24.874 14.5749 24.6333 14.5173 24.3716C14.4598 24.11 14.4205 23.796 14.3996 23.4296C14.3891 23.0528 14.3812 22.7179 14.376 22.4248C14.3708 22.1317 14.3682 21.5142 14.3682 20.5722C14.3682 19.6302 14.3708 19.0126 14.376 18.7195C14.3812 18.4265 14.3891 18.0968 14.3996 17.7304C14.4205 17.3536 14.4598 17.0344 14.5173 16.7727C14.5749 16.511 14.6455 16.2703 14.7293 16.0505C14.813 15.8202 14.9177 15.6057 15.0433 15.4068C15.1689 15.2079 15.3311 15.0143 15.53 14.8259C15.7184 14.627 15.912 14.4648 16.1109 14.3392C16.3098 14.2136 16.5243 14.1089 16.7546 14.0252C16.9744 13.9414 17.2151 13.8708 17.4768 13.8132C17.7385 13.7556 18.0525 13.7164 18.4188 13.6955C18.7956 13.685 19.1306 13.6771 19.4236 13.6719C19.7167 13.6667 20.3343 13.6641 21.2763 13.6641C22.2183 13.6641 22.8358 13.6667 23.1289 13.6719C23.422 13.6771 23.7517 13.685 24.118 13.6955C24.4948 13.7164 24.8141 13.7556 25.0757 13.8132C25.3374 13.8708 25.5781 13.9414 25.7979 14.0252C26.0282 14.1089 26.2428 14.2136 26.4417 14.3392C26.6405 14.4648 26.8342 14.627 27.0226 14.8259C27.2214 15.0143 27.3837 15.2079 27.5093 15.4068C27.6349 15.6057 27.7395 15.8202 27.8233 16.0505C27.907 16.2703 27.9777 16.511 28.0352 16.7727C28.0928 17.0344 28.132 17.3484 28.153 17.7147ZM26.897 23.3668C26.9179 23.0005 26.931 22.6734 26.9362 22.3855C26.9414 22.0977 26.9441 21.4933 26.9441 20.5722C26.9441 19.6511 26.9414 19.0466 26.9362 18.7588C26.931 18.471 26.9179 18.1439 26.897 17.7775C26.8865 17.4426 26.8577 17.1757 26.8106 16.9768C26.7635 16.7779 26.7138 16.6157 26.6615 16.4901C26.5987 16.3331 26.528 16.1918 26.4495 16.0662C26.371 15.9406 26.269 15.8202 26.1433 15.7051C26.0282 15.5795 25.9078 15.4774 25.7822 15.3989C25.6566 15.3204 25.5153 15.2498 25.3583 15.187C25.2327 15.1347 25.0705 15.0849 24.8716 15.0378C24.6728 14.9907 24.4059 14.9619 24.0709 14.9515C23.7046 14.9305 23.3775 14.9175 23.0897 14.9122C22.8018 14.907 22.1974 14.9044 21.2763 14.9044C20.3552 14.9044 19.7507 14.907 19.4629 14.9122C19.1751 14.9175 18.848 14.9305 18.4816 14.9515C18.1467 14.9619 17.8798 14.9907 17.6809 15.0378C17.482 15.0849 17.3198 15.1347 17.1942 15.187C17.0372 15.2498 16.8959 15.3204 16.7703 15.3989C16.6447 15.4774 16.5243 15.5795 16.4092 15.7051C16.2836 15.8202 16.1815 15.9406 16.103 16.0662C16.0245 16.1918 15.9539 16.3331 15.8911 16.4901C15.8388 16.6157 15.789 16.7779 15.7419 16.9768C15.6948 17.1757 15.6661 17.4426 15.6556 17.7775C15.6347 18.1439 15.6216 18.471 15.6163 18.7588C15.6111 19.0466 15.6085 19.6511 15.6085 20.5722C15.6085 21.4933 15.6111 22.0977 15.6163 22.3855C15.6216 22.6734 15.6347 23.0005 15.6556 23.3668C15.6661 23.7018 15.6948 23.9687 15.7419 24.1675C15.789 24.3664 15.8388 24.5286 15.8911 24.6542C15.9539 24.8112 16.0245 24.9525 16.103 25.0781C16.1815 25.2037 16.2836 25.3241 16.4092 25.4392C16.5243 25.5649 16.6447 25.6669 16.7703 25.7454C16.8959 25.8239 17.0372 25.8946 17.1942 25.9574C17.3198 26.0097 17.482 26.0594 17.6809 26.1065C17.8798 26.1536 18.1467 26.1824 18.4816 26.1929C18.848 26.2138 19.1751 26.2269 19.4629 26.2321C19.7507 26.2373 20.3552 26.24 21.2763 26.24C22.1974 26.24 22.8018 26.2373 23.0897 26.2321C23.3775 26.2269 23.7046 26.2138 24.0709 26.1929C24.4059 26.1824 24.6728 26.1536 24.8716 26.1065C25.0705 26.0594 25.2327 26.0097 25.3583 25.9574C25.5153 25.8946 25.6566 25.8239 25.7822 25.7454C25.9078 25.6669 26.0282 25.5649 26.1433 25.4392C26.269 25.3241 26.371 25.2037 26.4495 25.0781C26.528 24.9525 26.5987 24.8112 26.6615 24.6542C26.7138 24.5286 26.7635 24.3664 26.8106 24.1675C26.8577 23.9687 26.8865 23.7018 26.897 23.3668ZM21.2763 17.0239C21.7682 17.0239 22.2288 17.1181 22.6579 17.3065C23.087 17.4845 23.4638 17.7357 23.7883 18.0601C24.1128 18.3846 24.364 18.7614 24.5419 19.1905C24.7303 19.6197 24.8245 20.0802 24.8245 20.5722C24.8245 21.0641 24.7303 21.5247 24.5419 21.9538C24.364 22.3829 24.1128 22.7597 23.7883 23.0842C23.4638 23.4087 23.087 23.6599 22.6579 23.8378C22.2288 24.0262 21.7682 24.1204 21.2763 24.1204C20.7843 24.1204 20.3238 24.0262 19.8947 23.8378C19.4655 23.6599 19.0887 23.4087 18.7642 23.0842C18.4398 22.7597 18.1886 22.3829 18.0106 21.9538C17.8222 21.5247 17.728 21.0641 17.728 20.5722C17.728 20.0802 17.8222 19.6197 18.0106 19.1905C18.1886 18.7614 18.4398 18.3846 18.7642 18.0601C19.0887 17.7357 19.4655 17.4845 19.8947 17.3065C20.3238 17.1181 20.7843 17.0239 21.2763 17.0239ZM21.2763 22.8801C21.9148 22.8801 22.459 22.6551 22.9091 22.205C23.3592 21.7549 23.5842 21.2107 23.5842 20.5722C23.5842 19.9337 23.3592 19.3894 22.9091 18.9393C22.459 18.4893 21.9148 18.2642 21.2763 18.2642C20.6378 18.2642 20.0935 18.4893 19.6434 18.9393C19.1934 19.3894 18.9683 19.9337 18.9683 20.5722C18.9683 21.2107 19.1934 21.7549 19.6434 22.205C20.0935 22.6551 20.6378 22.8801 21.2763 22.8801ZM25.7665 16.6942C25.8189 16.914 25.7849 17.1207 25.6645 17.3144C25.5441 17.508 25.374 17.631 25.1542 17.6833C24.9344 17.7357 24.7277 17.7016 24.5341 17.5813C24.3404 17.4609 24.2175 17.2908 24.1651 17.071C24.1128 16.8512 24.1468 16.6445 24.2672 16.4509C24.3875 16.2572 24.5576 16.1342 24.7774 16.0819C24.9972 16.0191 25.2039 16.0505 25.3976 16.1761C25.5912 16.3017 25.7142 16.4744 25.7665 16.6942Z" fill="black"/>
</svg>
