<svg width="43" height="43" viewBox="0 0 43 43" fill="none" xmlns="http://www.w3.org/2000/svg">
<path opacity="0.1" fill-rule="evenodd" clip-rule="evenodd" d="M21.1486 41.2973C32.2764 41.2973 41.2973 32.2764 41.2973 21.1486C41.2973 10.0209 32.2764 1 21.1486 1C10.0209 1 1 10.0209 1 21.1486C1 32.2764 10.0209 41.2973 21.1486 41.2973Z" stroke="black" stroke-width="1.72703"/>
<path d="M16.5235 17.0841C17.4669 17.0841 18.2316 16.3194 18.2316 15.3761C18.2316 14.4327 17.4669 13.668 16.5235 13.668C15.5802 13.668 14.8154 14.4327 14.8154 15.3761C14.8154 16.3194 15.5802 17.0841 16.5235 17.0841Z" fill="black"/>
<path d="M17.9469 18.2227H15.1001C14.943 18.2227 14.8154 18.3502 14.8154 18.5073V27.0478C14.8154 27.2049 14.943 27.3325 15.1001 27.3325H17.9469C18.1041 27.3325 18.2316 27.2049 18.2316 27.0478V18.5073C18.2316 18.3502 18.1041 18.2227 17.9469 18.2227Z" fill="black"/>
<path d="M26.4305 17.7513C25.2137 17.3346 23.6918 17.7007 22.7791 18.3571C22.7478 18.2347 22.6362 18.1436 22.5036 18.1436H19.6568C19.4996 18.1436 19.3721 18.2712 19.3721 18.4283V26.9687C19.3721 27.1259 19.4996 27.2534 19.6568 27.2534H22.5036C22.6607 27.2534 22.7882 27.1259 22.7882 26.9687V20.831C23.2483 20.4347 23.841 20.3083 24.3261 20.5144C24.7964 20.7131 25.0657 21.1982 25.0657 21.8445V26.9687C25.0657 27.1259 25.1932 27.2534 25.3504 27.2534H28.1972C28.3543 27.2534 28.4819 27.1259 28.4819 26.9687V21.2711C28.4494 18.9316 27.3488 18.0656 26.4305 17.7513Z" fill="black"/>
</svg>
