<svg width="117" height="51" viewBox="0 0 117 51" fill="none" xmlns="http://www.w3.org/2000/svg">
<path d="M13.3596 11.087L0 0H43.1405C47.872 0.277174 54.9971 1.55217 56.7784 13.3043C58.5597 25.0565 52.6963 30.0272 49.542 31.0435L59.84 51L44.5321 50.7228L36.4607 33.8152L11.6897 34.3696L18.0912 22.7283L34.5124 22.4511C40.3572 22.4512 42.8621 23.0056 44.2538 18.8478C44.8249 17.1414 44.639 15.6957 44.0751 14.5145C42.4258 11.06 37.84 10.8303 34.0122 10.8705L13.3596 11.087Z" fill="white"/>
<path d="M69.0071 31V18.9842H73.4186C74.3799 18.9842 75.1695 19.1501 75.7874 19.482C76.4168 19.8024 76.886 20.243 77.195 20.8037C77.504 21.353 77.6585 21.9653 77.6585 22.6404C77.6585 23.3728 77.4639 24.0423 77.0748 24.6488C76.6972 25.2553 76.1021 25.6959 75.2896 25.9705L77.7786 31H75.2553L73.0238 26.2623H71.2043V31H69.0071ZM71.2043 24.6488H73.2813C74.0137 24.6488 74.5515 24.4714 74.8948 24.1167C75.2381 23.7619 75.4098 23.2927 75.4098 22.7091C75.4098 22.1369 75.2381 21.6792 74.8948 21.3359C74.563 20.9926 74.0194 20.8209 73.2641 20.8209H71.2043V24.6488ZM83.2677 31.206C82.4094 31.206 81.6484 31.0229 80.9847 30.6567C80.3209 30.2905 79.8003 29.7755 79.4226 29.1118C79.045 28.4481 78.8562 27.6813 78.8562 26.8116C78.8562 25.9305 79.0393 25.1466 79.4055 24.46C79.7831 23.7734 80.2981 23.2412 80.9503 22.8636C81.6141 22.4745 82.3922 22.28 83.2848 22.28C84.1202 22.28 84.8583 22.4631 85.4992 22.8293C86.14 23.1954 86.6378 23.699 86.9926 24.3398C87.3588 24.9692 87.5419 25.673 87.5419 26.4512C87.5419 26.577 87.5361 26.7086 87.5247 26.846C87.5247 26.9833 87.519 27.1263 87.5075 27.2751H81.0362C81.0819 27.9388 81.3108 28.4595 81.7228 28.8372C82.1462 29.2148 82.6554 29.4036 83.2505 29.4036C83.6968 29.4036 84.0687 29.3063 84.3663 29.1118C84.6752 28.9058 84.9041 28.6426 85.0529 28.3222H87.2844C87.1242 28.86 86.8553 29.3521 86.4776 29.7984C86.1114 30.2333 85.6537 30.5766 85.1044 30.8283C84.5665 31.0801 83.9543 31.206 83.2677 31.206ZM83.2848 24.0652C82.747 24.0652 82.2721 24.2197 81.8601 24.5286C81.4481 24.8262 81.1849 25.2839 81.0705 25.9019H85.3104C85.276 25.3411 85.07 24.8948 84.6924 24.563C84.3148 24.2311 83.8456 24.0652 83.2848 24.0652ZM91.3547 31L88.2306 22.4859H90.5308L92.6936 28.923L94.8565 22.4859H97.1567L94.0154 31H91.3547ZM100.843 31L97.7186 22.4859H100.019L102.182 28.923L104.344 22.4859H106.645L103.503 31H100.843ZM111.748 31.206C110.89 31.206 110.129 31.0229 109.465 30.6567C108.801 30.2905 108.281 29.7755 107.903 29.1118C107.526 28.4481 107.337 27.6813 107.337 26.8116C107.337 25.9305 107.52 25.1466 107.886 24.46C108.264 23.7734 108.779 23.2412 109.431 22.8636C110.095 22.4745 110.873 22.28 111.765 22.28C112.601 22.28 113.339 22.4631 113.98 22.8293C114.621 23.1954 115.118 23.699 115.473 24.3398C115.839 24.9692 116.022 25.673 116.022 26.4512C116.022 26.577 116.017 26.7086 116.005 26.846C116.005 26.9833 116 27.1263 115.988 27.2751H109.517C109.562 27.9388 109.791 28.4595 110.203 28.8372C110.627 29.2148 111.136 29.4036 111.731 29.4036C112.177 29.4036 112.549 29.3063 112.847 29.1118C113.156 28.9058 113.385 28.6426 113.533 28.3222H115.765C115.605 28.86 115.336 29.3521 114.958 29.7984C114.592 30.2333 114.134 30.5766 113.585 30.8283C113.047 31.0801 112.435 31.206 111.748 31.206ZM111.765 24.0652C111.228 24.0652 110.753 24.2197 110.341 24.5286C109.929 24.8262 109.665 25.2839 109.551 25.9019H113.791C113.757 25.3411 113.551 24.8948 113.173 24.563C112.795 24.2311 112.326 24.0652 111.765 24.0652Z" fill="white"/>
</svg>
