<svg width="200" height="115" viewBox="0 0 200 115" fill="none" xmlns="http://www.w3.org/2000/svg">
<rect width="200" height="115" rx="13" fill="#C3E0FC"/>
<path d="M16.25 32.75C21.7172 32.75 27.0136 33.4812 32.0468 34.8512C32.7738 35.0491 33.5 34.5086 33.5 33.7551V32.75M17.75 18.5V19.25C17.75 19.6642 17.4142 20 17 20H16.25M16.25 20V19.625C16.25 19.0037 16.7537 18.5 17.375 18.5H34.25M16.25 20V29M34.25 18.5V19.25C34.25 19.6642 34.5858 20 35 20H35.75M34.25 18.5H34.625C35.2463 18.5 35.75 19.0037 35.75 19.625V29.375C35.75 29.9963 35.2463 30.5 34.625 30.5H34.25M35.75 29H35C34.5858 29 34.25 29.3358 34.25 29.75V30.5M34.25 30.5H17.75M17.75 30.5H17.375C16.7537 30.5 16.25 29.9963 16.25 29.375V29M17.75 30.5V29.75C17.75 29.3358 17.4142 29 17 29H16.25M29 24.5C29 26.1569 27.6569 27.5 26 27.5C24.3431 27.5 23 26.1569 23 24.5C23 22.8431 24.3431 21.5 26 21.5C27.6569 21.5 29 22.8431 29 24.5ZM32 24.5H32.0075V24.5075H32V24.5ZM20 24.5H20.0075V24.5075H20V24.5Z" stroke="#263686" stroke-width="1.5" stroke-linecap="round" stroke-linejoin="round"/>
<path d="M14.994 58V48.2H21.224V49.404H16.478V52.456H20.804V53.632H16.478V56.796H21.224V58H14.994ZM22.796 54.556V53.31H28.494V54.556H22.796ZM33.4995 58.168C32.8182 58.168 32.2068 58.014 31.6655 57.706C31.1335 57.398 30.7135 56.9733 30.4055 56.432C30.1068 55.8813 29.9575 55.2467 29.9575 54.528C29.9575 53.8093 30.1068 53.1793 30.4055 52.638C30.7135 52.0873 31.1335 51.658 31.6655 51.35C32.2068 51.042 32.8182 50.888 33.4995 50.888C34.3582 50.888 35.0768 51.112 35.6555 51.56C36.2435 52.008 36.6215 52.6147 36.7895 53.38H35.2355C35.1422 52.9973 34.9368 52.6987 34.6195 52.484C34.3022 52.2693 33.9288 52.162 33.4995 52.162C33.1355 52.162 32.7995 52.2553 32.4915 52.442C32.1835 52.6193 31.9362 52.8853 31.7495 53.24C31.5628 53.5853 31.4695 54.0147 31.4695 54.528C31.4695 55.0413 31.5628 55.4753 31.7495 55.83C31.9362 56.1753 32.1835 56.4413 32.4915 56.628C32.7995 56.8147 33.1355 56.908 33.4995 56.908C33.9288 56.908 34.3022 56.8007 34.6195 56.586C34.9368 56.3713 35.1422 56.068 35.2355 55.676H36.7895C36.6308 56.4227 36.2575 57.0247 35.6695 57.482C35.0815 57.9393 34.3582 58.168 33.4995 58.168ZM41.6469 58.168C40.9843 58.168 40.3869 58.0187 39.8549 57.72C39.3323 57.412 38.9169 56.9873 38.6089 56.446C38.3009 55.8953 38.1469 55.256 38.1469 54.528C38.1469 53.8 38.3009 53.1653 38.6089 52.624C38.9263 52.0733 39.3509 51.6487 39.8829 51.35C40.4149 51.042 41.0076 50.888 41.6609 50.888C42.3236 50.888 42.9163 51.042 43.4389 51.35C43.9709 51.6487 44.3909 52.0733 44.6989 52.624C45.0163 53.1653 45.1749 53.8 45.1749 54.528C45.1749 55.256 45.0163 55.8953 44.6989 56.446C44.3909 56.9873 43.9709 57.412 43.4389 57.72C42.9069 58.0187 42.3096 58.168 41.6469 58.168ZM41.6469 56.894C42.0016 56.894 42.3283 56.8053 42.6269 56.628C42.9349 56.4507 43.1823 56.1893 43.3689 55.844C43.5556 55.4893 43.6489 55.0507 43.6489 54.528C43.6489 54.0053 43.5556 53.5713 43.3689 53.226C43.1916 52.8713 42.9489 52.6053 42.6409 52.428C42.3423 52.2507 42.0156 52.162 41.6609 52.162C41.3063 52.162 40.9749 52.2507 40.6669 52.428C40.3683 52.6053 40.1256 52.8713 39.9389 53.226C39.7523 53.5713 39.6589 54.0053 39.6589 54.528C39.6589 55.0507 39.7523 55.4893 39.9389 55.844C40.1256 56.1893 40.3683 56.4507 40.6669 56.628C40.9656 56.8053 41.2923 56.894 41.6469 56.894ZM46.7798 58V51.056H48.0958L48.2218 52.036C48.4458 51.6813 48.7398 51.4013 49.1038 51.196C49.4771 50.9907 49.9065 50.888 50.3918 50.888C51.4931 50.888 52.2585 51.322 52.6878 52.19C52.9398 51.7887 53.2758 51.4713 53.6958 51.238C54.1251 51.0047 54.5871 50.888 55.0818 50.888C55.9498 50.888 56.6311 51.1493 57.1258 51.672C57.6205 52.1947 57.8678 52.974 57.8678 54.01V58H56.3838V54.164C56.3838 52.82 55.8705 52.148 54.8438 52.148C54.3211 52.148 53.8918 52.344 53.5558 52.736C53.2291 53.128 53.0658 53.688 53.0658 54.416V58H51.5818V54.164C51.5818 52.82 51.0638 52.148 50.0278 52.148C49.5145 52.148 49.0898 52.344 48.7538 52.736C48.4271 53.128 48.2638 53.688 48.2638 54.416V58H46.7798ZM59.604 58V51.056H60.92L61.046 52.036C61.27 51.6813 61.564 51.4013 61.928 51.196C62.3013 50.9907 62.7307 50.888 63.216 50.888C64.3173 50.888 65.0827 51.322 65.512 52.19C65.764 51.7887 66.1 51.4713 66.52 51.238C66.9493 51.0047 67.4113 50.888 67.906 50.888C68.774 50.888 69.4553 51.1493 69.95 51.672C70.4447 52.1947 70.692 52.974 70.692 54.01V58H69.208V54.164C69.208 52.82 68.6947 52.148 67.668 52.148C67.1453 52.148 66.716 52.344 66.38 52.736C66.0533 53.128 65.89 53.688 65.89 54.416V58H64.406V54.164C64.406 52.82 63.888 52.148 62.852 52.148C62.3387 52.148 61.914 52.344 61.578 52.736C61.2513 53.128 61.088 53.688 61.088 54.416V58H59.604ZM75.6762 58.168C74.9949 58.168 74.3882 58.0187 73.8562 57.72C73.3336 57.412 72.9229 56.9873 72.6242 56.446C72.3256 55.9047 72.1762 55.2747 72.1762 54.556C72.1762 53.828 72.3209 53.1887 72.6102 52.638C72.9089 52.0873 73.3196 51.658 73.8422 51.35C74.3742 51.042 74.9902 50.888 75.6902 50.888C76.3716 50.888 76.9642 51.042 77.4682 51.35C77.9722 51.6487 78.3642 52.05 78.6442 52.554C78.9242 53.058 79.0642 53.6133 79.0642 54.22C79.0642 54.3133 79.0596 54.416 79.0502 54.528C79.0502 54.6307 79.0456 54.7473 79.0362 54.878H73.6322C73.6789 55.55 73.8982 56.0633 74.2902 56.418C74.6916 56.7633 75.1536 56.936 75.6762 56.936C76.0962 56.936 76.4462 56.8427 76.7262 56.656C77.0156 56.46 77.2302 56.1987 77.3702 55.872H78.8542C78.6676 56.5253 78.2942 57.0713 77.7342 57.51C77.1836 57.9487 76.4976 58.168 75.6762 58.168ZM75.6762 52.106C75.1816 52.106 74.7429 52.2553 74.3602 52.554C73.9776 52.8433 73.7442 53.282 73.6602 53.87H77.5802C77.5522 53.3287 77.3609 52.8993 77.0062 52.582C76.6516 52.2647 76.2082 52.106 75.6762 52.106ZM80.604 58V51.056H81.934L82.06 52.372C82.3027 51.9147 82.6387 51.5553 83.068 51.294C83.5067 51.0233 84.034 50.888 84.65 50.888V52.442H84.244C83.8333 52.442 83.4647 52.512 83.138 52.652C82.8207 52.7827 82.564 53.0113 82.368 53.338C82.1813 53.6553 82.088 54.0987 82.088 54.668V58H80.604ZM89.021 58.168C88.3396 58.168 87.7283 58.014 87.187 57.706C86.655 57.398 86.235 56.9733 85.927 56.432C85.6283 55.8813 85.479 55.2467 85.479 54.528C85.479 53.8093 85.6283 53.1793 85.927 52.638C86.235 52.0873 86.655 51.658 87.187 51.35C87.7283 51.042 88.3396 50.888 89.021 50.888C89.8796 50.888 90.5983 51.112 91.177 51.56C91.765 52.008 92.143 52.6147 92.311 53.38H90.757C90.6636 52.9973 90.4583 52.6987 90.141 52.484C89.8236 52.2693 89.4503 52.162 89.021 52.162C88.657 52.162 88.321 52.2553 88.013 52.442C87.705 52.6193 87.4576 52.8853 87.271 53.24C87.0843 53.5853 86.991 54.0147 86.991 54.528C86.991 55.0413 87.0843 55.4753 87.271 55.83C87.4576 56.1753 87.705 56.4413 88.013 56.628C88.321 56.8147 88.657 56.908 89.021 56.908C89.4503 56.908 89.8236 56.8007 90.141 56.586C90.4583 56.3713 90.6636 56.068 90.757 55.676H92.311C92.1523 56.4227 91.779 57.0247 91.191 57.482C90.603 57.9393 89.8796 58.168 89.021 58.168ZM97.1684 58.168C96.4871 58.168 95.8804 58.0187 95.3484 57.72C94.8258 57.412 94.4151 56.9873 94.1164 56.446C93.8178 55.9047 93.6684 55.2747 93.6684 54.556C93.6684 53.828 93.8131 53.1887 94.1024 52.638C94.4011 52.0873 94.8118 51.658 95.3344 51.35C95.8664 51.042 96.4824 50.888 97.1824 50.888C97.8638 50.888 98.4564 51.042 98.9604 51.35C99.4644 51.6487 99.8564 52.05 100.136 52.554C100.416 53.058 100.556 53.6133 100.556 54.22C100.556 54.3133 100.552 54.416 100.542 54.528C100.542 54.6307 100.538 54.7473 100.528 54.878H95.1244C95.1711 55.55 95.3904 56.0633 95.7824 56.418C96.1838 56.7633 96.6458 56.936 97.1684 56.936C97.5884 56.936 97.9384 56.8427 98.2184 56.656C98.5078 56.46 98.7224 56.1987 98.8624 55.872H100.346C100.16 56.5253 99.7864 57.0713 99.2264 57.51C98.6758 57.9487 97.9898 58.168 97.1684 58.168ZM97.1684 52.106C96.6738 52.106 96.2351 52.2553 95.8524 52.554C95.4698 52.8433 95.2364 53.282 95.1524 53.87H99.0724C99.0444 53.3287 98.8531 52.8993 98.4984 52.582C98.1438 52.2647 97.7004 52.106 97.1684 52.106ZM105.68 58V48.2H109.11C109.875 48.2 110.51 48.3307 111.014 48.592C111.518 48.844 111.891 49.194 112.134 49.642C112.386 50.0807 112.512 50.58 112.512 51.14C112.512 51.672 112.39 52.162 112.148 52.61C111.914 53.0487 111.546 53.3987 111.042 53.66C110.538 53.9213 109.894 54.052 109.11 54.052H107.164V58H105.68ZM107.164 52.834H109.04C109.74 52.834 110.239 52.6847 110.538 52.386C110.846 52.078 111 51.6627 111 51.14C111 50.5987 110.846 50.1787 110.538 49.88C110.239 49.572 109.74 49.418 109.04 49.418H107.164V52.834ZM115.892 58.168C115.304 58.168 114.818 58.07 114.436 57.874C114.053 57.678 113.768 57.4213 113.582 57.104C113.395 56.7773 113.302 56.4227 113.302 56.04C113.302 55.368 113.563 54.836 114.086 54.444C114.608 54.052 115.355 53.856 116.326 53.856H118.146V53.73C118.146 53.1887 117.996 52.7827 117.698 52.512C117.408 52.2413 117.03 52.106 116.564 52.106C116.153 52.106 115.794 52.2087 115.486 52.414C115.187 52.61 115.005 52.904 114.94 53.296H113.456C113.502 52.792 113.67 52.3627 113.96 52.008C114.258 51.644 114.632 51.3687 115.08 51.182C115.537 50.986 116.036 50.888 116.578 50.888C117.548 50.888 118.3 51.1447 118.832 51.658C119.364 52.162 119.63 52.8527 119.63 53.73V58H118.342L118.216 56.81C118.02 57.1927 117.735 57.5147 117.362 57.776C116.988 58.0373 116.498 58.168 115.892 58.168ZM116.186 56.964C116.587 56.964 116.923 56.8707 117.194 56.684C117.474 56.488 117.688 56.2313 117.838 55.914C117.996 55.5967 118.094 55.2467 118.132 54.864H116.48C115.892 54.864 115.472 54.9667 115.22 55.172C114.977 55.3773 114.856 55.634 114.856 55.942C114.856 56.2593 114.972 56.5113 115.206 56.698C115.448 56.8753 115.775 56.964 116.186 56.964ZM121.953 61.08L123.619 57.426H123.213L120.469 51.056H122.079L124.207 56.194L126.433 51.056H128.001L123.521 61.08H121.953ZM129.221 58V51.056H130.537L130.663 52.036C130.887 51.6813 131.181 51.4013 131.545 51.196C131.919 50.9907 132.348 50.888 132.833 50.888C133.935 50.888 134.7 51.322 135.129 52.19C135.381 51.7887 135.717 51.4713 136.137 51.238C136.567 51.0047 137.029 50.888 137.523 50.888C138.391 50.888 139.073 51.1493 139.567 51.672C140.062 52.1947 140.309 52.974 140.309 54.01V58H138.825V54.164C138.825 52.82 138.312 52.148 137.285 52.148C136.763 52.148 136.333 52.344 135.997 52.736C135.671 53.128 135.507 53.688 135.507 54.416V58H134.023V54.164C134.023 52.82 133.505 52.148 132.469 52.148C131.956 52.148 131.531 52.344 131.195 52.736C130.869 53.128 130.705 53.688 130.705 54.416V58H129.221ZM145.293 58.168C144.612 58.168 144.005 58.0187 143.473 57.72C142.951 57.412 142.54 56.9873 142.241 56.446C141.943 55.9047 141.793 55.2747 141.793 54.556C141.793 53.828 141.938 53.1887 142.227 52.638C142.526 52.0873 142.937 51.658 143.459 51.35C143.991 51.042 144.607 50.888 145.307 50.888C145.989 50.888 146.581 51.042 147.085 51.35C147.589 51.6487 147.981 52.05 148.261 52.554C148.541 53.058 148.681 53.6133 148.681 54.22C148.681 54.3133 148.677 54.416 148.667 54.528C148.667 54.6307 148.663 54.7473 148.653 54.878H143.249C143.296 55.55 143.515 56.0633 143.907 56.418C144.309 56.7633 144.771 56.936 145.293 56.936C145.713 56.936 146.063 56.8427 146.343 56.656C146.633 56.46 146.847 56.1987 146.987 55.872H148.471C148.285 56.5253 147.911 57.0713 147.351 57.51C146.801 57.9487 146.115 58.168 145.293 58.168ZM145.293 52.106C144.799 52.106 144.36 52.2553 143.977 52.554C143.595 52.8433 143.361 53.282 143.277 53.87H147.197C147.169 53.3287 146.978 52.8993 146.623 52.582C146.269 52.2647 145.825 52.106 145.293 52.106ZM150.221 58V51.056H151.537L151.649 52.274C151.864 51.8447 152.177 51.5087 152.587 51.266C153.007 51.014 153.488 50.888 154.029 50.888C154.869 50.888 155.527 51.1493 156.003 51.672C156.489 52.1947 156.731 52.974 156.731 54.01V58H155.261V54.164C155.261 52.82 154.711 52.148 153.609 52.148C153.059 52.148 152.601 52.344 152.237 52.736C151.883 53.128 151.705 53.688 151.705 54.416V58H150.221ZM161.391 58C160.71 58 160.168 57.8367 159.767 57.51C159.366 57.174 159.165 56.5813 159.165 55.732V52.302H157.975V51.056H159.165L159.347 49.292H160.649V51.056H162.609V52.302H160.649V55.732C160.649 56.1147 160.728 56.3807 160.887 56.53C161.055 56.67 161.34 56.74 161.741 56.74H162.539V58H161.391ZM166.911 58.168C166.034 58.168 165.311 57.9533 164.741 57.524C164.172 57.0947 163.845 56.5253 163.761 55.816H165.259C165.334 56.1333 165.511 56.4087 165.791 56.642C166.071 56.866 166.44 56.978 166.897 56.978C167.345 56.978 167.672 56.8847 167.877 56.698C168.083 56.5113 168.185 56.2967 168.185 56.054C168.185 55.6993 168.041 55.4613 167.751 55.34C167.471 55.2093 167.079 55.0927 166.575 54.99C166.183 54.906 165.791 54.794 165.399 54.654C165.017 54.514 164.695 54.318 164.433 54.066C164.181 53.8047 164.055 53.4547 164.055 53.016C164.055 52.4093 164.289 51.9053 164.755 51.504C165.222 51.0933 165.875 50.888 166.715 50.888C167.49 50.888 168.115 51.0747 168.591 51.448C169.077 51.8213 169.361 52.3487 169.445 53.03H168.017C167.971 52.7313 167.831 52.498 167.597 52.33C167.373 52.162 167.07 52.078 166.687 52.078C166.314 52.078 166.025 52.1573 165.819 52.316C165.614 52.4653 165.511 52.6613 165.511 52.904C165.511 53.1467 165.651 53.338 165.931 53.478C166.221 53.618 166.599 53.744 167.065 53.856C167.532 53.9587 167.961 54.08 168.353 54.22C168.755 54.3507 169.077 54.5467 169.319 54.808C169.562 55.0693 169.683 55.452 169.683 55.956C169.693 56.5907 169.445 57.118 168.941 57.538C168.447 57.958 167.77 58.168 166.911 58.168Z" fill="#263686"/>
<path d="M17.564 79.144C16.948 79.144 16.412 79.032 15.956 78.808C15.5 78.584 15.148 78.272 14.9 77.872C14.652 77.472 14.528 77.008 14.528 76.48H15.584C15.584 76.808 15.66 77.112 15.812 77.392C15.964 77.664 16.184 77.884 16.472 78.052C16.768 78.212 17.132 78.292 17.564 78.292C18.132 78.292 18.572 78.156 18.884 77.884C19.196 77.612 19.352 77.272 19.352 76.864C19.352 76.528 19.28 76.26 19.136 76.06C18.992 75.852 18.796 75.684 18.548 75.556C18.308 75.428 18.028 75.316 17.708 75.22C17.396 75.124 17.068 75.016 16.724 74.896C16.076 74.672 15.596 74.396 15.284 74.068C14.972 73.732 14.816 73.296 14.816 72.76C14.808 72.312 14.912 71.916 15.128 71.572C15.344 71.22 15.648 70.948 16.04 70.756C16.44 70.556 16.912 70.456 17.456 70.456C17.992 70.456 18.456 70.556 18.848 70.756C19.248 70.956 19.556 71.232 19.772 71.584C19.996 71.936 20.112 72.336 20.12 72.784H19.064C19.064 72.552 19.004 72.324 18.884 72.1C18.764 71.868 18.58 71.68 18.332 71.536C18.092 71.392 17.788 71.32 17.42 71.32C16.964 71.312 16.588 71.428 16.292 71.668C16.004 71.908 15.86 72.24 15.86 72.664C15.86 73.024 15.96 73.3 16.16 73.492C16.368 73.684 16.656 73.844 17.024 73.972C17.392 74.092 17.816 74.232 18.296 74.392C18.696 74.536 19.056 74.704 19.376 74.896C19.696 75.088 19.944 75.336 20.12 75.64C20.304 75.944 20.396 76.332 20.396 76.804C20.396 77.204 20.292 77.584 20.084 77.944C19.876 78.296 19.56 78.584 19.136 78.808C18.72 79.032 18.196 79.144 17.564 79.144ZM21.7655 79V70.36H22.7735V74.068C22.9735 73.7 23.2575 73.416 23.6255 73.216C23.9935 73.008 24.3935 72.904 24.8255 72.904C25.5135 72.904 26.0655 73.12 26.4815 73.552C26.8975 73.976 27.1055 74.632 27.1055 75.52V79H26.1095V75.628C26.1095 74.388 25.6095 73.768 24.6095 73.768C24.0895 73.768 23.6535 73.956 23.3015 74.332C22.9495 74.7 22.7735 75.228 22.7735 75.916V79H21.7655ZM31.3447 79.144C30.7847 79.144 30.2807 79.016 29.8327 78.76C29.3847 78.504 29.0287 78.144 28.7647 77.68C28.5087 77.208 28.3807 76.656 28.3807 76.024C28.3807 75.392 28.5127 74.844 28.7767 74.38C29.0407 73.908 29.3967 73.544 29.8447 73.288C30.3007 73.032 30.8087 72.904 31.3687 72.904C31.9287 72.904 32.4327 73.032 32.8807 73.288C33.3287 73.544 33.6807 73.908 33.9367 74.38C34.2007 74.844 34.3327 75.392 34.3327 76.024C34.3327 76.656 34.2007 77.208 33.9367 77.68C33.6727 78.144 33.3127 78.504 32.8567 78.76C32.4087 79.016 31.9047 79.144 31.3447 79.144ZM31.3447 78.28C31.6887 78.28 32.0087 78.196 32.3047 78.028C32.6007 77.86 32.8407 77.608 33.0247 77.272C33.2087 76.936 33.3007 76.52 33.3007 76.024C33.3007 75.528 33.2087 75.112 33.0247 74.776C32.8487 74.44 32.6127 74.188 32.3167 74.02C32.0207 73.852 31.7047 73.768 31.3687 73.768C31.0247 73.768 30.7047 73.852 30.4087 74.02C30.1127 74.188 29.8727 74.44 29.6887 74.776C29.5047 75.112 29.4127 75.528 29.4127 76.024C29.4127 76.52 29.5047 76.936 29.6887 77.272C29.8727 77.608 30.1087 77.86 30.3967 78.028C30.6927 78.196 31.0087 78.28 31.3447 78.28ZM35.7343 81.64V73.048H36.6463L36.7423 74.032C36.9343 73.744 37.2063 73.484 37.5583 73.252C37.9183 73.02 38.3743 72.904 38.9263 72.904C39.5183 72.904 40.0343 73.04 40.4743 73.312C40.9143 73.584 41.2543 73.956 41.4943 74.428C41.7423 74.9 41.8663 75.436 41.8663 76.036C41.8663 76.636 41.7423 77.172 41.4943 77.644C41.2543 78.108 40.9103 78.476 40.4623 78.748C40.0223 79.012 39.5063 79.144 38.9143 79.144C38.4263 79.144 37.9903 79.044 37.6063 78.844C37.2303 78.644 36.9423 78.364 36.7423 78.004V81.64H35.7343ZM38.8063 78.268C39.2063 78.268 39.5583 78.176 39.8623 77.992C40.1663 77.8 40.4063 77.536 40.5823 77.2C40.7583 76.864 40.8463 76.472 40.8463 76.024C40.8463 75.576 40.7583 75.184 40.5823 74.848C40.4063 74.512 40.1663 74.252 39.8623 74.068C39.5583 73.876 39.2063 73.78 38.8063 73.78C38.4063 73.78 38.0543 73.876 37.7503 74.068C37.4463 74.252 37.2063 74.512 37.0303 74.848C36.8543 75.184 36.7663 75.576 36.7663 76.024C36.7663 76.472 36.8543 76.864 37.0303 77.2C37.2063 77.536 37.4463 77.8 37.7503 77.992C38.0543 78.176 38.4063 78.268 38.8063 78.268ZM48.4252 79.144C47.9292 79.144 47.5172 79.06 47.1892 78.892C46.8612 78.724 46.6172 78.5 46.4572 78.22C46.2972 77.94 46.2172 77.636 46.2172 77.308C46.2172 76.7 46.4492 76.232 46.9132 75.904C47.3772 75.576 48.0092 75.412 48.8092 75.412H50.4172V75.34C50.4172 74.82 50.2812 74.428 50.0092 74.164C49.7372 73.892 49.3732 73.756 48.9172 73.756C48.5252 73.756 48.1852 73.856 47.8972 74.056C47.6172 74.248 47.4412 74.532 47.3692 74.908H46.3372C46.3772 74.476 46.5212 74.112 46.7692 73.816C47.0252 73.52 47.3412 73.296 47.7172 73.144C48.0932 72.984 48.4932 72.904 48.9172 72.904C49.7492 72.904 50.3732 73.128 50.7892 73.576C51.2132 74.016 51.4252 74.604 51.4252 75.34V79H50.5252L50.4652 77.932C50.2972 78.268 50.0492 78.556 49.7212 78.796C49.4012 79.028 48.9692 79.144 48.4252 79.144ZM48.5812 78.292C48.9652 78.292 49.2932 78.192 49.5652 77.992C49.8452 77.792 50.0572 77.532 50.2012 77.212C50.3452 76.892 50.4172 76.556 50.4172 76.204V76.192H48.8932C48.3012 76.192 47.8812 76.296 47.6332 76.504C47.3932 76.704 47.2732 76.956 47.2732 77.26C47.2732 77.572 47.3852 77.824 47.6092 78.016C47.8412 78.2 48.1652 78.292 48.5812 78.292ZM52.9374 79V73.048H53.8494L53.9094 74.116C54.1014 73.74 54.3774 73.444 54.7374 73.228C55.0974 73.012 55.5054 72.904 55.9614 72.904C56.6654 72.904 57.2254 73.12 57.6414 73.552C58.0654 73.976 58.2774 74.632 58.2774 75.52V79H57.2694V75.628C57.2694 74.388 56.7574 73.768 55.7334 73.768C55.2214 73.768 54.7934 73.956 54.4494 74.332C54.1134 74.7 53.9454 75.228 53.9454 75.916V79H52.9374ZM62.5046 79.144C61.9126 79.144 61.3926 79.008 60.9446 78.736C60.5046 78.464 60.1606 78.092 59.9126 77.62C59.6726 77.148 59.5526 76.612 59.5526 76.012C59.5526 75.412 59.6766 74.88 59.9246 74.416C60.1726 73.944 60.5166 73.576 60.9566 73.312C61.3966 73.04 61.9166 72.904 62.5166 72.904C63.0046 72.904 63.4366 73.004 63.8126 73.204C64.1886 73.404 64.4806 73.684 64.6886 74.044V70.36H65.6966V79H64.7846L64.6886 78.016C64.4966 78.304 64.2206 78.564 63.8606 78.796C63.5006 79.028 63.0486 79.144 62.5046 79.144ZM62.6126 78.268C63.0126 78.268 63.3646 78.176 63.6686 77.992C63.9806 77.8 64.2206 77.536 64.3886 77.2C64.5646 76.864 64.6526 76.472 64.6526 76.024C64.6526 75.576 64.5646 75.184 64.3886 74.848C64.2206 74.512 63.9806 74.252 63.6686 74.068C63.3646 73.876 63.0126 73.78 62.6126 73.78C62.2206 73.78 61.8686 73.876 61.5566 74.068C61.2526 74.252 61.0126 74.512 60.8366 74.848C60.6686 75.184 60.5846 75.576 60.5846 76.024C60.5846 76.472 60.6686 76.864 60.8366 77.2C61.0126 77.536 61.2526 77.8 61.5566 77.992C61.8686 78.176 62.2206 78.268 62.6126 78.268ZM70.5155 81.64V73.048H71.4275L71.5235 74.032C71.7155 73.744 71.9875 73.484 72.3395 73.252C72.6995 73.02 73.1555 72.904 73.7075 72.904C74.2995 72.904 74.8155 73.04 75.2555 73.312C75.6955 73.584 76.0355 73.956 76.2755 74.428C76.5235 74.9 76.6475 75.436 76.6475 76.036C76.6475 76.636 76.5235 77.172 76.2755 77.644C76.0355 78.108 75.6915 78.476 75.2435 78.748C74.8035 79.012 74.2875 79.144 73.6955 79.144C73.2075 79.144 72.7715 79.044 72.3875 78.844C72.0115 78.644 71.7235 78.364 71.5235 78.004V81.64H70.5155ZM73.5875 78.268C73.9875 78.268 74.3395 78.176 74.6435 77.992C74.9475 77.8 75.1875 77.536 75.3635 77.2C75.5395 76.864 75.6275 76.472 75.6275 76.024C75.6275 75.576 75.5395 75.184 75.3635 74.848C75.1875 74.512 74.9475 74.252 74.6435 74.068C74.3395 73.876 73.9875 73.78 73.5875 73.78C73.1875 73.78 72.8355 73.876 72.5315 74.068C72.2275 74.252 71.9875 74.512 71.8115 74.848C71.6355 75.184 71.5475 75.576 71.5475 76.024C71.5475 76.472 71.6355 76.864 71.8115 77.2C71.9875 77.536 72.2275 77.8 72.5315 77.992C72.8355 78.176 73.1875 78.268 73.5875 78.268ZM80.0307 79.144C79.5347 79.144 79.1227 79.06 78.7947 78.892C78.4667 78.724 78.2227 78.5 78.0627 78.22C77.9027 77.94 77.8227 77.636 77.8227 77.308C77.8227 76.7 78.0547 76.232 78.5187 75.904C78.9827 75.576 79.6147 75.412 80.4147 75.412H82.0227V75.34C82.0227 74.82 81.8867 74.428 81.6147 74.164C81.3427 73.892 80.9787 73.756 80.5227 73.756C80.1307 73.756 79.7907 73.856 79.5027 74.056C79.2227 74.248 79.0467 74.532 78.9747 74.908H77.9427C77.9827 74.476 78.1267 74.112 78.3747 73.816C78.6307 73.52 78.9467 73.296 79.3227 73.144C79.6987 72.984 80.0987 72.904 80.5227 72.904C81.3547 72.904 81.9787 73.128 82.3947 73.576C82.8187 74.016 83.0307 74.604 83.0307 75.34V79H82.1307L82.0707 77.932C81.9027 78.268 81.6547 78.556 81.3267 78.796C81.0067 79.028 80.5747 79.144 80.0307 79.144ZM80.1867 78.292C80.5707 78.292 80.8987 78.192 81.1707 77.992C81.4507 77.792 81.6627 77.532 81.8067 77.212C81.9507 76.892 82.0227 76.556 82.0227 76.204V76.192H80.4987C79.9067 76.192 79.4867 76.296 79.2387 76.504C78.9987 76.704 78.8787 76.956 78.8787 77.26C78.8787 77.572 78.9907 77.824 79.2147 78.016C79.4467 78.2 79.7707 78.292 80.1867 78.292ZM85.0151 81.64L86.4911 78.424H86.1431L83.7791 73.048H84.8711L86.8391 77.68L88.9271 73.048H89.9711L86.0711 81.64H85.0151ZM95.4108 79L93.6708 73.048H94.6788L95.9388 77.716L97.3308 73.048H98.4708L99.8748 77.716L101.123 73.048H102.143L100.403 79H99.3708L97.9068 74.092L96.4428 79H95.4108ZM103.87 71.728C103.67 71.728 103.502 71.664 103.366 71.536C103.238 71.4 103.174 71.232 103.174 71.032C103.174 70.84 103.238 70.68 103.366 70.552C103.502 70.424 103.67 70.36 103.87 70.36C104.062 70.36 104.226 70.424 104.362 70.552C104.498 70.68 104.566 70.84 104.566 71.032C104.566 71.232 104.498 71.4 104.362 71.536C104.226 71.664 104.062 71.728 103.87 71.728ZM103.366 79V73.048H104.374V79H103.366ZM108.481 79C107.937 79 107.509 78.868 107.197 78.604C106.885 78.34 106.729 77.864 106.729 77.176V73.9H105.697V73.048H106.729L106.861 71.62H107.737V73.048H109.489V73.9H107.737V77.176C107.737 77.552 107.813 77.808 107.965 77.944C108.117 78.072 108.385 78.136 108.769 78.136H109.393V79H108.481ZM110.769 79V70.36H111.777V74.068C111.977 73.7 112.261 73.416 112.629 73.216C112.997 73.008 113.397 72.904 113.829 72.904C114.517 72.904 115.069 73.12 115.485 73.552C115.901 73.976 116.109 74.632 116.109 75.52V79H115.113V75.628C115.113 74.388 114.613 73.768 113.613 73.768C113.093 73.768 112.657 73.956 112.305 74.332C111.953 74.7 111.777 75.228 111.777 75.916V79H110.769ZM123.488 79.144C122.92 79.144 122.416 79.016 121.976 78.76C121.536 78.496 121.188 78.132 120.932 77.668C120.684 77.204 120.56 76.656 120.56 76.024C120.56 75.4 120.684 74.856 120.932 74.392C121.18 73.92 121.524 73.556 121.964 73.3C122.412 73.036 122.928 72.904 123.512 72.904C124.088 72.904 124.584 73.036 125 73.3C125.424 73.556 125.748 73.896 125.972 74.32C126.196 74.744 126.308 75.2 126.308 75.688C126.308 75.776 126.304 75.864 126.296 75.952C126.296 76.04 126.296 76.14 126.296 76.252H121.556C121.58 76.708 121.684 77.088 121.868 77.392C122.06 77.688 122.296 77.912 122.576 78.064C122.864 78.216 123.168 78.292 123.488 78.292C123.904 78.292 124.252 78.196 124.532 78.004C124.812 77.812 125.016 77.552 125.144 77.224H126.14C125.98 77.776 125.672 78.236 125.216 78.604C124.768 78.964 124.192 79.144 123.488 79.144ZM123.488 73.756C123.008 73.756 122.58 73.904 122.204 74.2C121.836 74.488 121.624 74.912 121.568 75.472H125.312C125.288 74.936 125.104 74.516 124.76 74.212C124.416 73.908 123.992 73.756 123.488 73.756ZM129.624 79.144C129.128 79.144 128.716 79.06 128.388 78.892C128.06 78.724 127.816 78.5 127.656 78.22C127.496 77.94 127.416 77.636 127.416 77.308C127.416 76.7 127.648 76.232 128.112 75.904C128.576 75.576 129.208 75.412 130.008 75.412H131.616V75.34C131.616 74.82 131.48 74.428 131.208 74.164C130.936 73.892 130.572 73.756 130.116 73.756C129.724 73.756 129.384 73.856 129.096 74.056C128.816 74.248 128.64 74.532 128.568 74.908H127.536C127.576 74.476 127.72 74.112 127.968 73.816C128.224 73.52 128.54 73.296 128.916 73.144C129.292 72.984 129.692 72.904 130.116 72.904C130.948 72.904 131.572 73.128 131.988 73.576C132.412 74.016 132.624 74.604 132.624 75.34V79H131.724L131.664 77.932C131.496 78.268 131.248 78.556 130.92 78.796C130.6 79.028 130.168 79.144 129.624 79.144ZM129.78 78.292C130.164 78.292 130.492 78.192 130.764 77.992C131.044 77.792 131.256 77.532 131.4 77.212C131.544 76.892 131.616 76.556 131.616 76.204V76.192H130.092C129.5 76.192 129.08 76.296 128.832 76.504C128.592 76.704 128.472 76.956 128.472 77.26C128.472 77.572 128.584 77.824 128.808 78.016C129.04 78.2 129.364 78.292 129.78 78.292ZM136.417 79.144C135.705 79.144 135.113 78.964 134.641 78.604C134.169 78.244 133.893 77.756 133.813 77.14H134.845C134.909 77.452 135.073 77.724 135.337 77.956C135.609 78.18 135.973 78.292 136.429 78.292C136.853 78.292 137.165 78.204 137.365 78.028C137.565 77.844 137.665 77.628 137.665 77.38C137.665 77.02 137.533 76.78 137.269 76.66C137.013 76.54 136.649 76.432 136.177 76.336C135.857 76.272 135.537 76.18 135.217 76.06C134.897 75.94 134.629 75.772 134.413 75.556C134.197 75.332 134.089 75.04 134.089 74.68C134.089 74.16 134.281 73.736 134.665 73.408C135.057 73.072 135.585 72.904 136.249 72.904C136.881 72.904 137.397 73.064 137.797 73.384C138.205 73.696 138.441 74.144 138.505 74.728H137.509C137.469 74.424 137.337 74.188 137.113 74.02C136.897 73.844 136.605 73.756 136.237 73.756C135.877 73.756 135.597 73.832 135.397 73.984C135.205 74.136 135.109 74.336 135.109 74.584C135.109 74.824 135.233 75.012 135.481 75.148C135.737 75.284 136.081 75.4 136.513 75.496C136.881 75.576 137.229 75.676 137.557 75.796C137.893 75.908 138.165 76.08 138.373 76.312C138.589 76.536 138.697 76.864 138.697 77.296C138.705 77.832 138.501 78.276 138.085 78.628C137.677 78.972 137.121 79.144 136.417 79.144ZM142.813 79.144C142.245 79.144 141.741 79.016 141.301 78.76C140.861 78.496 140.513 78.132 140.257 77.668C140.009 77.204 139.885 76.656 139.885 76.024C139.885 75.4 140.009 74.856 140.257 74.392C140.505 73.92 140.849 73.556 141.289 73.3C141.737 73.036 142.253 72.904 142.837 72.904C143.413 72.904 143.909 73.036 144.325 73.3C144.749 73.556 145.073 73.896 145.297 74.32C145.521 74.744 145.633 75.2 145.633 75.688C145.633 75.776 145.629 75.864 145.621 75.952C145.621 76.04 145.621 76.14 145.621 76.252H140.881C140.905 76.708 141.009 77.088 141.193 77.392C141.385 77.688 141.621 77.912 141.901 78.064C142.189 78.216 142.493 78.292 142.813 78.292C143.229 78.292 143.577 78.196 143.857 78.004C144.137 77.812 144.341 77.552 144.469 77.224H145.465C145.305 77.776 144.997 78.236 144.541 78.604C144.093 78.964 143.517 79.144 142.813 79.144ZM142.813 73.756C142.333 73.756 141.905 73.904 141.529 74.2C141.161 74.488 140.949 74.912 140.893 75.472H144.637C144.613 74.936 144.429 74.516 144.085 74.212C143.741 73.908 143.317 73.756 142.813 73.756ZM150.468 79V73.9H149.568V73.048H150.468V72.016C150.468 71.44 150.612 71.02 150.9 70.756C151.188 70.492 151.608 70.36 152.16 70.36H152.76V71.224H152.316C152.012 71.224 151.796 71.288 151.668 71.416C151.54 71.536 151.476 71.744 151.476 72.04V73.048H152.94V73.9H151.476V79H150.468ZM154.141 79V73.048H155.053L155.137 74.188C155.321 73.796 155.601 73.484 155.977 73.252C156.353 73.02 156.817 72.904 157.369 72.904V73.96H157.093C156.741 73.96 156.417 74.024 156.121 74.152C155.825 74.272 155.589 74.48 155.413 74.776C155.237 75.072 155.149 75.48 155.149 76V79H154.141ZM160.989 79.144C160.429 79.144 159.925 79.016 159.477 78.76C159.029 78.504 158.673 78.144 158.409 77.68C158.153 77.208 158.025 76.656 158.025 76.024C158.025 75.392 158.157 74.844 158.421 74.38C158.685 73.908 159.041 73.544 159.489 73.288C159.945 73.032 160.453 72.904 161.013 72.904C161.573 72.904 162.077 73.032 162.525 73.288C162.973 73.544 163.325 73.908 163.581 74.38C163.845 74.844 163.977 75.392 163.977 76.024C163.977 76.656 163.845 77.208 163.581 77.68C163.317 78.144 162.957 78.504 162.501 78.76C162.053 79.016 161.549 79.144 160.989 79.144ZM160.989 78.28C161.333 78.28 161.653 78.196 161.949 78.028C162.245 77.86 162.485 77.608 162.669 77.272C162.853 76.936 162.945 76.52 162.945 76.024C162.945 75.528 162.853 75.112 162.669 74.776C162.493 74.44 162.257 74.188 161.961 74.02C161.665 73.852 161.349 73.768 161.013 73.768C160.669 73.768 160.349 73.852 160.053 74.02C159.757 74.188 159.517 74.44 159.333 74.776C159.149 75.112 159.057 75.528 159.057 76.024C159.057 76.52 159.149 76.936 159.333 77.272C159.517 77.608 159.753 77.86 160.041 78.028C160.337 78.196 160.653 78.28 160.989 78.28ZM165.379 79V73.048H166.291L166.363 73.912C166.555 73.592 166.811 73.344 167.131 73.168C167.451 72.992 167.811 72.904 168.211 72.904C168.683 72.904 169.087 73 169.423 73.192C169.767 73.384 170.031 73.676 170.215 74.068C170.423 73.708 170.707 73.424 171.067 73.216C171.435 73.008 171.831 72.904 172.255 72.904C172.967 72.904 173.535 73.12 173.959 73.552C174.383 73.976 174.595 74.632 174.595 75.52V79H173.599V75.628C173.599 75.012 173.475 74.548 173.227 74.236C172.979 73.924 172.623 73.768 172.159 73.768C171.679 73.768 171.279 73.956 170.959 74.332C170.647 74.7 170.491 75.228 170.491 75.916V79H169.483V75.628C169.483 75.012 169.359 74.548 169.111 74.236C168.863 73.924 168.507 73.768 168.043 73.768C167.571 73.768 167.175 73.956 166.855 74.332C166.543 74.7 166.387 75.228 166.387 75.916V79H165.379ZM15.476 97.64L16.952 94.424H16.604L14.24 89.048H15.332L17.3 93.68L19.388 89.048H20.432L16.532 97.64H15.476ZM23.6455 95.144C23.0855 95.144 22.5815 95.016 22.1335 94.76C21.6855 94.504 21.3295 94.144 21.0655 93.68C20.8095 93.208 20.6815 92.656 20.6815 92.024C20.6815 91.392 20.8135 90.844 21.0775 90.38C21.3415 89.908 21.6975 89.544 22.1455 89.288C22.6015 89.032 23.1095 88.904 23.6695 88.904C24.2295 88.904 24.7335 89.032 25.1815 89.288C25.6295 89.544 25.9815 89.908 26.2375 90.38C26.5015 90.844 26.6335 91.392 26.6335 92.024C26.6335 92.656 26.5015 93.208 26.2375 93.68C25.9735 94.144 25.6135 94.504 25.1575 94.76C24.7095 95.016 24.2055 95.144 23.6455 95.144ZM23.6455 94.28C23.9895 94.28 24.3095 94.196 24.6055 94.028C24.9015 93.86 25.1415 93.608 25.3255 93.272C25.5095 92.936 25.6015 92.52 25.6015 92.024C25.6015 91.528 25.5095 91.112 25.3255 90.776C25.1495 90.44 24.9135 90.188 24.6175 90.02C24.3215 89.852 24.0055 89.768 23.6695 89.768C23.3255 89.768 23.0055 89.852 22.7095 90.02C22.4135 90.188 22.1735 90.44 21.9895 90.776C21.8055 91.112 21.7135 91.528 21.7135 92.024C21.7135 92.52 21.8055 92.936 21.9895 93.272C22.1735 93.608 22.4095 93.86 22.6975 94.028C22.9935 94.196 23.3095 94.28 23.6455 94.28ZM30.207 95.144C29.503 95.144 28.943 94.932 28.527 94.508C28.111 94.076 27.903 93.416 27.903 92.528V89.048H28.911V92.42C28.911 93.66 29.419 94.28 30.435 94.28C30.955 94.28 31.383 94.096 31.719 93.728C32.063 93.352 32.235 92.82 32.235 92.132V89.048H33.243V95H32.331L32.259 93.932C32.075 94.308 31.799 94.604 31.431 94.82C31.071 95.036 30.663 95.144 30.207 95.144ZM34.9022 95V89.048H35.8142L35.8982 90.188C36.0822 89.796 36.3622 89.484 36.7382 89.252C37.1142 89.02 37.5782 88.904 38.1302 88.904V89.96H37.8542C37.5022 89.96 37.1782 90.024 36.8822 90.152C36.5862 90.272 36.3502 90.48 36.1742 90.776C35.9982 91.072 35.9102 91.48 35.9102 92V95H34.9022ZM42.7614 95V89.9H41.8614V89.048H42.7614V88.016C42.7614 87.44 42.9054 87.02 43.1934 86.756C43.4814 86.492 43.9014 86.36 44.4534 86.36H45.0534V87.224H44.6094C44.3054 87.224 44.0894 87.288 43.9614 87.416C43.8334 87.536 43.7694 87.744 43.7694 88.04V89.048H45.2334V89.9H43.7694V95H42.7614ZM48.1791 95.144C47.6831 95.144 47.2711 95.06 46.9431 94.892C46.6151 94.724 46.3711 94.5 46.2111 94.22C46.0511 93.94 45.9711 93.636 45.9711 93.308C45.9711 92.7 46.2031 92.232 46.6671 91.904C47.1311 91.576 47.7631 91.412 48.5631 91.412H50.1711V91.34C50.1711 90.82 50.0351 90.428 49.7631 90.164C49.4911 89.892 49.1271 89.756 48.6711 89.756C48.2791 89.756 47.9391 89.856 47.6511 90.056C47.3711 90.248 47.1951 90.532 47.1231 90.908H46.0911C46.1311 90.476 46.2751 90.112 46.5231 89.816C46.7791 89.52 47.0951 89.296 47.4711 89.144C47.8471 88.984 48.2471 88.904 48.6711 88.904C49.5031 88.904 50.1271 89.128 50.5431 89.576C50.9671 90.016 51.1791 90.604 51.1791 91.34V95H50.2791L50.2191 93.932C50.0511 94.268 49.8031 94.556 49.4751 94.796C49.1551 95.028 48.7231 95.144 48.1791 95.144ZM48.3351 94.292C48.7191 94.292 49.0471 94.192 49.3191 93.992C49.5991 93.792 49.8111 93.532 49.9551 93.212C50.0991 92.892 50.1711 92.556 50.1711 92.204V92.192H48.6471C48.0551 92.192 47.6351 92.296 47.3871 92.504C47.1471 92.704 47.0271 92.956 47.0271 93.26C47.0271 93.572 47.1391 93.824 47.3631 94.016C47.5951 94.2 47.9191 94.292 48.3351 94.292ZM54.1846 95L51.9286 89.048H52.9846L54.7726 94.028L56.5726 89.048H57.6046L55.3486 95H54.1846ZM61.1338 95.144C60.5738 95.144 60.0698 95.016 59.6218 94.76C59.1738 94.504 58.8178 94.144 58.5538 93.68C58.2978 93.208 58.1698 92.656 58.1698 92.024C58.1698 91.392 58.3018 90.844 58.5658 90.38C58.8298 89.908 59.1858 89.544 59.6338 89.288C60.0898 89.032 60.5978 88.904 61.1578 88.904C61.7178 88.904 62.2218 89.032 62.6698 89.288C63.1178 89.544 63.4698 89.908 63.7258 90.38C63.9898 90.844 64.1218 91.392 64.1218 92.024C64.1218 92.656 63.9898 93.208 63.7258 93.68C63.4618 94.144 63.1018 94.504 62.6458 94.76C62.1978 95.016 61.6938 95.144 61.1338 95.144ZM61.1338 94.28C61.4778 94.28 61.7978 94.196 62.0938 94.028C62.3898 93.86 62.6298 93.608 62.8138 93.272C62.9978 92.936 63.0898 92.52 63.0898 92.024C63.0898 91.528 62.9978 91.112 62.8138 90.776C62.6378 90.44 62.4018 90.188 62.1058 90.02C61.8098 89.852 61.4938 89.768 61.1578 89.768C60.8138 89.768 60.4938 89.852 60.1978 90.02C59.9018 90.188 59.6618 90.44 59.4778 90.776C59.2938 91.112 59.2018 91.528 59.2018 92.024C59.2018 92.52 59.2938 92.936 59.4778 93.272C59.6618 93.608 59.8978 93.86 60.1858 94.028C60.4818 94.196 60.7978 94.28 61.1338 94.28ZM67.6953 95.144C66.9913 95.144 66.4313 94.932 66.0153 94.508C65.5993 94.076 65.3913 93.416 65.3913 92.528V89.048H66.3993V92.42C66.3993 93.66 66.9073 94.28 67.9233 94.28C68.4433 94.28 68.8713 94.096 69.2073 93.728C69.5513 93.352 69.7233 92.82 69.7233 92.132V89.048H70.7313V95H69.8193L69.7473 93.932C69.5633 94.308 69.2873 94.604 68.9193 94.82C68.5593 95.036 68.1513 95.144 67.6953 95.144ZM72.3905 95V89.048H73.3025L73.3865 90.188C73.5705 89.796 73.8505 89.484 74.2265 89.252C74.6025 89.02 75.0665 88.904 75.6185 88.904V89.96H75.3425C74.9905 89.96 74.6665 90.024 74.3705 90.152C74.0745 90.272 73.8385 90.48 73.6625 90.776C73.4865 91.072 73.3985 91.48 73.3985 92V95H72.3905ZM77.3619 87.728C77.1619 87.728 76.9939 87.664 76.8579 87.536C76.7299 87.4 76.6659 87.232 76.6659 87.032C76.6659 86.84 76.7299 86.68 76.8579 86.552C76.9939 86.424 77.1619 86.36 77.3619 86.36C77.5539 86.36 77.7179 86.424 77.8539 86.552C77.9899 86.68 78.0579 86.84 78.0579 87.032C78.0579 87.232 77.9899 87.4 77.8539 87.536C77.7179 87.664 77.5539 87.728 77.3619 87.728ZM76.8579 95V89.048H77.8659V95H76.8579ZM81.973 95C81.429 95 81.001 94.868 80.689 94.604C80.377 94.34 80.221 93.864 80.221 93.176V89.9H79.189V89.048H80.221L80.353 87.62H81.229V89.048H82.981V89.9H81.229V93.176C81.229 93.552 81.305 93.808 81.457 93.944C81.609 94.072 81.877 94.136 82.261 94.136H82.885V95H81.973ZM86.7735 95.144C86.2055 95.144 85.7015 95.016 85.2615 94.76C84.8215 94.496 84.4735 94.132 84.2175 93.668C83.9695 93.204 83.8455 92.656 83.8455 92.024C83.8455 91.4 83.9695 90.856 84.2175 90.392C84.4655 89.92 84.8095 89.556 85.2495 89.3C85.6975 89.036 86.2135 88.904 86.7975 88.904C87.3735 88.904 87.8695 89.036 88.2855 89.3C88.7095 89.556 89.0335 89.896 89.2575 90.32C89.4815 90.744 89.5935 91.2 89.5935 91.688C89.5935 91.776 89.5895 91.864 89.5815 91.952C89.5815 92.04 89.5815 92.14 89.5815 92.252H84.8415C84.8655 92.708 84.9695 93.088 85.1535 93.392C85.3455 93.688 85.5815 93.912 85.8615 94.064C86.1495 94.216 86.4535 94.292 86.7735 94.292C87.1895 94.292 87.5375 94.196 87.8175 94.004C88.0975 93.812 88.3015 93.552 88.4295 93.224H89.4255C89.2655 93.776 88.9575 94.236 88.5015 94.604C88.0535 94.964 87.4775 95.144 86.7735 95.144ZM86.7735 89.756C86.2935 89.756 85.8655 89.904 85.4895 90.2C85.1215 90.488 84.9095 90.912 84.8535 91.472H88.5975C88.5735 90.936 88.3895 90.516 88.0455 90.212C87.7015 89.908 87.2775 89.756 86.7735 89.756ZM96.8173 95.144C96.2573 95.144 95.7533 95.016 95.3053 94.76C94.8573 94.504 94.5013 94.144 94.2373 93.68C93.9813 93.208 93.8533 92.656 93.8533 92.024C93.8533 91.392 93.9853 90.844 94.2493 90.38C94.5133 89.908 94.8693 89.544 95.3173 89.288C95.7733 89.032 96.2813 88.904 96.8413 88.904C97.4013 88.904 97.9053 89.032 98.3533 89.288C98.8013 89.544 99.1533 89.908 99.4093 90.38C99.6733 90.844 99.8053 91.392 99.8053 92.024C99.8053 92.656 99.6733 93.208 99.4093 93.68C99.1453 94.144 98.7853 94.504 98.3293 94.76C97.8813 95.016 97.3773 95.144 96.8173 95.144ZM96.8173 94.28C97.1613 94.28 97.4813 94.196 97.7773 94.028C98.0733 93.86 98.3133 93.608 98.4973 93.272C98.6813 92.936 98.7733 92.52 98.7733 92.024C98.7733 91.528 98.6813 91.112 98.4973 90.776C98.3213 90.44 98.0853 90.188 97.7893 90.02C97.4933 89.852 97.1773 89.768 96.8413 89.768C96.4973 89.768 96.1773 89.852 95.8813 90.02C95.5853 90.188 95.3453 90.44 95.1613 90.776C94.9773 91.112 94.8853 91.528 94.8853 92.024C94.8853 92.52 94.9773 92.936 95.1613 93.272C95.3453 93.608 95.5813 93.86 95.8693 94.028C96.1653 94.196 96.4813 94.28 96.8173 94.28ZM101.207 95V89.048H102.119L102.179 90.116C102.371 89.74 102.647 89.444 103.007 89.228C103.367 89.012 103.775 88.904 104.231 88.904C104.935 88.904 105.495 89.12 105.911 89.552C106.335 89.976 106.547 90.632 106.547 91.52V95H105.539V91.628C105.539 90.388 105.027 89.768 104.003 89.768C103.491 89.768 103.063 89.956 102.719 90.332C102.383 90.7 102.215 91.228 102.215 91.916V95H101.207ZM108.074 95V86.36H109.082V95H108.074ZM111.346 87.728C111.146 87.728 110.978 87.664 110.842 87.536C110.714 87.4 110.65 87.232 110.65 87.032C110.65 86.84 110.714 86.68 110.842 86.552C110.978 86.424 111.146 86.36 111.346 86.36C111.538 86.36 111.702 86.424 111.838 86.552C111.974 86.68 112.042 86.84 112.042 87.032C112.042 87.232 111.974 87.4 111.838 87.536C111.702 87.664 111.538 87.728 111.346 87.728ZM110.842 95V89.048H111.85V95H110.842ZM113.605 95V89.048H114.517L114.577 90.116C114.769 89.74 115.045 89.444 115.405 89.228C115.765 89.012 116.173 88.904 116.629 88.904C117.333 88.904 117.893 89.12 118.309 89.552C118.733 89.976 118.945 90.632 118.945 91.52V95H117.937V91.628C117.937 90.388 117.425 89.768 116.401 89.768C115.889 89.768 115.461 89.956 115.117 90.332C114.781 90.7 114.613 91.228 114.613 91.916V95H113.605ZM123.149 95.144C122.581 95.144 122.077 95.016 121.637 94.76C121.197 94.496 120.849 94.132 120.593 93.668C120.345 93.204 120.221 92.656 120.221 92.024C120.221 91.4 120.345 90.856 120.593 90.392C120.841 89.92 121.185 89.556 121.625 89.3C122.073 89.036 122.589 88.904 123.173 88.904C123.749 88.904 124.245 89.036 124.661 89.3C125.085 89.556 125.409 89.896 125.633 90.32C125.857 90.744 125.969 91.2 125.969 91.688C125.969 91.776 125.965 91.864 125.957 91.952C125.957 92.04 125.957 92.14 125.957 92.252H121.217C121.241 92.708 121.345 93.088 121.529 93.392C121.721 93.688 121.957 93.912 122.237 94.064C122.525 94.216 122.829 94.292 123.149 94.292C123.565 94.292 123.913 94.196 124.193 94.004C124.473 93.812 124.677 93.552 124.805 93.224H125.801C125.641 93.776 125.333 94.236 124.877 94.604C124.429 94.964 123.853 95.144 123.149 95.144ZM123.149 89.756C122.669 89.756 122.241 89.904 121.865 90.2C121.497 90.488 121.285 90.912 121.229 91.472H124.973C124.949 90.936 124.765 90.516 124.421 90.212C124.077 89.908 123.653 89.756 123.149 89.756ZM132.76 95.144C132.048 95.144 131.456 94.964 130.984 94.604C130.512 94.244 130.236 93.756 130.156 93.14H131.188C131.252 93.452 131.416 93.724 131.68 93.956C131.952 94.18 132.316 94.292 132.772 94.292C133.196 94.292 133.508 94.204 133.708 94.028C133.908 93.844 134.008 93.628 134.008 93.38C134.008 93.02 133.876 92.78 133.612 92.66C133.356 92.54 132.992 92.432 132.52 92.336C132.2 92.272 131.88 92.18 131.56 92.06C131.24 91.94 130.972 91.772 130.756 91.556C130.54 91.332 130.432 91.04 130.432 90.68C130.432 90.16 130.624 89.736 131.008 89.408C131.4 89.072 131.928 88.904 132.592 88.904C133.224 88.904 133.74 89.064 134.14 89.384C134.548 89.696 134.784 90.144 134.848 90.728H133.852C133.812 90.424 133.68 90.188 133.456 90.02C133.24 89.844 132.948 89.756 132.58 89.756C132.22 89.756 131.94 89.832 131.74 89.984C131.548 90.136 131.452 90.336 131.452 90.584C131.452 90.824 131.576 91.012 131.824 91.148C132.08 91.284 132.424 91.4 132.856 91.496C133.224 91.576 133.572 91.676 133.9 91.796C134.236 91.908 134.508 92.08 134.716 92.312C134.932 92.536 135.04 92.864 135.04 93.296C135.048 93.832 134.844 94.276 134.428 94.628C134.02 94.972 133.464 95.144 132.76 95.144ZM138.563 95C138.019 95 137.591 94.868 137.279 94.604C136.967 94.34 136.811 93.864 136.811 93.176V89.9H135.779V89.048H136.811L136.943 87.62H137.819V89.048H139.571V89.9H137.819V93.176C137.819 93.552 137.895 93.808 138.047 93.944C138.199 94.072 138.467 94.136 138.851 94.136H139.475V95H138.563ZM143.399 95.144C142.839 95.144 142.335 95.016 141.887 94.76C141.439 94.504 141.083 94.144 140.819 93.68C140.563 93.208 140.435 92.656 140.435 92.024C140.435 91.392 140.567 90.844 140.831 90.38C141.095 89.908 141.451 89.544 141.899 89.288C142.355 89.032 142.863 88.904 143.423 88.904C143.983 88.904 144.487 89.032 144.935 89.288C145.383 89.544 145.735 89.908 145.991 90.38C146.255 90.844 146.387 91.392 146.387 92.024C146.387 92.656 146.255 93.208 145.991 93.68C145.727 94.144 145.367 94.504 144.911 94.76C144.463 95.016 143.959 95.144 143.399 95.144ZM143.399 94.28C143.743 94.28 144.063 94.196 144.359 94.028C144.655 93.86 144.895 93.608 145.079 93.272C145.263 92.936 145.355 92.52 145.355 92.024C145.355 91.528 145.263 91.112 145.079 90.776C144.903 90.44 144.667 90.188 144.371 90.02C144.075 89.852 143.759 89.768 143.423 89.768C143.079 89.768 142.759 89.852 142.463 90.02C142.167 90.188 141.927 90.44 141.743 90.776C141.559 91.112 141.467 91.528 141.467 92.024C141.467 92.52 141.559 92.936 141.743 93.272C141.927 93.608 142.163 93.86 142.451 94.028C142.747 94.196 143.063 94.28 143.399 94.28ZM147.789 95V89.048H148.701L148.785 90.188C148.969 89.796 149.249 89.484 149.625 89.252C150.001 89.02 150.465 88.904 151.017 88.904V89.96H150.741C150.389 89.96 150.065 90.024 149.769 90.152C149.473 90.272 149.237 90.48 149.061 90.776C148.885 91.072 148.797 91.48 148.797 92V95H147.789ZM154.602 95.144C154.034 95.144 153.53 95.016 153.09 94.76C152.65 94.496 152.302 94.132 152.046 93.668C151.798 93.204 151.674 92.656 151.674 92.024C151.674 91.4 151.798 90.856 152.046 90.392C152.294 89.92 152.638 89.556 153.078 89.3C153.526 89.036 154.042 88.904 154.626 88.904C155.202 88.904 155.698 89.036 156.114 89.3C156.538 89.556 156.862 89.896 157.086 90.32C157.31 90.744 157.422 91.2 157.422 91.688C157.422 91.776 157.418 91.864 157.41 91.952C157.41 92.04 157.41 92.14 157.41 92.252H152.67C152.694 92.708 152.798 93.088 152.982 93.392C153.174 93.688 153.41 93.912 153.69 94.064C153.978 94.216 154.282 94.292 154.602 94.292C155.018 94.292 155.366 94.196 155.646 94.004C155.926 93.812 156.13 93.552 156.258 93.224H157.254C157.094 93.776 156.786 94.236 156.33 94.604C155.882 94.964 155.306 95.144 154.602 95.144ZM154.602 89.756C154.122 89.756 153.694 89.904 153.318 90.2C152.95 90.488 152.738 90.912 152.682 91.472H156.426C156.402 90.936 156.218 90.516 155.874 90.212C155.53 89.908 155.106 89.756 154.602 89.756ZM161.038 95.144C160.326 95.144 159.734 94.964 159.262 94.604C158.79 94.244 158.514 93.756 158.434 93.14H159.466C159.53 93.452 159.694 93.724 159.958 93.956C160.23 94.18 160.594 94.292 161.05 94.292C161.474 94.292 161.786 94.204 161.986 94.028C162.186 93.844 162.286 93.628 162.286 93.38C162.286 93.02 162.154 92.78 161.89 92.66C161.634 92.54 161.27 92.432 160.798 92.336C160.478 92.272 160.158 92.18 159.838 92.06C159.518 91.94 159.25 91.772 159.034 91.556C158.818 91.332 158.71 91.04 158.71 90.68C158.71 90.16 158.902 89.736 159.286 89.408C159.678 89.072 160.206 88.904 160.87 88.904C161.502 88.904 162.018 89.064 162.418 89.384C162.826 89.696 163.062 90.144 163.126 90.728H162.13C162.09 90.424 161.958 90.188 161.734 90.02C161.518 89.844 161.226 89.756 160.858 89.756C160.498 89.756 160.218 89.832 160.018 89.984C159.826 90.136 159.73 90.336 159.73 90.584C159.73 90.824 159.854 91.012 160.102 91.148C160.358 91.284 160.702 91.4 161.134 91.496C161.502 91.576 161.85 91.676 162.178 91.796C162.514 91.908 162.786 92.08 162.994 92.312C163.21 92.536 163.318 92.864 163.318 93.296C163.326 93.832 163.122 94.276 162.706 94.628C162.298 94.972 161.742 95.144 161.038 95.144Z" fill="#263686"/>
</svg>
