<svg width="200" height="112" viewBox="0 0 200 112" fill="none" xmlns="http://www.w3.org/2000/svg">
<rect width="200" height="112" rx="13" fill="#F0D4FB"/>
<path fill-rule="evenodd" clip-rule="evenodd" d="M36.035 14.0519C36.383 14.1331 36.7015 14.3069 36.9553 14.554C37.2105 14.8009 37.3888 15.1138 37.4696 15.4562C37.5503 15.7986 37.5302 16.1564 37.4116 16.4881L30.7686 35.6843C30.6539 36.0446 30.4313 36.3627 30.1297 36.5973C29.8282 36.832 29.4616 36.9723 29.0777 37H28.9435C28.585 37.0012 28.2332 36.9047 27.9274 36.7211C27.6217 36.5375 27.3741 36.2742 27.2123 35.9606L23.1862 27.9479L15.0401 24.0008C14.7013 23.8279 14.4224 23.5604 14.2385 23.2321C14.0547 22.9038 13.9742 22.5295 14.0072 22.1564C14.0403 21.7834 14.1853 21.4282 14.4241 21.1359C14.6629 20.8436 14.9846 20.6273 15.3488 20.5142L34.9826 14.0935C35.3228 13.985 35.6869 13.9706 36.035 14.0519ZM24.7496 19.5274L16.1808 22.3298L23.8035 26.0533L33.3185 16.7249L24.7496 19.5274ZM25.2261 27.4479L29.0374 34.9212L34.741 18.1196L25.2261 27.4479Z" fill="#5B317A"/>
<path d="M18.228 57.168C17.5093 57.168 16.8793 57.042 16.338 56.79C15.7967 56.538 15.372 56.1787 15.064 55.712C14.7653 55.2453 14.6113 54.69 14.602 54.046H16.17C16.1793 54.5687 16.3613 55.012 16.716 55.376C17.0707 55.74 17.57 55.922 18.214 55.922C18.7833 55.922 19.2267 55.7867 19.544 55.516C19.8707 55.236 20.034 54.8813 20.034 54.452C20.034 54.1067 19.9547 53.8267 19.796 53.612C19.6467 53.3973 19.4367 53.22 19.166 53.08C18.9047 52.94 18.6013 52.814 18.256 52.702C17.9107 52.59 17.5467 52.4687 17.164 52.338C16.408 52.086 15.8387 51.7593 15.456 51.358C15.0827 50.9567 14.896 50.4293 14.896 49.776C14.8867 49.2253 15.0127 48.7447 15.274 48.334C15.5447 47.9233 15.918 47.606 16.394 47.382C16.8793 47.1487 17.444 47.032 18.088 47.032C18.7227 47.032 19.278 47.1487 19.754 47.382C20.2393 47.6153 20.6173 47.942 20.888 48.362C21.1587 48.7727 21.2987 49.2533 21.308 49.804H19.74C19.74 49.552 19.6747 49.314 19.544 49.09C19.4133 48.8567 19.222 48.6653 18.97 48.516C18.718 48.3667 18.41 48.292 18.046 48.292C17.5793 48.2827 17.192 48.3993 16.884 48.642C16.5853 48.8847 16.436 49.2207 16.436 49.65C16.436 50.0327 16.548 50.3267 16.772 50.532C16.996 50.7373 17.304 50.91 17.696 51.05C18.088 51.1807 18.536 51.3347 19.04 51.512C19.5253 51.6707 19.9593 51.862 20.342 52.086C20.7247 52.31 21.028 52.604 21.252 52.968C21.4853 53.332 21.602 53.794 21.602 54.354C21.602 54.8487 21.476 55.3107 21.224 55.74C20.972 56.16 20.594 56.5053 20.09 56.776C19.586 57.0373 18.9653 57.168 18.228 57.168ZM26.4165 57.168C25.7351 57.168 25.1285 57.0187 24.5965 56.72C24.0738 56.412 23.6631 55.9873 23.3645 55.446C23.0658 54.9047 22.9165 54.2747 22.9165 53.556C22.9165 52.828 23.0611 52.1887 23.3505 51.638C23.6491 51.0873 24.0598 50.658 24.5825 50.35C25.1145 50.042 25.7305 49.888 26.4305 49.888C27.1118 49.888 27.7045 50.042 28.2085 50.35C28.7125 50.6487 29.1045 51.05 29.3845 51.554C29.6645 52.058 29.8045 52.6133 29.8045 53.22C29.8045 53.3133 29.7998 53.416 29.7905 53.528C29.7905 53.6307 29.7858 53.7473 29.7765 53.878H24.3725C24.4191 54.55 24.6385 55.0633 25.0305 55.418C25.4318 55.7633 25.8938 55.936 26.4165 55.936C26.8365 55.936 27.1865 55.8427 27.4665 55.656C27.7558 55.46 27.9705 55.1987 28.1105 54.872H29.5945C29.4078 55.5253 29.0345 56.0713 28.4745 56.51C27.9238 56.9487 27.2378 57.168 26.4165 57.168ZM26.4165 51.106C25.9218 51.106 25.4831 51.2553 25.1005 51.554C24.7178 51.8433 24.4845 52.282 24.4005 52.87H28.3205C28.2925 52.3287 28.1011 51.8993 27.7465 51.582C27.3918 51.2647 26.9485 51.106 26.4165 51.106ZM31.3443 57V50.056H32.6603L32.7723 51.274C32.9869 50.8447 33.2996 50.5087 33.7103 50.266C34.1303 50.014 34.6109 49.888 35.1523 49.888C35.9923 49.888 36.6503 50.1493 37.1263 50.672C37.6116 51.1947 37.8543 51.974 37.8543 53.01V57H36.3843V53.164C36.3843 51.82 35.8336 51.148 34.7323 51.148C34.1816 51.148 33.7243 51.344 33.3603 51.736C33.0056 52.128 32.8283 52.688 32.8283 53.416V57H31.3443ZM42.7661 57.168C42.0941 57.168 41.5014 57.0093 40.9881 56.692C40.4747 56.3747 40.0734 55.9407 39.7841 55.39C39.4947 54.8393 39.3501 54.214 39.3501 53.514C39.3501 52.814 39.4947 52.1933 39.7841 51.652C40.0734 51.1013 40.4747 50.672 40.9881 50.364C41.5107 50.0467 42.1081 49.888 42.7801 49.888C43.3307 49.888 43.8114 49.9953 44.2221 50.21C44.6421 50.4247 44.9687 50.728 45.2021 51.12V46.92H46.6861V57H45.3561L45.2021 55.922C44.9781 56.2487 44.6701 56.538 44.2781 56.79C43.8861 57.042 43.3821 57.168 42.7661 57.168ZM43.0321 55.88C43.6667 55.88 44.1847 55.6607 44.5861 55.222C44.9967 54.7833 45.2021 54.2187 45.2021 53.528C45.2021 52.828 44.9967 52.2633 44.5861 51.834C44.1847 51.3953 43.6667 51.176 43.0321 51.176C42.3974 51.176 41.8747 51.3953 41.4641 51.834C41.0534 52.2633 40.8481 52.828 40.8481 53.528C40.8481 53.9853 40.9414 54.3913 41.1281 54.746C41.3147 55.1007 41.5714 55.3807 41.8981 55.586C42.2341 55.782 42.6121 55.88 43.0321 55.88ZM52.1405 57V47.2H53.8905L57.2085 53.724L60.5125 47.2H62.2625V57H60.7785V49.762L57.7825 55.6H56.6345L53.6245 49.776V57H52.1405ZM67.4458 57.168C66.7831 57.168 66.1858 57.0187 65.6538 56.72C65.1311 56.412 64.7158 55.9873 64.4078 55.446C64.0998 54.8953 63.9458 54.256 63.9458 53.528C63.9458 52.8 64.0998 52.1653 64.4078 51.624C64.7251 51.0733 65.1498 50.6487 65.6818 50.35C66.2138 50.042 66.8064 49.888 67.4598 49.888C68.1224 49.888 68.7151 50.042 69.2378 50.35C69.7698 50.6487 70.1898 51.0733 70.4978 51.624C70.8151 52.1653 70.9738 52.8 70.9738 53.528C70.9738 54.256 70.8151 54.8953 70.4978 55.446C70.1898 55.9873 69.7698 56.412 69.2378 56.72C68.7058 57.0187 68.1084 57.168 67.4458 57.168ZM67.4458 55.894C67.8004 55.894 68.1271 55.8053 68.4258 55.628C68.7338 55.4507 68.9811 55.1893 69.1678 54.844C69.3544 54.4893 69.4478 54.0507 69.4478 53.528C69.4478 53.0053 69.3544 52.5713 69.1678 52.226C68.9904 51.8713 68.7478 51.6053 68.4398 51.428C68.1411 51.2507 67.8144 51.162 67.4598 51.162C67.1051 51.162 66.7738 51.2507 66.4658 51.428C66.1671 51.6053 65.9244 51.8713 65.7378 52.226C65.5511 52.5713 65.4578 53.0053 65.4578 53.528C65.4578 54.0507 65.5511 54.4893 65.7378 54.844C65.9244 55.1893 66.1671 55.4507 66.4658 55.628C66.7644 55.8053 67.0911 55.894 67.4458 55.894ZM72.5786 57V50.056H73.8946L74.0066 51.274C74.2213 50.8447 74.534 50.5087 74.9446 50.266C75.3646 50.014 75.8453 49.888 76.3866 49.888C77.2266 49.888 77.8846 50.1493 78.3606 50.672C78.846 51.1947 79.0886 51.974 79.0886 53.01V57H77.6186V53.164C77.6186 51.82 77.068 51.148 75.9666 51.148C75.416 51.148 74.9586 51.344 74.5946 51.736C74.24 52.128 74.0626 52.688 74.0626 53.416V57H72.5786ZM84.0844 57.168C83.4031 57.168 82.7964 57.0187 82.2644 56.72C81.7418 56.412 81.3311 55.9873 81.0324 55.446C80.7338 54.9047 80.5844 54.2747 80.5844 53.556C80.5844 52.828 80.7291 52.1887 81.0184 51.638C81.3171 51.0873 81.7278 50.658 82.2504 50.35C82.7824 50.042 83.3984 49.888 84.0984 49.888C84.7798 49.888 85.3724 50.042 85.8764 50.35C86.3804 50.6487 86.7724 51.05 87.0524 51.554C87.3324 52.058 87.4724 52.6133 87.4724 53.22C87.4724 53.3133 87.4678 53.416 87.4584 53.528C87.4584 53.6307 87.4538 53.7473 87.4444 53.878H82.0404C82.0871 54.55 82.3064 55.0633 82.6984 55.418C83.0998 55.7633 83.5618 55.936 84.0844 55.936C84.5044 55.936 84.8544 55.8427 85.1344 55.656C85.4238 55.46 85.6384 55.1987 85.7784 54.872H87.2624C87.0758 55.5253 86.7024 56.0713 86.1424 56.51C85.5918 56.9487 84.9058 57.168 84.0844 57.168ZM84.0844 51.106C83.5898 51.106 83.1511 51.2553 82.7684 51.554C82.3858 51.8433 82.1524 52.282 82.0684 52.87H85.9884C85.9604 52.3287 85.7691 51.8993 85.4144 51.582C85.0598 51.2647 84.6164 51.106 84.0844 51.106ZM89.5098 60.08L91.1758 56.426H90.7698L88.0258 50.056H89.6358L91.7638 55.194L93.9898 50.056H95.5578L91.0778 60.08H89.5098Z" fill="#5B317A"/>
<path d="M17.108 78.144C16.396 78.144 15.804 77.964 15.332 77.604C14.86 77.244 14.584 76.756 14.504 76.14H15.536C15.6 76.452 15.764 76.724 16.028 76.956C16.3 77.18 16.664 77.292 17.12 77.292C17.544 77.292 17.856 77.204 18.056 77.028C18.256 76.844 18.356 76.628 18.356 76.38C18.356 76.02 18.224 75.78 17.96 75.66C17.704 75.54 17.34 75.432 16.868 75.336C16.548 75.272 16.228 75.18 15.908 75.06C15.588 74.94 15.32 74.772 15.104 74.556C14.888 74.332 14.78 74.04 14.78 73.68C14.78 73.16 14.972 72.736 15.356 72.408C15.748 72.072 16.276 71.904 16.94 71.904C17.572 71.904 18.088 72.064 18.488 72.384C18.896 72.696 19.132 73.144 19.196 73.728H18.2C18.16 73.424 18.028 73.188 17.804 73.02C17.588 72.844 17.296 72.756 16.928 72.756C16.568 72.756 16.288 72.832 16.088 72.984C15.896 73.136 15.8 73.336 15.8 73.584C15.8 73.824 15.924 74.012 16.172 74.148C16.428 74.284 16.772 74.4 17.204 74.496C17.572 74.576 17.92 74.676 18.248 74.796C18.584 74.908 18.856 75.08 19.064 75.312C19.28 75.536 19.388 75.864 19.388 76.296C19.396 76.832 19.192 77.276 18.776 77.628C18.368 77.972 17.812 78.144 17.108 78.144ZM23.504 78.144C22.936 78.144 22.432 78.016 21.992 77.76C21.552 77.496 21.204 77.132 20.948 76.668C20.7 76.204 20.576 75.656 20.576 75.024C20.576 74.4 20.7 73.856 20.948 73.392C21.196 72.92 21.54 72.556 21.98 72.3C22.428 72.036 22.944 71.904 23.528 71.904C24.104 71.904 24.6 72.036 25.016 72.3C25.44 72.556 25.764 72.896 25.988 73.32C26.212 73.744 26.324 74.2 26.324 74.688C26.324 74.776 26.32 74.864 26.312 74.952C26.312 75.04 26.312 75.14 26.312 75.252H21.572C21.596 75.708 21.7 76.088 21.884 76.392C22.076 76.688 22.312 76.912 22.592 77.064C22.88 77.216 23.184 77.292 23.504 77.292C23.92 77.292 24.268 77.196 24.548 77.004C24.828 76.812 25.032 76.552 25.16 76.224H26.156C25.996 76.776 25.688 77.236 25.232 77.604C24.784 77.964 24.208 78.144 23.504 78.144ZM23.504 72.756C23.024 72.756 22.596 72.904 22.22 73.2C21.852 73.488 21.64 73.912 21.584 74.472H25.328C25.304 73.936 25.12 73.516 24.776 73.212C24.432 72.908 24.008 72.756 23.504 72.756ZM27.66 78V72.048H28.572L28.632 73.116C28.824 72.74 29.1 72.444 29.46 72.228C29.82 72.012 30.228 71.904 30.684 71.904C31.388 71.904 31.948 72.12 32.364 72.552C32.788 72.976 33 73.632 33 74.52V78H31.992V74.628C31.992 73.388 31.48 72.768 30.456 72.768C29.944 72.768 29.516 72.956 29.172 73.332C28.836 73.7 28.668 74.228 28.668 74.916V78H27.66ZM37.2272 78.144C36.6352 78.144 36.1152 78.008 35.6672 77.736C35.2272 77.464 34.8832 77.092 34.6352 76.62C34.3952 76.148 34.2752 75.612 34.2752 75.012C34.2752 74.412 34.3992 73.88 34.6472 73.416C34.8952 72.944 35.2392 72.576 35.6792 72.312C36.1192 72.04 36.6392 71.904 37.2392 71.904C37.7272 71.904 38.1592 72.004 38.5352 72.204C38.9112 72.404 39.2032 72.684 39.4112 73.044V69.36H40.4192V78H39.5072L39.4112 77.016C39.2192 77.304 38.9432 77.564 38.5832 77.796C38.2232 78.028 37.7712 78.144 37.2272 78.144ZM37.3352 77.268C37.7352 77.268 38.0872 77.176 38.3912 76.992C38.7032 76.8 38.9432 76.536 39.1112 76.2C39.2872 75.864 39.3752 75.472 39.3752 75.024C39.3752 74.576 39.2872 74.184 39.1112 73.848C38.9432 73.512 38.7032 73.252 38.3912 73.068C38.0872 72.876 37.7352 72.78 37.3352 72.78C36.9432 72.78 36.5912 72.876 36.2792 73.068C35.9752 73.252 35.7352 73.512 35.5592 73.848C35.3912 74.184 35.3072 74.576 35.3072 75.024C35.3072 75.472 35.3912 75.864 35.5592 76.2C35.7352 76.536 35.9752 76.8 36.2792 76.992C36.5912 77.176 36.9432 77.268 37.3352 77.268ZM45.2382 78V72.048H46.1502L46.2222 72.912C46.4142 72.592 46.6702 72.344 46.9902 72.168C47.3102 71.992 47.6702 71.904 48.0702 71.904C48.5422 71.904 48.9462 72 49.2822 72.192C49.6262 72.384 49.8902 72.676 50.0742 73.068C50.2822 72.708 50.5662 72.424 50.9262 72.216C51.2942 72.008 51.6902 71.904 52.1142 71.904C52.8262 71.904 53.3942 72.12 53.8182 72.552C54.2422 72.976 54.4542 73.632 54.4542 74.52V78H53.4582V74.628C53.4582 74.012 53.3342 73.548 53.0862 73.236C52.8382 72.924 52.4822 72.768 52.0182 72.768C51.5382 72.768 51.1382 72.956 50.8182 73.332C50.5062 73.7 50.3502 74.228 50.3502 74.916V78H49.3422V74.628C49.3422 74.012 49.2182 73.548 48.9702 73.236C48.7222 72.924 48.3662 72.768 47.9022 72.768C47.4302 72.768 47.0342 72.956 46.7142 73.332C46.4022 73.7 46.2462 74.228 46.2462 74.916V78H45.2382ZM58.6845 78.144C58.1245 78.144 57.6205 78.016 57.1725 77.76C56.7245 77.504 56.3685 77.144 56.1045 76.68C55.8485 76.208 55.7205 75.656 55.7205 75.024C55.7205 74.392 55.8525 73.844 56.1165 73.38C56.3805 72.908 56.7365 72.544 57.1845 72.288C57.6405 72.032 58.1485 71.904 58.7085 71.904C59.2685 71.904 59.7725 72.032 60.2205 72.288C60.6685 72.544 61.0205 72.908 61.2765 73.38C61.5405 73.844 61.6725 74.392 61.6725 75.024C61.6725 75.656 61.5405 76.208 61.2765 76.68C61.0125 77.144 60.6525 77.504 60.1965 77.76C59.7485 78.016 59.2445 78.144 58.6845 78.144ZM58.6845 77.28C59.0285 77.28 59.3485 77.196 59.6445 77.028C59.9405 76.86 60.1805 76.608 60.3645 76.272C60.5485 75.936 60.6405 75.52 60.6405 75.024C60.6405 74.528 60.5485 74.112 60.3645 73.776C60.1885 73.44 59.9525 73.188 59.6565 73.02C59.3605 72.852 59.0445 72.768 58.7085 72.768C58.3645 72.768 58.0445 72.852 57.7485 73.02C57.4525 73.188 57.2125 73.44 57.0285 73.776C56.8445 74.112 56.7525 74.528 56.7525 75.024C56.7525 75.52 56.8445 75.936 57.0285 76.272C57.2125 76.608 57.4485 76.86 57.7365 77.028C58.0325 77.196 58.3485 77.28 58.6845 77.28ZM63.0741 78V72.048H63.9861L64.0461 73.116C64.2381 72.74 64.5141 72.444 64.8741 72.228C65.2341 72.012 65.6421 71.904 66.0981 71.904C66.8021 71.904 67.3621 72.12 67.7781 72.552C68.2021 72.976 68.4141 73.632 68.4141 74.52V78H67.4061V74.628C67.4061 73.388 66.8941 72.768 65.8701 72.768C65.3581 72.768 64.9301 72.956 64.5861 73.332C64.2501 73.7 64.0821 74.228 64.0821 74.916V78H63.0741ZM72.6173 78.144C72.0493 78.144 71.5453 78.016 71.1053 77.76C70.6653 77.496 70.3173 77.132 70.0613 76.668C69.8133 76.204 69.6893 75.656 69.6893 75.024C69.6893 74.4 69.8133 73.856 70.0613 73.392C70.3093 72.92 70.6533 72.556 71.0933 72.3C71.5413 72.036 72.0573 71.904 72.6413 71.904C73.2173 71.904 73.7133 72.036 74.1293 72.3C74.5533 72.556 74.8773 72.896 75.1013 73.32C75.3253 73.744 75.4373 74.2 75.4373 74.688C75.4373 74.776 75.4333 74.864 75.4253 74.952C75.4253 75.04 75.4253 75.14 75.4253 75.252H70.6853C70.7093 75.708 70.8133 76.088 70.9973 76.392C71.1893 76.688 71.4253 76.912 71.7053 77.064C71.9933 77.216 72.2973 77.292 72.6173 77.292C73.0333 77.292 73.3813 77.196 73.6613 77.004C73.9413 76.812 74.1453 76.552 74.2733 76.224H75.2693C75.1093 76.776 74.8013 77.236 74.3453 77.604C73.8973 77.964 73.3213 78.144 72.6173 78.144ZM72.6173 72.756C72.1373 72.756 71.7093 72.904 71.3333 73.2C70.9653 73.488 70.7533 73.912 70.6973 74.472H74.4413C74.4173 73.936 74.2333 73.516 73.8893 73.212C73.5453 72.908 73.1213 72.756 72.6173 72.756ZM77.1869 80.64L78.6629 77.424H78.3149L75.9509 72.048H77.0429L79.0109 76.68L81.0989 72.048H82.1429L78.2429 80.64H77.1869ZM88.3627 78.144C87.8667 78.144 87.4547 78.06 87.1267 77.892C86.7987 77.724 86.5547 77.5 86.3947 77.22C86.2347 76.94 86.1547 76.636 86.1547 76.308C86.1547 75.7 86.3867 75.232 86.8507 74.904C87.3147 74.576 87.9467 74.412 88.7467 74.412H90.3547V74.34C90.3547 73.82 90.2187 73.428 89.9467 73.164C89.6747 72.892 89.3107 72.756 88.8547 72.756C88.4627 72.756 88.1227 72.856 87.8347 73.056C87.5547 73.248 87.3787 73.532 87.3067 73.908H86.2747C86.3147 73.476 86.4587 73.112 86.7067 72.816C86.9627 72.52 87.2787 72.296 87.6547 72.144C88.0307 71.984 88.4307 71.904 88.8547 71.904C89.6867 71.904 90.3107 72.128 90.7267 72.576C91.1507 73.016 91.3627 73.604 91.3627 74.34V78H90.4627L90.4027 76.932C90.2347 77.268 89.9867 77.556 89.6587 77.796C89.3387 78.028 88.9067 78.144 88.3627 78.144ZM88.5187 77.292C88.9027 77.292 89.2307 77.192 89.5027 76.992C89.7827 76.792 89.9947 76.532 90.1387 76.212C90.2827 75.892 90.3547 75.556 90.3547 75.204V75.192H88.8307C88.2387 75.192 87.8187 75.296 87.5707 75.504C87.3307 75.704 87.2107 75.956 87.2107 76.26C87.2107 76.572 87.3227 76.824 87.5467 77.016C87.7787 77.2 88.1027 77.292 88.5187 77.292ZM95.6109 78.144C95.0429 78.144 94.5309 78.016 94.0749 77.76C93.6269 77.496 93.2709 77.132 93.0069 76.668C92.7509 76.196 92.6229 75.648 92.6229 75.024C92.6229 74.4 92.7509 73.856 93.0069 73.392C93.2709 72.92 93.6269 72.556 94.0749 72.3C94.5309 72.036 95.0429 71.904 95.6109 71.904C96.3149 71.904 96.9069 72.088 97.3869 72.456C97.8749 72.824 98.1829 73.316 98.3109 73.932H97.2789C97.1989 73.564 97.0029 73.28 96.6909 73.08C96.3789 72.872 96.0149 72.768 95.5989 72.768C95.2629 72.768 94.9469 72.852 94.6509 73.02C94.3549 73.188 94.1149 73.44 93.9309 73.776C93.7469 74.112 93.6549 74.528 93.6549 75.024C93.6549 75.52 93.7469 75.936 93.9309 76.272C94.1149 76.608 94.3549 76.864 94.6509 77.04C94.9469 77.208 95.2629 77.292 95.5989 77.292C96.0149 77.292 96.3789 77.192 96.6909 76.992C97.0029 76.784 97.1989 76.492 97.2789 76.116H98.3109C98.1909 76.716 97.8869 77.204 97.3989 77.58C96.9109 77.956 96.3149 78.144 95.6109 78.144ZM99.7186 78V72.048H100.631L100.715 73.188C100.899 72.796 101.179 72.484 101.555 72.252C101.931 72.02 102.395 71.904 102.947 71.904V72.96H102.671C102.319 72.96 101.995 73.024 101.699 73.152C101.403 73.272 101.167 73.48 100.991 73.776C100.815 74.072 100.727 74.48 100.727 75V78H99.7186ZM106.567 78.144C106.007 78.144 105.503 78.016 105.055 77.76C104.607 77.504 104.251 77.144 103.987 76.68C103.731 76.208 103.603 75.656 103.603 75.024C103.603 74.392 103.735 73.844 103.999 73.38C104.263 72.908 104.619 72.544 105.067 72.288C105.523 72.032 106.031 71.904 106.591 71.904C107.151 71.904 107.655 72.032 108.103 72.288C108.551 72.544 108.903 72.908 109.159 73.38C109.423 73.844 109.555 74.392 109.555 75.024C109.555 75.656 109.423 76.208 109.159 76.68C108.895 77.144 108.535 77.504 108.079 77.76C107.631 78.016 107.127 78.144 106.567 78.144ZM106.567 77.28C106.911 77.28 107.231 77.196 107.527 77.028C107.823 76.86 108.063 76.608 108.247 76.272C108.431 75.936 108.523 75.52 108.523 75.024C108.523 74.528 108.431 74.112 108.247 73.776C108.071 73.44 107.835 73.188 107.539 73.02C107.243 72.852 106.927 72.768 106.591 72.768C106.247 72.768 105.927 72.852 105.631 73.02C105.335 73.188 105.095 73.44 104.911 73.776C104.727 74.112 104.635 74.528 104.635 75.024C104.635 75.52 104.727 75.936 104.911 76.272C105.095 76.608 105.331 76.86 105.619 77.028C105.915 77.196 106.231 77.28 106.567 77.28ZM113.237 78.144C112.525 78.144 111.933 77.964 111.461 77.604C110.989 77.244 110.713 76.756 110.633 76.14H111.665C111.729 76.452 111.893 76.724 112.157 76.956C112.429 77.18 112.793 77.292 113.249 77.292C113.673 77.292 113.985 77.204 114.185 77.028C114.385 76.844 114.485 76.628 114.485 76.38C114.485 76.02 114.353 75.78 114.089 75.66C113.833 75.54 113.469 75.432 112.997 75.336C112.677 75.272 112.357 75.18 112.037 75.06C111.717 74.94 111.449 74.772 111.233 74.556C111.017 74.332 110.909 74.04 110.909 73.68C110.909 73.16 111.101 72.736 111.485 72.408C111.877 72.072 112.405 71.904 113.069 71.904C113.701 71.904 114.217 72.064 114.617 72.384C115.025 72.696 115.261 73.144 115.325 73.728H114.329C114.289 73.424 114.157 73.188 113.933 73.02C113.717 72.844 113.425 72.756 113.057 72.756C112.697 72.756 112.417 72.832 112.217 72.984C112.025 73.136 111.929 73.336 111.929 73.584C111.929 73.824 112.053 74.012 112.301 74.148C112.557 74.284 112.901 74.4 113.333 74.496C113.701 74.576 114.049 74.676 114.377 74.796C114.713 74.908 114.985 75.08 115.193 75.312C115.409 75.536 115.517 75.864 115.517 76.296C115.525 76.832 115.321 77.276 114.905 77.628C114.497 77.972 113.941 78.144 113.237 78.144ZM119.237 78.144C118.525 78.144 117.933 77.964 117.461 77.604C116.989 77.244 116.713 76.756 116.633 76.14H117.665C117.729 76.452 117.893 76.724 118.157 76.956C118.429 77.18 118.793 77.292 119.249 77.292C119.673 77.292 119.985 77.204 120.185 77.028C120.385 76.844 120.485 76.628 120.485 76.38C120.485 76.02 120.353 75.78 120.089 75.66C119.833 75.54 119.469 75.432 118.997 75.336C118.677 75.272 118.357 75.18 118.037 75.06C117.717 74.94 117.449 74.772 117.233 74.556C117.017 74.332 116.909 74.04 116.909 73.68C116.909 73.16 117.101 72.736 117.485 72.408C117.877 72.072 118.405 71.904 119.069 71.904C119.701 71.904 120.217 72.064 120.617 72.384C121.025 72.696 121.261 73.144 121.325 73.728H120.329C120.289 73.424 120.157 73.188 119.933 73.02C119.717 72.844 119.425 72.756 119.057 72.756C118.697 72.756 118.417 72.832 118.217 72.984C118.025 73.136 117.929 73.336 117.929 73.584C117.929 73.824 118.053 74.012 118.301 74.148C118.557 74.284 118.901 74.4 119.333 74.496C119.701 74.576 120.049 74.676 120.377 74.796C120.713 74.908 120.985 75.08 121.193 75.312C121.409 75.536 121.517 75.864 121.517 76.296C121.525 76.832 121.321 77.276 120.905 77.628C120.497 77.972 119.941 78.144 119.237 78.144ZM129.313 78.144C128.825 78.144 128.389 78.044 128.005 77.844C127.629 77.644 127.341 77.364 127.141 77.004L127.045 78H126.133V69.36H127.141V73.032C127.333 72.744 127.605 72.484 127.957 72.252C128.317 72.02 128.773 71.904 129.325 71.904C129.917 71.904 130.433 72.04 130.873 72.312C131.313 72.584 131.653 72.956 131.893 73.428C132.141 73.9 132.265 74.436 132.265 75.036C132.265 75.636 132.141 76.172 131.893 76.644C131.653 77.108 131.309 77.476 130.861 77.748C130.421 78.012 129.905 78.144 129.313 78.144ZM129.205 77.268C129.605 77.268 129.957 77.176 130.261 76.992C130.565 76.8 130.805 76.536 130.981 76.2C131.157 75.864 131.245 75.472 131.245 75.024C131.245 74.576 131.157 74.184 130.981 73.848C130.805 73.512 130.565 73.252 130.261 73.068C129.957 72.876 129.605 72.78 129.205 72.78C128.805 72.78 128.453 72.876 128.149 73.068C127.845 73.252 127.605 73.512 127.429 73.848C127.253 74.184 127.165 74.576 127.165 75.024C127.165 75.472 127.253 75.864 127.429 76.2C127.605 76.536 127.845 76.8 128.149 76.992C128.453 77.176 128.805 77.268 129.205 77.268ZM136.38 78.144C135.82 78.144 135.316 78.016 134.868 77.76C134.42 77.504 134.064 77.144 133.8 76.68C133.544 76.208 133.416 75.656 133.416 75.024C133.416 74.392 133.548 73.844 133.812 73.38C134.076 72.908 134.432 72.544 134.88 72.288C135.336 72.032 135.844 71.904 136.404 71.904C136.964 71.904 137.468 72.032 137.916 72.288C138.364 72.544 138.716 72.908 138.972 73.38C139.236 73.844 139.368 74.392 139.368 75.024C139.368 75.656 139.236 76.208 138.972 76.68C138.708 77.144 138.348 77.504 137.892 77.76C137.444 78.016 136.94 78.144 136.38 78.144ZM136.38 77.28C136.724 77.28 137.044 77.196 137.34 77.028C137.636 76.86 137.876 76.608 138.06 76.272C138.244 75.936 138.336 75.52 138.336 75.024C138.336 74.528 138.244 74.112 138.06 73.776C137.884 73.44 137.648 73.188 137.352 73.02C137.056 72.852 136.74 72.768 136.404 72.768C136.06 72.768 135.74 72.852 135.444 73.02C135.148 73.188 134.908 73.44 134.724 73.776C134.54 74.112 134.448 74.528 134.448 75.024C134.448 75.52 134.54 75.936 134.724 76.272C134.908 76.608 135.144 76.86 135.432 77.028C135.728 77.196 136.044 77.28 136.38 77.28ZM140.769 78V72.048H141.681L141.765 73.188C141.949 72.796 142.229 72.484 142.605 72.252C142.981 72.02 143.445 71.904 143.997 71.904V72.96H143.721C143.369 72.96 143.045 73.024 142.749 73.152C142.453 73.272 142.217 73.48 142.041 73.776C141.865 74.072 141.777 74.48 141.777 75V78H140.769ZM147.606 78.144C147.014 78.144 146.494 78.008 146.046 77.736C145.606 77.464 145.262 77.092 145.014 76.62C144.774 76.148 144.654 75.612 144.654 75.012C144.654 74.412 144.778 73.88 145.026 73.416C145.274 72.944 145.618 72.576 146.058 72.312C146.498 72.04 147.018 71.904 147.618 71.904C148.106 71.904 148.538 72.004 148.914 72.204C149.29 72.404 149.582 72.684 149.79 73.044V69.36H150.798V78H149.886L149.79 77.016C149.598 77.304 149.322 77.564 148.962 77.796C148.602 78.028 148.15 78.144 147.606 78.144ZM147.714 77.268C148.114 77.268 148.466 77.176 148.77 76.992C149.082 76.8 149.322 76.536 149.49 76.2C149.666 75.864 149.754 75.472 149.754 75.024C149.754 74.576 149.666 74.184 149.49 73.848C149.322 73.512 149.082 73.252 148.77 73.068C148.466 72.876 148.114 72.78 147.714 72.78C147.322 72.78 146.97 72.876 146.658 73.068C146.354 73.252 146.114 73.512 145.938 73.848C145.77 74.184 145.686 74.576 145.686 75.024C145.686 75.472 145.77 75.864 145.938 76.2C146.114 76.536 146.354 76.8 146.658 76.992C146.97 77.176 147.322 77.268 147.714 77.268ZM155.117 78.144C154.549 78.144 154.045 78.016 153.605 77.76C153.165 77.496 152.817 77.132 152.561 76.668C152.313 76.204 152.189 75.656 152.189 75.024C152.189 74.4 152.313 73.856 152.561 73.392C152.809 72.92 153.153 72.556 153.593 72.3C154.041 72.036 154.557 71.904 155.141 71.904C155.717 71.904 156.213 72.036 156.629 72.3C157.053 72.556 157.377 72.896 157.601 73.32C157.825 73.744 157.937 74.2 157.937 74.688C157.937 74.776 157.933 74.864 157.925 74.952C157.925 75.04 157.925 75.14 157.925 75.252H153.185C153.209 75.708 153.313 76.088 153.497 76.392C153.689 76.688 153.925 76.912 154.205 77.064C154.493 77.216 154.797 77.292 155.117 77.292C155.533 77.292 155.881 77.196 156.161 77.004C156.441 76.812 156.645 76.552 156.773 76.224H157.769C157.609 76.776 157.301 77.236 156.845 77.604C156.397 77.964 155.821 78.144 155.117 78.144ZM155.117 72.756C154.637 72.756 154.209 72.904 153.833 73.2C153.465 73.488 153.253 73.912 153.197 74.472H156.941C156.917 73.936 156.733 73.516 156.389 73.212C156.045 72.908 155.621 72.756 155.117 72.756ZM159.273 78V72.048H160.185L160.269 73.188C160.453 72.796 160.733 72.484 161.109 72.252C161.485 72.02 161.949 71.904 162.501 71.904V72.96H162.225C161.873 72.96 161.549 73.024 161.253 73.152C160.957 73.272 160.721 73.48 160.545 73.776C160.369 74.072 160.281 74.48 160.281 75V78H159.273ZM165.913 78.144C165.201 78.144 164.609 77.964 164.137 77.604C163.665 77.244 163.389 76.756 163.309 76.14H164.341C164.405 76.452 164.569 76.724 164.833 76.956C165.105 77.18 165.469 77.292 165.925 77.292C166.349 77.292 166.661 77.204 166.861 77.028C167.061 76.844 167.161 76.628 167.161 76.38C167.161 76.02 167.029 75.78 166.765 75.66C166.509 75.54 166.145 75.432 165.673 75.336C165.353 75.272 165.033 75.18 164.713 75.06C164.393 74.94 164.125 74.772 163.909 74.556C163.693 74.332 163.585 74.04 163.585 73.68C163.585 73.16 163.777 72.736 164.161 72.408C164.553 72.072 165.081 71.904 165.745 71.904C166.377 71.904 166.893 72.064 167.293 72.384C167.701 72.696 167.937 73.144 168.001 73.728H167.005C166.965 73.424 166.833 73.188 166.609 73.02C166.393 72.844 166.101 72.756 165.733 72.756C165.373 72.756 165.093 72.832 164.893 72.984C164.701 73.136 164.605 73.336 164.605 73.584C164.605 73.824 164.729 74.012 164.977 74.148C165.233 74.284 165.577 74.4 166.009 74.496C166.377 74.576 166.725 74.676 167.053 74.796C167.389 74.908 167.661 75.08 167.869 75.312C168.085 75.536 168.193 75.864 168.193 76.296C168.201 76.832 167.997 77.276 167.581 77.628C167.173 77.972 166.617 78.144 165.913 78.144ZM16.028 94L14.288 88.048H15.296L16.556 92.716L17.948 88.048H19.088L20.492 92.716L21.74 88.048H22.76L21.02 94H19.988L18.524 89.092L17.06 94H16.028ZM24.4869 86.728C24.2869 86.728 24.1189 86.664 23.9829 86.536C23.8549 86.4 23.7909 86.232 23.7909 86.032C23.7909 85.84 23.8549 85.68 23.9829 85.552C24.1189 85.424 24.2869 85.36 24.4869 85.36C24.6789 85.36 24.8429 85.424 24.9789 85.552C25.1149 85.68 25.1829 85.84 25.1829 86.032C25.1829 86.232 25.1149 86.4 24.9789 86.536C24.8429 86.664 24.6789 86.728 24.4869 86.728ZM23.9829 94V88.048H24.9909V94H23.9829ZM29.098 94C28.554 94 28.126 93.868 27.814 93.604C27.502 93.34 27.346 92.864 27.346 92.176V88.9H26.314V88.048H27.346L27.478 86.62H28.354V88.048H30.106V88.9H28.354V92.176C28.354 92.552 28.43 92.808 28.582 92.944C28.734 93.072 29.002 93.136 29.386 93.136H30.01V94H29.098ZM31.3866 94V85.36H32.3946V89.068C32.5946 88.7 32.8786 88.416 33.2466 88.216C33.6146 88.008 34.0146 87.904 34.4466 87.904C35.1346 87.904 35.6866 88.12 36.1026 88.552C36.5186 88.976 36.7266 89.632 36.7266 90.52V94H35.7306V90.628C35.7306 89.388 35.2306 88.768 34.2306 88.768C33.7106 88.768 33.2746 88.956 32.9226 89.332C32.5706 89.7 32.3946 90.228 32.3946 90.916V94H31.3866ZM40.9658 94.144C40.4058 94.144 39.9018 94.016 39.4538 93.76C39.0058 93.504 38.6498 93.144 38.3858 92.68C38.1298 92.208 38.0018 91.656 38.0018 91.024C38.0018 90.392 38.1338 89.844 38.3978 89.38C38.6618 88.908 39.0178 88.544 39.4658 88.288C39.9218 88.032 40.4298 87.904 40.9898 87.904C41.5498 87.904 42.0538 88.032 42.5018 88.288C42.9498 88.544 43.3018 88.908 43.5578 89.38C43.8218 89.844 43.9538 90.392 43.9538 91.024C43.9538 91.656 43.8218 92.208 43.5578 92.68C43.2938 93.144 42.9338 93.504 42.4778 93.76C42.0298 94.016 41.5258 94.144 40.9658 94.144ZM40.9658 93.28C41.3098 93.28 41.6298 93.196 41.9258 93.028C42.2218 92.86 42.4618 92.608 42.6458 92.272C42.8298 91.936 42.9218 91.52 42.9218 91.024C42.9218 90.528 42.8298 90.112 42.6458 89.776C42.4698 89.44 42.2338 89.188 41.9378 89.02C41.6418 88.852 41.3258 88.768 40.9898 88.768C40.6458 88.768 40.3258 88.852 40.0298 89.02C39.7338 89.188 39.4938 89.44 39.3098 89.776C39.1258 90.112 39.0338 90.528 39.0338 91.024C39.0338 91.52 39.1258 91.936 39.3098 92.272C39.4938 92.608 39.7298 92.86 40.0178 93.028C40.3138 93.196 40.6298 93.28 40.9658 93.28ZM47.5273 94.144C46.8233 94.144 46.2633 93.932 45.8473 93.508C45.4313 93.076 45.2233 92.416 45.2233 91.528V88.048H46.2313V91.42C46.2313 92.66 46.7393 93.28 47.7553 93.28C48.2753 93.28 48.7033 93.096 49.0393 92.728C49.3833 92.352 49.5553 91.82 49.5553 91.132V88.048H50.5633V94H49.6513L49.5793 92.932C49.3953 93.308 49.1193 93.604 48.7513 93.82C48.3913 94.036 47.9833 94.144 47.5273 94.144ZM54.5745 94C54.0305 94 53.6025 93.868 53.2905 93.604C52.9785 93.34 52.8225 92.864 52.8225 92.176V88.9H51.7905V88.048H52.8225L52.9545 86.62H53.8305V88.048H55.5825V88.9H53.8305V92.176C53.8305 92.552 53.9065 92.808 54.0585 92.944C54.2105 93.072 54.4785 93.136 54.8625 93.136H55.4865V94H54.5745ZM62.7149 94.144C62.1469 94.144 61.6429 94.016 61.2029 93.76C60.7629 93.496 60.4149 93.132 60.1589 92.668C59.9109 92.204 59.7869 91.656 59.7869 91.024C59.7869 90.4 59.9109 89.856 60.1589 89.392C60.4069 88.92 60.7509 88.556 61.1909 88.3C61.6389 88.036 62.1549 87.904 62.7389 87.904C63.3149 87.904 63.8109 88.036 64.2269 88.3C64.6509 88.556 64.9749 88.896 65.1989 89.32C65.4229 89.744 65.5349 90.2 65.5349 90.688C65.5349 90.776 65.5309 90.864 65.5229 90.952C65.5229 91.04 65.5229 91.14 65.5229 91.252H60.7829C60.8069 91.708 60.9109 92.088 61.0949 92.392C61.2869 92.688 61.5229 92.912 61.8029 93.064C62.0909 93.216 62.3949 93.292 62.7149 93.292C63.1309 93.292 63.4789 93.196 63.7589 93.004C64.0389 92.812 64.2429 92.552 64.3709 92.224H65.3669C65.2069 92.776 64.8989 93.236 64.4429 93.604C63.9949 93.964 63.4189 94.144 62.7149 94.144ZM62.7149 88.756C62.2349 88.756 61.8069 88.904 61.4309 89.2C61.0629 89.488 60.8509 89.912 60.7949 90.472H64.5389C64.5149 89.936 64.3309 89.516 63.9869 89.212C63.6429 88.908 63.2189 88.756 62.7149 88.756ZM65.9897 94L68.0537 91.024L65.9897 88.048H67.0817L68.7497 90.508L70.4297 88.048H71.5097L69.4457 91.024L71.5097 94H70.4297L68.7497 91.54L67.0817 94H65.9897ZM75.0205 94.144C74.4605 94.144 73.9565 94.016 73.5085 93.76C73.0605 93.504 72.7045 93.144 72.4405 92.68C72.1845 92.208 72.0565 91.656 72.0565 91.024C72.0565 90.392 72.1885 89.844 72.4525 89.38C72.7165 88.908 73.0725 88.544 73.5205 88.288C73.9765 88.032 74.4845 87.904 75.0445 87.904C75.6045 87.904 76.1085 88.032 76.5565 88.288C77.0045 88.544 77.3565 88.908 77.6125 89.38C77.8765 89.844 78.0085 90.392 78.0085 91.024C78.0085 91.656 77.8765 92.208 77.6125 92.68C77.3485 93.144 76.9885 93.504 76.5325 93.76C76.0845 94.016 75.5805 94.144 75.0205 94.144ZM75.0205 93.28C75.3645 93.28 75.6845 93.196 75.9805 93.028C76.2765 92.86 76.5165 92.608 76.7005 92.272C76.8845 91.936 76.9765 91.52 76.9765 91.024C76.9765 90.528 76.8845 90.112 76.7005 89.776C76.5245 89.44 76.2885 89.188 75.9925 89.02C75.6965 88.852 75.3805 88.768 75.0445 88.768C74.7005 88.768 74.3805 88.852 74.0845 89.02C73.7885 89.188 73.5485 89.44 73.3645 89.776C73.1805 90.112 73.0885 90.528 73.0885 91.024C73.0885 91.52 73.1805 91.936 73.3645 92.272C73.5485 92.608 73.7845 92.86 74.0725 93.028C74.3685 93.196 74.6845 93.28 75.0205 93.28ZM79.41 94V88.048H80.322L80.406 89.188C80.59 88.796 80.87 88.484 81.246 88.252C81.622 88.02 82.086 87.904 82.638 87.904V88.96H82.362C82.01 88.96 81.686 89.024 81.39 89.152C81.094 89.272 80.858 89.48 80.682 89.776C80.506 90.072 80.418 90.48 80.418 91V94H79.41ZM86.9494 94.144C86.4614 94.144 86.0254 94.044 85.6414 93.844C85.2654 93.644 84.9774 93.364 84.7774 93.004L84.6814 94H83.7694V85.36H84.7774V89.032C84.9694 88.744 85.2414 88.484 85.5934 88.252C85.9534 88.02 86.4094 87.904 86.9614 87.904C87.5534 87.904 88.0694 88.04 88.5094 88.312C88.9494 88.584 89.2894 88.956 89.5294 89.428C89.7774 89.9 89.9014 90.436 89.9014 91.036C89.9014 91.636 89.7774 92.172 89.5294 92.644C89.2894 93.108 88.9454 93.476 88.4974 93.748C88.0574 94.012 87.5414 94.144 86.9494 94.144ZM86.8414 93.268C87.2414 93.268 87.5934 93.176 87.8974 92.992C88.2014 92.8 88.4414 92.536 88.6174 92.2C88.7934 91.864 88.8814 91.472 88.8814 91.024C88.8814 90.576 88.7934 90.184 88.6174 89.848C88.4414 89.512 88.2014 89.252 87.8974 89.068C87.5934 88.876 87.2414 88.78 86.8414 88.78C86.4414 88.78 86.0894 88.876 85.7854 89.068C85.4814 89.252 85.2414 89.512 85.0654 89.848C84.8894 90.184 84.8014 90.576 84.8014 91.024C84.8014 91.472 84.8894 91.864 85.0654 92.2C85.2414 92.536 85.4814 92.8 85.7854 92.992C86.0894 93.176 86.4414 93.268 86.8414 93.268ZM91.9166 86.728C91.7166 86.728 91.5486 86.664 91.4126 86.536C91.2846 86.4 91.2206 86.232 91.2206 86.032C91.2206 85.84 91.2846 85.68 91.4126 85.552C91.5486 85.424 91.7166 85.36 91.9166 85.36C92.1086 85.36 92.2726 85.424 92.4086 85.552C92.5446 85.68 92.6126 85.84 92.6126 86.032C92.6126 86.232 92.5446 86.4 92.4086 86.536C92.2726 86.664 92.1086 86.728 91.9166 86.728ZM91.4126 94V88.048H92.4206V94H91.4126ZM96.5277 94C95.9837 94 95.5557 93.868 95.2437 93.604C94.9317 93.34 94.7757 92.864 94.7757 92.176V88.9H93.7437V88.048H94.7757L94.9077 86.62H95.7837V88.048H97.5357V88.9H95.7837V92.176C95.7837 92.552 95.8597 92.808 96.0117 92.944C96.1637 93.072 96.4317 93.136 96.8157 93.136H97.4397V94H96.5277ZM100.796 94.144C100.3 94.144 99.8883 94.06 99.5603 93.892C99.2323 93.724 98.9883 93.5 98.8283 93.22C98.6683 92.94 98.5883 92.636 98.5883 92.308C98.5883 91.7 98.8203 91.232 99.2843 90.904C99.7483 90.576 100.38 90.412 101.18 90.412H102.788V90.34C102.788 89.82 102.652 89.428 102.38 89.164C102.108 88.892 101.744 88.756 101.288 88.756C100.896 88.756 100.556 88.856 100.268 89.056C99.9883 89.248 99.8123 89.532 99.7403 89.908H98.7083C98.7483 89.476 98.8923 89.112 99.1403 88.816C99.3963 88.52 99.7123 88.296 100.088 88.144C100.464 87.984 100.864 87.904 101.288 87.904C102.12 87.904 102.744 88.128 103.16 88.576C103.584 89.016 103.796 89.604 103.796 90.34V94H102.896L102.836 92.932C102.668 93.268 102.42 93.556 102.092 93.796C101.772 94.028 101.34 94.144 100.796 94.144ZM100.952 93.292C101.336 93.292 101.664 93.192 101.936 92.992C102.216 92.792 102.428 92.532 102.572 92.212C102.716 91.892 102.788 91.556 102.788 91.204V91.192H101.264C100.672 91.192 100.252 91.296 100.004 91.504C99.7643 91.704 99.6443 91.956 99.6443 92.26C99.6443 92.572 99.7563 92.824 99.9803 93.016C100.212 93.2 100.536 93.292 100.952 93.292ZM105.308 94V88.048H106.22L106.28 89.116C106.472 88.74 106.748 88.444 107.108 88.228C107.468 88.012 107.876 87.904 108.332 87.904C109.036 87.904 109.596 88.12 110.012 88.552C110.436 88.976 110.648 89.632 110.648 90.52V94H109.64V90.628C109.64 89.388 109.128 88.768 108.104 88.768C107.592 88.768 107.164 88.956 106.82 89.332C106.484 89.7 106.316 90.228 106.316 90.916V94H105.308ZM114.528 94C113.984 94 113.556 93.868 113.244 93.604C112.932 93.34 112.776 92.864 112.776 92.176V88.9H111.744V88.048H112.776L112.908 86.62H113.784V88.048H115.536V88.9H113.784V92.176C113.784 92.552 113.86 92.808 114.012 92.944C114.164 93.072 114.432 93.136 114.816 93.136H115.44V94H114.528ZM120.316 94V88.9H119.416V88.048H120.316V87.016C120.316 86.44 120.46 86.02 120.748 85.756C121.036 85.492 121.456 85.36 122.008 85.36H122.608V86.224H122.164C121.86 86.224 121.644 86.288 121.516 86.416C121.388 86.536 121.324 86.744 121.324 87.04V88.048H122.788V88.9H121.324V94H120.316ZM126.43 94.144C125.862 94.144 125.358 94.016 124.918 93.76C124.478 93.496 124.13 93.132 123.874 92.668C123.626 92.204 123.502 91.656 123.502 91.024C123.502 90.4 123.626 89.856 123.874 89.392C124.122 88.92 124.466 88.556 124.906 88.3C125.354 88.036 125.87 87.904 126.454 87.904C127.03 87.904 127.526 88.036 127.942 88.3C128.366 88.556 128.69 88.896 128.914 89.32C129.138 89.744 129.25 90.2 129.25 90.688C129.25 90.776 129.246 90.864 129.238 90.952C129.238 91.04 129.238 91.14 129.238 91.252H124.498C124.522 91.708 124.626 92.088 124.81 92.392C125.002 92.688 125.238 92.912 125.518 93.064C125.806 93.216 126.11 93.292 126.43 93.292C126.846 93.292 127.194 93.196 127.474 93.004C127.754 92.812 127.958 92.552 128.086 92.224H129.082C128.922 92.776 128.614 93.236 128.158 93.604C127.71 93.964 127.134 94.144 126.43 94.144ZM126.43 88.756C125.95 88.756 125.522 88.904 125.146 89.2C124.778 89.488 124.566 89.912 124.51 90.472H128.254C128.23 89.936 128.046 89.516 127.702 89.212C127.358 88.908 126.934 88.756 126.43 88.756ZM133.262 94.144C132.694 94.144 132.19 94.016 131.75 93.76C131.31 93.496 130.962 93.132 130.706 92.668C130.458 92.204 130.334 91.656 130.334 91.024C130.334 90.4 130.458 89.856 130.706 89.392C130.954 88.92 131.298 88.556 131.738 88.3C132.186 88.036 132.702 87.904 133.286 87.904C133.862 87.904 134.358 88.036 134.774 88.3C135.198 88.556 135.522 88.896 135.746 89.32C135.97 89.744 136.082 90.2 136.082 90.688C136.082 90.776 136.078 90.864 136.07 90.952C136.07 91.04 136.07 91.14 136.07 91.252H131.33C131.354 91.708 131.458 92.088 131.642 92.392C131.834 92.688 132.07 92.912 132.35 93.064C132.638 93.216 132.942 93.292 133.262 93.292C133.678 93.292 134.026 93.196 134.306 93.004C134.586 92.812 134.79 92.552 134.918 92.224H135.914C135.754 92.776 135.446 93.236 134.99 93.604C134.542 93.964 133.966 94.144 133.262 94.144ZM133.262 88.756C132.782 88.756 132.354 88.904 131.978 89.2C131.61 89.488 131.398 89.912 131.342 90.472H135.086C135.062 89.936 134.878 89.516 134.534 89.212C134.19 88.908 133.766 88.756 133.262 88.756ZM139.698 94.144C138.986 94.144 138.394 93.964 137.922 93.604C137.45 93.244 137.174 92.756 137.094 92.14H138.126C138.19 92.452 138.354 92.724 138.618 92.956C138.89 93.18 139.254 93.292 139.71 93.292C140.134 93.292 140.446 93.204 140.646 93.028C140.846 92.844 140.946 92.628 140.946 92.38C140.946 92.02 140.814 91.78 140.55 91.66C140.294 91.54 139.93 91.432 139.458 91.336C139.138 91.272 138.818 91.18 138.498 91.06C138.178 90.94 137.91 90.772 137.694 90.556C137.478 90.332 137.37 90.04 137.37 89.68C137.37 89.16 137.562 88.736 137.946 88.408C138.338 88.072 138.866 87.904 139.53 87.904C140.162 87.904 140.678 88.064 141.078 88.384C141.486 88.696 141.722 89.144 141.786 89.728H140.79C140.75 89.424 140.618 89.188 140.394 89.02C140.178 88.844 139.886 88.756 139.518 88.756C139.158 88.756 138.878 88.832 138.678 88.984C138.486 89.136 138.39 89.336 138.39 89.584C138.39 89.824 138.514 90.012 138.762 90.148C139.018 90.284 139.362 90.4 139.794 90.496C140.162 90.576 140.51 90.676 140.838 90.796C141.174 90.908 141.446 91.08 141.654 91.312C141.87 91.536 141.978 91.864 141.978 92.296C141.986 92.832 141.782 93.276 141.366 93.628C140.958 93.972 140.402 94.144 139.698 94.144ZM143.766 94.06C143.566 94.06 143.398 93.996 143.262 93.868C143.134 93.732 143.07 93.568 143.07 93.376C143.07 93.184 143.134 93.024 143.262 92.896C143.398 92.76 143.566 92.692 143.766 92.692C143.958 92.692 144.118 92.76 144.246 92.896C144.382 93.024 144.45 93.184 144.45 93.376C144.45 93.568 144.382 93.732 144.246 93.868C144.118 93.996 143.958 94.06 143.766 94.06Z" fill="#5B317A"/>
</svg>
