<svg width="200" height="115" viewBox="0 0 200 115" fill="none" xmlns="http://www.w3.org/2000/svg">
<rect width="200" height="115" rx="13" fill="#E8FFEB"/>
<path d="M30 33H18C16.9391 33 15.9217 32.5552 15.1716 31.7633C14.4214 30.9715 14 29.8976 14 28.7778V16.1111C14 15.5512 14.2107 15.0142 14.5858 14.6183C14.9609 14.2224 15.4696 14 16 14H26C26.5304 14 27.0391 14.2224 27.4142 14.6183C27.7893 15.0142 28 15.5512 28 16.1111V29.8333C28 31.5824 28.343 33 30 33Z" stroke="#448A4B" stroke-width="2" stroke-linecap="round" stroke-linejoin="round"/>
<path d="M32 21.3889C32 20.829 31.7893 20.2921 31.4142 19.8962C31.0391 19.5003 30.5304 19.2778 30 19.2778H28V30.3612C28 31.8178 28.62 33.0001 30 33.0001C31.38 33.0001 32 31.8178 32 30.3612V21.3889Z" stroke="#448A4B" stroke-width="2" stroke-linecap="round" stroke-linejoin="round"/>
<path d="M24 22.4444H18M24 18.2222H18M21 26.6666H18" stroke="#448A4B" stroke-width="2" stroke-linecap="round"/>
<path d="M14.994 53.0001V43.2001H18.424C19.1893 43.2001 19.824 43.3308 20.328 43.5921C20.832 43.8441 21.2053 44.1941 21.448 44.6421C21.7 45.0808 21.826 45.5801 21.826 46.1401C21.826 46.6721 21.7047 47.1621 21.462 47.6101C21.2287 48.0488 20.86 48.3988 20.356 48.6601C19.852 48.9215 19.208 49.0521 18.424 49.0521H16.478V53.0001H14.994ZM16.478 47.8341H18.354C19.054 47.8341 19.5533 47.6848 19.852 47.3861C20.16 47.0781 20.314 46.6628 20.314 46.1401C20.314 45.5988 20.16 45.1788 19.852 44.8801C19.5533 44.5721 19.054 44.4181 18.354 44.4181H16.478V47.8341ZM25.206 53.1681C24.618 53.1681 24.1327 53.0701 23.75 52.8741C23.3673 52.6781 23.0827 52.4215 22.896 52.1041C22.7093 51.7775 22.616 51.4228 22.616 51.0401C22.616 50.3681 22.8773 49.8361 23.4 49.4441C23.9227 49.0521 24.6693 48.8561 25.64 48.8561H27.46V48.7301C27.46 48.1888 27.3107 47.7828 27.012 47.5121C26.7227 47.2415 26.3447 47.1061 25.878 47.1061C25.4673 47.1061 25.108 47.2088 24.8 47.4141C24.5013 47.6101 24.3193 47.9041 24.254 48.2961H22.77C22.8167 47.7921 22.9847 47.3628 23.274 47.0081C23.5727 46.6441 23.946 46.3688 24.394 46.1821C24.8513 45.9861 25.3507 45.8881 25.892 45.8881C26.8627 45.8881 27.614 46.1448 28.146 46.6581C28.678 47.1621 28.944 47.8528 28.944 48.7301V53.0001H27.656L27.53 51.8101C27.334 52.1928 27.0493 52.5148 26.676 52.7761C26.3027 53.0375 25.8127 53.1681 25.206 53.1681ZM25.5 51.9641C25.9013 51.9641 26.2373 51.8708 26.508 51.6841C26.788 51.4881 27.0027 51.2315 27.152 50.9141C27.3107 50.5968 27.4087 50.2468 27.446 49.8641H25.794C25.206 49.8641 24.786 49.9668 24.534 50.1721C24.2913 50.3775 24.17 50.6341 24.17 50.9421C24.17 51.2595 24.2867 51.5115 24.52 51.6981C24.7627 51.8755 25.0893 51.9641 25.5 51.9641ZM31.2676 56.0801L32.9336 52.4261H32.5276L29.7836 46.0561H31.3936L33.5216 51.1941L35.7476 46.0561H37.3156L32.8356 56.0801H31.2676ZM42.119 53.0001V43.2001H45.815C46.8323 43.2001 47.6023 43.4381 48.125 43.9141C48.6477 44.3901 48.909 44.9875 48.909 45.7061C48.909 46.3315 48.741 46.8308 48.405 47.2041C48.069 47.5681 47.663 47.8155 47.187 47.9461C47.5603 48.0208 47.8917 48.1701 48.181 48.3941C48.4797 48.6181 48.713 48.8981 48.881 49.2341C49.049 49.5701 49.133 49.9341 49.133 50.3261C49.133 50.8301 49.007 51.2875 48.755 51.6981C48.5123 52.0995 48.153 52.4168 47.677 52.6501C47.201 52.8835 46.6177 53.0001 45.927 53.0001H42.119ZM43.603 47.4001H45.633C46.2023 47.4001 46.6363 47.2695 46.935 47.0081C47.2337 46.7375 47.383 46.3688 47.383 45.9021C47.383 45.4448 47.2337 45.0808 46.935 44.8101C46.6457 44.5395 46.2023 44.4041 45.605 44.4041H43.603V47.4001ZM43.603 51.7821H45.731C46.3283 51.7821 46.7903 51.6421 47.117 51.3621C47.453 51.0821 47.621 50.6901 47.621 50.1861C47.621 49.6821 47.4483 49.2855 47.103 48.9961C46.7577 48.6975 46.291 48.5481 45.703 48.5481H43.603V51.7821ZM51.5436 44.7401C51.2636 44.7401 51.0303 44.6561 50.8436 44.4881C50.6663 44.3108 50.5776 44.0915 50.5776 43.8301C50.5776 43.5688 50.6663 43.3541 50.8436 43.1861C51.0303 43.0088 51.2636 42.9201 51.5436 42.9201C51.8236 42.9201 52.0523 43.0088 52.2296 43.1861C52.4163 43.3541 52.5096 43.5688 52.5096 43.8301C52.5096 44.0915 52.4163 44.3108 52.2296 44.4881C52.0523 44.6561 51.8236 44.7401 51.5436 44.7401ZM50.8016 53.0001V46.0561H52.2856V53.0001H50.8016ZM54.2446 53.0001V42.9201H55.7286V53.0001H54.2446ZM57.6079 53.0001V42.9201H59.0919V53.0001H57.6079ZM63.7432 53.1681C62.8659 53.1681 62.1425 52.9535 61.5732 52.5241C61.0039 52.0948 60.6772 51.5255 60.5932 50.8161H62.0912C62.1659 51.1335 62.3432 51.4088 62.6232 51.6421C62.9032 51.8661 63.2719 51.9781 63.7292 51.9781C64.1772 51.9781 64.5039 51.8848 64.7092 51.6981C64.9145 51.5115 65.0172 51.2968 65.0172 51.0541C65.0172 50.6995 64.8725 50.4615 64.5832 50.3401C64.3032 50.2095 63.9112 50.0928 63.4072 49.9901C63.0152 49.9061 62.6232 49.7941 62.2312 49.6541C61.8485 49.5141 61.5265 49.3181 61.2652 49.0661C61.0132 48.8048 60.8872 48.4548 60.8872 48.0161C60.8872 47.4095 61.1205 46.9055 61.5872 46.5041C62.0539 46.0935 62.7072 45.8881 63.5472 45.8881C64.3219 45.8881 64.9472 46.0748 65.4232 46.4481C65.9085 46.8215 66.1932 47.3488 66.2772 48.0301H64.8492C64.8025 47.7315 64.6625 47.4981 64.4292 47.3301C64.2052 47.1621 63.9019 47.0781 63.5192 47.0781C63.1459 47.0781 62.8565 47.1575 62.6512 47.3161C62.4459 47.4655 62.3432 47.6615 62.3432 47.9041C62.3432 48.1468 62.4832 48.3381 62.7632 48.4781C63.0525 48.6181 63.4305 48.7441 63.8972 48.8561C64.3639 48.9588 64.7932 49.0801 65.1852 49.2201C65.5865 49.3508 65.9085 49.5468 66.1512 49.8081C66.3939 50.0695 66.5152 50.4521 66.5152 50.9561C66.5245 51.5908 66.2772 52.1181 65.7732 52.5381C65.2785 52.9581 64.6019 53.1681 63.7432 53.1681Z" fill="#448A4B"/>
<path d="M14.888 74.0001V65.6001H16.064L19.088 71.4561L22.088 65.6001H23.276V74.0001H22.268V67.4001L19.46 72.8001H18.704L15.896 67.4121V74.0001H14.888ZM26.9682 74.1441C26.4722 74.1441 26.0602 74.0601 25.7322 73.8921C25.4042 73.7241 25.1602 73.5001 25.0002 73.2201C24.8402 72.9401 24.7602 72.6361 24.7602 72.3081C24.7602 71.7001 24.9922 71.2321 25.4562 70.9041C25.9202 70.5761 26.5522 70.4121 27.3522 70.4121H28.9602V70.3401C28.9602 69.8201 28.8242 69.4281 28.5522 69.1641C28.2802 68.8921 27.9162 68.7561 27.4602 68.7561C27.0682 68.7561 26.7282 68.8561 26.4402 69.0561C26.1602 69.2481 25.9842 69.5321 25.9122 69.9081H24.8802C24.9202 69.4761 25.0642 69.1121 25.3122 68.8161C25.5682 68.5201 25.8842 68.2961 26.2602 68.1441C26.6362 67.9841 27.0362 67.9041 27.4602 67.9041C28.2922 67.9041 28.9162 68.1281 29.3322 68.5761C29.7562 69.0161 29.9682 69.6041 29.9682 70.3401V74.0001H29.0682L29.0082 72.9321C28.8402 73.2681 28.5922 73.5561 28.2642 73.7961C27.9442 74.0281 27.5122 74.1441 26.9682 74.1441ZM27.1242 73.2921C27.5082 73.2921 27.8362 73.1921 28.1082 72.9921C28.3882 72.7921 28.6002 72.5321 28.7442 72.2121C28.8882 71.8921 28.9602 71.5561 28.9602 71.2041V71.1921H27.4362C26.8442 71.1921 26.4242 71.2961 26.1762 71.5041C25.9362 71.7041 25.8162 71.9561 25.8162 72.2601C25.8162 72.5721 25.9282 72.8241 26.1522 73.0161C26.3842 73.2001 26.7082 73.2921 27.1242 73.2921ZM31.4803 74.0001V65.3601H32.4883V70.5561L34.9243 68.0481H36.1603L33.5203 70.7361L36.4963 74.0001H35.2123L32.4883 70.9161V74.0001H31.4803ZM39.7696 74.1441C39.2016 74.1441 38.6976 74.0161 38.2576 73.7601C37.8176 73.4961 37.4696 73.1321 37.2136 72.6681C36.9656 72.2041 36.8416 71.6561 36.8416 71.0241C36.8416 70.4001 36.9656 69.8561 37.2136 69.3921C37.4616 68.9201 37.8056 68.5561 38.2456 68.3001C38.6936 68.0361 39.2096 67.9041 39.7936 67.9041C40.3696 67.9041 40.8656 68.0361 41.2816 68.3001C41.7056 68.5561 42.0296 68.8961 42.2536 69.3201C42.4776 69.7441 42.5896 70.2001 42.5896 70.6881C42.5896 70.7761 42.5856 70.8641 42.5776 70.9521C42.5776 71.0401 42.5776 71.1401 42.5776 71.2521H37.8376C37.8616 71.7081 37.9656 72.0881 38.1496 72.3921C38.3416 72.6881 38.5776 72.9121 38.8576 73.0641C39.1456 73.2161 39.4496 73.2921 39.7696 73.2921C40.1856 73.2921 40.5336 73.1961 40.8136 73.0041C41.0936 72.8121 41.2976 72.5521 41.4256 72.2241H42.4216C42.2616 72.7761 41.9536 73.2361 41.4976 73.6041C41.0496 73.9641 40.4736 74.1441 39.7696 74.1441ZM39.7696 68.7561C39.2896 68.7561 38.8616 68.9041 38.4856 69.2001C38.1176 69.4881 37.9056 69.9121 37.8496 70.4721H41.5936C41.5696 69.9361 41.3856 69.5161 41.0416 69.2121C40.6976 68.9081 40.2736 68.7561 39.7696 68.7561ZM49.7774 74.1441C49.2094 74.1441 48.7054 74.0161 48.2654 73.7601C47.8254 73.4961 47.4774 73.1321 47.2214 72.6681C46.9734 72.2041 46.8494 71.6561 46.8494 71.0241C46.8494 70.4001 46.9734 69.8561 47.2214 69.3921C47.4694 68.9201 47.8134 68.5561 48.2534 68.3001C48.7014 68.0361 49.2174 67.9041 49.8014 67.9041C50.3774 67.9041 50.8734 68.0361 51.2894 68.3001C51.7134 68.5561 52.0374 68.8961 52.2614 69.3201C52.4854 69.7441 52.5974 70.2001 52.5974 70.6881C52.5974 70.7761 52.5934 70.8641 52.5854 70.9521C52.5854 71.0401 52.5854 71.1401 52.5854 71.2521H47.8454C47.8694 71.7081 47.9734 72.0881 48.1574 72.3921C48.3494 72.6881 48.5854 72.9121 48.8654 73.0641C49.1534 73.2161 49.4574 73.2921 49.7774 73.2921C50.1934 73.2921 50.5414 73.1961 50.8214 73.0041C51.1014 72.8121 51.3054 72.5521 51.4334 72.2241H52.4294C52.2694 72.7761 51.9614 73.2361 51.5054 73.6041C51.0574 73.9641 50.4814 74.1441 49.7774 74.1441ZM49.7774 68.7561C49.2974 68.7561 48.8694 68.9041 48.4934 69.2001C48.1254 69.4881 47.9134 69.9121 47.8574 70.4721H51.6014C51.5774 69.9361 51.3934 69.5161 51.0494 69.2121C50.7054 68.9081 50.2814 68.7561 49.7774 68.7561ZM55.9135 74.1441C55.4175 74.1441 55.0055 74.0601 54.6775 73.8921C54.3495 73.7241 54.1055 73.5001 53.9455 73.2201C53.7855 72.9401 53.7055 72.6361 53.7055 72.3081C53.7055 71.7001 53.9375 71.2321 54.4015 70.9041C54.8655 70.5761 55.4975 70.4121 56.2975 70.4121H57.9055V70.3401C57.9055 69.8201 57.7695 69.4281 57.4975 69.1641C57.2255 68.8921 56.8615 68.7561 56.4055 68.7561C56.0135 68.7561 55.6735 68.8561 55.3855 69.0561C55.1055 69.2481 54.9295 69.5321 54.8575 69.9081H53.8255C53.8655 69.4761 54.0095 69.1121 54.2575 68.8161C54.5135 68.5201 54.8295 68.2961 55.2055 68.1441C55.5815 67.9841 55.9815 67.9041 56.4055 67.9041C57.2375 67.9041 57.8615 68.1281 58.2775 68.5761C58.7015 69.0161 58.9135 69.6041 58.9135 70.3401V74.0001H58.0135L57.9535 72.9321C57.7855 73.2681 57.5375 73.5561 57.2095 73.7961C56.8895 74.0281 56.4575 74.1441 55.9135 74.1441ZM56.0695 73.2921C56.4535 73.2921 56.7815 73.1921 57.0535 72.9921C57.3335 72.7921 57.5455 72.5321 57.6895 72.2121C57.8335 71.8921 57.9055 71.5561 57.9055 71.2041V71.1921H56.3815C55.7895 71.1921 55.3695 71.2961 55.1215 71.5041C54.8815 71.7041 54.7615 71.9561 54.7615 72.2601C54.7615 72.5721 54.8735 72.8241 55.0975 73.0161C55.3295 73.2001 55.6535 73.2921 56.0695 73.2921ZM62.7057 74.1441C61.9937 74.1441 61.4017 73.9641 60.9297 73.6041C60.4577 73.2441 60.1817 72.7561 60.1017 72.1401H61.1337C61.1977 72.4521 61.3617 72.7241 61.6257 72.9561C61.8977 73.1801 62.2617 73.2921 62.7177 73.2921C63.1417 73.2921 63.4537 73.2041 63.6537 73.0281C63.8537 72.8441 63.9537 72.6281 63.9537 72.3801C63.9537 72.0201 63.8217 71.7801 63.5577 71.6601C63.3017 71.5401 62.9377 71.4321 62.4657 71.3361C62.1457 71.2721 61.8257 71.1801 61.5057 71.0601C61.1857 70.9401 60.9177 70.7721 60.7017 70.5561C60.4857 70.3321 60.3777 70.0401 60.3777 69.6801C60.3777 69.1601 60.5697 68.7361 60.9537 68.4081C61.3457 68.0721 61.8737 67.9041 62.5377 67.9041C63.1697 67.9041 63.6857 68.0641 64.0857 68.3841C64.4937 68.6961 64.7297 69.1441 64.7937 69.7281H63.7977C63.7577 69.4241 63.6257 69.1881 63.4017 69.0201C63.1857 68.8441 62.8937 68.7561 62.5257 68.7561C62.1657 68.7561 61.8857 68.8321 61.6857 68.9841C61.4937 69.1361 61.3977 69.3361 61.3977 69.5841C61.3977 69.8241 61.5217 70.0121 61.7697 70.1481C62.0257 70.2841 62.3697 70.4001 62.8017 70.4961C63.1697 70.5761 63.5177 70.6761 63.8457 70.7961C64.1817 70.9081 64.4537 71.0801 64.6617 71.3121C64.8777 71.5361 64.9857 71.8641 64.9857 72.2961C64.9937 72.8321 64.7897 73.2761 64.3737 73.6281C63.9657 73.9721 63.4097 74.1441 62.7057 74.1441ZM66.8158 76.6401L68.2918 73.4241H67.9438L65.5798 68.0481H66.6718L68.6398 72.6801L70.7278 68.0481H71.7718L67.8718 76.6401H66.8158ZM77.9916 74.1441C77.4956 74.1441 77.0836 74.0601 76.7556 73.8921C76.4276 73.7241 76.1836 73.5001 76.0236 73.2201C75.8636 72.9401 75.7836 72.6361 75.7836 72.3081C75.7836 71.7001 76.0156 71.2321 76.4796 70.9041C76.9436 70.5761 77.5756 70.4121 78.3756 70.4121H79.9836V70.3401C79.9836 69.8201 79.8476 69.4281 79.5756 69.1641C79.3036 68.8921 78.9396 68.7561 78.4836 68.7561C78.0916 68.7561 77.7516 68.8561 77.4636 69.0561C77.1836 69.2481 77.0076 69.5321 76.9356 69.9081H75.9036C75.9436 69.4761 76.0876 69.1121 76.3356 68.8161C76.5916 68.5201 76.9076 68.2961 77.2836 68.1441C77.6596 67.9841 78.0596 67.9041 78.4836 67.9041C79.3156 67.9041 79.9396 68.1281 80.3556 68.5761C80.7796 69.0161 80.9916 69.6041 80.9916 70.3401V74.0001H80.0916L80.0316 72.9321C79.8636 73.2681 79.6156 73.5561 79.2876 73.7961C78.9676 74.0281 78.5356 74.1441 77.9916 74.1441ZM78.1476 73.2921C78.5316 73.2921 78.8596 73.1921 79.1316 72.9921C79.4116 72.7921 79.6236 72.5321 79.7676 72.2121C79.9116 71.8921 79.9836 71.5561 79.9836 71.2041V71.1921H78.4596C77.8676 71.1921 77.4476 71.2961 77.1996 71.5041C76.9596 71.7041 76.8396 71.9561 76.8396 72.2601C76.8396 72.5721 76.9516 72.8241 77.1756 73.0161C77.4076 73.2001 77.7316 73.2921 78.1476 73.2921ZM82.5038 74.0001V68.0481H83.4158L83.4758 69.1161C83.6678 68.7401 83.9438 68.4441 84.3038 68.2281C84.6638 68.0121 85.0718 67.9041 85.5278 67.9041C86.2318 67.9041 86.7918 68.1201 87.2078 68.5521C87.6318 68.9761 87.8438 69.6321 87.8438 70.5201V74.0001H86.8358V70.6281C86.8358 69.3881 86.3238 68.7681 85.2998 68.7681C84.7878 68.7681 84.3598 68.9561 84.0158 69.3321C83.6798 69.7001 83.5118 70.2281 83.5118 70.9161V74.0001H82.5038ZM92.071 74.1441C91.479 74.1441 90.959 74.0081 90.511 73.7361C90.071 73.4641 89.727 73.0921 89.479 72.6201C89.239 72.1481 89.119 71.6121 89.119 71.0121C89.119 70.4121 89.243 69.8801 89.491 69.4161C89.739 68.9441 90.083 68.5761 90.523 68.3121C90.963 68.0401 91.483 67.9041 92.083 67.9041C92.571 67.9041 93.003 68.0041 93.379 68.2041C93.755 68.4041 94.047 68.6841 94.255 69.0441V65.3601H95.263V74.0001H94.351L94.255 73.0161C94.063 73.3041 93.787 73.5641 93.427 73.7961C93.067 74.0281 92.615 74.1441 92.071 74.1441ZM92.179 73.2681C92.579 73.2681 92.931 73.1761 93.235 72.9921C93.547 72.8001 93.787 72.5361 93.955 72.2001C94.131 71.8641 94.219 71.4721 94.219 71.0241C94.219 70.5761 94.131 70.1841 93.955 69.8481C93.787 69.5121 93.547 69.2521 93.235 69.0681C92.931 68.8761 92.579 68.7801 92.179 68.7801C91.787 68.7801 91.435 68.8761 91.123 69.0681C90.819 69.2521 90.579 69.5121 90.403 69.8481C90.235 70.1841 90.151 70.5761 90.151 71.0241C90.151 71.4721 90.235 71.8641 90.403 72.2001C90.579 72.5361 90.819 72.8001 91.123 72.9921C91.435 73.1761 91.787 73.2681 92.179 73.2681ZM102.362 74.1441C101.65 74.1441 101.058 73.9641 100.586 73.6041C100.114 73.2441 99.8379 72.7561 99.7579 72.1401H100.79C100.854 72.4521 101.018 72.7241 101.282 72.9561C101.554 73.1801 101.918 73.2921 102.374 73.2921C102.798 73.2921 103.11 73.2041 103.31 73.0281C103.51 72.8441 103.61 72.6281 103.61 72.3801C103.61 72.0201 103.478 71.7801 103.214 71.6601C102.958 71.5401 102.594 71.4321 102.122 71.3361C101.802 71.2721 101.482 71.1801 101.162 71.0601C100.842 70.9401 100.574 70.7721 100.358 70.5561C100.142 70.3321 100.034 70.0401 100.034 69.6801C100.034 69.1601 100.226 68.7361 100.61 68.4081C101.002 68.0721 101.53 67.9041 102.194 67.9041C102.826 67.9041 103.342 68.0641 103.742 68.3841C104.15 68.6961 104.386 69.1441 104.45 69.7281H103.454C103.414 69.4241 103.282 69.1881 103.058 69.0201C102.842 68.8441 102.55 68.7561 102.182 68.7561C101.822 68.7561 101.542 68.8321 101.342 68.9841C101.15 69.1361 101.054 69.3361 101.054 69.5841C101.054 69.8241 101.178 70.0121 101.426 70.1481C101.682 70.2841 102.026 70.4001 102.458 70.4961C102.826 70.5761 103.174 70.6761 103.502 70.7961C103.838 70.9081 104.11 71.0801 104.318 71.3121C104.534 71.5361 104.642 71.8641 104.642 72.2961C104.65 72.8321 104.446 73.2761 104.03 73.6281C103.622 73.9721 103.066 74.1441 102.362 74.1441ZM107.059 74.0001L105.319 68.0481H106.327L107.587 72.7161L108.979 68.0481H110.119L111.523 72.7161L112.771 68.0481H113.791L112.051 74.0001H111.019L109.555 69.0921L108.091 74.0001H107.059ZM115.518 66.7281C115.318 66.7281 115.15 66.6641 115.014 66.5361C114.886 66.4001 114.822 66.2321 114.822 66.0321C114.822 65.8401 114.886 65.6801 115.014 65.5521C115.15 65.4241 115.318 65.3601 115.518 65.3601C115.71 65.3601 115.874 65.4241 116.01 65.5521C116.146 65.6801 116.214 65.8401 116.214 66.0321C116.214 66.2321 116.146 66.4001 116.01 66.5361C115.874 66.6641 115.71 66.7281 115.518 66.7281ZM115.014 74.0001V68.0481H116.022V74.0001H115.014ZM118.101 74.0001V68.9001H117.201V68.0481H118.101V67.0161C118.101 66.4401 118.245 66.0201 118.533 65.7561C118.821 65.4921 119.241 65.3601 119.793 65.3601H120.393V66.2241H119.949C119.645 66.2241 119.429 66.2881 119.301 66.4161C119.173 66.5361 119.109 66.7441 119.109 67.0401V68.0481H120.573V68.9001H119.109V74.0001H118.101ZM124.125 74.0001C123.581 74.0001 123.153 73.8681 122.841 73.6041C122.529 73.3401 122.373 72.8641 122.373 72.1761V68.9001H121.341V68.0481H122.373L122.505 66.6201H123.381V68.0481H125.133V68.9001H123.381V72.1761C123.381 72.5521 123.457 72.8081 123.609 72.9441C123.761 73.0721 124.029 73.1361 124.413 73.1361H125.037V74.0001H124.125ZM129.59 76.6401V68.0481H130.502L130.598 69.0321C130.79 68.7441 131.062 68.4841 131.414 68.2521C131.774 68.0201 132.23 67.9041 132.782 67.9041C133.374 67.9041 133.89 68.0401 134.33 68.3121C134.77 68.5841 135.11 68.9561 135.35 69.4281C135.598 69.9001 135.722 70.4361 135.722 71.0361C135.722 71.6361 135.598 72.1721 135.35 72.6441C135.11 73.1081 134.766 73.4761 134.318 73.7481C133.878 74.0121 133.362 74.1441 132.77 74.1441C132.282 74.1441 131.846 74.0441 131.462 73.8441C131.086 73.6441 130.798 73.3641 130.598 73.0041V76.6401H129.59ZM132.662 73.2681C133.062 73.2681 133.414 73.1761 133.718 72.9921C134.022 72.8001 134.262 72.5361 134.438 72.2001C134.614 71.8641 134.702 71.4721 134.702 71.0241C134.702 70.5761 134.614 70.1841 134.438 69.8481C134.262 69.5121 134.022 69.2521 133.718 69.0681C133.414 68.8761 133.062 68.7801 132.662 68.7801C132.262 68.7801 131.91 68.8761 131.606 69.0681C131.302 69.2521 131.062 69.5121 130.886 69.8481C130.71 70.1841 130.622 70.5761 130.622 71.0241C130.622 71.4721 130.71 71.8641 130.886 72.2001C131.062 72.5361 131.302 72.8001 131.606 72.9921C131.91 73.1761 132.262 73.2681 132.662 73.2681ZM139.105 74.1441C138.609 74.1441 138.197 74.0601 137.869 73.8921C137.541 73.7241 137.297 73.5001 137.137 73.2201C136.977 72.9401 136.897 72.6361 136.897 72.3081C136.897 71.7001 137.129 71.2321 137.593 70.9041C138.057 70.5761 138.689 70.4121 139.489 70.4121H141.097V70.3401C141.097 69.8201 140.961 69.4281 140.689 69.1641C140.417 68.8921 140.053 68.7561 139.597 68.7561C139.205 68.7561 138.865 68.8561 138.577 69.0561C138.297 69.2481 138.121 69.5321 138.049 69.9081H137.017C137.057 69.4761 137.201 69.1121 137.449 68.8161C137.705 68.5201 138.021 68.2961 138.397 68.1441C138.773 67.9841 139.173 67.9041 139.597 67.9041C140.429 67.9041 141.053 68.1281 141.469 68.5761C141.893 69.0161 142.105 69.6041 142.105 70.3401V74.0001H141.205L141.145 72.9321C140.977 73.2681 140.729 73.5561 140.401 73.7961C140.081 74.0281 139.649 74.1441 139.105 74.1441ZM139.261 73.2921C139.645 73.2921 139.973 73.1921 140.245 72.9921C140.525 72.7921 140.737 72.5321 140.881 72.2121C141.025 71.8921 141.097 71.5561 141.097 71.2041V71.1921H139.573C138.981 71.1921 138.561 71.2961 138.313 71.5041C138.073 71.7041 137.953 71.9561 137.953 72.2601C137.953 72.5721 138.065 72.8241 138.289 73.0161C138.521 73.2001 138.845 73.2921 139.261 73.2921ZM144.089 76.6401L145.565 73.4241H145.217L142.853 68.0481H143.945L145.913 72.6801L148.001 68.0481H149.045L145.145 76.6401H144.089ZM150.109 74.0001V68.0481H151.021L151.093 68.9121C151.285 68.5921 151.541 68.3441 151.861 68.1681C152.181 67.9921 152.541 67.9041 152.941 67.9041C153.413 67.9041 153.817 68.0001 154.153 68.1921C154.497 68.3841 154.761 68.6761 154.945 69.0681C155.153 68.7081 155.437 68.4241 155.797 68.2161C156.165 68.0081 156.561 67.9041 156.985 67.9041C157.697 67.9041 158.265 68.1201 158.689 68.5521C159.113 68.9761 159.325 69.6321 159.325 70.5201V74.0001H158.329V70.6281C158.329 70.0121 158.205 69.5481 157.957 69.2361C157.709 68.9241 157.353 68.7681 156.889 68.7681C156.409 68.7681 156.009 68.9561 155.689 69.3321C155.377 69.7001 155.221 70.2281 155.221 70.9161V74.0001H154.213V70.6281C154.213 70.0121 154.089 69.5481 153.841 69.2361C153.593 68.9241 153.237 68.7681 152.773 68.7681C152.301 68.7681 151.905 68.9561 151.585 69.3321C151.273 69.7001 151.117 70.2281 151.117 70.9161V74.0001H150.109ZM163.52 74.1441C162.952 74.1441 162.448 74.0161 162.008 73.7601C161.568 73.4961 161.22 73.1321 160.964 72.6681C160.716 72.2041 160.592 71.6561 160.592 71.0241C160.592 70.4001 160.716 69.8561 160.964 69.3921C161.212 68.9201 161.556 68.5561 161.996 68.3001C162.444 68.0361 162.96 67.9041 163.544 67.9041C164.12 67.9041 164.616 68.0361 165.032 68.3001C165.456 68.5561 165.78 68.8961 166.004 69.3201C166.228 69.7441 166.34 70.2001 166.34 70.6881C166.34 70.7761 166.336 70.8641 166.328 70.9521C166.328 71.0401 166.328 71.1401 166.328 71.2521H161.588C161.612 71.7081 161.716 72.0881 161.9 72.3921C162.092 72.6881 162.328 72.9121 162.608 73.0641C162.896 73.2161 163.2 73.2921 163.52 73.2921C163.936 73.2921 164.284 73.1961 164.564 73.0041C164.844 72.8121 165.048 72.5521 165.176 72.2241H166.172C166.012 72.7761 165.704 73.2361 165.248 73.6041C164.8 73.9641 164.224 74.1441 163.52 74.1441ZM163.52 68.7561C163.04 68.7561 162.612 68.9041 162.236 69.2001C161.868 69.4881 161.656 69.9121 161.6 70.4721H165.344C165.32 69.9361 165.136 69.5161 164.792 69.2121C164.448 68.9081 164.024 68.7561 163.52 68.7561ZM167.676 74.0001V68.0481H168.588L168.648 69.1161C168.84 68.7401 169.116 68.4441 169.476 68.2281C169.836 68.0121 170.244 67.9041 170.7 67.9041C171.404 67.9041 171.964 68.1201 172.38 68.5521C172.804 68.9761 173.016 69.6321 173.016 70.5201V74.0001H172.008V70.6281C172.008 69.3881 171.496 68.7681 170.472 68.7681C169.96 68.7681 169.532 68.9561 169.188 69.3321C168.852 69.7001 168.684 70.2281 168.684 70.9161V74.0001H167.676ZM176.895 74.0001C176.351 74.0001 175.923 73.8681 175.611 73.6041C175.299 73.3401 175.143 72.8641 175.143 72.1761V68.9001H174.111V68.0481H175.143L175.275 66.6201H176.151V68.0481H177.903V68.9001H176.151V72.1761C176.151 72.5521 176.227 72.8081 176.379 72.9441C176.531 73.0721 176.799 73.1361 177.183 73.1361H177.807V74.0001H176.895ZM17.54 90.1441C16.98 90.1441 16.476 90.0161 16.028 89.7601C15.58 89.5041 15.224 89.1441 14.96 88.6801C14.704 88.2081 14.576 87.6561 14.576 87.0241C14.576 86.3921 14.708 85.8441 14.972 85.3801C15.236 84.9081 15.592 84.5441 16.04 84.2881C16.496 84.0321 17.004 83.9041 17.564 83.9041C18.124 83.9041 18.628 84.0321 19.076 84.2881C19.524 84.5441 19.876 84.9081 20.132 85.3801C20.396 85.8441 20.528 86.3921 20.528 87.0241C20.528 87.6561 20.396 88.2081 20.132 88.6801C19.868 89.1441 19.508 89.5041 19.052 89.7601C18.604 90.0161 18.1 90.1441 17.54 90.1441ZM17.54 89.2801C17.884 89.2801 18.204 89.1961 18.5 89.0281C18.796 88.8601 19.036 88.6081 19.22 88.2721C19.404 87.9361 19.496 87.5201 19.496 87.0241C19.496 86.5281 19.404 86.1121 19.22 85.7761C19.044 85.4401 18.808 85.1881 18.512 85.0201C18.216 84.8521 17.9 84.7681 17.564 84.7681C17.22 84.7681 16.9 84.8521 16.604 85.0201C16.308 85.1881 16.068 85.4401 15.884 85.7761C15.7 86.1121 15.608 86.5281 15.608 87.0241C15.608 87.5201 15.7 87.9361 15.884 88.2721C16.068 88.6081 16.304 88.8601 16.592 89.0281C16.888 89.1961 17.204 89.2801 17.54 89.2801ZM22.2536 90.0001V84.9001H21.3536V84.0481H22.2536V83.0161C22.2536 82.4401 22.3976 82.0201 22.6856 81.7561C22.9736 81.4921 23.3936 81.3601 23.9456 81.3601H24.5456V82.2241H24.1016C23.7976 82.2241 23.5816 82.2881 23.4536 82.4161C23.3256 82.5361 23.2616 82.7441 23.2616 83.0401V84.0481H24.7256V84.9001H23.2616V90.0001H22.2536ZM32.2814 90.1441C31.7934 90.1441 31.3574 90.0441 30.9734 89.8441C30.5974 89.6441 30.3094 89.3641 30.1094 89.0041L30.0134 90.0001H29.1014V81.3601H30.1094V85.0321C30.3014 84.7441 30.5734 84.4841 30.9254 84.2521C31.2854 84.0201 31.7414 83.9041 32.2934 83.9041C32.8854 83.9041 33.4014 84.0401 33.8414 84.3121C34.2814 84.5841 34.6214 84.9561 34.8614 85.4281C35.1094 85.9001 35.2334 86.4361 35.2334 87.0361C35.2334 87.6361 35.1094 88.1721 34.8614 88.6441C34.6214 89.1081 34.2774 89.4761 33.8294 89.7481C33.3894 90.0121 32.8734 90.1441 32.2814 90.1441ZM32.1734 89.2681C32.5734 89.2681 32.9254 89.1761 33.2294 88.9921C33.5334 88.8001 33.7734 88.5361 33.9494 88.2001C34.1254 87.8641 34.2134 87.4721 34.2134 87.0241C34.2134 86.5761 34.1254 86.1841 33.9494 85.8481C33.7734 85.5121 33.5334 85.2521 33.2294 85.0681C32.9254 84.8761 32.5734 84.7801 32.1734 84.7801C31.7734 84.7801 31.4214 84.8761 31.1174 85.0681C30.8134 85.2521 30.5734 85.5121 30.3974 85.8481C30.2214 86.1841 30.1334 86.5761 30.1334 87.0241C30.1334 87.4721 30.2214 87.8641 30.3974 88.2001C30.5734 88.5361 30.8134 88.8001 31.1174 88.9921C31.4214 89.1761 31.7734 89.2681 32.1734 89.2681ZM37.2486 82.7281C37.0486 82.7281 36.8806 82.6641 36.7446 82.5361C36.6166 82.4001 36.5526 82.2321 36.5526 82.0321C36.5526 81.8401 36.6166 81.6801 36.7446 81.5521C36.8806 81.4241 37.0486 81.3601 37.2486 81.3601C37.4406 81.3601 37.6046 81.4241 37.7406 81.5521C37.8766 81.6801 37.9446 81.8401 37.9446 82.0321C37.9446 82.2321 37.8766 82.4001 37.7406 82.5361C37.6046 82.6641 37.4406 82.7281 37.2486 82.7281ZM36.7446 90.0001V84.0481H37.7526V90.0001H36.7446ZM39.5077 90.0001V81.3601H40.5157V90.0001H39.5077ZM42.1678 90.0001V81.3601H43.1758V90.0001H42.1678ZM47.108 90.1441C46.396 90.1441 45.804 89.9641 45.332 89.6041C44.86 89.2441 44.584 88.7561 44.504 88.1401H45.536C45.6 88.4521 45.764 88.7241 46.028 88.9561C46.3 89.1801 46.664 89.2921 47.12 89.2921C47.544 89.2921 47.856 89.2041 48.056 89.0281C48.256 88.8441 48.356 88.6281 48.356 88.3801C48.356 88.0201 48.224 87.7801 47.96 87.6601C47.704 87.5401 47.34 87.4321 46.868 87.3361C46.548 87.2721 46.228 87.1801 45.908 87.0601C45.588 86.9401 45.32 86.7721 45.104 86.5561C44.888 86.3321 44.78 86.0401 44.78 85.6801C44.78 85.1601 44.972 84.7361 45.356 84.4081C45.748 84.0721 46.276 83.9041 46.94 83.9041C47.572 83.9041 48.088 84.0641 48.488 84.3841C48.896 84.6961 49.132 85.1441 49.196 85.7281H48.2C48.16 85.4241 48.028 85.1881 47.804 85.0201C47.588 84.8441 47.296 84.7561 46.928 84.7561C46.568 84.7561 46.288 84.8321 46.088 84.9841C45.896 85.1361 45.8 85.3361 45.8 85.5841C45.8 85.8241 45.924 86.0121 46.172 86.1481C46.428 86.2841 46.772 86.4001 47.204 86.4961C47.572 86.5761 47.92 86.6761 48.248 86.7961C48.584 86.9081 48.856 87.0801 49.064 87.3121C49.28 87.5361 49.388 87.8641 49.388 88.2961C49.396 88.8321 49.192 89.2761 48.776 89.6281C48.368 89.9721 47.812 90.1441 47.108 90.1441ZM55.9838 90.1441C55.4878 90.1441 55.0758 90.0601 54.7478 89.8921C54.4198 89.7241 54.1758 89.5001 54.0158 89.2201C53.8558 88.9401 53.7758 88.6361 53.7758 88.3081C53.7758 87.7001 54.0078 87.2321 54.4718 86.9041C54.9358 86.5761 55.5678 86.4121 56.3678 86.4121H57.9758V86.3401C57.9758 85.8201 57.8398 85.4281 57.5678 85.1641C57.2958 84.8921 56.9318 84.7561 56.4758 84.7561C56.0838 84.7561 55.7438 84.8561 55.4558 85.0561C55.1758 85.2481 54.9998 85.5321 54.9278 85.9081H53.8958C53.9358 85.4761 54.0798 85.1121 54.3278 84.8161C54.5838 84.5201 54.8998 84.2961 55.2758 84.1441C55.6518 83.9841 56.0518 83.9041 56.4758 83.9041C57.3078 83.9041 57.9318 84.1281 58.3478 84.5761C58.7718 85.0161 58.9838 85.6041 58.9838 86.3401V90.0001H58.0838L58.0238 88.9321C57.8558 89.2681 57.6078 89.5561 57.2798 89.7961C56.9598 90.0281 56.5278 90.1441 55.9838 90.1441ZM56.1398 89.2921C56.5238 89.2921 56.8518 89.1921 57.1238 88.9921C57.4038 88.7921 57.6158 88.5321 57.7598 88.2121C57.9038 87.8921 57.9758 87.5561 57.9758 87.2041V87.1921H56.4518C55.8598 87.1921 55.4398 87.2961 55.1918 87.5041C54.9518 87.7041 54.8318 87.9561 54.8318 88.2601C54.8318 88.5721 54.9438 88.8241 55.1678 89.0161C55.3998 89.2001 55.7238 89.2921 56.1398 89.2921ZM60.496 90.0001V84.0481H61.408L61.468 85.1161C61.66 84.7401 61.936 84.4441 62.296 84.2281C62.656 84.0121 63.064 83.9041 63.52 83.9041C64.224 83.9041 64.784 84.1201 65.2 84.5521C65.624 84.9761 65.836 85.6321 65.836 86.5201V90.0001H64.828V86.6281C64.828 85.3881 64.316 84.7681 63.292 84.7681C62.78 84.7681 62.352 84.9561 62.008 85.3321C61.672 85.7001 61.504 86.2281 61.504 86.9161V90.0001H60.496ZM70.0632 90.1441C69.4712 90.1441 68.9512 90.0081 68.5032 89.7361C68.0632 89.4641 67.7192 89.0921 67.4712 88.6201C67.2312 88.1481 67.1112 87.6121 67.1112 87.0121C67.1112 86.4121 67.2352 85.8801 67.4832 85.4161C67.7312 84.9441 68.0752 84.5761 68.5152 84.3121C68.9552 84.0401 69.4752 83.9041 70.0752 83.9041C70.5632 83.9041 70.9952 84.0041 71.3712 84.2041C71.7472 84.4041 72.0392 84.6841 72.2472 85.0441V81.3601H73.2552V90.0001H72.3432L72.2472 89.0161C72.0552 89.3041 71.7792 89.5641 71.4192 89.7961C71.0592 90.0281 70.6072 90.1441 70.0632 90.1441ZM70.1712 89.2681C70.5712 89.2681 70.9232 89.1761 71.2272 88.9921C71.5392 88.8001 71.7792 88.5361 71.9472 88.2001C72.1232 87.8641 72.2112 87.4721 72.2112 87.0241C72.2112 86.5761 72.1232 86.1841 71.9472 85.8481C71.7792 85.5121 71.5392 85.2521 71.2272 85.0681C70.9232 84.8761 70.5712 84.7801 70.1712 84.7801C69.7792 84.7801 69.4272 84.8761 69.1152 85.0681C68.8112 85.2521 68.5712 85.5121 68.3952 85.8481C68.2272 86.1841 68.1432 86.5761 68.1432 87.0241C68.1432 87.4721 68.2272 87.8641 68.3952 88.2001C68.5712 88.5361 68.8112 88.8001 69.1152 88.9921C69.4272 89.1761 69.7792 89.2681 70.1712 89.2681ZM79.2741 90.0001L77.5341 84.0481H78.5421L79.8021 88.7161L81.1941 84.0481H82.3341L83.7381 88.7161L84.9861 84.0481H86.0061L84.2661 90.0001H83.2341L81.7701 85.0921L80.3061 90.0001H79.2741ZM87.733 82.7281C87.533 82.7281 87.365 82.6641 87.229 82.5361C87.101 82.4001 87.037 82.2321 87.037 82.0321C87.037 81.8401 87.101 81.6801 87.229 81.5521C87.365 81.4241 87.533 81.3601 87.733 81.3601C87.925 81.3601 88.089 81.4241 88.225 81.5521C88.361 81.6801 88.429 81.8401 88.429 82.0321C88.429 82.2321 88.361 82.4001 88.225 82.5361C88.089 82.6641 87.925 82.7281 87.733 82.7281ZM87.229 90.0001V84.0481H88.237V90.0001H87.229ZM89.9921 90.0001V84.0481H90.9041L90.9641 85.1161C91.1561 84.7401 91.4321 84.4441 91.7921 84.2281C92.1521 84.0121 92.5601 83.9041 93.0161 83.9041C93.7201 83.9041 94.2801 84.1201 94.6961 84.5521C95.1201 84.9761 95.3321 85.6321 95.3321 86.5201V90.0001H94.3241V86.6281C94.3241 85.3881 93.8121 84.7681 92.7881 84.7681C92.2761 84.7681 91.8481 84.9561 91.5041 85.3321C91.1681 85.7001 91.0001 86.2281 91.0001 86.9161V90.0001H89.9921ZM100.359 90.0001V84.9001H99.459V84.0481H100.359V83.0161C100.359 82.4401 100.503 82.0201 100.791 81.7561C101.079 81.4921 101.499 81.3601 102.051 81.3601H102.651V82.2241H102.207C101.903 82.2241 101.687 82.2881 101.559 82.4161C101.431 82.5361 101.367 82.7441 101.367 83.0401V84.0481H102.831V84.9001H101.367V90.0001H100.359ZM105.777 90.1441C105.281 90.1441 104.869 90.0601 104.541 89.8921C104.213 89.7241 103.969 89.5001 103.809 89.2201C103.649 88.9401 103.569 88.6361 103.569 88.3081C103.569 87.7001 103.801 87.2321 104.265 86.9041C104.729 86.5761 105.361 86.4121 106.161 86.4121H107.769V86.3401C107.769 85.8201 107.633 85.4281 107.361 85.1641C107.089 84.8921 106.725 84.7561 106.269 84.7561C105.877 84.7561 105.537 84.8561 105.249 85.0561C104.969 85.2481 104.793 85.5321 104.721 85.9081H103.689C103.729 85.4761 103.873 85.1121 104.121 84.8161C104.377 84.5201 104.693 84.2961 105.069 84.1441C105.445 83.9841 105.845 83.9041 106.269 83.9041C107.101 83.9041 107.725 84.1281 108.141 84.5761C108.565 85.0161 108.777 85.6041 108.777 86.3401V90.0001H107.877L107.817 88.9321C107.649 89.2681 107.401 89.5561 107.073 89.7961C106.753 90.0281 106.321 90.1441 105.777 90.1441ZM105.933 89.2921C106.317 89.2921 106.645 89.1921 106.917 88.9921C107.197 88.7921 107.409 88.5321 107.553 88.2121C107.697 87.8921 107.769 87.5561 107.769 87.2041V87.1921H106.245C105.653 87.1921 105.233 87.2961 104.985 87.5041C104.745 87.7041 104.625 87.9561 104.625 88.2601C104.625 88.5721 104.737 88.8241 104.961 89.0161C105.193 89.2001 105.517 89.2921 105.933 89.2921ZM110.289 90.0001V84.0481H111.201L111.261 85.1161C111.453 84.7401 111.729 84.4441 112.089 84.2281C112.449 84.0121 112.857 83.9041 113.313 83.9041C114.017 83.9041 114.577 84.1201 114.993 84.5521C115.417 84.9761 115.629 85.6321 115.629 86.5201V90.0001H114.621V86.6281C114.621 85.3881 114.109 84.7681 113.085 84.7681C112.573 84.7681 112.145 84.9561 111.801 85.3321C111.465 85.7001 111.297 86.2281 111.297 86.9161V90.0001H110.289ZM119.508 90.0001C118.964 90.0001 118.536 89.8681 118.224 89.6041C117.912 89.3401 117.756 88.8641 117.756 88.1761V84.9001H116.724V84.0481H117.756L117.888 82.6201H118.764V84.0481H120.516V84.9001H118.764V88.1761C118.764 88.5521 118.84 88.8081 118.992 88.9441C119.144 89.0721 119.412 89.1361 119.796 89.1361H120.42V90.0001H119.508ZM123.777 90.1441C123.281 90.1441 122.869 90.0601 122.541 89.8921C122.213 89.7241 121.969 89.5001 121.809 89.2201C121.649 88.9401 121.569 88.6361 121.569 88.3081C121.569 87.7001 121.801 87.2321 122.265 86.9041C122.729 86.5761 123.361 86.4121 124.161 86.4121H125.769V86.3401C125.769 85.8201 125.633 85.4281 125.361 85.1641C125.089 84.8921 124.725 84.7561 124.269 84.7561C123.877 84.7561 123.537 84.8561 123.249 85.0561C122.969 85.2481 122.793 85.5321 122.721 85.9081H121.689C121.729 85.4761 121.873 85.1121 122.121 84.8161C122.377 84.5201 122.693 84.2961 123.069 84.1441C123.445 83.9841 123.845 83.9041 124.269 83.9041C125.101 83.9041 125.725 84.1281 126.141 84.5761C126.565 85.0161 126.777 85.6041 126.777 86.3401V90.0001H125.877L125.817 88.9321C125.649 89.2681 125.401 89.5561 125.073 89.7961C124.753 90.0281 124.321 90.1441 123.777 90.1441ZM123.933 89.2921C124.317 89.2921 124.645 89.1921 124.917 88.9921C125.197 88.7921 125.409 88.5321 125.553 88.2121C125.697 87.8921 125.769 87.5561 125.769 87.2041V87.1921H124.245C123.653 87.1921 123.233 87.2961 122.985 87.5041C122.745 87.7041 122.625 87.9561 122.625 88.2601C122.625 88.5721 122.737 88.8241 122.961 89.0161C123.193 89.2001 123.517 89.2921 123.933 89.2921ZM130.569 90.1441C129.857 90.1441 129.265 89.9641 128.793 89.6041C128.321 89.2441 128.045 88.7561 127.965 88.1401H128.997C129.061 88.4521 129.225 88.7241 129.489 88.9561C129.761 89.1801 130.125 89.2921 130.581 89.2921C131.005 89.2921 131.317 89.2041 131.517 89.0281C131.717 88.8441 131.817 88.6281 131.817 88.3801C131.817 88.0201 131.685 87.7801 131.421 87.6601C131.165 87.5401 130.801 87.4321 130.329 87.3361C130.009 87.2721 129.689 87.1801 129.369 87.0601C129.049 86.9401 128.781 86.7721 128.565 86.5561C128.349 86.3321 128.241 86.0401 128.241 85.6801C128.241 85.1601 128.433 84.7361 128.817 84.4081C129.209 84.0721 129.737 83.9041 130.401 83.9041C131.033 83.9041 131.549 84.0641 131.949 84.3841C132.357 84.6961 132.593 85.1441 132.657 85.7281H131.661C131.621 85.4241 131.489 85.1881 131.265 85.0201C131.049 84.8441 130.757 84.7561 130.389 84.7561C130.029 84.7561 129.749 84.8321 129.549 84.9841C129.357 85.1361 129.261 85.3361 129.261 85.5841C129.261 85.8241 129.385 86.0121 129.633 86.1481C129.889 86.2841 130.233 86.4001 130.665 86.4961C131.033 86.5761 131.381 86.6761 131.709 86.7961C132.045 86.9081 132.317 87.0801 132.525 87.3121C132.741 87.5361 132.849 87.8641 132.849 88.2961C132.857 88.8321 132.653 89.2761 132.237 89.6281C131.829 89.9721 131.273 90.1441 130.569 90.1441ZM136.371 90.0001C135.827 90.0001 135.399 89.8681 135.087 89.6041C134.775 89.3401 134.619 88.8641 134.619 88.1761V84.9001H133.587V84.0481H134.619L134.751 82.6201H135.627V84.0481H137.379V84.9001H135.627V88.1761C135.627 88.5521 135.703 88.8081 135.855 88.9441C136.007 89.0721 136.275 89.1361 136.659 89.1361H137.283V90.0001H136.371ZM139.272 82.7281C139.072 82.7281 138.904 82.6641 138.768 82.5361C138.64 82.4001 138.576 82.2321 138.576 82.0321C138.576 81.8401 138.64 81.6801 138.768 81.5521C138.904 81.4241 139.072 81.3601 139.272 81.3601C139.464 81.3601 139.628 81.4241 139.764 81.5521C139.9 81.6801 139.968 81.8401 139.968 82.0321C139.968 82.2321 139.9 82.4001 139.764 82.5361C139.628 82.6641 139.464 82.7281 139.272 82.7281ZM138.768 90.0001V84.0481H139.776V90.0001H138.768ZM144.267 90.1441C143.699 90.1441 143.187 90.0161 142.731 89.7601C142.283 89.4961 141.927 89.1321 141.663 88.6681C141.407 88.1961 141.279 87.6481 141.279 87.0241C141.279 86.4001 141.407 85.8561 141.663 85.3921C141.927 84.9201 142.283 84.5561 142.731 84.3001C143.187 84.0361 143.699 83.9041 144.267 83.9041C144.971 83.9041 145.563 84.0881 146.043 84.4561C146.531 84.8241 146.839 85.3161 146.967 85.9321H145.935C145.855 85.5641 145.659 85.2801 145.347 85.0801C145.035 84.8721 144.671 84.7681 144.255 84.7681C143.919 84.7681 143.603 84.8521 143.307 85.0201C143.011 85.1881 142.771 85.4401 142.587 85.7761C142.403 86.1121 142.311 86.5281 142.311 87.0241C142.311 87.5201 142.403 87.9361 142.587 88.2721C142.771 88.6081 143.011 88.8641 143.307 89.0401C143.603 89.2081 143.919 89.2921 144.255 89.2921C144.671 89.2921 145.035 89.1921 145.347 88.9921C145.659 88.7841 145.855 88.4921 145.935 88.1161H146.967C146.847 88.7161 146.543 89.2041 146.055 89.5801C145.567 89.9561 144.971 90.1441 144.267 90.1441ZM153.903 88.1281C153.567 88.1281 153.259 88.0841 152.979 87.9961L152.379 88.5601C152.467 88.6241 152.575 88.6801 152.703 88.7281C152.839 88.7681 153.031 88.8081 153.279 88.8481C153.527 88.8801 153.875 88.9161 154.323 88.9561C155.123 89.0121 155.695 89.1961 156.039 89.5081C156.383 89.8201 156.555 90.2281 156.555 90.7321C156.555 91.0761 156.459 91.4041 156.267 91.7161C156.083 92.0281 155.795 92.2841 155.403 92.4841C155.019 92.6841 154.523 92.7841 153.915 92.7841C153.379 92.7841 152.903 92.7121 152.487 92.5681C152.071 92.4321 151.747 92.2201 151.515 91.9321C151.283 91.6521 151.167 91.2961 151.167 90.8641C151.167 90.6401 151.227 90.3961 151.347 90.1321C151.467 89.8761 151.691 89.6321 152.019 89.4001C151.843 89.3281 151.691 89.2521 151.563 89.1721C151.443 89.0841 151.331 88.9881 151.227 88.8841V88.6081L152.247 87.6001C151.775 87.2001 151.539 86.6721 151.539 86.0161C151.539 85.6241 151.631 85.2681 151.815 84.9481C151.999 84.6281 152.267 84.3761 152.619 84.1921C152.971 84.0001 153.399 83.9041 153.903 83.9041C154.247 83.9041 154.559 83.9521 154.839 84.0481H157.035V84.8041L155.919 84.8521C156.151 85.1881 156.267 85.5761 156.267 86.0161C156.267 86.4081 156.171 86.7641 155.979 87.0841C155.795 87.4041 155.527 87.6601 155.175 87.8521C154.831 88.0361 154.407 88.1281 153.903 88.1281ZM153.903 87.3001C154.327 87.3001 154.663 87.1921 154.911 86.9761C155.167 86.7521 155.295 86.4321 155.295 86.0161C155.295 85.6081 155.167 85.2961 154.911 85.0801C154.663 84.8561 154.327 84.7441 153.903 84.7441C153.471 84.7441 153.127 84.8561 152.871 85.0801C152.623 85.2961 152.499 85.6081 152.499 86.0161C152.499 86.4321 152.623 86.7521 152.871 86.9761C153.127 87.1921 153.471 87.3001 153.903 87.3001ZM152.151 90.7681C152.151 91.1681 152.319 91.4641 152.655 91.6561C152.991 91.8561 153.411 91.9561 153.915 91.9561C154.411 91.9561 154.807 91.8481 155.103 91.6321C155.407 91.4161 155.559 91.1281 155.559 90.7681C155.559 90.5121 155.455 90.2881 155.247 90.0961C155.039 89.9121 154.655 89.8041 154.095 89.7721C153.655 89.7401 153.275 89.7001 152.955 89.6521C152.627 89.8281 152.411 90.0161 152.307 90.2161C152.203 90.4241 152.151 90.6081 152.151 90.7681ZM158.784 82.7281C158.584 82.7281 158.416 82.6641 158.28 82.5361C158.152 82.4001 158.088 82.2321 158.088 82.0321C158.088 81.8401 158.152 81.6801 158.28 81.5521C158.416 81.4241 158.584 81.3601 158.784 81.3601C158.976 81.3601 159.14 81.4241 159.276 81.5521C159.412 81.6801 159.48 81.8401 159.48 82.0321C159.48 82.2321 159.412 82.4001 159.276 82.5361C159.14 82.6641 158.976 82.7281 158.784 82.7281ZM158.28 90.0001V84.0481H159.288V90.0001H158.28ZM161.367 90.0001V84.9001H160.467V84.0481H161.367V83.0161C161.367 82.4401 161.511 82.0201 161.799 81.7561C162.087 81.4921 162.507 81.3601 163.059 81.3601H163.659V82.2241H163.215C162.911 82.2241 162.695 82.2881 162.567 82.4161C162.439 82.5361 162.375 82.7441 162.375 83.0401V84.0481H163.839V84.9001H162.375V90.0001H161.367ZM167.391 90.0001C166.847 90.0001 166.419 89.8681 166.107 89.6041C165.795 89.3401 165.639 88.8641 165.639 88.1761V84.9001H164.607V84.0481H165.639L165.771 82.6201H166.647V84.0481H168.399V84.9001H166.647V88.1761C166.647 88.5521 166.723 88.8081 166.875 88.9441C167.027 89.0721 167.295 89.1361 167.679 89.1361H168.303V90.0001H167.391ZM171.96 90.1441C171.248 90.1441 170.656 89.9641 170.184 89.6041C169.712 89.2441 169.436 88.7561 169.356 88.1401H170.388C170.452 88.4521 170.616 88.7241 170.88 88.9561C171.152 89.1801 171.516 89.2921 171.972 89.2921C172.396 89.2921 172.708 89.2041 172.908 89.0281C173.108 88.8441 173.208 88.6281 173.208 88.3801C173.208 88.0201 173.076 87.7801 172.812 87.6601C172.556 87.5401 172.192 87.4321 171.72 87.3361C171.4 87.2721 171.08 87.1801 170.76 87.0601C170.44 86.9401 170.172 86.7721 169.956 86.5561C169.74 86.3321 169.632 86.0401 169.632 85.6801C169.632 85.1601 169.824 84.7361 170.208 84.4081C170.6 84.0721 171.128 83.9041 171.792 83.9041C172.424 83.9041 172.94 84.0641 173.34 84.3841C173.748 84.6961 173.984 85.1441 174.048 85.7281H173.052C173.012 85.4241 172.88 85.1881 172.656 85.0201C172.44 84.8441 172.148 84.7561 171.78 84.7561C171.42 84.7561 171.14 84.8321 170.94 84.9841C170.748 85.1361 170.652 85.3361 170.652 85.5841C170.652 85.8241 170.776 86.0121 171.024 86.1481C171.28 86.2841 171.624 86.4001 172.056 86.4961C172.424 86.5761 172.772 86.6761 173.1 86.7961C173.436 86.9081 173.708 87.0801 173.916 87.3121C174.132 87.5361 174.24 87.8641 174.24 88.2961C174.248 88.8321 174.044 89.2761 173.628 89.6281C173.22 89.9721 172.664 90.1441 171.96 90.1441ZM176.028 90.0601C175.828 90.0601 175.66 89.9961 175.524 89.8681C175.396 89.7321 175.332 89.5681 175.332 89.3761C175.332 89.1841 175.396 89.0241 175.524 88.8961C175.66 88.7601 175.828 88.6921 176.028 88.6921C176.22 88.6921 176.38 88.7601 176.508 88.8961C176.644 89.0241 176.712 89.1841 176.712 89.3761C176.712 89.5681 176.644 89.7321 176.508 89.8681C176.38 89.9961 176.22 90.0601 176.028 90.0601Z" fill="#448A4B"/>
</svg>
