<svg width="200" height="115" viewBox="0 0 200 115" fill="none" xmlns="http://www.w3.org/2000/svg">
<rect width="200" height="115" rx="13" fill="#EDEBFF"/>
<path d="M35 26C35 24.7574 33.9926 23.75 32.75 23.75H29C29 25.4069 27.6569 26.75 26 26.75C24.3431 26.75 23 25.4069 23 23.75H19.25C18.0074 23.75 17 24.7574 17 26M35 26V32C35 33.2426 33.9926 34.25 32.75 34.25H19.25C18.0074 34.25 17 33.2426 17 32V26M35 26V23M17 26V23M35 23C35 21.7574 33.9926 20.75 32.75 20.75H19.25C18.0074 20.75 17 21.7574 17 23M35 23V20C35 18.7574 33.9926 17.75 32.75 17.75H19.25C18.0074 17.75 17 18.7574 17 20V23" stroke="#7266FF" stroke-width="1.5" stroke-linecap="round" stroke-linejoin="round"/>
<path d="M14.994 58V48.2H16.744L20.062 54.724L23.366 48.2H25.116V58H23.632V50.762L20.636 56.6H19.488L16.478 50.776V58H14.994ZM29.6133 58.168C28.7733 58.168 28.1106 57.9067 27.6253 57.384C27.1493 56.8613 26.9113 56.082 26.9113 55.046V51.056H28.3953V54.892C28.3953 56.236 28.9459 56.908 30.0473 56.908C30.5979 56.908 31.0506 56.712 31.4053 56.32C31.7599 55.928 31.9373 55.368 31.9373 54.64V51.056H33.4213V58H32.1053L31.9933 56.782C31.7786 57.2113 31.4613 57.552 31.0413 57.804C30.6306 58.0467 30.1546 58.168 29.6133 58.168ZM35.3091 58V47.92H36.7931V58H35.3091ZM41.5844 58C40.903 58 40.3617 57.8367 39.9604 57.51C39.559 57.174 39.3584 56.5813 39.3584 55.732V52.302H38.1684V51.056H39.3584L39.5404 49.292H40.8424V51.056H42.8024V52.302H40.8424V55.732C40.8424 56.1147 40.9217 56.3807 41.0804 56.53C41.2484 56.67 41.533 56.74 41.9344 56.74H42.7324V58H41.5844ZM45.1725 49.74C44.8925 49.74 44.6592 49.656 44.4725 49.488C44.2952 49.3107 44.2065 49.0913 44.2065 48.83C44.2065 48.5687 44.2952 48.354 44.4725 48.186C44.6592 48.0087 44.8925 47.92 45.1725 47.92C45.4525 47.92 45.6812 48.0087 45.8585 48.186C46.0452 48.354 46.1385 48.5687 46.1385 48.83C46.1385 49.0913 46.0452 49.3107 45.8585 49.488C45.6812 49.656 45.4525 49.74 45.1725 49.74ZM44.4305 58V51.056H45.9145V58H44.4305ZM47.8735 61.08V51.056H49.2035L49.3575 52.134C49.5815 51.8073 49.8895 51.518 50.2815 51.266C50.6735 51.014 51.1775 50.888 51.7935 50.888C52.4655 50.888 53.0582 51.0467 53.5715 51.364C54.0849 51.6813 54.4862 52.1153 54.7755 52.666C55.0742 53.2167 55.2235 53.842 55.2235 54.542C55.2235 55.242 55.0742 55.8673 54.7755 56.418C54.4862 56.9593 54.0849 57.3887 53.5715 57.706C53.0582 58.014 52.4609 58.168 51.7795 58.168C51.2382 58.168 50.7575 58.0607 50.3375 57.846C49.9269 57.6313 49.6002 57.328 49.3575 56.936V61.08H47.8735ZM51.5275 56.88C52.1622 56.88 52.6849 56.6653 53.0955 56.236C53.5062 55.7973 53.7115 55.228 53.7115 54.528C53.7115 54.0707 53.6182 53.6647 53.4315 53.31C53.2449 52.9553 52.9882 52.68 52.6615 52.484C52.3349 52.2787 51.9569 52.176 51.5275 52.176C50.8929 52.176 50.3702 52.3953 49.9595 52.834C49.5582 53.2727 49.3575 53.8373 49.3575 54.528C49.3575 55.228 49.5582 55.7973 49.9595 56.236C50.3702 56.6653 50.8929 56.88 51.5275 56.88ZM56.8286 58V47.92H58.3126V58H56.8286ZM63.4399 58.168C62.7586 58.168 62.1519 58.0187 61.6199 57.72C61.0972 57.412 60.6866 56.9873 60.3879 56.446C60.0892 55.9047 59.9399 55.2747 59.9399 54.556C59.9399 53.828 60.0846 53.1887 60.3739 52.638C60.6726 52.0873 61.0832 51.658 61.6059 51.35C62.1379 51.042 62.7539 50.888 63.4539 50.888C64.1352 50.888 64.7279 51.042 65.2319 51.35C65.7359 51.6487 66.1279 52.05 66.4079 52.554C66.6879 53.058 66.8279 53.6133 66.8279 54.22C66.8279 54.3133 66.8232 54.416 66.8139 54.528C66.8139 54.6307 66.8092 54.7473 66.7999 54.878H61.3959C61.4426 55.55 61.6619 56.0633 62.0539 56.418C62.4552 56.7633 62.9172 56.936 63.4399 56.936C63.8599 56.936 64.2099 56.8427 64.4899 56.656C64.7792 56.46 64.9939 56.1987 65.1339 55.872H66.6179C66.4312 56.5253 66.0579 57.0713 65.4979 57.51C64.9472 57.9487 64.2612 58.168 63.4399 58.168ZM63.4399 52.106C62.9452 52.106 62.5066 52.2553 62.1239 52.554C61.7412 52.8433 61.5079 53.282 61.4239 53.87H65.3439C65.3159 53.3287 65.1246 52.8993 64.7699 52.582C64.4152 52.2647 63.9719 52.106 63.4399 52.106ZM73.953 58.014L71.307 48.2H72.903L74.849 56.32L77.089 48.2H78.727L80.897 56.32L82.843 48.2H84.439L81.751 58H80.015L77.873 50.314L75.661 58L73.953 58.014ZM87.3584 58.168C86.7704 58.168 86.285 58.07 85.9024 57.874C85.5197 57.678 85.235 57.4213 85.0484 57.104C84.8617 56.7773 84.7684 56.4227 84.7684 56.04C84.7684 55.368 85.0297 54.836 85.5524 54.444C86.075 54.052 86.8217 53.856 87.7924 53.856H89.6124V53.73C89.6124 53.1887 89.463 52.7827 89.1644 52.512C88.875 52.2413 88.497 52.106 88.0304 52.106C87.6197 52.106 87.2604 52.2087 86.9524 52.414C86.6537 52.61 86.4717 52.904 86.4064 53.296H84.9224C84.969 52.792 85.137 52.3627 85.4264 52.008C85.725 51.644 86.0984 51.3687 86.5464 51.182C87.0037 50.986 87.503 50.888 88.0444 50.888C89.015 50.888 89.7664 51.1447 90.2984 51.658C90.8304 52.162 91.0964 52.8527 91.0964 53.73V58H89.8084L89.6824 56.81C89.4864 57.1927 89.2017 57.5147 88.8284 57.776C88.455 58.0373 87.965 58.168 87.3584 58.168ZM87.6524 56.964C88.0537 56.964 88.3897 56.8707 88.6604 56.684C88.9404 56.488 89.155 56.2313 89.3044 55.914C89.463 55.5967 89.561 55.2467 89.5984 54.864H87.9464C87.3584 54.864 86.9384 54.9667 86.6864 55.172C86.4437 55.3773 86.3224 55.634 86.3224 55.942C86.3224 56.2593 86.439 56.5113 86.6724 56.698C86.915 56.8753 87.2417 56.964 87.6524 56.964ZM92.8267 58V47.92H94.3107V58H92.8267ZM96.19 58V47.92H97.674V58H96.19ZM102.801 58.168C102.12 58.168 101.513 58.0187 100.981 57.72C100.459 57.412 100.048 56.9873 99.7492 56.446C99.4506 55.9047 99.3012 55.2747 99.3012 54.556C99.3012 53.828 99.4459 53.1887 99.7352 52.638C100.034 52.0873 100.445 51.658 100.967 51.35C101.499 51.042 102.115 50.888 102.815 50.888C103.497 50.888 104.089 51.042 104.593 51.35C105.097 51.6487 105.489 52.05 105.769 52.554C106.049 53.058 106.189 53.6133 106.189 54.22C106.189 54.3133 106.185 54.416 106.175 54.528C106.175 54.6307 106.171 54.7473 106.161 54.878H100.757C100.804 55.55 101.023 56.0633 101.415 56.418C101.817 56.7633 102.279 56.936 102.801 56.936C103.221 56.936 103.571 56.8427 103.851 56.656C104.141 56.46 104.355 56.1987 104.495 55.872H105.979C105.793 56.5253 105.419 57.0713 104.859 57.51C104.309 57.9487 103.623 58.168 102.801 58.168ZM102.801 52.106C102.307 52.106 101.868 52.2553 101.485 52.554C101.103 52.8433 100.869 53.282 100.785 53.87H104.705C104.677 53.3287 104.486 52.8993 104.131 52.582C103.777 52.2647 103.333 52.106 102.801 52.106ZM110.463 58C109.782 58 109.241 57.8367 108.839 57.51C108.438 57.174 108.237 56.5813 108.237 55.732V52.302H107.047V51.056H108.237L108.419 49.292H109.721V51.056H111.681V52.302H109.721V55.732C109.721 56.1147 109.801 56.3807 109.959 56.53C110.127 56.67 110.412 56.74 110.813 56.74H111.611V58H110.463ZM115.983 58.168C115.106 58.168 114.383 57.9533 113.813 57.524C113.244 57.0947 112.917 56.5253 112.833 55.816H114.331C114.406 56.1333 114.583 56.4087 114.863 56.642C115.143 56.866 115.512 56.978 115.969 56.978C116.417 56.978 116.744 56.8847 116.949 56.698C117.155 56.5113 117.257 56.2967 117.257 56.054C117.257 55.6993 117.113 55.4613 116.823 55.34C116.543 55.2093 116.151 55.0927 115.647 54.99C115.255 54.906 114.863 54.794 114.471 54.654C114.089 54.514 113.767 54.318 113.505 54.066C113.253 53.8047 113.127 53.4547 113.127 53.016C113.127 52.4093 113.361 51.9053 113.827 51.504C114.294 51.0933 114.947 50.888 115.787 50.888C116.562 50.888 117.187 51.0747 117.663 51.448C118.149 51.8213 118.433 52.3487 118.517 53.03H117.089C117.043 52.7313 116.903 52.498 116.669 52.33C116.445 52.162 116.142 52.078 115.759 52.078C115.386 52.078 115.097 52.1573 114.891 52.316C114.686 52.4653 114.583 52.6613 114.583 52.904C114.583 53.1467 114.723 53.338 115.003 53.478C115.293 53.618 115.671 53.744 116.137 53.856C116.604 53.9587 117.033 54.08 117.425 54.22C117.827 54.3507 118.149 54.5467 118.391 54.808C118.634 55.0693 118.755 55.452 118.755 55.956C118.765 56.5907 118.517 57.118 118.013 57.538C117.519 57.958 116.842 58.168 115.983 58.168Z" fill="#7266FF"/>
<path d="M14.888 79V70.6H15.896V74.308H20.252V70.6H21.26V79H20.252V75.136H15.896V79H14.888ZM25.6845 79.144C25.1245 79.144 24.6205 79.016 24.1725 78.76C23.7245 78.504 23.3685 78.144 23.1045 77.68C22.8485 77.208 22.7205 76.656 22.7205 76.024C22.7205 75.392 22.8525 74.844 23.1165 74.38C23.3805 73.908 23.7365 73.544 24.1845 73.288C24.6405 73.032 25.1485 72.904 25.7085 72.904C26.2685 72.904 26.7725 73.032 27.2205 73.288C27.6685 73.544 28.0205 73.908 28.2765 74.38C28.5405 74.844 28.6725 75.392 28.6725 76.024C28.6725 76.656 28.5405 77.208 28.2765 77.68C28.0125 78.144 27.6525 78.504 27.1965 78.76C26.7485 79.016 26.2445 79.144 25.6845 79.144ZM25.6845 78.28C26.0285 78.28 26.3485 78.196 26.6445 78.028C26.9405 77.86 27.1805 77.608 27.3645 77.272C27.5485 76.936 27.6405 76.52 27.6405 76.024C27.6405 75.528 27.5485 75.112 27.3645 74.776C27.1885 74.44 26.9525 74.188 26.6565 74.02C26.3605 73.852 26.0445 73.768 25.7085 73.768C25.3645 73.768 25.0445 73.852 24.7485 74.02C24.4525 74.188 24.2125 74.44 24.0285 74.776C23.8445 75.112 23.7525 75.528 23.7525 76.024C23.7525 76.52 23.8445 76.936 24.0285 77.272C24.2125 77.608 24.4485 77.86 24.7365 78.028C25.0325 78.196 25.3485 78.28 25.6845 78.28ZM30.0741 79V70.36H31.0821V79H30.0741ZM35.4342 79.144C34.8423 79.144 34.3223 79.008 33.8743 78.736C33.4343 78.464 33.0903 78.092 32.8423 77.62C32.6023 77.148 32.4823 76.612 32.4823 76.012C32.4823 75.412 32.6063 74.88 32.8543 74.416C33.1023 73.944 33.4463 73.576 33.8863 73.312C34.3263 73.04 34.8463 72.904 35.4463 72.904C35.9343 72.904 36.3663 73.004 36.7423 73.204C37.1183 73.404 37.4103 73.684 37.6183 74.044V70.36H38.6263V79H37.7143L37.6183 78.016C37.4263 78.304 37.1503 78.564 36.7903 78.796C36.4303 79.028 35.9783 79.144 35.4342 79.144ZM35.5423 78.268C35.9423 78.268 36.2943 78.176 36.5983 77.992C36.9103 77.8 37.1503 77.536 37.3183 77.2C37.4943 76.864 37.5823 76.472 37.5823 76.024C37.5823 75.576 37.4943 75.184 37.3183 74.848C37.1503 74.512 36.9103 74.252 36.5983 74.068C36.2943 73.876 35.9423 73.78 35.5423 73.78C35.1503 73.78 34.7983 73.876 34.4863 74.068C34.1823 74.252 33.9423 74.512 33.7663 74.848C33.5983 75.184 33.5143 75.576 33.5143 76.024C33.5143 76.472 33.5983 76.864 33.7663 77.2C33.9423 77.536 34.1823 77.8 34.4863 77.992C34.7983 78.176 35.1503 78.268 35.5423 78.268ZM43.4452 79V73.048H44.3572L44.4292 73.912C44.6212 73.592 44.8772 73.344 45.1972 73.168C45.5172 72.992 45.8772 72.904 46.2772 72.904C46.7492 72.904 47.1532 73 47.4892 73.192C47.8332 73.384 48.0972 73.676 48.2812 74.068C48.4892 73.708 48.7732 73.424 49.1332 73.216C49.5012 73.008 49.8972 72.904 50.3212 72.904C51.0332 72.904 51.6012 73.12 52.0252 73.552C52.4492 73.976 52.6612 74.632 52.6612 75.52V79H51.6652V75.628C51.6652 75.012 51.5412 74.548 51.2932 74.236C51.0452 73.924 50.6892 73.768 50.2252 73.768C49.7452 73.768 49.3452 73.956 49.0252 74.332C48.7132 74.7 48.5572 75.228 48.5572 75.916V79H47.5492V75.628C47.5492 75.012 47.4252 74.548 47.1772 74.236C46.9292 73.924 46.5732 73.768 46.1092 73.768C45.6372 73.768 45.2412 73.956 44.9212 74.332C44.6092 74.7 44.4532 75.228 44.4532 75.916V79H43.4452ZM56.8916 79.144C56.3316 79.144 55.8276 79.016 55.3796 78.76C54.9316 78.504 54.5756 78.144 54.3116 77.68C54.0556 77.208 53.9276 76.656 53.9276 76.024C53.9276 75.392 54.0596 74.844 54.3236 74.38C54.5876 73.908 54.9436 73.544 55.3916 73.288C55.8476 73.032 56.3556 72.904 56.9156 72.904C57.4756 72.904 57.9796 73.032 58.4276 73.288C58.8756 73.544 59.2276 73.908 59.4836 74.38C59.7476 74.844 59.8796 75.392 59.8796 76.024C59.8796 76.656 59.7476 77.208 59.4836 77.68C59.2196 78.144 58.8596 78.504 58.4036 78.76C57.9556 79.016 57.4516 79.144 56.8916 79.144ZM56.8916 78.28C57.2356 78.28 57.5556 78.196 57.8516 78.028C58.1476 77.86 58.3876 77.608 58.5716 77.272C58.7556 76.936 58.8476 76.52 58.8476 76.024C58.8476 75.528 58.7556 75.112 58.5716 74.776C58.3956 74.44 58.1596 74.188 57.8636 74.02C57.5676 73.852 57.2516 73.768 56.9156 73.768C56.5716 73.768 56.2516 73.852 55.9556 74.02C55.6596 74.188 55.4196 74.44 55.2356 74.776C55.0516 75.112 54.9596 75.528 54.9596 76.024C54.9596 76.52 55.0516 76.936 55.2356 77.272C55.4196 77.608 55.6556 77.86 55.9436 78.028C56.2396 78.196 56.5556 78.28 56.8916 78.28ZM61.2811 79V73.048H62.1931L62.2771 74.188C62.4611 73.796 62.7411 73.484 63.1171 73.252C63.4931 73.02 63.9571 72.904 64.5091 72.904V73.96H64.2331C63.8811 73.96 63.5571 74.024 63.2611 74.152C62.9651 74.272 62.7291 74.48 62.5531 74.776C62.3771 75.072 62.2891 75.48 62.2891 76V79H61.2811ZM68.0938 79.144C67.5258 79.144 67.0218 79.016 66.5818 78.76C66.1418 78.496 65.7938 78.132 65.5378 77.668C65.2898 77.204 65.1658 76.656 65.1658 76.024C65.1658 75.4 65.2898 74.856 65.5378 74.392C65.7858 73.92 66.1298 73.556 66.5698 73.3C67.0178 73.036 67.5338 72.904 68.1178 72.904C68.6938 72.904 69.1898 73.036 69.6058 73.3C70.0298 73.556 70.3538 73.896 70.5778 74.32C70.8018 74.744 70.9138 75.2 70.9138 75.688C70.9138 75.776 70.9098 75.864 70.9018 75.952C70.9018 76.04 70.9018 76.14 70.9018 76.252H66.1618C66.1858 76.708 66.2898 77.088 66.4738 77.392C66.6658 77.688 66.9018 77.912 67.1818 78.064C67.4698 78.216 67.7738 78.292 68.0938 78.292C68.5098 78.292 68.8578 78.196 69.1378 78.004C69.4178 77.812 69.6218 77.552 69.7498 77.224H70.7458C70.5858 77.776 70.2778 78.236 69.8218 78.604C69.3738 78.964 68.7978 79.144 68.0938 79.144ZM68.0938 73.756C67.6138 73.756 67.1858 73.904 66.8098 74.2C66.4418 74.488 66.2298 74.912 66.1738 75.472H69.9178C69.8938 74.936 69.7098 74.516 69.3658 74.212C69.0218 73.908 68.5978 73.756 68.0938 73.756ZM77.7777 79C77.2337 79 76.8057 78.868 76.4937 78.604C76.1817 78.34 76.0257 77.864 76.0257 77.176V73.9H74.9937V73.048H76.0257L76.1577 71.62H77.0337V73.048H78.7857V73.9H77.0337V77.176C77.0337 77.552 77.1097 77.808 77.2617 77.944C77.4137 78.072 77.6817 78.136 78.0657 78.136H78.6897V79H77.7777ZM80.0663 79V70.36H81.0743V74.068C81.2743 73.7 81.5583 73.416 81.9263 73.216C82.2943 73.008 82.6943 72.904 83.1263 72.904C83.8143 72.904 84.3663 73.12 84.7823 73.552C85.1983 73.976 85.4063 74.632 85.4063 75.52V79H84.4103V75.628C84.4103 74.388 83.9103 73.768 82.9103 73.768C82.3903 73.768 81.9543 73.956 81.6023 74.332C81.2503 74.7 81.0743 75.228 81.0743 75.916V79H80.0663ZM88.9135 79.144C88.4175 79.144 88.0055 79.06 87.6775 78.892C87.3495 78.724 87.1055 78.5 86.9455 78.22C86.7855 77.94 86.7055 77.636 86.7055 77.308C86.7055 76.7 86.9375 76.232 87.4015 75.904C87.8655 75.576 88.4975 75.412 89.2975 75.412H90.9055V75.34C90.9055 74.82 90.7695 74.428 90.4975 74.164C90.2255 73.892 89.8615 73.756 89.4055 73.756C89.0135 73.756 88.6735 73.856 88.3855 74.056C88.1055 74.248 87.9295 74.532 87.8575 74.908H86.8255C86.8655 74.476 87.0095 74.112 87.2575 73.816C87.5135 73.52 87.8295 73.296 88.2055 73.144C88.5815 72.984 88.9815 72.904 89.4055 72.904C90.2375 72.904 90.8615 73.128 91.2775 73.576C91.7015 74.016 91.9135 74.604 91.9135 75.34V79H91.0135L90.9535 77.932C90.7855 78.268 90.5375 78.556 90.2095 78.796C89.8895 79.028 89.4575 79.144 88.9135 79.144ZM89.0695 78.292C89.4535 78.292 89.7815 78.192 90.0535 77.992C90.3335 77.792 90.5455 77.532 90.6895 77.212C90.8335 76.892 90.9055 76.556 90.9055 76.204V76.192H89.3815C88.7895 76.192 88.3695 76.296 88.1215 76.504C87.8815 76.704 87.7615 76.956 87.7615 77.26C87.7615 77.572 87.8735 77.824 88.0975 78.016C88.3295 78.2 88.6535 78.292 89.0695 78.292ZM93.4257 79V73.048H94.3377L94.3977 74.116C94.5897 73.74 94.8657 73.444 95.2257 73.228C95.5857 73.012 95.9937 72.904 96.4497 72.904C97.1537 72.904 97.7137 73.12 98.1297 73.552C98.5537 73.976 98.7657 74.632 98.7657 75.52V79H97.7577V75.628C97.7577 74.388 97.2457 73.768 96.2217 73.768C95.7097 73.768 95.2817 73.956 94.9377 74.332C94.6017 74.7 94.4337 75.228 94.4337 75.916V79H93.4257ZM106.181 79.144C105.621 79.144 105.117 79.016 104.669 78.76C104.221 78.504 103.865 78.144 103.601 77.68C103.345 77.208 103.217 76.656 103.217 76.024C103.217 75.392 103.349 74.844 103.613 74.38C103.877 73.908 104.233 73.544 104.681 73.288C105.137 73.032 105.645 72.904 106.205 72.904C106.765 72.904 107.269 73.032 107.717 73.288C108.165 73.544 108.517 73.908 108.773 74.38C109.037 74.844 109.169 75.392 109.169 76.024C109.169 76.656 109.037 77.208 108.773 77.68C108.509 78.144 108.149 78.504 107.693 78.76C107.245 79.016 106.741 79.144 106.181 79.144ZM106.181 78.28C106.525 78.28 106.845 78.196 107.141 78.028C107.437 77.86 107.677 77.608 107.861 77.272C108.045 76.936 108.137 76.52 108.137 76.024C108.137 75.528 108.045 75.112 107.861 74.776C107.685 74.44 107.449 74.188 107.153 74.02C106.857 73.852 106.541 73.768 106.205 73.768C105.861 73.768 105.541 73.852 105.245 74.02C104.949 74.188 104.709 74.44 104.525 74.776C104.341 75.112 104.249 75.528 104.249 76.024C104.249 76.52 104.341 76.936 104.525 77.272C104.709 77.608 104.945 77.86 105.233 78.028C105.529 78.196 105.845 78.28 106.181 78.28ZM110.57 79V73.048H111.482L111.542 74.116C111.734 73.74 112.01 73.444 112.37 73.228C112.73 73.012 113.138 72.904 113.594 72.904C114.298 72.904 114.858 73.12 115.274 73.552C115.698 73.976 115.91 74.632 115.91 75.52V79H114.902V75.628C114.902 74.388 114.39 73.768 113.366 73.768C112.854 73.768 112.426 73.956 112.082 74.332C111.746 74.7 111.578 75.228 111.578 75.916V79H110.57ZM120.113 79.144C119.545 79.144 119.041 79.016 118.601 78.76C118.161 78.496 117.813 78.132 117.557 77.668C117.309 77.204 117.185 76.656 117.185 76.024C117.185 75.4 117.309 74.856 117.557 74.392C117.805 73.92 118.149 73.556 118.589 73.3C119.037 73.036 119.553 72.904 120.137 72.904C120.713 72.904 121.209 73.036 121.625 73.3C122.049 73.556 122.373 73.896 122.597 74.32C122.821 74.744 122.933 75.2 122.933 75.688C122.933 75.776 122.929 75.864 122.921 75.952C122.921 76.04 122.921 76.14 122.921 76.252H118.181C118.205 76.708 118.309 77.088 118.493 77.392C118.685 77.688 118.921 77.912 119.201 78.064C119.489 78.216 119.793 78.292 120.113 78.292C120.529 78.292 120.877 78.196 121.157 78.004C121.437 77.812 121.641 77.552 121.769 77.224H122.765C122.605 77.776 122.297 78.236 121.841 78.604C121.393 78.964 120.817 79.144 120.113 79.144ZM120.113 73.756C119.633 73.756 119.205 73.904 118.829 74.2C118.461 74.488 118.249 74.912 118.193 75.472H121.937C121.913 74.936 121.729 74.516 121.385 74.212C121.041 73.908 120.617 73.756 120.113 73.756ZM130.181 79.144C129.613 79.144 129.101 79.016 128.645 78.76C128.197 78.496 127.841 78.132 127.577 77.668C127.321 77.196 127.193 76.648 127.193 76.024C127.193 75.4 127.321 74.856 127.577 74.392C127.841 73.92 128.197 73.556 128.645 73.3C129.101 73.036 129.613 72.904 130.181 72.904C130.885 72.904 131.477 73.088 131.957 73.456C132.445 73.824 132.753 74.316 132.881 74.932H131.849C131.769 74.564 131.573 74.28 131.261 74.08C130.949 73.872 130.585 73.768 130.169 73.768C129.833 73.768 129.517 73.852 129.221 74.02C128.925 74.188 128.685 74.44 128.501 74.776C128.317 75.112 128.225 75.528 128.225 76.024C128.225 76.52 128.317 76.936 128.501 77.272C128.685 77.608 128.925 77.864 129.221 78.04C129.517 78.208 129.833 78.292 130.169 78.292C130.585 78.292 130.949 78.192 131.261 77.992C131.573 77.784 131.769 77.492 131.849 77.116H132.881C132.761 77.716 132.457 78.204 131.969 78.58C131.481 78.956 130.885 79.144 130.181 79.144ZM136.461 79.144C135.757 79.144 135.197 78.932 134.781 78.508C134.365 78.076 134.157 77.416 134.157 76.528V73.048H135.165V76.42C135.165 77.66 135.673 78.28 136.689 78.28C137.209 78.28 137.637 78.096 137.973 77.728C138.317 77.352 138.489 76.82 138.489 76.132V73.048H139.497V79H138.585L138.513 77.932C138.329 78.308 138.053 78.604 137.685 78.82C137.325 79.036 136.917 79.144 136.461 79.144ZM141.156 79V73.048H142.068L142.152 74.188C142.336 73.796 142.616 73.484 142.992 73.252C143.368 73.02 143.832 72.904 144.384 72.904V73.96H144.108C143.756 73.96 143.432 74.024 143.136 74.152C142.84 74.272 142.604 74.48 142.428 74.776C142.252 75.072 142.164 75.48 142.164 76V79H141.156ZM145.516 79V73.048H146.428L146.512 74.188C146.696 73.796 146.976 73.484 147.352 73.252C147.728 73.02 148.192 72.904 148.744 72.904V73.96H148.468C148.116 73.96 147.792 74.024 147.496 74.152C147.2 74.272 146.964 74.48 146.788 74.776C146.612 75.072 146.524 75.48 146.524 76V79H145.516ZM152.328 79.144C151.76 79.144 151.256 79.016 150.816 78.76C150.376 78.496 150.028 78.132 149.772 77.668C149.524 77.204 149.4 76.656 149.4 76.024C149.4 75.4 149.524 74.856 149.772 74.392C150.02 73.92 150.364 73.556 150.804 73.3C151.252 73.036 151.768 72.904 152.352 72.904C152.928 72.904 153.424 73.036 153.84 73.3C154.264 73.556 154.588 73.896 154.812 74.32C155.036 74.744 155.148 75.2 155.148 75.688C155.148 75.776 155.144 75.864 155.136 75.952C155.136 76.04 155.136 76.14 155.136 76.252H150.396C150.42 76.708 150.524 77.088 150.708 77.392C150.9 77.688 151.136 77.912 151.416 78.064C151.704 78.216 152.008 78.292 152.328 78.292C152.744 78.292 153.092 78.196 153.372 78.004C153.652 77.812 153.856 77.552 153.984 77.224H154.98C154.82 77.776 154.512 78.236 154.056 78.604C153.608 78.964 153.032 79.144 152.328 79.144ZM152.328 73.756C151.848 73.756 151.42 73.904 151.044 74.2C150.676 74.488 150.464 74.912 150.408 75.472H154.152C154.128 74.936 153.944 74.516 153.6 74.212C153.256 73.908 152.832 73.756 152.328 73.756ZM156.484 79V73.048H157.396L157.456 74.116C157.648 73.74 157.924 73.444 158.284 73.228C158.644 73.012 159.052 72.904 159.508 72.904C160.212 72.904 160.772 73.12 161.188 73.552C161.612 73.976 161.824 74.632 161.824 75.52V79H160.816V75.628C160.816 74.388 160.304 73.768 159.28 73.768C158.768 73.768 158.34 73.956 157.996 74.332C157.66 74.7 157.492 75.228 157.492 75.916V79H156.484ZM166.087 79.144C165.519 79.144 165.007 79.016 164.551 78.76C164.103 78.496 163.747 78.132 163.483 77.668C163.227 77.196 163.099 76.648 163.099 76.024C163.099 75.4 163.227 74.856 163.483 74.392C163.747 73.92 164.103 73.556 164.551 73.3C165.007 73.036 165.519 72.904 166.087 72.904C166.791 72.904 167.383 73.088 167.863 73.456C168.351 73.824 168.659 74.316 168.787 74.932H167.755C167.675 74.564 167.479 74.28 167.167 74.08C166.855 73.872 166.491 73.768 166.075 73.768C165.739 73.768 165.423 73.852 165.127 74.02C164.831 74.188 164.591 74.44 164.407 74.776C164.223 75.112 164.131 75.528 164.131 76.024C164.131 76.52 164.223 76.936 164.407 77.272C164.591 77.608 164.831 77.864 165.127 78.04C165.423 78.208 165.739 78.292 166.075 78.292C166.491 78.292 166.855 78.192 167.167 77.992C167.479 77.784 167.675 77.492 167.755 77.116H168.787C168.667 77.716 168.363 78.204 167.875 78.58C167.387 78.956 166.791 79.144 166.087 79.144ZM170.843 81.64L172.319 78.424H171.971L169.607 73.048H170.699L172.667 77.68L174.755 73.048H175.799L171.899 81.64H170.843ZM16.028 95L14.288 89.048H15.296L16.556 93.716L17.948 89.048H19.088L20.492 93.716L21.74 89.048H22.76L21.02 95H19.988L18.524 90.092L17.06 95H16.028ZM24.4869 87.728C24.2869 87.728 24.1189 87.664 23.9829 87.536C23.8549 87.4 23.7909 87.232 23.7909 87.032C23.7909 86.84 23.8549 86.68 23.9829 86.552C24.1189 86.424 24.2869 86.36 24.4869 86.36C24.6789 86.36 24.8429 86.424 24.9789 86.552C25.1149 86.68 25.1829 86.84 25.1829 87.032C25.1829 87.232 25.1149 87.4 24.9789 87.536C24.8429 87.664 24.6789 87.728 24.4869 87.728ZM23.9829 95V89.048H24.9909V95H23.9829ZM29.098 95C28.554 95 28.126 94.868 27.814 94.604C27.502 94.34 27.346 93.864 27.346 93.176V89.9H26.314V89.048H27.346L27.478 87.62H28.354V89.048H30.106V89.9H28.354V93.176C28.354 93.552 28.43 93.808 28.582 93.944C28.734 94.072 29.002 94.136 29.386 94.136H30.01V95H29.098ZM31.3866 95V86.36H32.3946V90.068C32.5946 89.7 32.8786 89.416 33.2466 89.216C33.6146 89.008 34.0146 88.904 34.4466 88.904C35.1346 88.904 35.6866 89.12 36.1026 89.552C36.5186 89.976 36.7266 90.632 36.7266 91.52V95H35.7306V91.628C35.7306 90.388 35.2306 89.768 34.2306 89.768C33.7106 89.768 33.2746 89.956 32.9226 90.332C32.5706 90.7 32.3946 91.228 32.3946 91.916V95H31.3866ZM41.4296 95V89.048H42.3416L42.4136 89.912C42.6056 89.592 42.8616 89.344 43.1816 89.168C43.5016 88.992 43.8616 88.904 44.2616 88.904C44.7336 88.904 45.1376 89 45.4736 89.192C45.8176 89.384 46.0816 89.676 46.2656 90.068C46.4736 89.708 46.7576 89.424 47.1176 89.216C47.4856 89.008 47.8816 88.904 48.3056 88.904C49.0176 88.904 49.5856 89.12 50.0096 89.552C50.4336 89.976 50.6456 90.632 50.6456 91.52V95H49.6496V91.628C49.6496 91.012 49.5256 90.548 49.2776 90.236C49.0296 89.924 48.6736 89.768 48.2096 89.768C47.7296 89.768 47.3296 89.956 47.0096 90.332C46.6976 90.7 46.5416 91.228 46.5416 91.916V95H45.5336V91.628C45.5336 91.012 45.4096 90.548 45.1616 90.236C44.9136 89.924 44.5576 89.768 44.0936 89.768C43.6216 89.768 43.2256 89.956 42.9056 90.332C42.5936 90.7 42.4376 91.228 42.4376 91.916V95H41.4296ZM54.3359 95.144C53.6319 95.144 53.0719 94.932 52.6559 94.508C52.2399 94.076 52.0319 93.416 52.0319 92.528V89.048H53.0399V92.42C53.0399 93.66 53.5479 94.28 54.5639 94.28C55.0839 94.28 55.5119 94.096 55.8479 93.728C56.1919 93.352 56.3639 92.82 56.3639 92.132V89.048H57.3719V95H56.4599L56.3879 93.932C56.2039 94.308 55.9279 94.604 55.5599 94.82C55.1999 95.036 54.7919 95.144 54.3359 95.144ZM59.0311 95V86.36H60.0391V95H59.0311ZM64.0433 95C63.4993 95 63.0713 94.868 62.7593 94.604C62.4473 94.34 62.2913 93.864 62.2913 93.176V89.9H61.2593V89.048H62.2913L62.4233 87.62H63.2993V89.048H65.0513V89.9H63.2993V93.176C63.2993 93.552 63.3753 93.808 63.5273 93.944C63.6793 94.072 63.9473 94.136 64.3313 94.136H64.9553V95H64.0433ZM66.9439 87.728C66.7439 87.728 66.5759 87.664 66.4399 87.536C66.3119 87.4 66.2479 87.232 66.2479 87.032C66.2479 86.84 66.3119 86.68 66.4399 86.552C66.5759 86.424 66.7439 86.36 66.9439 86.36C67.1359 86.36 67.2999 86.424 67.4359 86.552C67.5719 86.68 67.6399 86.84 67.6399 87.032C67.6399 87.232 67.5719 87.4 67.4359 87.536C67.2999 87.664 67.1359 87.728 66.9439 87.728ZM66.4399 95V89.048H67.4479V95H66.4399ZM69.203 97.64V89.048H70.115L70.211 90.032C70.403 89.744 70.675 89.484 71.027 89.252C71.387 89.02 71.843 88.904 72.395 88.904C72.987 88.904 73.503 89.04 73.943 89.312C74.383 89.584 74.723 89.956 74.963 90.428C75.211 90.9 75.335 91.436 75.335 92.036C75.335 92.636 75.211 93.172 74.963 93.644C74.723 94.108 74.379 94.476 73.931 94.748C73.491 95.012 72.975 95.144 72.383 95.144C71.895 95.144 71.459 95.044 71.075 94.844C70.699 94.644 70.411 94.364 70.211 94.004V97.64H69.203ZM72.275 94.268C72.675 94.268 73.027 94.176 73.331 93.992C73.635 93.8 73.875 93.536 74.051 93.2C74.227 92.864 74.315 92.472 74.315 92.024C74.315 91.576 74.227 91.184 74.051 90.848C73.875 90.512 73.635 90.252 73.331 90.068C73.027 89.876 72.675 89.78 72.275 89.78C71.875 89.78 71.523 89.876 71.219 90.068C70.915 90.252 70.675 90.512 70.499 90.848C70.323 91.184 70.235 91.576 70.235 92.024C70.235 92.472 70.323 92.864 70.499 93.2C70.675 93.536 70.915 93.8 71.219 93.992C71.523 94.176 71.875 94.268 72.275 94.268ZM76.7382 95V86.36H77.7462V95H76.7382ZM82.0743 95.144C81.5063 95.144 81.0023 95.016 80.5623 94.76C80.1223 94.496 79.7743 94.132 79.5183 93.668C79.2703 93.204 79.1463 92.656 79.1463 92.024C79.1463 91.4 79.2703 90.856 79.5183 90.392C79.7663 89.92 80.1103 89.556 80.5503 89.3C80.9983 89.036 81.5143 88.904 82.0983 88.904C82.6743 88.904 83.1703 89.036 83.5863 89.3C84.0103 89.556 84.3343 89.896 84.5583 90.32C84.7823 90.744 84.8943 91.2 84.8943 91.688C84.8943 91.776 84.8903 91.864 84.8823 91.952C84.8823 92.04 84.8823 92.14 84.8823 92.252H80.1423C80.1663 92.708 80.2703 93.088 80.4543 93.392C80.6463 93.688 80.8823 93.912 81.1623 94.064C81.4503 94.216 81.7543 94.292 82.0743 94.292C82.4903 94.292 82.8383 94.196 83.1183 94.004C83.3983 93.812 83.6023 93.552 83.7303 93.224H84.7263C84.5663 93.776 84.2583 94.236 83.8023 94.604C83.3543 94.964 82.7783 95.144 82.0743 95.144ZM82.0743 89.756C81.5943 89.756 81.1663 89.904 80.7903 90.2C80.4223 90.488 80.2103 90.912 80.1543 91.472H83.8983C83.8743 90.936 83.6903 90.516 83.3463 90.212C83.0023 89.908 82.5783 89.756 82.0743 89.756ZM90.6061 95L88.8661 89.048H89.8741L91.1341 93.716L92.5261 89.048H93.6661L95.0701 93.716L96.3181 89.048H97.3381L95.5981 95H94.5661L93.1021 90.092L91.6381 95H90.6061ZM100.222 95.144C99.7261 95.144 99.3141 95.06 98.9861 94.892C98.6581 94.724 98.4141 94.5 98.2541 94.22C98.0941 93.94 98.0141 93.636 98.0141 93.308C98.0141 92.7 98.2461 92.232 98.7101 91.904C99.1741 91.576 99.8061 91.412 100.606 91.412H102.214V91.34C102.214 90.82 102.078 90.428 101.806 90.164C101.534 89.892 101.17 89.756 100.714 89.756C100.322 89.756 99.9821 89.856 99.6941 90.056C99.4141 90.248 99.2381 90.532 99.1661 90.908H98.1341C98.1741 90.476 98.3181 90.112 98.5661 89.816C98.8221 89.52 99.1381 89.296 99.5141 89.144C99.8901 88.984 100.29 88.904 100.714 88.904C101.546 88.904 102.17 89.128 102.586 89.576C103.01 90.016 103.222 90.604 103.222 91.34V95H102.322L102.262 93.932C102.094 94.268 101.846 94.556 101.518 94.796C101.198 95.028 100.766 95.144 100.222 95.144ZM100.378 94.292C100.762 94.292 101.09 94.192 101.362 93.992C101.642 93.792 101.854 93.532 101.998 93.212C102.142 92.892 102.214 92.556 102.214 92.204V92.192H100.69C100.098 92.192 99.6781 92.296 99.4301 92.504C99.1901 92.704 99.0701 92.956 99.0701 93.26C99.0701 93.572 99.1821 93.824 99.4061 94.016C99.6381 94.2 99.9621 94.292 100.378 94.292ZM104.734 95V86.36H105.742V95H104.734ZM107.394 95V86.36H108.402V95H107.394ZM112.731 95.144C112.163 95.144 111.659 95.016 111.219 94.76C110.779 94.496 110.431 94.132 110.175 93.668C109.927 93.204 109.803 92.656 109.803 92.024C109.803 91.4 109.927 90.856 110.175 90.392C110.423 89.92 110.767 89.556 111.207 89.3C111.655 89.036 112.171 88.904 112.755 88.904C113.331 88.904 113.827 89.036 114.243 89.3C114.667 89.556 114.991 89.896 115.215 90.32C115.439 90.744 115.551 91.2 115.551 91.688C115.551 91.776 115.547 91.864 115.539 91.952C115.539 92.04 115.539 92.14 115.539 92.252H110.799C110.823 92.708 110.927 93.088 111.111 93.392C111.303 93.688 111.539 93.912 111.819 94.064C112.107 94.216 112.411 94.292 112.731 94.292C113.147 94.292 113.495 94.196 113.775 94.004C114.055 93.812 114.259 93.552 114.387 93.224H115.383C115.223 93.776 114.915 94.236 114.459 94.604C114.011 94.964 113.435 95.144 112.731 95.144ZM112.731 89.756C112.251 89.756 111.823 89.904 111.447 90.2C111.079 90.488 110.867 90.912 110.811 91.472H114.555C114.531 90.936 114.347 90.516 114.003 90.212C113.659 89.908 113.235 89.756 112.731 89.756ZM119.039 95C118.495 95 118.067 94.868 117.755 94.604C117.443 94.34 117.287 93.864 117.287 93.176V89.9H116.255V89.048H117.287L117.419 87.62H118.295V89.048H120.047V89.9H118.295V93.176C118.295 93.552 118.371 93.808 118.523 93.944C118.675 94.072 118.943 94.136 119.327 94.136H119.951V95H119.039ZM123.608 95.144C122.896 95.144 122.304 94.964 121.832 94.604C121.36 94.244 121.084 93.756 121.004 93.14H122.036C122.1 93.452 122.264 93.724 122.528 93.956C122.8 94.18 123.164 94.292 123.62 94.292C124.044 94.292 124.356 94.204 124.556 94.028C124.756 93.844 124.856 93.628 124.856 93.38C124.856 93.02 124.724 92.78 124.46 92.66C124.204 92.54 123.84 92.432 123.368 92.336C123.048 92.272 122.728 92.18 122.408 92.06C122.088 91.94 121.82 91.772 121.604 91.556C121.388 91.332 121.28 91.04 121.28 90.68C121.28 90.16 121.472 89.736 121.856 89.408C122.248 89.072 122.776 88.904 123.44 88.904C124.072 88.904 124.588 89.064 124.988 89.384C125.396 89.696 125.632 90.144 125.696 90.728H124.7C124.66 90.424 124.528 90.188 124.304 90.02C124.088 89.844 123.796 89.756 123.428 89.756C123.068 89.756 122.788 89.832 122.588 89.984C122.396 90.136 122.3 90.336 122.3 90.584C122.3 90.824 122.424 91.012 122.672 91.148C122.928 91.284 123.272 91.4 123.704 91.496C124.072 91.576 124.42 91.676 124.748 91.796C125.084 91.908 125.356 92.08 125.564 92.312C125.78 92.536 125.888 92.864 125.888 93.296C125.896 93.832 125.692 94.276 125.276 94.628C124.868 94.972 124.312 95.144 123.608 95.144Z" fill="#7266FF"/>
</svg>
