<svg width="200" height="115" viewBox="0 0 200 115" fill="none" xmlns="http://www.w3.org/2000/svg">
<rect width="200" height="115" rx="13" fill="#E8FFEB"/>
<path d="M17.372 16.511C19.1986 14.89 21.5569 13.9964 23.999 14C29.522 14 33.999 18.477 33.999 24C34.0023 26.0439 33.3762 28.0393 32.206 29.715L29.499 24H31.999C31.999 22.4094 31.5249 20.8548 30.6371 19.535C29.7494 18.2151 28.4883 17.1898 27.015 16.5902C25.5418 15.9905 23.9232 15.8436 22.366 16.1683C20.8089 16.493 19.3838 17.2745 18.273 18.413L17.373 16.511M30.626 31.489C28.7996 33.1094 26.4416 34.0026 24 33.999C18.477 33.999 14 29.523 14 23.999C14 21.875 14.663 19.905 15.793 18.285L18.5 24H16C16.0004 25.5902 16.4747 27.1443 17.3623 28.4637C18.25 29.7831 19.5107 30.8081 20.9836 31.4077C22.4565 32.0072 24.0746 32.1543 25.6314 31.83C27.1882 31.5057 28.613 30.7248 29.724 29.587L30.626 31.489ZM25.413 26.829L22.585 23.999L19.756 26.829L18.342 25.414L22.585 21.172L25.413 24L28.241 21.172L29.656 22.586L25.413 26.829Z" fill="#448A4B"/>
<path d="M14.994 53.999V44.199H18.69C19.7073 44.199 20.4773 44.437 21 44.913C21.5227 45.389 21.784 45.9864 21.784 46.705C21.784 47.3304 21.616 47.8297 21.28 48.203C20.944 48.567 20.538 48.8144 20.062 48.945C20.4353 49.0197 20.7667 49.169 21.056 49.393C21.3547 49.617 21.588 49.897 21.756 50.233C21.924 50.569 22.008 50.933 22.008 51.325C22.008 51.829 21.882 52.2864 21.63 52.697C21.3873 53.0984 21.028 53.4157 20.552 53.649C20.076 53.8824 19.4927 53.999 18.802 53.999H14.994ZM16.478 48.399H18.508C19.0773 48.399 19.5113 48.2684 19.81 48.007C20.1087 47.7364 20.258 47.3677 20.258 46.901C20.258 46.4437 20.1087 46.0797 19.81 45.809C19.5207 45.5384 19.0773 45.403 18.48 45.403H16.478V48.399ZM16.478 52.781H18.606C19.2033 52.781 19.6653 52.641 19.992 52.361C20.328 52.081 20.496 51.689 20.496 51.185C20.496 50.681 20.3233 50.2844 19.978 49.995C19.6327 49.6964 19.166 49.547 18.578 49.547H16.478V52.781ZM26.1406 54.167C25.3006 54.167 24.638 53.9057 24.1526 53.383C23.6766 52.8604 23.4386 52.081 23.4386 51.045V47.055H24.9226V50.891C24.9226 52.235 25.4733 52.907 26.5746 52.907C27.1253 52.907 27.578 52.711 27.9326 52.319C28.2873 51.927 28.4646 51.367 28.4646 50.639V47.055H29.9486V53.999H28.6326L28.5206 52.781C28.306 53.2104 27.9886 53.551 27.5686 53.803C27.158 54.0457 26.682 54.167 26.1406 54.167ZM32.6484 57.079L34.3144 53.425H33.9084L31.1644 47.055H32.7744L34.9024 52.193L37.1284 47.055H38.6964L34.2164 57.079H32.6484ZM45.7959 54.167C45.2079 54.167 44.7225 54.069 44.3399 53.873C43.9572 53.677 43.6725 53.4204 43.4859 53.103C43.2992 52.7764 43.2059 52.4217 43.2059 52.039C43.2059 51.367 43.4672 50.835 43.9899 50.443C44.5125 50.051 45.2592 49.855 46.2299 49.855H48.0499V49.729C48.0499 49.1877 47.9005 48.7817 47.6019 48.511C47.3125 48.2404 46.9345 48.105 46.4679 48.105C46.0572 48.105 45.6979 48.2077 45.3899 48.413C45.0912 48.609 44.9092 48.903 44.8439 49.295H43.3599C43.4065 48.791 43.5745 48.3617 43.8639 48.007C44.1625 47.643 44.5359 47.3677 44.9839 47.181C45.4412 46.985 45.9405 46.887 46.4819 46.887C47.4525 46.887 48.2039 47.1437 48.7359 47.657C49.2679 48.161 49.5339 48.8517 49.5339 49.729V53.999H48.2459L48.1199 52.809C47.9239 53.1917 47.6392 53.5137 47.2659 53.775C46.8925 54.0364 46.4025 54.167 45.7959 54.167ZM46.0899 52.963C46.4912 52.963 46.8272 52.8697 47.0979 52.683C47.3779 52.487 47.5925 52.2304 47.7419 51.913C47.9005 51.5957 47.9985 51.2457 48.0359 50.863H46.3839C45.7959 50.863 45.3759 50.9657 45.1239 51.171C44.8812 51.3764 44.7599 51.633 44.7599 51.941C44.7599 52.2584 44.8765 52.5104 45.1099 52.697C45.3525 52.8744 45.6792 52.963 46.0899 52.963ZM51.2642 53.999V47.055H52.5802L52.6922 48.273C52.9068 47.8437 53.2195 47.5077 53.6302 47.265C54.0502 47.013 54.5308 46.887 55.0722 46.887C55.9122 46.887 56.5702 47.1484 57.0462 47.671C57.5315 48.1937 57.7742 48.973 57.7742 50.009V53.999H56.3042V50.163C56.3042 48.819 55.7535 48.147 54.6522 48.147C54.1015 48.147 53.6442 48.343 53.2802 48.735C52.9255 49.127 52.7482 49.687 52.7482 50.415V53.999H51.2642ZM62.686 54.167C62.014 54.167 61.4213 54.0084 60.908 53.691C60.3947 53.3737 59.9933 52.9397 59.704 52.389C59.4147 51.8384 59.27 51.213 59.27 50.513C59.27 49.813 59.4147 49.1924 59.704 48.651C59.9933 48.1004 60.3947 47.671 60.908 47.363C61.4307 47.0457 62.028 46.887 62.7 46.887C63.2507 46.887 63.7313 46.9944 64.142 47.209C64.562 47.4237 64.8887 47.727 65.122 48.119V43.919H66.606V53.999H65.276L65.122 52.921C64.898 53.2477 64.59 53.537 64.198 53.789C63.806 54.041 63.302 54.167 62.686 54.167ZM62.952 52.879C63.5867 52.879 64.1047 52.6597 64.506 52.221C64.9167 51.7824 65.122 51.2177 65.122 50.527C65.122 49.827 64.9167 49.2624 64.506 48.833C64.1047 48.3944 63.5867 48.175 62.952 48.175C62.3173 48.175 61.7947 48.3944 61.384 48.833C60.9733 49.2624 60.768 49.827 60.768 50.527C60.768 50.9844 60.8613 51.3904 61.048 51.745C61.2347 52.0997 61.4913 52.3797 61.818 52.585C62.154 52.781 62.532 52.879 62.952 52.879ZM75.2944 54.167C74.5757 54.167 73.9457 54.041 73.4044 53.789C72.8631 53.537 72.4384 53.1777 72.1304 52.711C71.8317 52.2444 71.6777 51.689 71.6684 51.045H73.2364C73.2457 51.5677 73.4277 52.011 73.7824 52.375C74.1371 52.739 74.6364 52.921 75.2804 52.921C75.8497 52.921 76.2931 52.7857 76.6104 52.515C76.9371 52.235 77.1004 51.8804 77.1004 51.451C77.1004 51.1057 77.0211 50.8257 76.8624 50.611C76.7131 50.3964 76.5031 50.219 76.2324 50.079C75.9711 49.939 75.6677 49.813 75.3224 49.701C74.9771 49.589 74.6131 49.4677 74.2304 49.337C73.4744 49.085 72.9051 48.7584 72.5224 48.357C72.1491 47.9557 71.9624 47.4284 71.9624 46.775C71.9531 46.2244 72.0791 45.7437 72.3404 45.333C72.6111 44.9224 72.9844 44.605 73.4604 44.381C73.9457 44.1477 74.5104 44.031 75.1544 44.031C75.7891 44.031 76.3444 44.1477 76.8204 44.381C77.3057 44.6144 77.6837 44.941 77.9544 45.361C78.2251 45.7717 78.3651 46.2524 78.3744 46.803H76.8064C76.8064 46.551 76.7411 46.313 76.6104 46.089C76.4797 45.8557 76.2884 45.6644 76.0364 45.515C75.7844 45.3657 75.4764 45.291 75.1124 45.291C74.6457 45.2817 74.2584 45.3984 73.9504 45.641C73.6517 45.8837 73.5024 46.2197 73.5024 46.649C73.5024 47.0317 73.6144 47.3257 73.8384 47.531C74.0624 47.7364 74.3704 47.909 74.7624 48.049C75.1544 48.1797 75.6024 48.3337 76.1064 48.511C76.5917 48.6697 77.0257 48.861 77.4084 49.085C77.7911 49.309 78.0944 49.603 78.3184 49.967C78.5517 50.331 78.6684 50.793 78.6684 51.353C78.6684 51.8477 78.5424 52.3097 78.2904 52.739C78.0384 53.159 77.6604 53.5044 77.1564 53.775C76.6524 54.0364 76.0317 54.167 75.2944 54.167ZM83.4829 54.167C82.8015 54.167 82.1949 54.0177 81.6629 53.719C81.1402 53.411 80.7295 52.9864 80.4309 52.445C80.1322 51.9037 79.9829 51.2737 79.9829 50.555C79.9829 49.827 80.1275 49.1877 80.4169 48.637C80.7155 48.0864 81.1262 47.657 81.6489 47.349C82.1809 47.041 82.7969 46.887 83.4969 46.887C84.1782 46.887 84.7709 47.041 85.2749 47.349C85.7789 47.6477 86.1709 48.049 86.4509 48.553C86.7309 49.057 86.8709 49.6124 86.8709 50.219C86.8709 50.3124 86.8662 50.415 86.8569 50.527C86.8569 50.6297 86.8522 50.7464 86.8429 50.877H81.4389C81.4855 51.549 81.7049 52.0624 82.0969 52.417C82.4982 52.7624 82.9602 52.935 83.4829 52.935C83.9029 52.935 84.2529 52.8417 84.5329 52.655C84.8222 52.459 85.0369 52.1977 85.1769 51.871H86.6609C86.4742 52.5244 86.1009 53.0704 85.5409 53.509C84.9902 53.9477 84.3042 54.167 83.4829 54.167ZM83.4829 48.105C82.9882 48.105 82.5495 48.2544 82.1669 48.553C81.7842 48.8424 81.5509 49.281 81.4669 49.869H85.3869C85.3589 49.3277 85.1675 48.8984 84.8129 48.581C84.4582 48.2637 84.0149 48.105 83.4829 48.105ZM88.4107 53.999V43.919H89.8947V53.999H88.4107ZM91.7739 53.999V43.919H93.2579V53.999H91.7739ZM103.089 54.167C102.118 54.167 101.278 53.957 100.569 53.537C99.8686 53.1077 99.3272 52.515 98.9446 51.759C98.5619 50.9937 98.3706 50.1117 98.3706 49.113C98.3706 48.105 98.5619 47.223 98.9446 46.467C99.3272 45.7017 99.8686 45.1044 100.569 44.675C101.278 44.2457 102.118 44.031 103.089 44.031C104.237 44.031 105.175 44.311 105.903 44.871C106.631 45.431 107.093 46.215 107.289 47.223H105.637C105.506 46.6537 105.226 46.201 104.797 45.865C104.367 45.529 103.793 45.361 103.075 45.361C102.095 45.361 101.32 45.697 100.751 46.369C100.181 47.0317 99.8966 47.9464 99.8966 49.113C99.8966 50.2704 100.181 51.1804 100.751 51.843C101.32 52.5057 102.095 52.837 103.075 52.837C103.793 52.837 104.367 52.6784 104.797 52.361C105.226 52.0437 105.506 51.6097 105.637 51.059H107.289C107.093 52.0297 106.631 52.7904 105.903 53.341C105.175 53.8917 104.237 54.167 103.089 54.167ZM111.426 54.167C110.586 54.167 109.923 53.9057 109.438 53.383C108.962 52.8604 108.724 52.081 108.724 51.045V47.055H110.208V50.891C110.208 52.235 110.758 52.907 111.86 52.907C112.41 52.907 112.863 52.711 113.218 52.319C113.572 51.927 113.75 51.367 113.75 50.639V47.055H115.234V53.999H113.918L113.806 52.781C113.591 53.2104 113.274 53.551 112.854 53.803C112.443 54.0457 111.967 54.167 111.426 54.167ZM117.122 53.999V47.055H118.452L118.578 48.371C118.82 47.9137 119.156 47.5544 119.586 47.293C120.024 47.0224 120.552 46.887 121.168 46.887V48.441H120.762C120.351 48.441 119.982 48.511 119.656 48.651C119.338 48.7817 119.082 49.0104 118.886 49.337C118.699 49.6544 118.606 50.0977 118.606 50.667V53.999H117.122ZM122.44 53.999V47.055H123.77L123.896 48.371C124.139 47.9137 124.475 47.5544 124.904 47.293C125.343 47.0224 125.87 46.887 126.486 46.887V48.441H126.08C125.669 48.441 125.301 48.511 124.974 48.651C124.657 48.7817 124.4 49.0104 124.204 49.337C124.017 49.6544 123.924 50.0977 123.924 50.667V53.999H122.44ZM130.815 54.167C130.134 54.167 129.527 54.0177 128.995 53.719C128.472 53.411 128.062 52.9864 127.763 52.445C127.464 51.9037 127.315 51.2737 127.315 50.555C127.315 49.827 127.46 49.1877 127.749 48.637C128.048 48.0864 128.458 47.657 128.981 47.349C129.513 47.041 130.129 46.887 130.829 46.887C131.51 46.887 132.103 47.041 132.607 47.349C133.111 47.6477 133.503 48.049 133.783 48.553C134.063 49.057 134.203 49.6124 134.203 50.219C134.203 50.3124 134.198 50.415 134.189 50.527C134.189 50.6297 134.184 50.7464 134.175 50.877H128.771C128.818 51.549 129.037 52.0624 129.429 52.417C129.83 52.7624 130.292 52.935 130.815 52.935C131.235 52.935 131.585 52.8417 131.865 52.655C132.154 52.459 132.369 52.1977 132.509 51.871H133.993C133.806 52.5244 133.433 53.0704 132.873 53.509C132.322 53.9477 131.636 54.167 130.815 54.167ZM130.815 48.105C130.32 48.105 129.882 48.2544 129.499 48.553C129.116 48.8424 128.883 49.281 128.799 49.869H132.719C132.691 49.3277 132.5 48.8984 132.145 48.581C131.79 48.2637 131.347 48.105 130.815 48.105ZM135.743 53.999V47.055H137.059L137.171 48.273C137.385 47.8437 137.698 47.5077 138.109 47.265C138.529 47.013 139.009 46.887 139.551 46.887C140.391 46.887 141.049 47.1484 141.525 47.671C142.01 48.1937 142.253 48.973 142.253 50.009V53.999H140.783V50.163C140.783 48.819 140.232 48.147 139.131 48.147C138.58 48.147 138.123 48.343 137.759 48.735C137.404 49.127 137.227 49.687 137.227 50.415V53.999H135.743ZM147.291 54.167C146.609 54.167 145.998 54.013 145.457 53.705C144.925 53.397 144.505 52.9724 144.197 52.431C143.898 51.8804 143.749 51.2457 143.749 50.527C143.749 49.8084 143.898 49.1784 144.197 48.637C144.505 48.0864 144.925 47.657 145.457 47.349C145.998 47.041 146.609 46.887 147.291 46.887C148.149 46.887 148.868 47.111 149.447 47.559C150.035 48.007 150.413 48.6137 150.581 49.379H149.027C148.933 48.9964 148.728 48.6977 148.411 48.483C148.093 48.2684 147.72 48.161 147.291 48.161C146.927 48.161 146.591 48.2544 146.283 48.441C145.975 48.6184 145.727 48.8844 145.541 49.239C145.354 49.5844 145.261 50.0137 145.261 50.527C145.261 51.0404 145.354 51.4744 145.541 51.829C145.727 52.1744 145.975 52.4404 146.283 52.627C146.591 52.8137 146.927 52.907 147.291 52.907C147.72 52.907 148.093 52.7997 148.411 52.585C148.728 52.3704 148.933 52.067 149.027 51.675H150.581C150.422 52.4217 150.049 53.0237 149.461 53.481C148.873 53.9384 148.149 54.167 147.291 54.167ZM153.002 57.079L154.668 53.425H154.262L151.518 47.055H153.128L155.256 52.193L157.482 47.055H159.05L154.57 57.079H153.002Z" fill="#448A4B"/>
<path d="M14.828 74.999V69.047H15.74L15.812 69.911C16.004 69.591 16.26 69.343 16.58 69.167C16.9 68.991 17.26 68.903 17.66 68.903C18.132 68.903 18.536 68.999 18.872 69.191C19.216 69.383 19.48 69.675 19.664 70.067C19.872 69.707 20.156 69.423 20.516 69.215C20.884 69.007 21.28 68.903 21.704 68.903C22.416 68.903 22.984 69.119 23.408 69.551C23.832 69.975 24.044 70.631 24.044 71.519V74.999H23.048V71.627C23.048 71.011 22.924 70.547 22.676 70.235C22.428 69.923 22.072 69.767 21.608 69.767C21.128 69.767 20.728 69.955 20.408 70.331C20.096 70.699 19.94 71.227 19.94 71.915V74.999H18.932V71.627C18.932 71.011 18.808 70.547 18.56 70.235C18.312 69.923 17.956 69.767 17.492 69.767C17.02 69.767 16.624 69.955 16.304 70.331C15.992 70.699 15.836 71.227 15.836 71.915V74.999H14.828ZM27.5424 75.143C27.0464 75.143 26.6344 75.059 26.3064 74.891C25.9784 74.723 25.7344 74.499 25.5744 74.219C25.4144 73.939 25.3344 73.635 25.3344 73.307C25.3344 72.699 25.5664 72.231 26.0304 71.903C26.4944 71.575 27.1264 71.411 27.9264 71.411H29.5344V71.339C29.5344 70.819 29.3984 70.427 29.1264 70.163C28.8544 69.891 28.4904 69.755 28.0344 69.755C27.6424 69.755 27.3024 69.855 27.0144 70.055C26.7344 70.247 26.5584 70.531 26.4864 70.907H25.4544C25.4944 70.475 25.6384 70.111 25.8864 69.815C26.1424 69.519 26.4584 69.295 26.8344 69.143C27.2104 68.983 27.6104 68.903 28.0344 68.903C28.8664 68.903 29.4904 69.127 29.9064 69.575C30.3304 70.015 30.5424 70.603 30.5424 71.339V74.999H29.6424L29.5824 73.931C29.4144 74.267 29.1664 74.555 28.8384 74.795C28.5184 75.027 28.0864 75.143 27.5424 75.143ZM27.6984 74.291C28.0824 74.291 28.4104 74.191 28.6824 73.991C28.9624 73.791 29.1744 73.531 29.3184 73.211C29.4624 72.891 29.5344 72.555 29.5344 72.203V72.191H28.0104C27.4184 72.191 26.9984 72.295 26.7504 72.503C26.5104 72.703 26.3904 72.955 26.3904 73.259C26.3904 73.571 26.5024 73.823 26.7264 74.015C26.9584 74.199 27.2824 74.291 27.6984 74.291ZM32.0546 74.999V66.359H33.0626V71.555L35.4986 69.047H36.7346L34.0946 71.735L37.0706 74.999H35.7866L33.0626 71.915V74.999H32.0546ZM40.3438 75.143C39.7758 75.143 39.2718 75.015 38.8318 74.759C38.3918 74.495 38.0438 74.131 37.7878 73.667C37.5398 73.203 37.4158 72.655 37.4158 72.023C37.4158 71.399 37.5398 70.855 37.7878 70.391C38.0358 69.919 38.3798 69.555 38.8198 69.299C39.2678 69.035 39.7838 68.903 40.3678 68.903C40.9438 68.903 41.4398 69.035 41.8558 69.299C42.2798 69.555 42.6038 69.895 42.8278 70.319C43.0518 70.743 43.1638 71.199 43.1638 71.687C43.1638 71.775 43.1598 71.863 43.1518 71.951C43.1518 72.039 43.1518 72.139 43.1518 72.251H38.4118C38.4358 72.707 38.5398 73.087 38.7238 73.391C38.9158 73.687 39.1518 73.911 39.4318 74.063C39.7198 74.215 40.0238 74.291 40.3438 74.291C40.7598 74.291 41.1078 74.195 41.3878 74.003C41.6678 73.811 41.8718 73.551 41.9998 73.223H42.9958C42.8358 73.775 42.5278 74.235 42.0718 74.603C41.6238 74.963 41.0478 75.143 40.3438 75.143ZM40.3438 69.755C39.8638 69.755 39.4358 69.903 39.0598 70.199C38.6918 70.487 38.4798 70.911 38.4238 71.471H42.1678C42.1438 70.935 41.9598 70.515 41.6158 70.211C41.2718 69.907 40.8478 69.755 40.3438 69.755ZM49.9557 75.143C49.2437 75.143 48.6517 74.963 48.1797 74.603C47.7077 74.243 47.4317 73.755 47.3517 73.139H48.3837C48.4477 73.451 48.6117 73.723 48.8757 73.955C49.1477 74.179 49.5117 74.291 49.9677 74.291C50.3917 74.291 50.7037 74.203 50.9037 74.027C51.1037 73.843 51.2037 73.627 51.2037 73.379C51.2037 73.019 51.0717 72.779 50.8077 72.659C50.5517 72.539 50.1877 72.431 49.7157 72.335C49.3957 72.271 49.0757 72.179 48.7557 72.059C48.4357 71.939 48.1677 71.771 47.9517 71.555C47.7357 71.331 47.6277 71.039 47.6277 70.679C47.6277 70.159 47.8197 69.735 48.2037 69.407C48.5957 69.071 49.1237 68.903 49.7877 68.903C50.4197 68.903 50.9357 69.063 51.3357 69.383C51.7437 69.695 51.9797 70.143 52.0437 70.727H51.0477C51.0077 70.423 50.8757 70.187 50.6517 70.019C50.4357 69.843 50.1437 69.755 49.7757 69.755C49.4157 69.755 49.1357 69.831 48.9357 69.983C48.7437 70.135 48.6477 70.335 48.6477 70.583C48.6477 70.823 48.7717 71.011 49.0197 71.147C49.2757 71.283 49.6197 71.399 50.0517 71.495C50.4197 71.575 50.7677 71.675 51.0957 71.795C51.4317 71.907 51.7037 72.079 51.9117 72.311C52.1277 72.535 52.2357 72.863 52.2357 73.295C52.2437 73.831 52.0397 74.275 51.6237 74.627C51.2157 74.971 50.6597 75.143 49.9557 75.143ZM56.3517 75.143C55.7837 75.143 55.2797 75.015 54.8397 74.759C54.3997 74.495 54.0517 74.131 53.7957 73.667C53.5477 73.203 53.4237 72.655 53.4237 72.023C53.4237 71.399 53.5477 70.855 53.7957 70.391C54.0437 69.919 54.3877 69.555 54.8277 69.299C55.2757 69.035 55.7917 68.903 56.3757 68.903C56.9517 68.903 57.4477 69.035 57.8637 69.299C58.2877 69.555 58.6117 69.895 58.8357 70.319C59.0597 70.743 59.1717 71.199 59.1717 71.687C59.1717 71.775 59.1677 71.863 59.1597 71.951C59.1597 72.039 59.1597 72.139 59.1597 72.251H54.4197C54.4437 72.707 54.5477 73.087 54.7317 73.391C54.9237 73.687 55.1597 73.911 55.4397 74.063C55.7277 74.215 56.0317 74.291 56.3517 74.291C56.7677 74.291 57.1157 74.195 57.3957 74.003C57.6757 73.811 57.8797 73.551 58.0077 73.223H59.0037C58.8437 73.775 58.5357 74.235 58.0797 74.603C57.6317 74.963 57.0557 75.143 56.3517 75.143ZM56.3517 69.755C55.8717 69.755 55.4437 69.903 55.0677 70.199C54.6997 70.487 54.4877 70.911 54.4317 71.471H58.1757C58.1517 70.935 57.9677 70.515 57.6237 70.211C57.2797 69.907 56.8557 69.755 56.3517 69.755ZM62.4877 75.143C61.9917 75.143 61.5797 75.059 61.2517 74.891C60.9237 74.723 60.6797 74.499 60.5197 74.219C60.3597 73.939 60.2797 73.635 60.2797 73.307C60.2797 72.699 60.5117 72.231 60.9757 71.903C61.4397 71.575 62.0717 71.411 62.8717 71.411H64.4797V71.339C64.4797 70.819 64.3437 70.427 64.0717 70.163C63.7997 69.891 63.4357 69.755 62.9797 69.755C62.5877 69.755 62.2477 69.855 61.9597 70.055C61.6797 70.247 61.5037 70.531 61.4317 70.907H60.3997C60.4397 70.475 60.5837 70.111 60.8317 69.815C61.0877 69.519 61.4037 69.295 61.7797 69.143C62.1557 68.983 62.5557 68.903 62.9797 68.903C63.8117 68.903 64.4357 69.127 64.8517 69.575C65.2757 70.015 65.4877 70.603 65.4877 71.339V74.999H64.5877L64.5277 73.931C64.3597 74.267 64.1117 74.555 63.7837 74.795C63.4637 75.027 63.0317 75.143 62.4877 75.143ZM62.6437 74.291C63.0277 74.291 63.3557 74.191 63.6277 73.991C63.9077 73.791 64.1197 73.531 64.2637 73.211C64.4077 72.891 64.4797 72.555 64.4797 72.203V72.191H62.9557C62.3637 72.191 61.9437 72.295 61.6957 72.503C61.4557 72.703 61.3357 72.955 61.3357 73.259C61.3357 73.571 61.4477 73.823 61.6717 74.015C61.9037 74.199 62.2277 74.291 62.6437 74.291ZM66.9999 74.999V69.047H67.9119L67.9839 69.911C68.1759 69.591 68.4319 69.343 68.7519 69.167C69.0719 68.991 69.4319 68.903 69.8319 68.903C70.3039 68.903 70.7079 68.999 71.0439 69.191C71.3879 69.383 71.6519 69.675 71.8359 70.067C72.0439 69.707 72.3279 69.423 72.6879 69.215C73.0559 69.007 73.4519 68.903 73.8759 68.903C74.5879 68.903 75.1559 69.119 75.5799 69.551C76.0039 69.975 76.2159 70.631 76.2159 71.519V74.999H75.2199V71.627C75.2199 71.011 75.0959 70.547 74.8479 70.235C74.5999 69.923 74.2439 69.767 73.7799 69.767C73.2999 69.767 72.8999 69.955 72.5799 70.331C72.2679 70.699 72.1119 71.227 72.1119 71.915V74.999H71.1039V71.627C71.1039 71.011 70.9799 70.547 70.7319 70.235C70.4839 69.923 70.1279 69.767 69.6639 69.767C69.1919 69.767 68.7959 69.955 68.4759 70.331C68.1639 70.699 68.0079 71.227 68.0079 71.915V74.999H66.9999ZM77.7343 74.999V66.359H78.7423V74.999H77.7343ZM83.0704 75.143C82.5024 75.143 81.9984 75.015 81.5584 74.759C81.1184 74.495 80.7704 74.131 80.5144 73.667C80.2664 73.203 80.1424 72.655 80.1424 72.023C80.1424 71.399 80.2664 70.855 80.5144 70.391C80.7624 69.919 81.1064 69.555 81.5464 69.299C81.9944 69.035 82.5104 68.903 83.0944 68.903C83.6704 68.903 84.1664 69.035 84.5824 69.299C85.0064 69.555 85.3304 69.895 85.5544 70.319C85.7784 70.743 85.8904 71.199 85.8904 71.687C85.8904 71.775 85.8864 71.863 85.8784 71.951C85.8784 72.039 85.8784 72.139 85.8784 72.251H81.1384C81.1624 72.707 81.2664 73.087 81.4504 73.391C81.6424 73.687 81.8784 73.911 82.1584 74.063C82.4464 74.215 82.7504 74.291 83.0704 74.291C83.4864 74.291 83.8344 74.195 84.1144 74.003C84.3944 73.811 84.5984 73.551 84.7264 73.223H85.7224C85.5624 73.775 85.2544 74.235 84.7984 74.603C84.3504 74.963 83.7744 75.143 83.0704 75.143ZM83.0704 69.755C82.5904 69.755 82.1624 69.903 81.7864 70.199C81.4184 70.487 81.2064 70.911 81.1504 71.471H84.8944C84.8704 70.935 84.6864 70.515 84.3424 70.211C83.9984 69.907 83.5744 69.755 83.0704 69.755ZM89.5064 75.143C88.7944 75.143 88.2024 74.963 87.7304 74.603C87.2584 74.243 86.9824 73.755 86.9024 73.139H87.9344C87.9984 73.451 88.1624 73.723 88.4264 73.955C88.6984 74.179 89.0624 74.291 89.5184 74.291C89.9424 74.291 90.2544 74.203 90.4544 74.027C90.6544 73.843 90.7544 73.627 90.7544 73.379C90.7544 73.019 90.6224 72.779 90.3584 72.659C90.1024 72.539 89.7384 72.431 89.2664 72.335C88.9464 72.271 88.6264 72.179 88.3064 72.059C87.9864 71.939 87.7184 71.771 87.5024 71.555C87.2864 71.331 87.1784 71.039 87.1784 70.679C87.1784 70.159 87.3704 69.735 87.7544 69.407C88.1464 69.071 88.6744 68.903 89.3384 68.903C89.9704 68.903 90.4864 69.063 90.8864 69.383C91.2944 69.695 91.5304 70.143 91.5944 70.727H90.5984C90.5584 70.423 90.4264 70.187 90.2024 70.019C89.9864 69.843 89.6944 69.755 89.3264 69.755C88.9664 69.755 88.6864 69.831 88.4864 69.983C88.2944 70.135 88.1984 70.335 88.1984 70.583C88.1984 70.823 88.3224 71.011 88.5704 71.147C88.8264 71.283 89.1704 71.399 89.6024 71.495C89.9704 71.575 90.3184 71.675 90.6464 71.795C90.9824 71.907 91.2544 72.079 91.4624 72.311C91.6784 72.535 91.7864 72.863 91.7864 73.295C91.7944 73.831 91.5904 74.275 91.1744 74.627C90.7664 74.971 90.2104 75.143 89.5064 75.143ZM95.5064 75.143C94.7944 75.143 94.2024 74.963 93.7304 74.603C93.2584 74.243 92.9824 73.755 92.9024 73.139H93.9344C93.9984 73.451 94.1624 73.723 94.4264 73.955C94.6984 74.179 95.0624 74.291 95.5184 74.291C95.9424 74.291 96.2544 74.203 96.4544 74.027C96.6544 73.843 96.7544 73.627 96.7544 73.379C96.7544 73.019 96.6224 72.779 96.3584 72.659C96.1024 72.539 95.7384 72.431 95.2664 72.335C94.9464 72.271 94.6264 72.179 94.3064 72.059C93.9864 71.939 93.7184 71.771 93.5024 71.555C93.2864 71.331 93.1784 71.039 93.1784 70.679C93.1784 70.159 93.3704 69.735 93.7544 69.407C94.1464 69.071 94.6744 68.903 95.3384 68.903C95.9704 68.903 96.4864 69.063 96.8864 69.383C97.2944 69.695 97.5304 70.143 97.5944 70.727H96.5984C96.5584 70.423 96.4264 70.187 96.2024 70.019C95.9864 69.843 95.6944 69.755 95.3264 69.755C94.9664 69.755 94.6864 69.831 94.4864 69.983C94.2944 70.135 94.1984 70.335 94.1984 70.583C94.1984 70.823 94.3224 71.011 94.5704 71.147C94.8264 71.283 95.1704 71.399 95.6024 71.495C95.9704 71.575 96.3184 71.675 96.6464 71.795C96.9824 71.907 97.2544 72.079 97.4624 72.311C97.6784 72.535 97.7864 72.863 97.7864 73.295C97.7944 73.831 97.5904 74.275 97.1744 74.627C96.7664 74.971 96.2104 75.143 95.5064 75.143ZM104.382 75.143C103.886 75.143 103.474 75.059 103.146 74.891C102.818 74.723 102.574 74.499 102.414 74.219C102.254 73.939 102.174 73.635 102.174 73.307C102.174 72.699 102.406 72.231 102.87 71.903C103.334 71.575 103.966 71.411 104.766 71.411H106.374V71.339C106.374 70.819 106.238 70.427 105.966 70.163C105.694 69.891 105.33 69.755 104.874 69.755C104.482 69.755 104.142 69.855 103.854 70.055C103.574 70.247 103.398 70.531 103.326 70.907H102.294C102.334 70.475 102.478 70.111 102.726 69.815C102.982 69.519 103.298 69.295 103.674 69.143C104.05 68.983 104.45 68.903 104.874 68.903C105.706 68.903 106.33 69.127 106.746 69.575C107.17 70.015 107.382 70.603 107.382 71.339V74.999H106.482L106.422 73.931C106.254 74.267 106.006 74.555 105.678 74.795C105.358 75.027 104.926 75.143 104.382 75.143ZM104.538 74.291C104.922 74.291 105.25 74.191 105.522 73.991C105.802 73.791 106.014 73.531 106.158 73.211C106.302 72.891 106.374 72.555 106.374 72.203V72.191H104.85C104.258 72.191 103.838 72.295 103.59 72.503C103.35 72.703 103.23 72.955 103.23 73.259C103.23 73.571 103.342 73.823 103.566 74.015C103.798 74.199 104.122 74.291 104.538 74.291ZM108.894 74.999V69.047H109.806L109.866 70.115C110.058 69.739 110.334 69.443 110.694 69.227C111.054 69.011 111.462 68.903 111.918 68.903C112.622 68.903 113.182 69.119 113.598 69.551C114.022 69.975 114.234 70.631 114.234 71.519V74.999H113.226V71.627C113.226 70.387 112.714 69.767 111.69 69.767C111.178 69.767 110.75 69.955 110.406 70.331C110.07 70.699 109.902 71.227 109.902 71.915V74.999H108.894ZM118.462 75.143C117.87 75.143 117.35 75.007 116.902 74.735C116.462 74.463 116.118 74.091 115.87 73.619C115.63 73.147 115.51 72.611 115.51 72.011C115.51 71.411 115.634 70.879 115.882 70.415C116.13 69.943 116.474 69.575 116.914 69.311C117.354 69.039 117.874 68.903 118.474 68.903C118.962 68.903 119.394 69.003 119.77 69.203C120.146 69.403 120.438 69.683 120.646 70.043V66.359H121.654V74.999H120.742L120.646 74.015C120.454 74.303 120.178 74.563 119.818 74.795C119.458 75.027 119.006 75.143 118.462 75.143ZM118.57 74.267C118.97 74.267 119.322 74.175 119.626 73.991C119.938 73.799 120.178 73.535 120.346 73.199C120.522 72.863 120.61 72.471 120.61 72.023C120.61 71.575 120.522 71.183 120.346 70.847C120.178 70.511 119.938 70.251 119.626 70.067C119.322 69.875 118.97 69.779 118.57 69.779C118.178 69.779 117.826 69.875 117.514 70.067C117.21 70.251 116.97 70.511 116.794 70.847C116.626 71.183 116.542 71.575 116.542 72.023C116.542 72.471 116.626 72.863 116.794 73.199C116.97 73.535 117.21 73.799 117.514 73.991C117.826 74.175 118.178 74.267 118.57 74.267ZM128.753 75.143C128.041 75.143 127.449 74.963 126.977 74.603C126.505 74.243 126.229 73.755 126.149 73.139H127.181C127.245 73.451 127.409 73.723 127.673 73.955C127.945 74.179 128.309 74.291 128.765 74.291C129.189 74.291 129.501 74.203 129.701 74.027C129.901 73.843 130.001 73.627 130.001 73.379C130.001 73.019 129.869 72.779 129.605 72.659C129.349 72.539 128.985 72.431 128.513 72.335C128.193 72.271 127.873 72.179 127.553 72.059C127.233 71.939 126.965 71.771 126.749 71.555C126.533 71.331 126.425 71.039 126.425 70.679C126.425 70.159 126.617 69.735 127.001 69.407C127.393 69.071 127.921 68.903 128.585 68.903C129.217 68.903 129.733 69.063 130.133 69.383C130.541 69.695 130.777 70.143 130.841 70.727H129.845C129.805 70.423 129.673 70.187 129.449 70.019C129.233 69.843 128.941 69.755 128.573 69.755C128.213 69.755 127.933 69.831 127.733 69.983C127.541 70.135 127.445 70.335 127.445 70.583C127.445 70.823 127.569 71.011 127.817 71.147C128.073 71.283 128.417 71.399 128.849 71.495C129.217 71.575 129.565 71.675 129.893 71.795C130.229 71.907 130.501 72.079 130.709 72.311C130.925 72.535 131.033 72.863 131.033 73.295C131.041 73.831 130.837 74.275 130.421 74.627C130.013 74.971 129.457 75.143 128.753 75.143ZM135.149 75.143C134.581 75.143 134.077 75.015 133.637 74.759C133.197 74.495 132.849 74.131 132.593 73.667C132.345 73.203 132.221 72.655 132.221 72.023C132.221 71.399 132.345 70.855 132.593 70.391C132.841 69.919 133.185 69.555 133.625 69.299C134.073 69.035 134.589 68.903 135.173 68.903C135.749 68.903 136.245 69.035 136.661 69.299C137.085 69.555 137.409 69.895 137.633 70.319C137.857 70.743 137.969 71.199 137.969 71.687C137.969 71.775 137.965 71.863 137.957 71.951C137.957 72.039 137.957 72.139 137.957 72.251H133.217C133.241 72.707 133.345 73.087 133.529 73.391C133.721 73.687 133.957 73.911 134.237 74.063C134.525 74.215 134.829 74.291 135.149 74.291C135.565 74.291 135.913 74.195 136.193 74.003C136.473 73.811 136.677 73.551 136.805 73.223H137.801C137.641 73.775 137.333 74.235 136.877 74.603C136.429 74.963 135.853 75.143 135.149 75.143ZM135.149 69.755C134.669 69.755 134.241 69.903 133.865 70.199C133.497 70.487 133.285 70.911 133.229 71.471H136.973C136.949 70.935 136.765 70.515 136.421 70.211C136.077 69.907 135.653 69.755 135.149 69.755ZM142.041 75.143C141.473 75.143 140.961 75.015 140.505 74.759C140.057 74.495 139.701 74.131 139.437 73.667C139.181 73.195 139.053 72.647 139.053 72.023C139.053 71.399 139.181 70.855 139.437 70.391C139.701 69.919 140.057 69.555 140.505 69.299C140.961 69.035 141.473 68.903 142.041 68.903C142.745 68.903 143.337 69.087 143.817 69.455C144.305 69.823 144.613 70.315 144.741 70.931H143.709C143.629 70.563 143.433 70.279 143.121 70.079C142.809 69.871 142.445 69.767 142.029 69.767C141.693 69.767 141.377 69.851 141.081 70.019C140.785 70.187 140.545 70.439 140.361 70.775C140.177 71.111 140.085 71.527 140.085 72.023C140.085 72.519 140.177 72.935 140.361 73.271C140.545 73.607 140.785 73.863 141.081 74.039C141.377 74.207 141.693 74.291 142.029 74.291C142.445 74.291 142.809 74.191 143.121 73.991C143.433 73.783 143.629 73.491 143.709 73.115H144.741C144.621 73.715 144.317 74.203 143.829 74.579C143.341 74.955 142.745 75.143 142.041 75.143ZM148.32 75.143C147.616 75.143 147.056 74.931 146.64 74.507C146.224 74.075 146.016 73.415 146.016 72.527V69.047H147.024V72.419C147.024 73.659 147.532 74.279 148.548 74.279C149.068 74.279 149.496 74.095 149.832 73.727C150.176 73.351 150.348 72.819 150.348 72.131V69.047H151.356V74.999H150.444L150.372 73.931C150.188 74.307 149.912 74.603 149.544 74.819C149.184 75.035 148.776 75.143 148.32 75.143ZM153.016 74.999V69.047H153.928L154.012 70.187C154.196 69.795 154.476 69.483 154.852 69.251C155.228 69.019 155.692 68.903 156.244 68.903V69.959H155.968C155.616 69.959 155.292 70.023 154.996 70.151C154.7 70.271 154.464 70.479 154.288 70.775C154.112 71.071 154.024 71.479 154.024 71.999V74.999H153.016ZM159.828 75.143C159.26 75.143 158.756 75.015 158.316 74.759C157.876 74.495 157.528 74.131 157.272 73.667C157.024 73.203 156.9 72.655 156.9 72.023C156.9 71.399 157.024 70.855 157.272 70.391C157.52 69.919 157.864 69.555 158.304 69.299C158.752 69.035 159.268 68.903 159.852 68.903C160.428 68.903 160.924 69.035 161.34 69.299C161.764 69.555 162.088 69.895 162.312 70.319C162.536 70.743 162.648 71.199 162.648 71.687C162.648 71.775 162.644 71.863 162.636 71.951C162.636 72.039 162.636 72.139 162.636 72.251H157.896C157.92 72.707 158.024 73.087 158.208 73.391C158.4 73.687 158.636 73.911 158.916 74.063C159.204 74.215 159.508 74.291 159.828 74.291C160.244 74.291 160.592 74.195 160.872 74.003C161.152 73.811 161.356 73.551 161.484 73.223H162.48C162.32 73.775 162.012 74.235 161.556 74.603C161.108 74.963 160.532 75.143 159.828 75.143ZM159.828 69.755C159.348 69.755 158.92 69.903 158.544 70.199C158.176 70.487 157.964 70.911 157.908 71.471H161.652C161.628 70.935 161.444 70.515 161.1 70.211C160.756 69.907 160.332 69.755 159.828 69.755ZM17.564 91.143C16.996 91.143 16.484 91.015 16.028 90.759C15.58 90.495 15.224 90.131 14.96 89.667C14.704 89.195 14.576 88.647 14.576 88.023C14.576 87.399 14.704 86.855 14.96 86.391C15.224 85.919 15.58 85.555 16.028 85.299C16.484 85.035 16.996 84.903 17.564 84.903C18.268 84.903 18.86 85.087 19.34 85.455C19.828 85.823 20.136 86.315 20.264 86.931H19.232C19.152 86.563 18.956 86.279 18.644 86.079C18.332 85.871 17.968 85.767 17.552 85.767C17.216 85.767 16.9 85.851 16.604 86.019C16.308 86.187 16.068 86.439 15.884 86.775C15.7 87.111 15.608 87.527 15.608 88.023C15.608 88.519 15.7 88.935 15.884 89.271C16.068 89.607 16.308 89.863 16.604 90.039C16.9 90.207 17.216 90.291 17.552 90.291C17.968 90.291 18.332 90.191 18.644 89.991C18.956 89.783 19.152 89.491 19.232 89.115H20.264C20.144 89.715 19.84 90.203 19.352 90.579C18.864 90.955 18.268 91.143 17.564 91.143ZM23.8438 91.143C23.1398 91.143 22.5798 90.931 22.1638 90.507C21.7478 90.075 21.5398 89.415 21.5398 88.527V85.047H22.5478V88.419C22.5478 89.659 23.0558 90.279 24.0718 90.279C24.5918 90.279 25.0198 90.095 25.3558 89.727C25.6998 89.351 25.8718 88.819 25.8718 88.131V85.047H26.8798V90.999H25.9678L25.8958 89.931C25.7118 90.307 25.4358 90.603 25.0678 90.819C24.7078 91.035 24.2998 91.143 23.8438 91.143ZM28.5389 90.999V85.047H29.4509L29.5349 86.187C29.7189 85.795 29.9989 85.483 30.3749 85.251C30.7509 85.019 31.2149 84.903 31.7669 84.903V85.959H31.4909C31.1389 85.959 30.8149 86.023 30.5189 86.151C30.2229 86.271 29.9869 86.479 29.8109 86.775C29.6349 87.071 29.5469 87.479 29.5469 87.999V90.999H28.5389ZM32.8983 90.999V85.047H33.8103L33.8943 86.187C34.0783 85.795 34.3583 85.483 34.7343 85.251C35.1103 85.019 35.5743 84.903 36.1263 84.903V85.959H35.8503C35.4983 85.959 35.1743 86.023 34.8783 86.151C34.5823 86.271 34.3463 86.479 34.1703 86.775C33.9943 87.071 33.9063 87.479 33.9063 87.999V90.999H32.8983ZM39.711 91.143C39.143 91.143 38.639 91.015 38.199 90.759C37.759 90.495 37.411 90.131 37.155 89.667C36.907 89.203 36.783 88.655 36.783 88.023C36.783 87.399 36.907 86.855 37.155 86.391C37.403 85.919 37.747 85.555 38.187 85.299C38.635 85.035 39.151 84.903 39.735 84.903C40.311 84.903 40.807 85.035 41.223 85.299C41.647 85.555 41.971 85.895 42.195 86.319C42.419 86.743 42.531 87.199 42.531 87.687C42.531 87.775 42.527 87.863 42.519 87.951C42.519 88.039 42.519 88.139 42.519 88.251H37.779C37.803 88.707 37.907 89.087 38.091 89.391C38.283 89.687 38.519 89.911 38.799 90.063C39.087 90.215 39.391 90.291 39.711 90.291C40.127 90.291 40.475 90.195 40.755 90.003C41.035 89.811 41.239 89.551 41.367 89.223H42.363C42.203 89.775 41.895 90.235 41.439 90.603C40.991 90.963 40.415 91.143 39.711 91.143ZM39.711 85.755C39.231 85.755 38.803 85.903 38.427 86.199C38.059 86.487 37.847 86.911 37.791 87.471H41.535C41.511 86.935 41.327 86.515 40.983 86.211C40.639 85.907 40.215 85.755 39.711 85.755ZM43.8671 90.999V85.047H44.7791L44.8391 86.115C45.0311 85.739 45.3071 85.443 45.6671 85.227C46.0271 85.011 46.4351 84.903 46.8911 84.903C47.5951 84.903 48.1551 85.119 48.5711 85.551C48.9951 85.975 49.2071 86.631 49.2071 87.519V90.999H48.1991V87.627C48.1991 86.387 47.6871 85.767 46.6631 85.767C46.1511 85.767 45.7231 85.955 45.3791 86.331C45.0431 86.699 44.8751 87.227 44.8751 87.915V90.999H43.8671ZM53.4703 91.143C52.9023 91.143 52.3903 91.015 51.9343 90.759C51.4863 90.495 51.1303 90.131 50.8663 89.667C50.6103 89.195 50.4823 88.647 50.4823 88.023C50.4823 87.399 50.6103 86.855 50.8663 86.391C51.1303 85.919 51.4863 85.555 51.9343 85.299C52.3903 85.035 52.9023 84.903 53.4703 84.903C54.1743 84.903 54.7663 85.087 55.2463 85.455C55.7343 85.823 56.0423 86.315 56.1703 86.931H55.1383C55.0583 86.563 54.8623 86.279 54.5503 86.079C54.2383 85.871 53.8743 85.767 53.4583 85.767C53.1223 85.767 52.8063 85.851 52.5103 86.019C52.2143 86.187 51.9743 86.439 51.7903 86.775C51.6063 87.111 51.5143 87.527 51.5143 88.023C51.5143 88.519 51.6063 88.935 51.7903 89.271C51.9743 89.607 52.2143 89.863 52.5103 90.039C52.8063 90.207 53.1223 90.291 53.4583 90.291C53.8743 90.291 54.2383 90.191 54.5503 89.991C54.8623 89.783 55.0583 89.491 55.1383 89.115H56.1703C56.0503 89.715 55.7463 90.203 55.2583 90.579C54.7703 90.955 54.1743 91.143 53.4703 91.143ZM58.226 93.639L59.702 90.423H59.354L56.99 85.047H58.082L60.05 89.679L62.138 85.047H63.182L59.282 93.639H58.226ZM70.0978 91.143C69.5298 91.143 69.0258 91.015 68.5858 90.759C68.1458 90.495 67.7978 90.131 67.5418 89.667C67.2938 89.203 67.1698 88.655 67.1698 88.023C67.1698 87.399 67.2938 86.855 67.5418 86.391C67.7898 85.919 68.1338 85.555 68.5738 85.299C69.0218 85.035 69.5378 84.903 70.1217 84.903C70.6978 84.903 71.1938 85.035 71.6098 85.299C72.0338 85.555 72.3578 85.895 72.5818 86.319C72.8058 86.743 72.9178 87.199 72.9178 87.687C72.9178 87.775 72.9138 87.863 72.9058 87.951C72.9058 88.039 72.9058 88.139 72.9058 88.251H68.1658C68.1898 88.707 68.2938 89.087 68.4778 89.391C68.6698 89.687 68.9058 89.911 69.1858 90.063C69.4738 90.215 69.7778 90.291 70.0978 90.291C70.5138 90.291 70.8618 90.195 71.1418 90.003C71.4218 89.811 71.6258 89.551 71.7538 89.223H72.7498C72.5898 89.775 72.2818 90.235 71.8258 90.603C71.3778 90.963 70.8018 91.143 70.0978 91.143ZM70.0978 85.755C69.6178 85.755 69.1898 85.903 68.8138 86.199C68.4458 86.487 68.2338 86.911 68.1777 87.471H71.9218C71.8978 86.935 71.7138 86.515 71.3698 86.211C71.0258 85.907 70.6018 85.755 70.0978 85.755ZM73.3725 90.999L75.4365 88.023L73.3725 85.047H74.4645L76.1325 87.507L77.8125 85.047H78.8925L76.8285 88.023L78.8925 90.999H77.8125L76.1325 88.539L74.4645 90.999H73.3725ZM82.4273 91.143C81.8593 91.143 81.3473 91.015 80.8913 90.759C80.4433 90.495 80.0873 90.131 79.8233 89.667C79.5673 89.195 79.4393 88.647 79.4393 88.023C79.4393 87.399 79.5673 86.855 79.8233 86.391C80.0873 85.919 80.4433 85.555 80.8913 85.299C81.3473 85.035 81.8593 84.903 82.4273 84.903C83.1313 84.903 83.7233 85.087 84.2033 85.455C84.6913 85.823 84.9993 86.315 85.1273 86.931H84.0953C84.0153 86.563 83.8193 86.279 83.5073 86.079C83.1953 85.871 82.8313 85.767 82.4153 85.767C82.0793 85.767 81.7633 85.851 81.4673 86.019C81.1713 86.187 80.9313 86.439 80.7473 86.775C80.5633 87.111 80.4713 87.527 80.4713 88.023C80.4713 88.519 80.5633 88.935 80.7473 89.271C80.9313 89.607 81.1713 89.863 81.4673 90.039C81.7633 90.207 82.0793 90.291 82.4153 90.291C82.8313 90.291 83.1953 90.191 83.5073 89.991C83.8193 89.783 84.0153 89.491 84.0953 89.115H85.1273C85.0073 89.715 84.7033 90.203 84.2153 90.579C83.7273 90.955 83.1313 91.143 82.4273 91.143ZM86.535 90.999V82.359H87.543V86.067C87.743 85.699 88.027 85.415 88.395 85.215C88.763 85.007 89.163 84.903 89.595 84.903C90.283 84.903 90.835 85.119 91.251 85.551C91.667 85.975 91.875 86.631 91.875 87.519V90.999H90.879V87.627C90.879 86.387 90.379 85.767 89.379 85.767C88.859 85.767 88.423 85.955 88.071 86.331C87.719 86.699 87.543 87.227 87.543 87.915V90.999H86.535ZM95.3822 91.143C94.8862 91.143 94.4742 91.059 94.1462 90.891C93.8182 90.723 93.5742 90.499 93.4142 90.219C93.2542 89.939 93.1742 89.635 93.1742 89.307C93.1742 88.699 93.4062 88.231 93.8702 87.903C94.3342 87.575 94.9662 87.411 95.7662 87.411H97.3742V87.339C97.3742 86.819 97.2382 86.427 96.9662 86.163C96.6942 85.891 96.3302 85.755 95.8742 85.755C95.4822 85.755 95.1422 85.855 94.8542 86.055C94.5742 86.247 94.3982 86.531 94.3262 86.907H93.2942C93.3342 86.475 93.4782 86.111 93.7262 85.815C93.9822 85.519 94.2982 85.295 94.6742 85.143C95.0502 84.983 95.4502 84.903 95.8742 84.903C96.7062 84.903 97.3302 85.127 97.7462 85.575C98.1702 86.015 98.3822 86.603 98.3822 87.339V90.999H97.4822L97.4222 89.931C97.2542 90.267 97.0062 90.555 96.6782 90.795C96.3582 91.027 95.9262 91.143 95.3822 91.143ZM95.5382 90.291C95.9222 90.291 96.2502 90.191 96.5222 89.991C96.8022 89.791 97.0142 89.531 97.1582 89.211C97.3022 88.891 97.3742 88.555 97.3742 88.203V88.191H95.8502C95.2582 88.191 94.8382 88.295 94.5902 88.503C94.3502 88.703 94.2302 88.955 94.2302 89.259C94.2302 89.571 94.3422 89.823 94.5662 90.015C94.7982 90.199 95.1222 90.291 95.5382 90.291ZM99.8944 90.999V85.047H100.806L100.866 86.115C101.058 85.739 101.334 85.443 101.694 85.227C102.054 85.011 102.462 84.903 102.918 84.903C103.622 84.903 104.182 85.119 104.598 85.551C105.022 85.975 105.234 86.631 105.234 87.519V90.999H104.226V87.627C104.226 86.387 103.714 85.767 102.69 85.767C102.178 85.767 101.75 85.955 101.406 86.331C101.07 86.699 100.902 87.227 100.902 87.915V90.999H99.8944ZM109.114 89.127C108.778 89.127 108.47 89.083 108.19 88.995L107.59 89.559C107.678 89.623 107.786 89.679 107.914 89.727C108.05 89.767 108.242 89.807 108.49 89.847C108.738 89.879 109.086 89.915 109.534 89.955C110.334 90.011 110.906 90.195 111.25 90.507C111.594 90.819 111.766 91.227 111.766 91.731C111.766 92.075 111.67 92.403 111.478 92.715C111.294 93.027 111.006 93.283 110.614 93.483C110.23 93.683 109.734 93.783 109.126 93.783C108.59 93.783 108.114 93.711 107.698 93.567C107.282 93.431 106.958 93.219 106.726 92.931C106.494 92.651 106.378 92.295 106.378 91.863C106.378 91.639 106.438 91.395 106.558 91.131C106.678 90.875 106.902 90.631 107.23 90.399C107.054 90.327 106.902 90.251 106.774 90.171C106.654 90.083 106.542 89.987 106.438 89.883V89.607L107.458 88.599C106.986 88.199 106.75 87.671 106.75 87.015C106.75 86.623 106.842 86.267 107.026 85.947C107.21 85.627 107.478 85.375 107.83 85.191C108.182 84.999 108.61 84.903 109.114 84.903C109.458 84.903 109.77 84.951 110.05 85.047H112.246V85.803L111.13 85.851C111.362 86.187 111.478 86.575 111.478 87.015C111.478 87.407 111.382 87.763 111.19 88.083C111.006 88.403 110.738 88.659 110.386 88.851C110.042 89.035 109.618 89.127 109.114 89.127ZM109.114 88.299C109.538 88.299 109.874 88.191 110.122 87.975C110.378 87.751 110.506 87.431 110.506 87.015C110.506 86.607 110.378 86.295 110.122 86.079C109.874 85.855 109.538 85.743 109.114 85.743C108.682 85.743 108.338 85.855 108.082 86.079C107.834 86.295 107.71 86.607 107.71 87.015C107.71 87.431 107.834 87.751 108.082 87.975C108.338 88.191 108.682 88.299 109.114 88.299ZM107.362 91.767C107.362 92.167 107.53 92.463 107.866 92.655C108.202 92.855 108.622 92.955 109.126 92.955C109.622 92.955 110.018 92.847 110.314 92.631C110.618 92.415 110.77 92.127 110.77 91.767C110.77 91.511 110.666 91.287 110.458 91.095C110.25 90.911 109.866 90.803 109.306 90.771C108.866 90.739 108.486 90.699 108.166 90.651C107.838 90.827 107.622 91.015 107.518 91.215C107.414 91.423 107.362 91.607 107.362 91.767ZM115.824 91.143C115.256 91.143 114.752 91.015 114.312 90.759C113.872 90.495 113.524 90.131 113.268 89.667C113.02 89.203 112.896 88.655 112.896 88.023C112.896 87.399 113.02 86.855 113.268 86.391C113.516 85.919 113.86 85.555 114.3 85.299C114.748 85.035 115.264 84.903 115.848 84.903C116.424 84.903 116.92 85.035 117.336 85.299C117.76 85.555 118.084 85.895 118.308 86.319C118.532 86.743 118.644 87.199 118.644 87.687C118.644 87.775 118.64 87.863 118.632 87.951C118.632 88.039 118.632 88.139 118.632 88.251H113.892C113.916 88.707 114.02 89.087 114.204 89.391C114.396 89.687 114.632 89.911 114.912 90.063C115.2 90.215 115.504 90.291 115.824 90.291C116.24 90.291 116.588 90.195 116.868 90.003C117.148 89.811 117.352 89.551 117.48 89.223H118.476C118.316 89.775 118.008 90.235 117.552 90.603C117.104 90.963 116.528 91.143 115.824 91.143ZM115.824 85.755C115.344 85.755 114.916 85.903 114.54 86.199C114.172 86.487 113.96 86.911 113.904 87.471H117.648C117.624 86.935 117.44 86.515 117.096 86.211C116.752 85.907 116.328 85.755 115.824 85.755ZM124.356 90.999L122.616 85.047H123.624L124.884 89.715L126.276 85.047H127.416L128.82 89.715L130.068 85.047H131.088L129.348 90.999H128.316L126.852 86.091L125.388 90.999H124.356ZM132.815 83.727C132.615 83.727 132.447 83.663 132.311 83.535C132.183 83.399 132.119 83.231 132.119 83.031C132.119 82.839 132.183 82.679 132.311 82.551C132.447 82.423 132.615 82.359 132.815 82.359C133.007 82.359 133.171 82.423 133.307 82.551C133.443 82.679 133.511 82.839 133.511 83.031C133.511 83.231 133.443 83.399 133.307 83.535C133.171 83.663 133.007 83.727 132.815 83.727ZM132.311 90.999V85.047H133.319V90.999H132.311ZM137.426 90.999C136.882 90.999 136.454 90.867 136.142 90.603C135.83 90.339 135.674 89.863 135.674 89.175V85.899H134.642V85.047H135.674L135.806 83.619H136.682V85.047H138.434V85.899H136.682V89.175C136.682 89.551 136.758 89.807 136.91 89.943C137.062 90.071 137.33 90.135 137.714 90.135H138.338V90.999H137.426ZM139.715 90.999V82.359H140.723V86.067C140.923 85.699 141.207 85.415 141.575 85.215C141.943 85.007 142.343 84.903 142.775 84.903C143.463 84.903 144.015 85.119 144.431 85.551C144.847 85.975 145.055 86.631 145.055 87.519V90.999H144.059V87.627C144.059 86.387 143.559 85.767 142.559 85.767C142.039 85.767 141.603 85.955 141.251 86.331C140.899 86.699 140.723 87.227 140.723 87.915V90.999H139.715ZM149.818 90.999V82.599H152.53C153.186 82.599 153.722 82.707 154.138 82.923C154.554 83.139 154.862 83.435 155.062 83.811C155.262 84.187 155.362 84.603 155.362 85.059C155.362 85.587 155.218 86.063 154.93 86.487C154.65 86.911 154.21 87.211 153.61 87.387L155.446 90.999H154.258L152.554 87.531H152.482H150.826V90.999H149.818ZM150.826 86.739H152.458C153.106 86.739 153.578 86.583 153.874 86.271C154.17 85.959 154.318 85.559 154.318 85.071C154.318 84.575 154.17 84.183 153.874 83.895C153.586 83.599 153.11 83.451 152.446 83.451H150.826V86.739ZM159.184 91.143C158.616 91.143 158.112 91.015 157.672 90.759C157.232 90.495 156.884 90.131 156.628 89.667C156.38 89.203 156.256 88.655 156.256 88.023C156.256 87.399 156.38 86.855 156.628 86.391C156.876 85.919 157.22 85.555 157.66 85.299C158.108 85.035 158.624 84.903 159.208 84.903C159.784 84.903 160.28 85.035 160.696 85.299C161.12 85.555 161.444 85.895 161.668 86.319C161.892 86.743 162.004 87.199 162.004 87.687C162.004 87.775 162 87.863 161.992 87.951C161.992 88.039 161.992 88.139 161.992 88.251H157.252C157.276 88.707 157.38 89.087 157.564 89.391C157.756 89.687 157.992 89.911 158.272 90.063C158.56 90.215 158.864 90.291 159.184 90.291C159.6 90.291 159.948 90.195 160.228 90.003C160.508 89.811 160.712 89.551 160.84 89.223H161.836C161.676 89.775 161.368 90.235 160.912 90.603C160.464 90.963 159.888 91.143 159.184 91.143ZM159.184 85.755C158.704 85.755 158.276 85.903 157.9 86.199C157.532 86.487 157.32 86.911 157.264 87.471H161.008C160.984 86.935 160.8 86.515 160.456 86.211C160.112 85.907 159.688 85.755 159.184 85.755ZM164.821 90.999L162.565 85.047H163.621L165.409 90.027L167.209 85.047H168.241L165.985 90.999H164.821ZM171.079 90.999L168.823 85.047H169.879L171.667 90.027L173.467 85.047H174.499L172.243 90.999H171.079ZM177.992 91.143C177.424 91.143 176.92 91.015 176.48 90.759C176.04 90.495 175.692 90.131 175.436 89.667C175.188 89.203 175.064 88.655 175.064 88.023C175.064 87.399 175.188 86.855 175.436 86.391C175.684 85.919 176.028 85.555 176.468 85.299C176.916 85.035 177.432 84.903 178.016 84.903C178.592 84.903 179.088 85.035 179.504 85.299C179.928 85.555 180.252 85.895 180.476 86.319C180.7 86.743 180.812 87.199 180.812 87.687C180.812 87.775 180.808 87.863 180.8 87.951C180.8 88.039 180.8 88.139 180.8 88.251H176.06C176.084 88.707 176.188 89.087 176.372 89.391C176.564 89.687 176.8 89.911 177.08 90.063C177.368 90.215 177.672 90.291 177.992 90.291C178.408 90.291 178.756 90.195 179.036 90.003C179.316 89.811 179.52 89.551 179.648 89.223H180.644C180.484 89.775 180.176 90.235 179.72 90.603C179.272 90.963 178.696 91.143 177.992 91.143ZM177.992 85.755C177.512 85.755 177.084 85.903 176.708 86.199C176.34 86.487 176.128 86.911 176.072 87.471H179.816C179.792 86.935 179.608 86.515 179.264 86.211C178.92 85.907 178.496 85.755 177.992 85.755ZM182.496 91.059C182.296 91.059 182.128 90.995 181.992 90.867C181.864 90.731 181.8 90.567 181.8 90.375C181.8 90.183 181.864 90.023 181.992 89.895C182.128 89.759 182.296 89.691 182.496 89.691C182.688 89.691 182.848 89.759 182.976 89.895C183.112 90.023 183.18 90.183 183.18 90.375C183.18 90.567 183.112 90.731 182.976 90.867C182.848 90.995 182.688 91.059 182.496 91.059Z" fill="#448A4B"/>
</svg>
