<svg width="60" height="60" viewBox="0 0 60 60" fill="none" xmlns="http://www.w3.org/2000/svg">
<g clip-path="url(#clip0_862_28155)">
<path d="M30 60C13.4315 60 0 46.5685 0 30C0 13.4315 13.4315 0 30 0C46.5685 0 60 13.4315 60 30C60 46.5685 46.5685 60 30 60Z" fill="#F0F0F0"/>
<path d="M60 30C60 42.8991 51.8588 53.8952 40.4347 58.1341V1.86609C51.8588 6.10476 60 17.1012 60 30Z" fill="#6DA544"/>
<path d="M0.00113297 30C0.00113297 17.1012 8.14238 6.10476 19.5664 1.86609V58.1343C8.14238 53.8952 0.00113297 42.8991 0.00113297 30Z" fill="#6DA544"/>
</g>
<defs>
<clipPath id="clip0_862_28155">
<rect width="60" height="60" fill="white" transform="matrix(-1 0 0 1 60 0)"/>
</clipPath>
</defs>
</svg>
