<svg width="139" height="49" viewBox="0 0 139 49" fill="none" xmlns="http://www.w3.org/2000/svg">
<rect width="139" height="49" rx="7.11889" fill="#76448A"/>
<path d="M29.375 27.5326L26.9261 25.1248L17.9365 33.9896L29.375 27.5326Z" fill="white"/>
<path d="M29.375 20.9783L17.9365 14.5212L26.9261 23.3861L29.375 20.9783Z" fill="white"/>
<path d="M32.9599 25.4727C33.693 24.9002 33.693 23.61 32.9112 23.0375L30.5119 21.6721L27.835 24.256L30.5119 26.8398L32.9599 25.4727Z" fill="white"/>
<path d="M15.5895 34.5066L26.0428 24.2516L15.5895 14.0009V14C15.0606 14.2726 14.7061 14.769 14.7061 15.4141V33.0925C14.7061 33.7376 15.0606 34.2341 15.5895 34.5066Z" fill="white"/>
<path d="M46.06 19H43.78V12.33H46.06C48.14 12.33 49.48 13.78 49.48 15.67C49.48 17.57 48.14 19 46.06 19ZM46.06 18.26C47.68 18.26 48.62 17.1 48.62 15.67C48.62 14.23 47.71 13.07 46.06 13.07H44.61V18.26H46.06ZM52.862 19.12C51.392 19.12 50.472 17.98 50.472 16.58C50.472 15.18 51.392 14.05 52.862 14.05C54.332 14.05 55.252 15.18 55.252 16.58C55.252 17.98 54.332 19.12 52.862 19.12ZM52.862 18.45C53.892 18.45 54.462 17.57 54.462 16.58C54.462 15.6 53.892 14.72 52.862 14.72C51.832 14.72 51.262 15.6 51.262 16.58C51.262 17.57 51.832 18.45 52.862 18.45ZM61.4146 19H60.6546L59.3946 15.12L58.1346 19H57.3846L55.8446 14.17H56.6246L57.8046 18.02L59.0746 14.17H59.7246L60.9846 18.02L62.1646 14.17H62.9546L61.4146 19ZM67.8284 19H67.0884V15.84C67.0884 14.98 66.6484 14.72 65.9984 14.72C65.4084 14.72 64.8584 15.08 64.5684 15.47V19H63.8184V14.17H64.5684V14.87C64.9084 14.46 65.5684 14.05 66.2984 14.05C67.2984 14.05 67.8284 14.56 67.8284 15.61V19ZM70.0859 19H69.3359V12.33H70.0859V19ZM73.692 19.12C72.222 19.12 71.302 17.98 71.302 16.58C71.302 15.18 72.222 14.05 73.692 14.05C75.162 14.05 76.082 15.18 76.082 16.58C76.082 17.98 75.162 19.12 73.692 19.12ZM73.692 18.45C74.722 18.45 75.292 17.57 75.292 16.58C75.292 15.6 74.722 14.72 73.692 14.72C72.662 14.72 72.092 15.6 72.092 16.58C72.092 17.57 72.662 18.45 73.692 18.45ZM81.0747 19H80.3247V18.45C79.9347 18.89 79.3747 19.12 78.7247 19.12C77.9147 19.12 77.0447 18.57 77.0447 17.52C77.0447 16.43 77.9047 15.93 78.7247 15.93C79.3847 15.93 79.9347 16.14 80.3247 16.58V15.71C80.3247 15.07 79.8047 14.7 79.1047 14.7C78.5247 14.7 78.0547 14.9 77.6247 15.37L77.2747 14.85C77.7947 14.31 78.4147 14.05 79.2047 14.05C80.2347 14.05 81.0747 14.51 81.0747 15.68V19ZM79.0047 18.58C79.5247 18.58 80.0347 18.38 80.3247 17.98V17.06C80.0347 16.67 79.5247 16.47 79.0047 16.47C78.2947 16.47 77.8047 16.91 77.8047 17.52C77.8047 18.14 78.2947 18.58 79.0047 18.58ZM86.8379 19H86.0879V18.28C85.7279 18.77 85.1379 19.12 84.4579 19.12C83.1979 19.12 82.3079 18.16 82.3079 16.59C82.3079 15.04 83.1979 14.05 84.4579 14.05C85.1079 14.05 85.6979 14.37 86.0879 14.9V12.33H86.8379V19ZM84.6479 18.45C85.2379 18.45 85.8279 18.1 86.0879 17.68V15.5C85.8279 15.08 85.2379 14.72 84.6479 14.72C83.6679 14.72 83.0879 15.52 83.0879 16.59C83.0879 17.66 83.6679 18.45 84.6479 18.45ZM93.0377 19.12C91.5677 19.12 90.6477 17.98 90.6477 16.58C90.6477 15.18 91.5677 14.05 93.0377 14.05C94.5077 14.05 95.4277 15.18 95.4277 16.58C95.4277 17.98 94.5077 19.12 93.0377 19.12ZM93.0377 18.45C94.0677 18.45 94.6377 17.57 94.6377 16.58C94.6377 15.6 94.0677 14.72 93.0377 14.72C92.0077 14.72 91.4377 15.6 91.4377 16.58C91.4377 17.57 92.0077 18.45 93.0377 18.45ZM100.66 19H99.9204V15.84C99.9204 14.98 99.4804 14.72 98.8304 14.72C98.2404 14.72 97.6904 15.08 97.4004 15.47V19H96.6504V14.17H97.4004V14.87C97.7404 14.46 98.4004 14.05 99.1304 14.05C100.13 14.05 100.66 14.56 100.66 15.61V19Z" fill="white"/>
<path d="M47.9726 34.156C49.3526 34.156 50.4806 33.568 51.2606 32.692V29.704H47.4686V30.94H49.8686V32.176C49.5086 32.524 48.7886 32.896 47.9726 32.896C46.3886 32.896 45.2126 31.672 45.2126 30.004C45.2126 28.312 46.3886 27.112 47.9726 27.112C48.8606 27.112 49.6166 27.58 50.0486 28.18L51.1886 27.52C50.5526 26.608 49.5326 25.864 47.9726 25.864C45.6446 25.864 43.7726 27.484 43.7726 30.004C43.7726 32.512 45.6446 34.156 47.9726 34.156ZM55.3141 34.144C57.1621 34.144 58.2901 32.752 58.2901 31.096C58.2901 29.428 57.1621 28.06 55.3141 28.06C53.4661 28.06 52.3381 29.428 52.3381 31.096C52.3381 32.752 53.4661 34.144 55.3141 34.144ZM55.3141 33.028C54.2461 33.028 53.6461 32.128 53.6461 31.096C53.6461 30.076 54.2461 29.176 55.3141 29.176C56.3941 29.176 56.9821 30.076 56.9821 31.096C56.9821 32.128 56.3941 33.028 55.3141 33.028ZM62.2047 34.144C64.0527 34.144 65.1807 32.752 65.1807 31.096C65.1807 29.428 64.0527 28.06 62.2047 28.06C60.3567 28.06 59.2287 29.428 59.2287 31.096C59.2287 32.752 60.3567 34.144 62.2047 34.144ZM62.2047 33.028C61.1367 33.028 60.5367 32.128 60.5367 31.096C60.5367 30.076 61.1367 29.176 62.2047 29.176C63.2847 29.176 63.8727 30.076 63.8727 31.096C63.8727 32.128 63.2847 33.028 62.2047 33.028ZM68.8314 36.352C70.2474 36.352 71.8074 35.788 71.8074 33.7V28.204H70.5474V29.008C70.0794 28.384 69.4194 28.06 68.6874 28.06C67.1874 28.06 66.1194 29.152 66.1194 31.036C66.1194 32.944 67.2114 34.012 68.6874 34.012C69.4434 34.012 70.1034 33.628 70.5474 33.04V33.7C70.5474 34.936 69.6594 35.32 68.8314 35.32C68.0634 35.32 67.4634 35.116 66.9834 34.576L66.3954 35.488C67.1154 36.136 67.8474 36.352 68.8314 36.352ZM69.0594 32.884C68.0514 32.884 67.4154 32.152 67.4154 31.036C67.4154 29.92 68.0514 29.176 69.0594 29.176C69.6474 29.176 70.2594 29.524 70.5474 29.944V32.116C70.2594 32.536 69.6474 32.884 69.0594 32.884ZM74.7 34V25.996H73.44V34H74.7ZM79.0226 34.144C79.9346 34.144 80.7866 33.844 81.3746 33.292L80.7986 32.464C80.3786 32.884 79.7186 33.112 79.1426 33.112C78.0506 33.112 77.4026 32.38 77.3066 31.516H81.7706V31.204C81.7706 29.38 80.6666 28.06 78.9266 28.06C77.2106 28.06 75.9866 29.416 75.9866 31.096C75.9866 32.932 77.2706 34.144 79.0226 34.144ZM80.5586 30.616H77.2946C77.3426 29.92 77.8466 29.092 78.9146 29.092C80.0546 29.092 80.5226 29.932 80.5586 30.616ZM87.548 34V31H89.672C91.34 31 92.276 29.86 92.276 28.504C92.276 27.136 91.352 25.996 89.672 25.996H86.144V34H87.548ZM89.48 29.764H87.548V27.232H89.48C90.272 27.232 90.836 27.736 90.836 28.504C90.836 29.26 90.272 29.764 89.48 29.764ZM94.6805 34V25.996H93.4205V34H94.6805ZM101.127 34V30.148C101.127 28.6 99.999 28.06 98.703 28.06C97.779 28.06 96.939 28.348 96.267 28.996L96.795 29.872C97.287 29.368 97.863 29.128 98.511 29.128C99.303 29.128 99.867 29.536 99.867 30.208V31.072C99.435 30.58 98.775 30.328 97.983 30.328C97.035 30.328 95.979 30.88 95.979 32.224C95.979 33.496 97.047 34.144 97.983 34.144C98.751 34.144 99.435 33.868 99.867 33.364V34H101.127ZM98.487 33.28C97.779 33.28 97.239 32.872 97.239 32.236C97.239 31.612 97.779 31.192 98.487 31.192C99.027 31.192 99.567 31.396 99.867 31.792V32.68C99.567 33.076 99.027 33.28 98.487 33.28ZM102.52 36.268C102.688 36.316 103.048 36.352 103.228 36.352C104.128 36.34 104.812 36.028 105.208 35.044L108.004 28.204H106.66L104.968 32.548L103.276 28.204H101.92L104.308 34.072L104.02 34.732C103.852 35.116 103.588 35.236 103.18 35.236C103.036 35.236 102.832 35.2 102.7 35.14L102.52 36.268Z" fill="white"/>
</svg>
