<svg width="140" height="49" viewBox="0 0 140 49" fill="none" xmlns="http://www.w3.org/2000/svg">
<rect x="0.5" width="139" height="49" rx="7.11889" fill="white"/>
<path d="M29.875 27.5328L27.4261 25.125L18.4365 33.9898L29.875 27.5328Z" fill="#4F0072"/>
<path d="M29.875 20.978L18.4365 14.521L27.4261 23.3858L29.875 20.978Z" fill="#4F0072"/>
<path d="M33.4599 25.4724C34.193 24.9 34.193 23.6098 33.4112 23.0373L31.0119 21.6719L28.335 24.2557L31.0119 26.8395L33.4599 25.4724Z" fill="#4F0072"/>
<path d="M16.0895 34.5066L26.5428 24.2516L16.0895 14.0009V14C15.5606 14.2726 15.2061 14.769 15.2061 15.4141V33.0925C15.2061 33.7376 15.5606 34.2341 16.0895 34.5066Z" fill="#4F0072"/>
<path d="M46.56 19H44.28V12.33H46.56C48.64 12.33 49.98 13.78 49.98 15.67C49.98 17.57 48.64 19 46.56 19ZM46.56 18.26C48.18 18.26 49.12 17.1 49.12 15.67C49.12 14.23 48.21 13.07 46.56 13.07H45.11V18.26H46.56ZM53.362 19.12C51.892 19.12 50.972 17.98 50.972 16.58C50.972 15.18 51.892 14.05 53.362 14.05C54.832 14.05 55.752 15.18 55.752 16.58C55.752 17.98 54.832 19.12 53.362 19.12ZM53.362 18.45C54.392 18.45 54.962 17.57 54.962 16.58C54.962 15.6 54.392 14.72 53.362 14.72C52.332 14.72 51.762 15.6 51.762 16.58C51.762 17.57 52.332 18.45 53.362 18.45ZM61.9146 19H61.1546L59.8946 15.12L58.6346 19H57.8846L56.3446 14.17H57.1246L58.3046 18.02L59.5746 14.17H60.2246L61.4846 18.02L62.6646 14.17H63.4546L61.9146 19ZM68.3284 19H67.5884V15.84C67.5884 14.98 67.1484 14.72 66.4984 14.72C65.9084 14.72 65.3584 15.08 65.0684 15.47V19H64.3184V14.17H65.0684V14.87C65.4084 14.46 66.0684 14.05 66.7984 14.05C67.7984 14.05 68.3284 14.56 68.3284 15.61V19ZM70.5859 19H69.8359V12.33H70.5859V19ZM74.192 19.12C72.722 19.12 71.802 17.98 71.802 16.58C71.802 15.18 72.722 14.05 74.192 14.05C75.662 14.05 76.582 15.18 76.582 16.58C76.582 17.98 75.662 19.12 74.192 19.12ZM74.192 18.45C75.222 18.45 75.792 17.57 75.792 16.58C75.792 15.6 75.222 14.72 74.192 14.72C73.162 14.72 72.592 15.6 72.592 16.58C72.592 17.57 73.162 18.45 74.192 18.45ZM81.5747 19H80.8247V18.45C80.4347 18.89 79.8747 19.12 79.2247 19.12C78.4147 19.12 77.5447 18.57 77.5447 17.52C77.5447 16.43 78.4047 15.93 79.2247 15.93C79.8847 15.93 80.4347 16.14 80.8247 16.58V15.71C80.8247 15.07 80.3047 14.7 79.6047 14.7C79.0247 14.7 78.5547 14.9 78.1247 15.37L77.7747 14.85C78.2947 14.31 78.9147 14.05 79.7047 14.05C80.7347 14.05 81.5747 14.51 81.5747 15.68V19ZM79.5047 18.58C80.0247 18.58 80.5347 18.38 80.8247 17.98V17.06C80.5347 16.67 80.0247 16.47 79.5047 16.47C78.7947 16.47 78.3047 16.91 78.3047 17.52C78.3047 18.14 78.7947 18.58 79.5047 18.58ZM87.3379 19H86.5879V18.28C86.2279 18.77 85.6379 19.12 84.9579 19.12C83.6979 19.12 82.8079 18.16 82.8079 16.59C82.8079 15.04 83.6979 14.05 84.9579 14.05C85.6079 14.05 86.1979 14.37 86.5879 14.9V12.33H87.3379V19ZM85.1479 18.45C85.7379 18.45 86.3279 18.1 86.5879 17.68V15.5C86.3279 15.08 85.7379 14.72 85.1479 14.72C84.1679 14.72 83.5879 15.52 83.5879 16.59C83.5879 17.66 84.1679 18.45 85.1479 18.45ZM93.5377 19.12C92.0677 19.12 91.1477 17.98 91.1477 16.58C91.1477 15.18 92.0677 14.05 93.5377 14.05C95.0077 14.05 95.9277 15.18 95.9277 16.58C95.9277 17.98 95.0077 19.12 93.5377 19.12ZM93.5377 18.45C94.5677 18.45 95.1377 17.57 95.1377 16.58C95.1377 15.6 94.5677 14.72 93.5377 14.72C92.5077 14.72 91.9377 15.6 91.9377 16.58C91.9377 17.57 92.5077 18.45 93.5377 18.45ZM101.16 19H100.42V15.84C100.42 14.98 99.9804 14.72 99.3304 14.72C98.7404 14.72 98.1904 15.08 97.9004 15.47V19H97.1504V14.17H97.9004V14.87C98.2404 14.46 98.9004 14.05 99.6304 14.05C100.63 14.05 101.16 14.56 101.16 15.61V19Z" fill="#4F0072"/>
<path d="M48.4726 34.156C49.8526 34.156 50.9806 33.568 51.7606 32.692V29.704H47.9686V30.94H50.3686V32.176C50.0086 32.524 49.2886 32.896 48.4726 32.896C46.8886 32.896 45.7126 31.672 45.7126 30.004C45.7126 28.312 46.8886 27.112 48.4726 27.112C49.3606 27.112 50.1166 27.58 50.5486 28.18L51.6886 27.52C51.0526 26.608 50.0326 25.864 48.4726 25.864C46.1446 25.864 44.2726 27.484 44.2726 30.004C44.2726 32.512 46.1446 34.156 48.4726 34.156ZM55.8141 34.144C57.6621 34.144 58.7901 32.752 58.7901 31.096C58.7901 29.428 57.6621 28.06 55.8141 28.06C53.9661 28.06 52.8381 29.428 52.8381 31.096C52.8381 32.752 53.9661 34.144 55.8141 34.144ZM55.8141 33.028C54.7461 33.028 54.1461 32.128 54.1461 31.096C54.1461 30.076 54.7461 29.176 55.8141 29.176C56.8941 29.176 57.4821 30.076 57.4821 31.096C57.4821 32.128 56.8941 33.028 55.8141 33.028ZM62.7047 34.144C64.5527 34.144 65.6807 32.752 65.6807 31.096C65.6807 29.428 64.5527 28.06 62.7047 28.06C60.8567 28.06 59.7287 29.428 59.7287 31.096C59.7287 32.752 60.8567 34.144 62.7047 34.144ZM62.7047 33.028C61.6367 33.028 61.0367 32.128 61.0367 31.096C61.0367 30.076 61.6367 29.176 62.7047 29.176C63.7847 29.176 64.3727 30.076 64.3727 31.096C64.3727 32.128 63.7847 33.028 62.7047 33.028ZM69.3314 36.352C70.7474 36.352 72.3074 35.788 72.3074 33.7V28.204H71.0474V29.008C70.5794 28.384 69.9194 28.06 69.1874 28.06C67.6874 28.06 66.6194 29.152 66.6194 31.036C66.6194 32.944 67.7114 34.012 69.1874 34.012C69.9434 34.012 70.6034 33.628 71.0474 33.04V33.7C71.0474 34.936 70.1594 35.32 69.3314 35.32C68.5634 35.32 67.9634 35.116 67.4834 34.576L66.8954 35.488C67.6154 36.136 68.3474 36.352 69.3314 36.352ZM69.5594 32.884C68.5514 32.884 67.9154 32.152 67.9154 31.036C67.9154 29.92 68.5514 29.176 69.5594 29.176C70.1474 29.176 70.7594 29.524 71.0474 29.944V32.116C70.7594 32.536 70.1474 32.884 69.5594 32.884ZM75.2 34V25.996H73.94V34H75.2ZM79.5226 34.144C80.4346 34.144 81.2866 33.844 81.8746 33.292L81.2986 32.464C80.8786 32.884 80.2186 33.112 79.6426 33.112C78.5506 33.112 77.9026 32.38 77.8066 31.516H82.2706V31.204C82.2706 29.38 81.1666 28.06 79.4266 28.06C77.7106 28.06 76.4866 29.416 76.4866 31.096C76.4866 32.932 77.7706 34.144 79.5226 34.144ZM81.0586 30.616H77.7946C77.8426 29.92 78.3466 29.092 79.4146 29.092C80.5546 29.092 81.0226 29.932 81.0586 30.616ZM88.048 34V31H90.172C91.84 31 92.776 29.86 92.776 28.504C92.776 27.136 91.852 25.996 90.172 25.996H86.644V34H88.048ZM89.98 29.764H88.048V27.232H89.98C90.772 27.232 91.336 27.736 91.336 28.504C91.336 29.26 90.772 29.764 89.98 29.764ZM95.1805 34V25.996H93.9205V34H95.1805ZM101.627 34V30.148C101.627 28.6 100.499 28.06 99.203 28.06C98.279 28.06 97.439 28.348 96.767 28.996L97.295 29.872C97.787 29.368 98.363 29.128 99.011 29.128C99.803 29.128 100.367 29.536 100.367 30.208V31.072C99.935 30.58 99.275 30.328 98.483 30.328C97.535 30.328 96.479 30.88 96.479 32.224C96.479 33.496 97.547 34.144 98.483 34.144C99.251 34.144 99.935 33.868 100.367 33.364V34H101.627ZM98.987 33.28C98.279 33.28 97.739 32.872 97.739 32.236C97.739 31.612 98.279 31.192 98.987 31.192C99.527 31.192 100.067 31.396 100.367 31.792V32.68C100.067 33.076 99.527 33.28 98.987 33.28ZM103.02 36.268C103.188 36.316 103.548 36.352 103.728 36.352C104.628 36.34 105.312 36.028 105.708 35.044L108.504 28.204H107.16L105.468 32.548L103.776 28.204H102.42L104.808 34.072L104.52 34.732C104.352 35.116 104.088 35.236 103.68 35.236C103.536 35.236 103.332 35.2 103.2 35.14L103.02 36.268Z" fill="#4F0072"/>
</svg>
