<svg width="96" height="60" viewBox="0 0 96 60" fill="none" xmlns="http://www.w3.org/2000/svg">
<path d="M0.692453 44V37.4498H2.84467C3.35621 37.4498 3.7773 37.534 4.10793 37.7024C4.43856 37.8709 4.68186 38.0986 4.83781 38.3855C5.00001 38.6725 5.08111 38.9969 5.08111 39.3587C5.08111 39.7143 5.00313 40.0355 4.84717 40.3225C4.69121 40.6095 4.44792 40.8403 4.11729 41.015C3.78666 41.1834 3.36245 41.2676 2.84467 41.2676H1.47848V44H0.692453ZM1.47848 40.6032H2.82596C3.34998 40.6032 3.72116 40.4941 3.9395 40.2757C4.16408 40.0511 4.27637 39.7455 4.27637 39.3587C4.27637 38.9657 4.16408 38.66 3.9395 38.4417C3.72116 38.2171 3.34998 38.1048 2.82596 38.1048H1.47848V40.6032ZM7.90524 44.1123C7.46856 44.1123 7.07554 44.0125 6.7262 43.8129C6.37685 43.6132 6.09925 43.3325 5.89338 42.9707C5.69376 42.6026 5.59394 42.1722 5.59394 41.6793C5.59394 41.1865 5.69688 40.7592 5.90274 40.3974C6.1086 40.0293 6.38621 39.7455 6.73555 39.5458C7.09114 39.3462 7.48727 39.2464 7.92395 39.2464C8.36064 39.2464 8.75365 39.3462 9.103 39.5458C9.45234 39.7455 9.72683 40.0293 9.92645 40.3974C10.1323 40.7592 10.2353 41.1865 10.2353 41.6793C10.2353 42.1722 10.1323 42.6026 9.92645 42.9707C9.72059 43.3325 9.43987 43.6132 9.08428 43.8129C8.73494 44.0125 8.34192 44.1123 7.90524 44.1123ZM7.90524 43.4386C8.17349 43.4386 8.42302 43.373 8.65384 43.242C8.88466 43.111 9.0718 42.9145 9.21529 42.6525C9.35877 42.3905 9.43051 42.0661 9.43051 41.6793C9.43051 41.2926 9.35877 40.9682 9.21529 40.7062C9.07804 40.4442 8.89401 40.2477 8.66319 40.1166C8.43238 39.9856 8.18596 39.9201 7.92395 39.9201C7.65571 39.9201 7.40617 39.9856 7.17536 40.1166C6.94454 40.2477 6.75739 40.4442 6.61391 40.7062C6.47043 40.9682 6.39869 41.2926 6.39869 41.6793C6.39869 42.0661 6.47043 42.3905 6.61391 42.6525C6.75739 42.9145 6.94142 43.111 7.166 43.242C7.39682 43.373 7.64323 43.4386 7.90524 43.4386ZM12.0903 44L10.7335 39.3587H11.5195L12.502 42.9988L13.5875 39.3587H14.4765L15.5713 42.9988L16.5445 39.3587H17.3398L15.983 44H15.1783L14.0367 40.1728L12.895 44H12.0903ZM20.1223 44.1123C19.6794 44.1123 19.2864 44.0125 18.9433 43.8129C18.6002 43.607 18.3288 43.3231 18.1292 42.9613C17.9358 42.5995 17.8391 42.1722 17.8391 41.6793C17.8391 41.1928 17.9358 40.7686 18.1292 40.4067C18.3225 40.0387 18.5908 39.7548 18.9339 39.5552C19.2832 39.3493 19.6856 39.2464 20.141 39.2464C20.5902 39.2464 20.9769 39.3493 21.3013 39.5552C21.632 39.7548 21.8846 40.02 22.0593 40.3506C22.234 40.6812 22.3213 41.0368 22.3213 41.4173C22.3213 41.486 22.3182 41.5546 22.3119 41.6232C22.3119 41.6918 22.3119 41.7698 22.3119 41.8571H18.6157C18.6345 42.2127 18.7156 42.509 18.859 42.7461C19.0088 42.9769 19.1928 43.1516 19.4111 43.2701C19.6357 43.3886 19.8728 43.4479 20.1223 43.4479C20.4467 43.4479 20.7181 43.373 20.9364 43.2233C21.1547 43.0736 21.3138 42.8709 21.4136 42.6151H22.1903C22.0655 43.0455 21.8254 43.4042 21.4698 43.6912C21.1204 43.9719 20.6713 44.1123 20.1223 44.1123ZM20.1223 39.9108C19.748 39.9108 19.4143 40.0262 19.1211 40.257C18.8341 40.4816 18.6688 40.8122 18.6251 41.2489H21.5446C21.5259 40.8309 21.3824 40.5034 21.1142 40.2664C20.8459 40.0293 20.5153 39.9108 20.1223 39.9108ZM23.3631 44V39.3587H24.0743L24.1398 40.2477C24.2833 39.942 24.5016 39.6987 24.7948 39.5178C25.088 39.3369 25.4498 39.2464 25.8803 39.2464V40.0699H25.6651C25.3906 40.0699 25.1379 40.1198 24.9071 40.2196C24.6763 40.3132 24.4923 40.4754 24.355 40.7062C24.2178 40.937 24.1492 41.2551 24.1492 41.6606V44H23.3631ZM28.6756 44.1123C28.2327 44.1123 27.8397 44.0125 27.4966 43.8129C27.1535 43.607 26.8821 43.3231 26.6825 42.9613C26.4891 42.5995 26.3924 42.1722 26.3924 41.6793C26.3924 41.1928 26.4891 40.7686 26.6825 40.4067C26.8759 40.0387 27.1441 39.7548 27.4872 39.5552C27.8366 39.3493 28.2389 39.2464 28.6943 39.2464C29.1435 39.2464 29.5303 39.3493 29.8547 39.5552C30.1853 39.7548 30.4379 40.02 30.6126 40.3506C30.7873 40.6812 30.8746 41.0368 30.8746 41.4173C30.8746 41.486 30.8715 41.5546 30.8653 41.6232C30.8653 41.6918 30.8653 41.7698 30.8653 41.8571H27.1691C27.1878 42.2127 27.2689 42.509 27.4124 42.7461C27.5621 42.9769 27.7461 43.1516 27.9645 43.2701C28.189 43.3886 28.4261 43.4479 28.6756 43.4479C29 43.4479 29.2714 43.373 29.4897 43.2233C29.7081 43.0736 29.8671 42.8709 29.9669 42.6151H30.7436C30.6189 43.0455 30.3787 43.4042 30.0231 43.6912C29.6737 43.9719 29.2246 44.1123 28.6756 44.1123ZM28.6756 39.9108C28.3013 39.9108 27.9676 40.0262 27.6744 40.257C27.3874 40.4816 27.2221 40.8122 27.1784 41.2489H30.098C30.0792 40.8309 29.9358 40.5034 29.6675 40.2664C29.3993 40.0293 29.0686 39.9108 28.6756 39.9108ZM34.0219 44.1123C33.5602 44.1123 33.1548 44.0062 32.8054 43.7941C32.4623 43.582 32.1941 43.292 32.0007 42.9239C31.8135 42.5558 31.7199 42.1379 31.7199 41.67C31.7199 41.2021 31.8166 40.7873 32.01 40.4254C32.2034 40.0574 32.4717 39.7704 32.8148 39.5646C33.1579 39.3525 33.5634 39.2464 34.0312 39.2464C34.4118 39.2464 34.7486 39.3244 35.0418 39.4803C35.335 39.6363 35.5627 39.8546 35.7249 40.1354V37.2626H36.511V44H35.7998L35.7249 43.2327C35.5752 43.4573 35.36 43.66 35.0793 43.8409C34.7986 44.0218 34.4461 44.1123 34.0219 44.1123ZM34.1061 43.4292C34.418 43.4292 34.6925 43.3575 34.9296 43.214C35.1728 43.0643 35.36 42.8584 35.491 42.5964C35.6282 42.3344 35.6969 42.0287 35.6969 41.6793C35.6969 41.33 35.6282 41.0243 35.491 40.7623C35.36 40.5003 35.1728 40.2976 34.9296 40.1541C34.6925 40.0044 34.418 39.9295 34.1061 39.9295C33.8004 39.9295 33.5259 40.0044 33.2826 40.1541C33.0456 40.2976 32.8584 40.5003 32.7212 40.7623C32.5902 41.0243 32.5247 41.33 32.5247 41.6793C32.5247 42.0287 32.5902 42.3344 32.7212 42.5964C32.8584 42.8584 33.0456 43.0643 33.2826 43.214C33.5259 43.3575 33.8004 43.4292 34.1061 43.4292ZM42.7485 44.1123C42.3679 44.1123 42.0279 44.0343 41.7285 43.8784C41.4353 43.7224 41.2107 43.5041 41.0548 43.2233L40.9799 44H40.2687V37.2626H41.0548V40.126C41.2045 39.9014 41.4166 39.6987 41.6911 39.5178C41.9718 39.3369 42.3274 39.2464 42.7578 39.2464C43.2194 39.2464 43.6218 39.3525 43.9649 39.5646C44.308 39.7767 44.5732 40.0667 44.7603 40.4348C44.9537 40.8029 45.0504 41.2208 45.0504 41.6887C45.0504 42.1566 44.9537 42.5745 44.7603 42.9426C44.5732 43.3044 44.3049 43.5914 43.9556 43.8035C43.6125 44.0094 43.2101 44.1123 42.7485 44.1123ZM42.6642 43.4292C42.9762 43.4292 43.2506 43.3575 43.4877 43.214C43.7248 43.0643 43.9119 42.8584 44.0491 42.5964C44.1864 42.3344 44.255 42.0287 44.255 41.6793C44.255 41.33 44.1864 41.0243 44.0491 40.7623C43.9119 40.5003 43.7248 40.2976 43.4877 40.1541C43.2506 40.0044 42.9762 39.9295 42.6642 39.9295C42.3523 39.9295 42.0778 40.0044 41.8408 40.1541C41.6037 40.2976 41.4166 40.5003 41.2793 40.7623C41.1421 41.0243 41.0735 41.33 41.0735 41.6793C41.0735 42.0287 41.1421 42.3344 41.2793 42.5964C41.4166 42.8584 41.6037 43.0643 41.8408 43.214C42.0778 43.3575 42.3523 43.4292 42.6642 43.4292ZM46.2752 46.0586L47.4262 43.5508H47.1548L45.3114 39.3587H46.1629L47.6975 42.9707L49.3257 39.3587H50.1398L47.0987 46.0586H46.2752ZM0.885841 59V50.2664H2.20836V57.952H6.17593V59H0.885841ZM8.29803 51.6388C8.0485 51.6388 7.84056 51.5639 7.6742 51.4142C7.51616 51.2562 7.43715 51.0607 7.43715 50.8278C7.43715 50.5949 7.51616 50.4036 7.6742 50.2539C7.84056 50.0958 8.0485 50.0168 8.29803 50.0168C8.54757 50.0168 8.75135 50.0958 8.90939 50.2539C9.07574 50.4036 9.15892 50.5949 9.15892 50.8278C9.15892 51.0607 9.07574 51.2562 8.90939 51.4142C8.75135 51.5639 8.54757 51.6388 8.29803 51.6388ZM7.63677 59V52.8116H8.9593V59H7.63677ZM10.7051 59V52.8116H11.878L11.9778 53.8971C12.1691 53.5144 12.4477 53.215 12.8137 52.9987C13.188 52.7742 13.6164 52.6619 14.0988 52.6619C14.8474 52.6619 15.4338 52.8948 15.858 53.3606C16.2905 53.8264 16.5068 54.5209 16.5068 55.4442V59H15.1967V55.5814C15.1967 54.3836 14.706 53.7848 13.7245 53.7848C13.2337 53.7848 12.8262 53.9594 12.5018 54.3088C12.1857 54.6581 12.0277 55.1572 12.0277 55.806V59H10.7051ZM20.959 59.1497C20.3518 59.1497 19.8111 59.0166 19.337 58.7505C18.8712 58.476 18.5053 58.0975 18.2391 57.6151C17.9729 57.1327 17.8398 56.5712 17.8398 55.9307C17.8398 55.282 17.9688 54.7122 18.2266 54.2214C18.4928 53.7307 18.8588 53.3481 19.3246 53.0736C19.7987 52.7991 20.3476 52.6619 20.9715 52.6619C21.5787 52.6619 22.1068 52.7991 22.556 53.0736C23.0052 53.3398 23.3545 53.6974 23.604 54.1466C23.8536 54.5957 23.9783 55.0907 23.9783 55.6313C23.9783 55.7145 23.9742 55.806 23.9659 55.9058C23.9659 55.9973 23.9617 56.1013 23.9534 56.2177H19.1374C19.179 56.8166 19.3745 57.2741 19.7238 57.5901C20.0815 57.8979 20.4932 58.0518 20.959 58.0518C21.3333 58.0518 21.6452 57.9686 21.8947 57.8022C22.1526 57.6276 22.3439 57.3947 22.4687 57.1036H23.7912C23.6248 57.6858 23.2921 58.1724 22.7931 58.5633C22.3023 58.9543 21.691 59.1497 20.959 59.1497ZM20.959 53.7473C20.5182 53.7473 20.1272 53.8804 19.7862 54.1466C19.4452 54.4044 19.2372 54.7954 19.1624 55.3194H22.6558C22.6309 54.837 22.4603 54.4543 22.1443 54.1715C21.8282 53.8887 21.4331 53.7473 20.959 53.7473ZM27.4466 59.1497C26.9226 59.1497 26.4901 59.0624 26.1491 58.8877C25.808 58.713 25.5544 58.4843 25.388 58.2015C25.2216 57.9104 25.1385 57.5943 25.1385 57.2533C25.1385 56.6544 25.3714 56.1803 25.8372 55.8309C26.303 55.4816 26.9684 55.3069 27.8334 55.3069H29.4554V55.1946C29.4554 54.7122 29.3223 54.3504 29.0561 54.1092C28.7983 53.8679 28.4614 53.7473 28.0455 53.7473C27.6795 53.7473 27.3593 53.8388 27.0848 54.0218C26.8187 54.1965 26.6565 54.4585 26.5982 54.8079H25.2757C25.3173 54.3587 25.467 53.9761 25.7249 53.66C25.991 53.3356 26.3237 53.0902 26.723 52.9239C27.1306 52.7492 27.5756 52.6619 28.058 52.6619C28.923 52.6619 29.5926 52.8906 30.0667 53.3481C30.5409 53.7972 30.7779 54.4128 30.7779 55.1946V59H29.6301L29.5178 57.9395C29.3431 58.2805 29.0894 58.5675 28.7567 58.8004C28.424 59.0333 27.9873 59.1497 27.4466 59.1497ZM27.7087 58.0767C28.0663 58.0767 28.3658 57.9936 28.607 57.8272C28.8565 57.6525 29.0478 57.4238 29.1809 57.141C29.3223 56.8582 29.4096 56.5463 29.4429 56.2052H27.9707C27.4466 56.2052 27.0723 56.2967 26.8478 56.4797C26.6315 56.6627 26.5234 56.8914 26.5234 57.1659C26.5234 57.4487 26.6273 57.6733 26.8353 57.8397C27.0516 57.9977 27.3427 58.0767 27.7087 58.0767ZM32.3199 59V52.8116H33.5052L33.6175 53.9844C33.8338 53.5768 34.1332 53.2566 34.5158 53.0237C34.9068 52.7825 35.3767 52.6619 35.9257 52.6619V54.0468H35.5639C35.1979 54.0468 34.8693 54.1092 34.5782 54.2339C34.2954 54.3504 34.0667 54.5542 33.892 54.8453C33.7256 55.1281 33.6425 55.5232 33.6425 56.0306V59H32.3199ZM39.9916 59.1497C39.3511 59.1497 38.7897 59.0374 38.3073 58.8129C37.8248 58.5883 37.4464 58.268 37.1719 57.8521C36.9057 57.4363 36.7685 56.9414 36.7602 56.3674H38.1575C38.1659 56.8332 38.3281 57.2283 38.6441 57.5527C38.9602 57.8771 39.4052 58.0393 39.9791 58.0393C40.4865 58.0393 40.8816 57.9187 41.1644 57.6775C41.4555 57.4279 41.6011 57.1119 41.6011 56.7293C41.6011 56.4215 41.5304 56.172 41.389 55.9807C41.2559 55.7893 41.0688 55.6313 40.8275 55.5065C40.5946 55.3818 40.3243 55.2695 40.0166 55.1697C39.7088 55.0699 39.3844 54.9617 39.0434 54.8453C38.3696 54.6207 37.8623 54.3296 37.5212 53.9719C37.1885 53.6143 37.0222 53.1443 37.0222 52.5621C37.0139 52.0713 37.1261 51.6429 37.359 51.277C37.6003 50.911 37.933 50.6282 38.3572 50.4286C38.7897 50.2206 39.2929 50.1166 39.8668 50.1166C40.4324 50.1166 40.9274 50.2206 41.3516 50.4286C41.7841 50.6365 42.121 50.9276 42.3622 51.3019C42.6034 51.6679 42.7281 52.0963 42.7365 52.587H41.3391C41.3391 52.3624 41.2809 52.1503 41.1644 51.9507C41.048 51.7428 40.8774 51.5722 40.6529 51.4392C40.4283 51.3061 40.1538 51.2395 39.8294 51.2395C39.4135 51.2312 39.0683 51.3352 38.7939 51.5514C38.5277 51.7677 38.3946 52.0671 38.3946 52.4498C38.3946 52.7908 38.4944 53.0528 38.694 53.2358C38.8937 53.4188 39.1681 53.5727 39.5175 53.6974C39.8668 53.8139 40.2661 53.9511 40.7153 54.1092C41.1478 54.2506 41.5346 54.4211 41.8756 54.6207C42.2166 54.8203 42.4869 55.0823 42.6866 55.4067C42.8945 55.7311 42.9985 56.1429 42.9985 56.6419C42.9985 57.0828 42.8862 57.4945 42.6616 57.8771C42.437 58.2514 42.1002 58.5592 41.651 58.8004C41.2018 59.0333 40.6487 59.1497 39.9916 59.1497ZM47.2891 59.1497C46.6819 59.1497 46.1412 59.0166 45.6671 58.7505C45.2013 58.476 44.8353 58.0975 44.5692 57.6151C44.303 57.1327 44.1699 56.5712 44.1699 55.9307C44.1699 55.282 44.2988 54.7122 44.5567 54.2214C44.8229 53.7307 45.1888 53.3481 45.6546 53.0736C46.1287 52.7991 46.6777 52.6619 47.3016 52.6619C47.9087 52.6619 48.4369 52.7991 48.8861 53.0736C49.3352 53.3398 49.6846 53.6974 49.9341 54.1466C50.1837 54.5957 50.3084 55.0907 50.3084 55.6313C50.3084 55.7145 50.3043 55.806 50.2959 55.9058C50.2959 55.9973 50.2918 56.1013 50.2835 56.2177H45.4675C45.5091 56.8166 45.7045 57.2741 46.0539 57.5901C46.4116 57.8979 46.8233 58.0518 47.2891 58.0518C47.6634 58.0518 47.9753 57.9686 48.2248 57.8022C48.4827 57.6276 48.674 57.3947 48.7987 57.1036H50.1213C49.9549 57.6858 49.6222 58.1724 49.1231 58.5633C48.6324 58.9543 48.021 59.1497 47.2891 59.1497ZM47.2891 53.7473C46.8482 53.7473 46.4573 53.8804 46.1163 54.1466C45.7752 54.4044 45.5673 54.7954 45.4924 55.3194H48.9859C48.9609 54.837 48.7904 54.4543 48.4744 54.1715C48.1583 53.8887 47.7632 53.7473 47.2891 53.7473ZM51.6807 59V52.8116H52.8535L52.9533 53.8971C53.1446 53.5144 53.4232 53.215 53.7892 52.9987C54.1635 52.7742 54.5919 52.6619 55.0743 52.6619C55.8229 52.6619 56.4093 52.8948 56.8335 53.3606C57.266 53.8264 57.4823 54.5209 57.4823 55.4442V59H56.1722V55.5814C56.1722 54.3836 55.6815 53.7848 54.7 53.7848C54.2093 53.7848 53.8017 53.9594 53.4773 54.3088C53.1612 54.6581 53.0032 55.1572 53.0032 55.806V59H51.6807ZM61.8596 59.1497C61.2608 59.1497 60.7326 59.0083 60.2751 58.7255C59.8176 58.4427 59.46 58.0559 59.2021 57.5652C58.9443 57.0744 58.8153 56.5171 58.8153 55.8933C58.8153 55.2695 58.9443 54.7164 59.2021 54.2339C59.46 53.7432 59.8176 53.3606 60.2751 53.0861C60.7409 52.8033 61.2732 52.6619 61.8721 52.6619C62.3629 52.6619 62.7912 52.7575 63.1572 52.9488C63.5315 53.1401 63.8226 53.4105 64.0306 53.7598V50.0168H65.3531V59H64.1678L64.0306 58.0393C63.8309 58.3304 63.5565 58.5883 63.2071 58.8129C62.8578 59.0374 62.4086 59.1497 61.8596 59.1497ZM62.0967 58.0019C62.6623 58.0019 63.1239 57.8064 63.4816 57.4155C63.8476 57.0245 64.0306 56.5213 64.0306 55.9058C64.0306 55.282 63.8476 54.7787 63.4816 54.3961C63.1239 54.0052 62.6623 53.8097 62.0967 53.8097C61.5311 53.8097 61.0653 54.0052 60.6993 54.3961C60.3333 54.7787 60.1503 55.282 60.1503 55.9058C60.1503 56.3134 60.2335 56.6752 60.3999 56.9913C60.5662 57.3073 60.795 57.5569 61.0861 57.7399C61.3855 57.9145 61.7224 58.0019 62.0967 58.0019ZM70.214 59V50.2664H71.5365V59H70.214ZM73.2589 59V52.8116H74.4317L74.5315 53.8971C74.7228 53.5144 75.0015 53.215 75.3674 52.9987C75.7417 52.7742 76.1701 52.6619 76.6525 52.6619C77.4011 52.6619 77.9875 52.8948 78.4117 53.3606C78.8443 53.8264 79.0605 54.5209 79.0605 55.4442V59H77.7505V55.5814C77.7505 54.3836 77.2597 53.7848 76.2782 53.7848C75.7875 53.7848 75.3799 53.9594 75.0555 54.3088C74.7395 54.6581 74.5814 55.1572 74.5814 55.806V59H73.2589ZM83.5502 59.1497C82.943 59.1497 82.3982 59.0125 81.9157 58.738C81.4416 58.4635 81.0673 58.085 80.7928 57.6026C80.5267 57.1119 80.3936 56.5463 80.3936 55.9058C80.3936 55.2653 80.5267 54.7039 80.7928 54.2214C81.0673 53.7307 81.4416 53.3481 81.9157 53.0736C82.3982 52.7991 82.943 52.6619 83.5502 52.6619C84.3154 52.6619 84.9559 52.8615 85.4716 53.2607C85.9956 53.66 86.3325 54.2007 86.4822 54.8827H85.0973C85.0141 54.5417 84.8311 54.2755 84.5483 54.0842C84.2655 53.8929 83.9328 53.7972 83.5502 53.7972C83.2258 53.7972 82.9263 53.8804 82.6519 54.0468C82.3774 54.2048 82.1569 54.4419 81.9906 54.7579C81.8242 55.0657 81.7411 55.4483 81.7411 55.9058C81.7411 56.3633 81.8242 56.75 81.9906 57.0661C82.1569 57.3739 82.3774 57.6109 82.6519 57.7773C82.9263 57.9436 83.2258 58.0268 83.5502 58.0268C83.9328 58.0268 84.2655 57.9312 84.5483 57.7399C84.8311 57.5486 85.0141 57.2782 85.0973 56.9289H86.4822C86.3408 57.5943 86.0081 58.1308 85.484 58.5384C84.96 58.9459 84.3154 59.1497 83.5502 59.1497Z" fill="#793C94"/>
<path d="M5.74072 5.77684L0 1H18.5377C20.5709 1.11942 23.6326 1.66876 24.3981 6.73221C25.1635 11.7957 22.6439 13.9373 21.2885 14.3752L25.7136 22.9735L19.1357 22.8541L15.6674 15.5694L5.02313 15.8082L7.77389 10.7925L14.8302 10.6731C17.3418 10.6732 18.4181 10.912 19.0161 9.12063C19.939 6.35613 15.6098 5.67311 12.6954 5.70374L5.74072 5.77684Z" fill="white"/>
<path d="M5.74072 5.77684L0 1H18.5377C20.5709 1.11942 23.6326 1.66876 24.3981 6.73221C25.1635 11.7957 22.6439 13.9373 21.2885 14.3752L25.7136 22.9735L19.1357 22.8541L15.6674 15.5694L5.02313 15.8082L7.77389 10.7925L14.8302 10.6731C17.3418 10.6732 18.4181 10.912 19.0161 9.12063C19.939 6.35613 15.6098 5.67311 12.6954 5.70374L5.74072 5.77684Z" fill="#590180"/>
<path d="M27.6848 12.2945L27.6849 12.2945C28.3269 11.179 29.2047 10.3117 30.3155 9.69695C31.4481 9.06264 32.7686 8.75 34.2687 8.75C35.6755 8.75 36.9293 9.04496 38.0228 9.64212C39.1127 10.2372 39.9632 11.0582 40.569 12.1031C41.1943 13.1311 41.5056 14.2796 41.5056 15.5423C41.5056 15.7443 41.4962 15.9544 41.4775 16.1724C41.4771 16.3917 41.4674 16.6191 41.4485 16.8547L41.43 17.0846H41.1993H30.8543C30.966 17.9401 31.3077 18.6038 31.8684 19.0954C32.5145 19.6457 33.2912 19.9231 34.2123 19.9231C34.9101 19.9231 35.4713 19.7779 35.9102 19.5039C36.381 19.2038 36.7234 18.8252 36.9457 18.3677L37.014 18.2269H37.1705H40.833H41.1728L41.0717 18.5513C40.7977 19.4305 40.338 20.233 39.6962 20.9579M27.6848 12.2945L39.5089 20.7923M27.6848 12.2945L27.6832 12.2974C27.059 13.4159 26.75 14.6882 26.75 16.1077C26.75 17.511 27.0693 18.7589 27.7149 19.8433C28.3587 20.9245 29.2475 21.7642 30.3769 22.3596C31.5071 22.9555 32.7971 23.25 34.2405 23.25C35.3965 23.25 36.4368 23.0474 37.3563 22.6363M27.6848 12.2945L37.255 22.4077M39.6962 20.9579C39.6961 20.9579 39.6961 20.958 39.6961 20.958L39.5089 20.7923M39.6962 20.9579C39.6963 20.9578 39.6964 20.9577 39.6965 20.9576L39.5089 20.7923M39.6962 20.9579C39.0694 21.6691 38.2879 22.2281 37.3563 22.6363M39.5089 20.7923C38.9079 21.4744 38.1566 22.0128 37.255 22.4077M37.3563 22.6363C37.3566 22.6361 37.3569 22.636 37.3571 22.6359L37.255 22.4077M37.3563 22.6363C37.356 22.6364 37.3557 22.6365 37.3553 22.6367L37.255 22.4077M40.833 18.4769V18.7269H40.7491C40.7789 18.6443 40.8068 18.561 40.833 18.4769ZM40.833 18.4769L40.5944 18.4025C40.5866 18.4274 40.5787 18.4522 40.5706 18.4769H40.833ZM32.0723 12.7327L32.0723 12.7327L32.0759 12.7301C32.707 12.2779 33.4348 12.05 34.2687 12.05C35.1387 12.05 35.8495 12.2947 36.4181 12.7722C36.9182 13.1922 37.2191 13.7397 37.3166 14.4308H30.9477C31.1502 13.6664 31.5288 13.1078 32.0723 12.7327ZM47.2802 22.7665L47.3418 22.9269H47.5136H51.8804H52.0519L52.1137 22.767L57.2694 9.41312L57.4006 9.07308H57.0361H53.2609H53.0838L53.0251 9.24015L49.7111 18.6655L46.3971 9.24015L46.3384 9.07308H46.1613H42.3861H42.0223L42.1527 9.41269L47.2802 22.7665ZM62.8525 22.7665L62.9141 22.9269H63.0859H67.4527H67.6242L67.686 22.767L72.8416 9.41312L72.9729 9.07308H72.6084H68.8332H68.6561L68.5974 9.24015L65.2834 18.6655L61.9694 9.24015L61.9107 9.07308H61.7336H57.9584H57.5946L57.725 9.41269L62.8525 22.7665ZM74.4292 12.2945L74.4276 12.2974C73.8034 13.4159 73.4944 14.6882 73.4944 16.1077C73.4944 17.511 73.8136 18.7589 74.4593 19.8433C75.103 20.9245 75.9919 21.7642 77.1213 22.3596C78.2514 22.9555 79.5415 23.25 80.9849 23.25C82.1409 23.25 83.1811 23.0474 84.1007 22.6363C85.0322 22.2281 85.8137 21.6692 86.4404 20.958C87.0823 20.2331 87.542 19.4306 87.8161 18.5513L87.9172 18.2269H87.5774H83.9149H83.7584L83.69 18.3677C83.4678 18.8252 83.1253 19.2038 82.6546 19.5039C82.2156 19.7779 81.6545 19.9231 80.9567 19.9231C80.0356 19.9231 79.2589 19.6456 78.6127 19.0954C78.0521 18.6037 77.7104 17.94 77.5987 17.0846H87.9437H88.1743L88.1929 16.8547C88.2118 16.6191 88.2215 16.3917 88.2218 16.1724C88.2406 15.9544 88.25 15.7443 88.25 15.5423C88.25 14.2796 87.9387 13.1312 87.3135 12.1032C86.7076 11.0582 85.8571 10.2373 84.7672 9.64212C83.6737 9.04496 82.4199 8.75 81.0131 8.75C79.513 8.75 78.1925 9.06264 77.0599 9.69695C75.9491 10.3117 75.0713 11.179 74.4292 12.2945ZM78.8167 12.7327L78.8167 12.7327L78.8203 12.7301C79.4513 12.2779 80.1791 12.05 81.0131 12.05C81.8831 12.05 82.5938 12.2947 83.1625 12.7722C83.6625 13.1921 83.9634 13.7397 84.061 14.4308H77.6921C77.8946 13.6664 78.2732 13.1078 78.8167 12.7327Z" fill="#590180" stroke="#590180" stroke-width="0.5"/>
<path d="M89.3011 6.44602V2.77699H91.1605C91.3097 2.77699 91.4721 2.82008 91.6477 2.90625C91.8234 2.98911 91.9725 3.11837 92.0952 3.29403C92.2211 3.46638 92.2841 3.68513 92.2841 3.95028C92.2841 4.21875 92.2195 4.44744 92.0902 4.63636C91.9609 4.82197 91.8035 4.96283 91.6179 5.05895C91.4356 5.15507 91.2633 5.20312 91.1009 5.20312H89.7585V4.60653H90.8523C90.9616 4.60653 91.0793 4.55185 91.2053 4.44247C91.3345 4.3331 91.3991 4.16903 91.3991 3.95028C91.3991 3.72491 91.3345 3.57244 91.2053 3.4929C91.0793 3.41335 90.9683 3.37358 90.8722 3.37358H90.1065V6.44602H89.3011ZM91.5185 4.71591L92.4332 6.44602H91.5483L90.6534 4.71591H91.5185ZM90.6932 8.63352C90.143 8.63352 89.6276 8.53078 89.147 8.32528C88.6664 8.11979 88.2438 7.83475 87.8793 7.47017C87.5147 7.10559 87.2296 6.683 87.0241 6.20241C86.8187 5.72183 86.7159 5.20644 86.7159 4.65625C86.7159 4.10606 86.8187 3.59067 87.0241 3.11008C87.2296 2.6295 87.5147 2.20691 87.8793 1.84233C88.2438 1.47775 88.6664 1.19271 89.147 0.987216C89.6276 0.781723 90.143 0.678977 90.6932 0.678977C91.2434 0.678977 91.7588 0.781723 92.2393 0.987216C92.7199 1.19271 93.1425 1.47775 93.5071 1.84233C93.8717 2.20691 94.1567 2.6295 94.3622 3.11008C94.5677 3.59067 94.6705 4.10606 94.6705 4.65625C94.6705 5.20644 94.5677 5.72183 94.3622 6.20241C94.1567 6.683 93.8717 7.10559 93.5071 7.47017C93.1425 7.83475 92.7199 8.11979 92.2393 8.32528C91.7588 8.53078 91.2434 8.63352 90.6932 8.63352ZM90.6932 7.67898C91.25 7.67898 91.7571 7.54309 92.2145 7.27131C92.6719 6.99953 93.0365 6.63494 93.3082 6.17756C93.58 5.72017 93.7159 5.21307 93.7159 4.65625C93.7159 4.09943 93.58 3.59233 93.3082 3.13494C93.0365 2.67756 92.6719 2.31297 92.2145 2.04119C91.7571 1.76941 91.25 1.63352 90.6932 1.63352C90.1364 1.63352 89.6293 1.76941 89.1719 2.04119C88.7145 2.31297 88.3499 2.67756 88.0781 3.13494C87.8063 3.59233 87.6705 4.09943 87.6705 4.65625C87.6705 5.21307 87.8063 5.72017 88.0781 6.17756C88.3499 6.63494 88.7145 6.99953 89.1719 7.27131C89.6293 7.54309 90.1364 7.67898 90.6932 7.67898Z" fill="#590180"/>
</svg>
