<svg width="29" height="28" viewBox="0 0 29 28" fill="none" xmlns="http://www.w3.org/2000/svg">
<path d="M27.7411 13.7931C27.7411 21.1728 21.7587 27.1552 14.379 27.1552C6.99937 27.1552 1.01697 21.1728 1.01697 13.7931C1.01697 6.41344 6.99937 0.431035 14.379 0.431035C21.7587 0.431035 27.7411 6.41344 27.7411 13.7931Z" fill="white" stroke="white" stroke-width="0.862069"/>
<path d="M12.0438 18.3907C11.7155 18.3907 11.3912 18.3675 11.0707 18.321C10.7502 18.2745 10.4395 18.2067 10.1386 18.1175C9.83762 18.0284 9.54646 17.918 9.26506 17.7862C8.98366 17.6545 8.7179 17.5033 8.46777 17.3328C8.55376 17.3483 8.64169 17.358 8.73158 17.3619C8.82147 17.3658 8.91722 17.3677 9.01884 17.3677C9.566 17.3677 10.0858 17.2805 10.5782 17.1061C11.0707 16.9318 11.5201 16.6896 11.9266 16.3796C11.4107 16.3718 10.9534 16.2168 10.5548 15.9146C10.1561 15.6123 9.88257 15.2326 9.73405 14.7753C9.8044 14.7908 9.8767 14.8025 9.95096 14.8102C10.0252 14.818 10.1014 14.8218 10.1796 14.8218C10.2812 14.8218 10.3848 14.8141 10.4903 14.7986C10.5958 14.7831 10.6955 14.7637 10.7893 14.7405C10.2578 14.632 9.81417 14.3665 9.45852 13.9441C9.10286 13.5218 8.92504 13.0277 8.92504 12.4619C8.92504 12.4619 8.92504 12.46 8.92504 12.4561C8.92504 12.4523 8.92504 12.4464 8.92504 12.4387C9.08137 12.5239 9.24747 12.5918 9.42334 12.6421C9.59922 12.6925 9.78486 12.7216 9.98027 12.7293C9.65979 12.5201 9.40576 12.2469 9.21816 11.9098C9.03056 11.5726 8.93677 11.2026 8.93677 10.7996C8.93677 10.5826 8.96217 10.3772 9.01298 10.1834C9.06379 9.98969 9.13999 9.80757 9.24161 9.63706C9.53082 9.98582 9.85521 10.3036 10.2148 10.5903C10.5665 10.8771 10.9476 11.1231 11.3579 11.3285C11.7683 11.5339 12.2002 11.6986 12.6535 11.8226C13.1147 11.9466 13.5876 12.0163 14.0722 12.0318C14.0566 11.9543 14.0429 11.871 14.0312 11.7819C14.0195 11.6928 14.0136 11.6017 14.0136 11.5087C14.0136 11.1909 14.0722 10.8926 14.1895 10.6136C14.3145 10.3268 14.4826 10.0788 14.6936 9.86956C14.9047 9.66031 15.1548 9.49369 15.444 9.36969C15.7254 9.25344 16.0264 9.19531 16.3468 9.19531C16.683 9.19531 16.9976 9.26119 17.2907 9.39294C17.5838 9.52469 17.8398 9.70294 18.0587 9.92769C18.3244 9.88119 18.5824 9.8095 18.8325 9.71263C19.0826 9.61575 19.321 9.50144 19.5477 9.36969C19.4539 9.64094 19.3171 9.887 19.1373 10.1079C18.9576 10.3288 18.7504 10.5128 18.5159 10.6601C18.7504 10.6291 18.981 10.5826 19.2077 10.5206C19.4344 10.4586 19.6493 10.3811 19.8526 10.2881C19.6962 10.5206 19.5204 10.7376 19.3249 10.9391C19.1295 11.1406 18.9185 11.3227 18.6918 11.4854C18.6996 11.5319 18.7035 11.5823 18.7035 11.6366C18.7035 11.6908 18.7035 11.7412 18.7035 11.7877C18.7035 12.555 18.5589 13.3299 18.2697 14.1127C17.9805 14.8955 17.5545 15.6046 16.9917 16.2401C16.4289 16.8756 15.7332 17.3948 14.9047 17.7978C14.0761 18.1931 13.1225 18.3907 12.0438 18.3907Z" fill="black"/>
</svg>
