<svg width="43" height="43" viewBox="0 0 43 43" fill="none" xmlns="http://www.w3.org/2000/svg">
<path opacity="0.1" fill-rule="evenodd" clip-rule="evenodd" d="M21.2834 41.2973C32.4112 41.2973 41.4321 32.2764 41.4321 21.1486C41.4321 10.0209 32.4112 1 21.2834 1C10.1556 1 1.13477 10.0209 1.13477 21.1486C1.13477 32.2764 10.1556 41.2973 21.2834 41.2973Z" stroke="black" stroke-width="1.72703"/>
<path d="M27.8696 17.4229C27.776 17.3172 27.6253 17.2906 27.5017 17.3558C27.4248 17.3963 27.2802 17.4495 27.1085 17.502C27.3251 17.2058 27.4992 16.8743 27.5761 16.5762C27.6093 16.4478 27.5607 16.3123 27.4549 16.2358C27.3491 16.1598 27.2082 16.1598 27.1024 16.2358C26.9357 16.3554 26.131 16.7148 25.6222 16.8312C24.4723 15.7953 23.1342 15.6878 21.7432 16.5231C20.6125 17.202 20.3664 18.5828 20.4144 19.4244C17.8262 19.1681 16.2174 17.7621 15.3118 16.5984C15.2484 16.5167 15.1463 16.4737 15.0503 16.48C14.9494 16.4876 14.8584 16.5452 14.8067 16.6344C14.3785 17.378 14.2598 18.2 14.4647 19.0118C14.5766 19.4548 14.7723 19.8452 14.9993 20.1616C14.8904 20.1066 14.7852 20.0376 14.6861 19.9553C14.5951 19.8781 14.4677 19.8636 14.3601 19.9148C14.253 19.9673 14.1847 20.0787 14.1847 20.2008C14.1847 21.5949 15.0325 22.5251 15.8243 23.0111C15.6963 22.9953 15.5628 22.9661 15.4281 22.9237C15.3124 22.8877 15.1869 22.9237 15.1069 23.0174C15.027 23.1104 15.0079 23.2433 15.0577 23.3566C15.5025 24.3684 16.3454 25.0645 17.3881 25.317C16.4776 25.8669 15.2589 26.1364 14.1429 26.0042C13.9983 25.9833 13.8605 26.0776 13.815 26.2206C13.7695 26.3636 13.8291 26.5205 13.9565 26.5939C15.6496 27.5716 17.1802 27.9209 18.5029 27.9209C20.4279 27.9209 21.9137 27.1818 22.818 26.5636C25.2561 24.8993 26.7757 21.9113 26.5641 19.2377C26.9547 18.941 27.5392 18.393 27.9015 17.8038C27.9766 17.6849 27.9631 17.5279 27.8696 17.4229Z" fill="black"/>
</svg>
