<svg width="60" height="60" viewBox="0 0 60 60" fill="none" xmlns="http://www.w3.org/2000/svg">
<g clip-path="url(#clip0_862_28158)">
<mask id="mask0_862_28158" style="mask-type:luminance" maskUnits="userSpaceOnUse" x="0" y="0" width="60" height="60">
<path d="M30 60C46.5685 60 60 46.5685 60 30C60 13.4315 46.5685 0 30 0C13.4315 0 0 13.4315 0 30C0 46.5685 13.4315 60 30 60Z" fill="white"/>
</mask>
<g mask="url(#mask0_862_28158)">
<path d="M0 0L0.9375 2.57812L0 5.27344V7.96875L3.75 14.2969L0 20.625V24.375L3.75 30L0 35.625V39.375L3.75 45.7031L0 52.0312V60L2.57812 59.0625L5.27344 60H7.96875L14.2969 56.25L20.625 60H24.375L30 56.25L35.625 60H39.375L45.7031 56.25L52.0312 60H60L59.0625 57.4219L60 54.7266V52.0312L56.25 45.7031L60 39.375V35.625L56.25 30L60 24.375V20.625L56.25 14.2969L60 7.96875V0L57.4219 0.9375L54.7266 0H52.0312L45.7031 3.75L39.375 0H35.625L30 3.75L24.375 0H20.625L14.2969 3.75L7.96875 0H0Z" fill="#EEEEEE"/>
<path d="M39.375 0V12.6562L52.0312 0H39.375ZM60 7.96875L47.3438 20.625H60V7.96875ZM0 20.625H12.6562L0 7.96875V20.625ZM7.96875 0L20.625 12.6562V0H7.96875ZM20.625 60V47.3438L7.96875 60H20.625ZM0 52.0312L12.6562 39.375H0V52.0312ZM60 39.375H47.3438L60 52.0312V39.375ZM52.0312 60L39.375 47.3438V60H52.0312Z" fill="#0052B4"/>
<path d="M0 0V5.27344L15.3516 20.625H20.625L0 0ZM24.375 0V24.375H0V35.625H24.375V60H35.625V35.625H60V24.375H35.625V0H24.375ZM54.7266 0L39.375 15.3516V20.625L60 0H54.7266ZM20.625 39.375L0 60H5.27344L20.625 44.6484V39.375ZM39.375 39.375L60 60V54.7266L44.6484 39.375H39.375Z" fill="#D80027"/>
</g>
</g>
<defs>
<clipPath id="clip0_862_28158">
<rect width="60" height="60" fill="white"/>
</clipPath>
</defs>
</svg>
