<svg width="22" height="16" viewBox="0 0 22 16" fill="none" xmlns="http://www.w3.org/2000/svg">
<path fill-rule="evenodd" clip-rule="evenodd" d="M0 0H21.3333V16H0V0Z" fill="#E31D1C"/>
<path fill-rule="evenodd" clip-rule="evenodd" d="M0 1.33337V2.66671H21.3333V1.33337H0ZM0 4.00004V5.33337H21.3333V4.00004H0ZM0 8.00004V6.66671H21.3333V8.00004H0ZM0 9.33337V10.6667H21.3333V9.33337H0ZM0 13.3334V12H21.3333V13.3334H0ZM0 16V14.6667H21.3333V16H0Z" fill="#F7FCFF"/>
<rect width="12" height="9.33333" fill="#2E42A5"/>
<path fill-rule="evenodd" clip-rule="evenodd" d="M3.21613 2.07281L2.76066 2.39212L2.91443 1.82387L2.50988 1.46375H3.03828L3.2155 1L3.4233 1.46375H3.87374L3.51982 1.82387L3.65684 2.39212L3.21613 2.07281ZM0.70625 2.07292L0.250774 2.39223L0.404548 1.82398L0 1.46386H0.528394L0.705613 1.00011L0.913417 1.46386H1.36386L1.00994 1.82398L1.14695 2.39223L0.70625 2.07292ZM5.27054 2.39212L5.72602 2.07281L6.16672 2.39212L6.0297 1.82387L6.38363 1.46375H5.93319L5.72538 1L5.54816 1.46375H5.01977L5.42432 1.82387L5.27054 2.39212ZM8.23613 2.07281L7.78065 2.39212L7.93442 1.82387L7.52988 1.46375H8.05827L8.23549 1L8.44329 1.46375H8.89374L8.53981 1.82387L8.67683 2.39212L8.23613 2.07281ZM0.250774 4.90201L0.70625 4.58269L1.14695 4.90201L1.00994 4.33375L1.36386 3.97364H0.913417L0.705613 3.50988L0.528394 3.97364H0L0.404548 4.33375L0.250774 4.90201ZM3.21613 4.58269L2.76066 4.90201L2.91443 4.33375L2.50988 3.97364H3.03828L3.2155 3.50988L3.4233 3.97364H3.87374L3.51982 4.33375L3.65684 4.90201L3.21613 4.58269ZM5.27054 4.90201L5.72602 4.58269L6.16672 4.90201L6.0297 4.33375L6.38363 3.97364H5.93319L5.72538 3.50988L5.54816 3.97364H5.01977L5.42432 4.33375L5.27054 4.90201ZM8.23613 4.58269L7.78065 4.90201L7.93442 4.33375L7.52988 3.97364H8.05827L8.23549 3.50988L8.44329 3.97364H8.89374L8.53981 4.33375L8.67683 4.90201L8.23613 4.58269ZM0.250774 7.41189L0.70625 7.09257L1.14695 7.41189L1.00994 6.84364L1.36386 6.48352H0.913417L0.705613 6.01977L0.528394 6.48352H0L0.404548 6.84364L0.250774 7.41189ZM3.21613 7.09257L2.76066 7.41189L2.91443 6.84364L2.50988 6.48352H3.03828L3.2155 6.01977L3.4233 6.48352H3.87374L3.51982 6.84364L3.65684 7.41189L3.21613 7.09257ZM5.27054 7.41189L5.72602 7.09257L6.16672 7.41189L6.0297 6.84364L6.38363 6.48352H5.93319L5.72538 6.01977L5.54816 6.48352H5.01977L5.42432 6.84364L5.27054 7.41189ZM8.23613 7.09257L7.78065 7.41189L7.93442 6.84364L7.52988 6.48352H8.05827L8.23549 6.01977L8.44329 6.48352H8.89374L8.53981 6.84364L8.67683 7.41189L8.23613 7.09257ZM10.2905 2.39212L10.746 2.07281L11.1867 2.39212L11.0497 1.82387L11.4036 1.46375H10.9532L10.7454 1L10.5682 1.46375H10.0398L10.4443 1.82387L10.2905 2.39212ZM10.746 4.58269L10.2905 4.90201L10.4443 4.33375L10.0398 3.97364H10.5682L10.7454 3.50988L10.9532 3.97364H11.4036L11.0497 4.33375L11.1867 4.90201L10.746 4.58269ZM10.2905 7.41189L10.746 7.09257L11.1867 7.41189L11.0497 6.84364L11.4036 6.48352H10.9532L10.7454 6.01977L10.5682 6.48352H10.0398L10.4443 6.84364L10.2905 7.41189ZM1.96119 3.32797L1.50572 3.64729L1.65949 3.07904L1.25494 2.71892H1.78334L1.96056 2.25517L2.16836 2.71892H2.6188L2.26488 3.07904L2.4019 3.64729L1.96119 3.32797ZM4.0156 3.64729L4.47108 3.32797L4.91178 3.64729L4.77476 3.07904L5.12868 2.71892H4.67824L4.47044 2.25517L4.29322 2.71892H3.76483L4.16937 3.07904L4.0156 3.64729ZM6.98096 3.32797L6.52548 3.64729L6.67926 3.07904L6.27471 2.71892H6.8031L6.98032 2.25517L7.18813 2.71892H7.63857L7.28465 3.07904L7.42166 3.64729L6.98096 3.32797ZM1.50572 6.15717L1.96119 5.83786L2.4019 6.15717L2.26488 5.58892L2.6188 5.2288H2.16836L1.96056 4.76505L1.78334 5.2288H1.25494L1.65949 5.58892L1.50572 6.15717ZM4.47108 5.83786L4.0156 6.15717L4.16937 5.58892L3.76483 5.2288H4.29322L4.47044 4.76505L4.67824 5.2288H5.12868L4.77476 5.58892L4.91178 6.15717L4.47108 5.83786ZM6.52548 6.15717L6.98096 5.83786L7.42166 6.15717L7.28465 5.58892L7.63857 5.2288H7.18813L6.98032 4.76505L6.8031 5.2288H6.27471L6.67926 5.58892L6.52548 6.15717ZM9.49107 3.32797L9.03559 3.64729L9.18937 3.07904L8.78482 2.71892H9.31321L9.49043 2.25517L9.69824 2.71892H10.1487L9.79475 3.07904L9.93177 3.64729L9.49107 3.32797ZM9.03559 6.15717L9.49107 5.83786L9.93177 6.15717L9.79475 5.58892L10.1487 5.2288H9.69824L9.49043 4.76505L9.31321 5.2288H8.78482L9.18937 5.58892L9.03559 6.15717Z" fill="#F7FCFF"/>
</svg>
