<svg width="38" height="38" viewBox="0 0 38 38" fill="none" xmlns="http://www.w3.org/2000/svg">
<circle cx="19" cy="19" r="19" fill="white" fill-opacity="0.1"/>
<path d="M15.4996 10.6001V12.0001M11.9996 15.5001H10.5996M27.3996 15.5001H25.9996M11.9996 19.0001H10.5996M27.3996 19.0001H25.9996M11.9996 22.5001H10.5996M27.3996 22.5001H25.9996M15.4996 26.0001V27.4001M18.9996 10.6001V12.0001M18.9996 26.0001V27.4001M22.4996 10.6001V12.0001M22.4996 26.0001V27.4001M14.0996 26.0001H23.8996C25.0594 26.0001 25.9996 25.0599 25.9996 23.9001V14.1001C25.9996 12.9403 25.0594 12.0001 23.8996 12.0001H14.0996C12.9398 12.0001 11.9996 12.9403 11.9996 14.1001V23.9001C11.9996 25.0599 12.9398 26.0001 14.0996 26.0001ZM14.7996 14.8001H23.1996V23.2001H14.7996V14.8001Z" stroke="#FAAD13" stroke-width="1.5" stroke-linecap="round" stroke-linejoin="round"/>
</svg>
