<svg width="38" height="38" viewBox="0 0 38 38" fill="none" xmlns="http://www.w3.org/2000/svg">
<circle cx="19" cy="19" r="19" fill="white" fill-opacity="0.1"/>
<path d="M21.2398 14.2741C21.2398 13.9711 21.3986 13.6971 21.5822 13.456C21.7706 13.2085 21.8798 12.9148 21.8798 12.6C21.8798 11.7163 21.0202 11 19.9598 11C18.8995 11 18.0399 11.7163 18.0399 12.6C18.0399 12.9148 18.149 13.2085 18.3375 13.456C18.5211 13.6971 18.6799 13.9711 18.6799 14.2741V14.2741C18.6799 14.5824 18.4274 14.8314 18.1192 14.8225C16.9215 14.788 15.7366 14.7021 14.5668 14.5669C14.7258 15.9431 14.8166 17.34 14.8358 18.7543C14.84 19.0666 14.5864 19.3198 14.2741 19.3198V19.3198C13.9711 19.3198 13.6971 19.1611 13.456 18.9775C13.2085 18.789 12.9148 18.6799 12.6 18.6799C11.7163 18.6799 11 19.5394 11 20.5998C11 21.6602 11.7163 22.5198 12.6 22.5198C12.9148 22.5198 13.2085 22.4106 13.456 22.2221C13.6971 22.0385 13.9711 21.8798 14.2741 21.8798V21.8798C14.538 21.8798 14.7474 22.1023 14.7281 22.3654C14.6207 23.8263 14.4367 25.2659 14.18 26.6802C15.4753 26.8424 16.7893 26.9441 18.1193 26.9824C18.4275 26.9913 18.68 26.7423 18.68 26.4339V26.4339C18.68 26.1309 18.5212 25.8569 18.3376 25.6158C18.1491 25.3683 18.04 25.0747 18.04 24.7598C18.04 23.8761 18.8996 23.1598 19.9599 23.1598C21.0203 23.1598 21.8799 23.8761 21.8799 24.7598C21.8799 25.0747 21.7707 25.3683 21.5823 25.6158C21.3987 25.8569 21.2399 26.1309 21.2399 26.4339V26.4339C21.2399 26.718 21.4771 26.9448 21.7607 26.9281C23.3298 26.8359 24.8751 26.6554 26.3918 26.3914C26.6217 25.0703 26.7883 23.7274 26.8884 22.366C26.9078 22.1026 26.6981 21.8798 26.434 21.8798V21.8798C26.1309 21.8798 25.857 22.0386 25.6159 22.2222C25.3683 22.4107 25.0747 22.5198 24.7598 22.5198C23.8762 22.5198 23.1599 21.6602 23.1599 20.5999C23.1599 19.5395 23.8762 18.6799 24.7598 18.6799C25.0747 18.6799 25.3683 18.789 25.6159 18.9775C25.857 19.1611 26.1309 19.3199 26.434 19.3199V19.3199C26.7466 19.3199 27.0004 19.0664 26.9962 18.7539C26.9752 17.2071 26.8685 15.6811 26.6807 14.1803C25.0714 14.4723 23.4294 14.6702 21.7606 14.7683C21.477 14.785 21.2398 14.5582 21.2398 14.2741V14.2741Z" stroke="#FAAD13" stroke-width="1.5" stroke-linecap="round" stroke-linejoin="round"/>
</svg>
