<svg width="38" height="38" viewBox="0 0 38 38" fill="none" xmlns="http://www.w3.org/2000/svg">
<circle cx="19" cy="19" r="19" fill="white" fill-opacity="0.1"/>
<path d="M16.5 19.6248L18.375 21.4998L21.5 17.1248M19 11.2617C17.2079 12.9589 14.788 13.9998 12.125 13.9998C12.0827 13.9998 12.0404 13.9996 11.9982 13.9991C11.6749 14.9825 11.5 16.0333 11.5 17.1249C11.5 21.7845 14.6869 25.6997 19 26.8098C23.3131 25.6997 26.5 21.7845 26.5 17.1249C26.5 16.0333 26.3251 14.9825 26.0018 13.9991C25.9596 13.9996 25.9173 13.9998 25.875 13.9998C23.212 13.9998 20.7921 12.9589 19 11.2617Z" stroke="#FAAD13" stroke-width="1.5" stroke-linecap="round" stroke-linejoin="round"/>
</svg>
