<svg width="38" height="38" viewBox="0 0 38 38" fill="none" xmlns="http://www.w3.org/2000/svg">
<circle cx="19" cy="19" r="19" fill="white" fill-opacity="0.1"/>
<path d="M28 14.5L25.75 13.1875M28 14.5V16.75M28 14.5L25.75 15.8125M10 14.5L12.25 13.1875M10 14.5L12.25 15.8125M10 14.5V16.75M19 19.75L21.25 18.4375M19 19.75L16.75 18.4375M19 19.75V22M19 28.75L21.25 27.4375M19 28.75V26.5M19 28.75L16.75 27.4375M16.75 10.5625L19 9.25L21.25 10.5625M28 21.25V23.5L25.75 24.8125M12.25 24.8125L10 23.5V21.25" stroke="#FAAD13" stroke-width="1.5" stroke-linecap="round" stroke-linejoin="round"/>
</svg>
